<?xml version="1.0" encoding="utf-8"?>
<!-- Generator: Adobe Illustrator 17.0.0, SVG Export Plug-In . SVG Version: 6.00 Build 0)  -->
<!DOCTYPE svg PUBLIC "-//W3C//DTD SVG 1.1//EN" "http://www.w3.org/Graphics/SVG/1.1/DTD/svg11.dtd">
<svg version="1.1" id="Layer_1" xmlns="http://www.w3.org/2000/svg" xmlns:xlink="http://www.w3.org/1999/xlink" x="0px" y="0px"
	 width="63.77px" height="63.86px" viewBox="0 0 63.77 63.86" enable-background="new 0 0 63.77 63.86" xml:space="preserve">
<g>
	<g>
		<path fill="#FEB100" d="M31.37,63.79c-3.68,0.39-7.5-0.76-11.15-2.19c-5.91-2.33-10.74-6.14-14.43-11.43
			c-3-4.3-4.9-8.99-5.53-14.12c-0.6-4.88-0.2-9.73,1.46-14.45c1.56-4.44,3.85-8.42,7.1-11.78C12.26,6.25,16.39,3.66,21,1.83
			c0.87-0.35,2.11,0.4,2.58-0.31c0.67-0.99,1.53-0.75,2.33-0.9c5.06-0.94,10.13-0.89,15.04,0.65c4.53,1.42,8.77,3.5,12.16,6.97
			c0.55,0.56,1.65,0.8,1.42,1.95c0.49,0.07,0.93,0.08,1.34,0.55c2.1,2.37,3.83,5.04,5.11,7.88c1.49,3.32,2.42,6.85,2.68,10.59
			c0.23,3.32,0.14,6.57-0.64,9.74c-1.48,6.05-4.29,11.4-8.87,15.79c-2.33,2.23-4.76,4.3-7.65,5.65C41.86,62.56,36.97,64,31.37,63.79
			z"/>
		<path fill="#2C485E" d="M27.9,10.62c1.13,0.26,2.27-0.01,3.39-0.07c5.6-0.26,10.67,4.56,11.24,9.76c0.29,2.6-0.35,4.85-1.26,7.14
			c0.18,0.71-0.31,1.14-0.69,1.58c-0.94,1.08-1.96,2.08-3.16,2.86c-0.19,0.54,0.26,0.79,0.53,1.1c4.76,5.52,9.59,10.98,14.4,16.46
			c0.45,0.51,0.7,1.08,0.98,1.66c-0.04,0.45,0.62,0.5,0.53,1.22c-1.83-0.95-3.93-1.2-5.34-2.79c-3.39-3.84-6.74-7.71-10.11-11.57
			c-1.19-1.37-2.37-2.76-3.57-4.13c-0.47-0.53-0.92-0.95-1.78-0.83c-5.11,0.73-9.57-1.66-11.91-6.32c-0.14-0.27-0.31-0.53-0.46-0.79
			c-0.47-1.05,0.28-1.27,1.02-1.4c0.62-0.11,1.29,0,1.84-0.42c0.41-0.22,0.82-0.43,1.25-0.6c0.67-0.11,1.21-0.48,1.69-0.92
			c0.76-0.71,1.53-1.39,2.35-2.04c1.46-1.16,1.63-2.75,0.56-4.21c-0.48-0.2-0.51-0.9-1.1-0.98c-0.26-0.01-0.52-0.02-0.78-0.04
			c-1.32-0.07-2.42,0.31-3.03,1.56c-0.6,1.22-0.32,2.36,0.52,3.38c0.27,0.33,0.58,0.65,0.63,1.11c-0.24,1.29-1.35,1.58-2.34,1.96
			c-1.02,0.39-2.08,0.57-3.15,0.12c-0.78-1.1-0.58-2.39-0.38-3.54c0.68-3.94,2.81-6.86,6.49-8.57
			C26.99,11.51,27.15,10.38,27.9,10.62z"/>
		<path fill="#DDDDDD" d="M37.49,46.43c-0.77,1.66-1.08,3.54-2.23,5.03c-1.37,1.76-3.47,1.66-4.96,1.04
			c-4.99-2.08-9.96-4.19-14.97-6.21c-1.69-0.68-3.41-1.36-4.99-2.34c-1.29-0.8-2.01-2.6-1.5-3.99c0.52-1.41,1.04-2.83,1.55-4.25
			c0.08-0.12,0.19-0.2,0.33-0.22c2.18,0.35,4.13,1.37,6.15,2.18c6.31,2.55,12.61,5.13,18.96,7.58C36.5,45.5,37.13,45.76,37.49,46.43
			z"/>
		<path fill="#FEFEFE" d="M37.49,46.43c-5.64-2.25-11.28-4.49-16.91-6.75c-3.32-1.33-6.62-2.71-9.93-4.07
			c-0.25-0.4-0.23-0.74,0.25-0.94c0.37-0.83,0.71-1.67,1.12-2.48c1.01-1.97,3.03-2.74,5.06-1.91c6.33,2.61,12.64,5.26,18.98,7.85
			c2.54,1.04,3.74,2.8,2.5,5.93C38.24,44.87,37.85,45.64,37.49,46.43z"/>
		<path fill="#49749A" d="M37.04,31.61c1.78-1.01,3.06-2.52,4.24-4.15c1.2,1.37,2.94,2.42,2.56,4.68c-0.14,0.86,0.54,1.15,1.27,1.1
			c1.08-0.07,1.51,0.35,1.38,1.43c-0.13,1.12,0.03,2,1.55,1.78c0.71-0.1,0.93,0.53,1.01,1.11c0.06,0.47,0.03,0.96,0.03,1.44
			c0.01,2.21,0.01,2.21,2.14,2.63c0.09,0.02,0.17,0.01,0.26,0.02c2.04,0.28,2.57,0.65,2.81,2.58c0.2,1.6,0.78,3.14,0.64,4.78
			c0.31,0.51,0.23,1.07,0.18,1.62c-0.04,0.44-0.23,0.75-0.76,0.52c-0.07-0.31-0.25-0.48-0.57-0.53c-1.31-0.7-2.12-1.93-3.05-3
			c-2.19-2.54-4.42-5.04-6.63-7.56c-2.2-2.52-4.32-5.11-6.6-7.56C37.28,32.27,37.1,31.97,37.04,31.61z"/>
		<path fill="#483E31" d="M10.91,34.67c-0.08,0.31-0.17,0.63-0.25,0.94c-0.09,0.03-0.17,0.06-0.26,0.09
			c-2.14-5.45-1.94-10.64,1.71-15.45c0.36-0.47,0.5-0.82,0.28-1.49c-1.63-5.06,0.81-9.97,5.89-11.54c3.53-1.09,7.58,0.02,9.62,3.39
			c-0.48,0.36-0.52,1.31-1.45,1.07c-0.51-2.07-2.27-2.75-3.98-3.11c-4.37-0.93-8.04,1.58-8.99,5.91c-0.24,1.11,0.01,2.17,0.27,3.22
			c0.13,0.52,0.49,0.8,1,0.92c0.68,0.16,1.12,0.59,1.05,1.29c-0.14,1.43,0.78,2.02,1.85,2.53c0.67,0.32,1.42,0.43,2.09,0.77
			c1.88,0.81,4.89-0.17,6.25-2.04c1.29-1.54,2.24-3.22,2.17-5.32c-0.01-0.36,0.09-0.69,0.33-0.97c0.81-0.12,0.49,1.09,1.23,1.06
			c0.53,1.96-0.08,3.59-1.43,5.02c-1.04,1.11-1.96,2.36-3.53,2.82c-0.2,0.3-0.42,0.58-0.84,0.52c-1.77,0.45-3.54,0.87-5.32,0.07
			c-1.41-0.27-2.63-0.94-3.66-1.9c-0.6-0.57-0.91-0.41-1.32,0.14C10.92,26.25,9.88,30.22,10.91,34.67z"/>
		<path fill="#FEB101" d="M19.64,23.58c-1.33-0.3-2.61-0.7-3.66-1.64c-0.51-0.46-0.93-0.83-0.58-1.65c0.33-0.76-0.01-1.3-0.92-1.24
			c-0.67,0.05-0.93-0.36-1.11-0.89c-1.25-3.68,0.47-7.8,3.99-9.51c3.02-1.47,6.85-0.73,9.18,1.71c0.52,0.54,0.61,0.92-0.08,1.32
			c-3.66,1.54-7.11,6.13-6.27,11.58C20.22,23.76,19.93,23.68,19.64,23.58z"/>
		<path fill="#EAAB16" d="M9.71,29.31c0.04-3,0.76-5.69,2.48-8.06c0.25-0.34,0.4-1.14,1.13-0.57c0.58,0.45,0.3,0.87-0.07,1.31
			c-1.52,1.81-2.41,3.93-3.05,6.17C10.08,28.53,10.03,28.91,9.71,29.31z"/>
	</g>
</g>
</svg>
