<?xml version="1.0" encoding="utf-8"?>
<!-- Generator: Adobe Illustrator 18.0.0, SVG Export Plug-In . SVG Version: 6.00 Build 0)  -->
<!DOCTYPE svg PUBLIC "-//W3C//DTD SVG 1.1//EN" "http://www.w3.org/Graphics/SVG/1.1/DTD/svg11.dtd">
<svg version="1.1" id="Layer_1" xmlns="http://www.w3.org/2000/svg" xmlns:xlink="http://www.w3.org/1999/xlink" x="0px" y="0px"
	 viewBox="-2519.2 -1764.9 482.6 355.4" enable-background="new -2519.2 -1764.9 482.6 355.4" xml:space="preserve">
<g>
	<path fill="#8C8949" d="M-2379.3-1744.9c11.6,3.1,23.2,6.2,34.9,9.4c2.6,1.1,5.5,1.6,8.2,2.7c11.3,3,22.6,5.9,33.9,8.9
		c4.3,1.1,8.6,2.3,12.9,3.4c2.6,1.4,5.6,1.5,8.2,2.6c7.2,1.8,14.6,3.2,21.6,5.7c4.7,1.7,8.5,2,12.1-1.7c1.1-0.9,1.9-2.2,3.2-2.8
		c12.4-8.7,26.2-13.8,41.3-15.2c2.3-0.6,4.6-0.2,7-0.3c3.8-0.3,5.6,1.9,4.6,5.2c-2.2,7.1-1,14-0.5,21.1c0.4,6.1,0,12.3,0.1,18.5
		c0.2,6.5,2.6,8.7,9,9.7c19.6,3,39.2,1,58.9,1.6c2.3,0.1,4.7-0.5,6.6,1.5c3.3,7.8,4.1,16.1,4.1,24.4c0,5.3-2.2,7.4-7.6,7.7
		c-1.3,0.1-2.7,0.2-4,0c-3.8-0.5-4.7,1.3-4.8,4.9c-0.1,3.9,1.7,4.2,4.8,4.2c14.7-0.1,29.3,0,44-0.1c3.9,0,5.4,1.5,5.4,5.3
		c0,28,0,56,0,84c0,1,0.1,2-0.8,2.8c-2.5-0.8-2.4-3-2.5-5c-0.2-4.5-0.3-9,0.1-13.5c0.1-0.4,0.3-0.8,0.4-1.3c-0.4,0.8-1,1.2-1.8,1.5
		c-2.6,0.6-5.3,0.5-8,0.5c-115.2,0-230.5,0-345.7,0c-3.7,0-7.8,1-10.8-2.4c-1.5-8.2,1-15.7,4.4-22.9c6.3-13.2,15.5-23.9,27.6-32.1
		c1,0.1,1.5-0.4,1.9-1.2c9-6.7,19.1-10.7,30-12.9c2.5-1.5,5.5-1,8.2-1.7c4.1-0.8,8.2-0.9,12.4-0.9c30.1,0,60.2,0,90.3,0
		c2.9,0,5.5,0.4,5.5-4.1c0-4.2-1.7-5-5.3-5c-7.6,0-9.6-2-9.3-9.4c0.4-12.6,3.3-24.6,9.5-35.7c0.8-1,1-2,0-3
		c-10.3-2.8-20.6-5.5-30.9-8.3c-2.6-1.4-5.6-1.5-8.2-2.6c-17.3-4.7-34.5-9.4-51.8-14c-4-1.1-8-2.1-12-3.1c-2.3-0.8-4.8-0.9-7-1.9
		c-2.7-0.7-5.3-1.4-8-2.1c-2-0.7-4.2-0.7-6.1-1.9c-1.6-0.4-3.3-0.8-4.9-1.3c-1.6-0.9-3.5-1.1-5.2-1.7c-8-2.2-16-4.3-24-6.5
		c-1.6-0.4-3.1-1.2-4.9-0.7c-2-1.6-1.3-3.7-0.8-5.5c1.7-5.9,3.9-11.7,5.5-17.6c0.4-1.6,0.9-3.3,3.3-2.8c-0.6,2.4,0.6,3.7,2.8,4.2
		c2.7,0.7,5.4,1.3,8.1,1.9c1.9,1,4.1,1,6,1.8c2.7,0.7,5.3,1.4,8,2.1c1.7,0.5,3.4,1.2,5.2,1.7c3.3,0.8,6.5,1.5,9.8,2.3
		C-2382.8-1746-2381-1745.8-2379.3-1744.9z"/>
	<path fill="#8B8845" d="M-2106.2-1539.6c-1.5,11.6-1.5,11.7,9.9,11.6c6.4,0,12.6,0.7,18.8,2.3c1.4,0.6,2.8,1,4.1,1.8
		c14.5,6.5,25.5,16.5,32,31.2c1.3,2.3,2,4.7,2.9,7.1c2.1,9.9,3,20,0.6,29.7c-5.5,22.8-19.8,37.7-42.4,44.4
		c-4.3,1.3-8.7,1.9-13.3,1.9c-122.9,0-245.9,0.1-368.8-0.1c-17.6,0-32.2-7.7-43.2-21.8c-0.8-1.2-2.2-1.9-2.8-3.3
		c-19.8-30-11.5-67.2,19.1-85.7c1-1.2,2.8-1.1,3.9-2.2c10.9-5,22.4-5.4,34.2-5.3c22.8,0.2,45.6,0,68.5,0.2c4.5,0,5.7-1.4,5.7-5.7
		c0-4.1-0.8-6-5.5-5.9c-13.8,0.1-27.6,0.6-41.4-0.3c-2-0.1-4-0.2-5.5-1.8c0.8-1.9,2.4-2.2,4.1-2.1c14.6,1.2,29.3,0.2,43.9,0.7
		c2.4,0.1,5.1-0.2,6.5,2.7c0.6,3,0.7,6.3,3.7,8.2c6.3,1.8,12.7,2.9,19.2,2.9c73.2,0.1,146.3,0.1,219.5,0c6.4,0,12.9-1.1,19.1-2.9
		c2.9-1.6,2.8-5,4.3-7.4C-2108.2-1540.4-2107.2-1540.6-2106.2-1539.6z"/>
	<path fill="#7D7A3D" d="M-2106.2-1539.6c-0.8,0.3-1.5,0.6-2.3,0.8c-1.2,1.6-2.8,2.2-4.8,2.3c-1.5,0.1-3,0.2-4.5,0.2
		c-83.1,0-166.1,0-249.2,0c-3.2,0-6.8,0.8-9.2-2.4c-1.5-2.4-4-2-6.3-2c-10.1,0-20.2-0.2-30.3,0c-5.7,0.1-11.2-0.7-16.8-1
		c-9.8-1.4-15.4-8.9-15-20.1c122,0,244.1,0,366.1,0c0.4-0.7,0.7-0.7,1,0c2,6.6,0.3,13.5,1.1,20.2c-0.6,2.6-2.8,2-4.4,2
		C-2089.2-1539.5-2097.7-1539.5-2106.2-1539.6z"/>
	<path fill="#747241" d="M-2424.3-1761c-2.2,8.8-4.9,17.4-7.9,26c-1.9,6.5-2.6,6.8-8.6,2.7c-6.2-4.3-9.1-14.3-6.1-21.4
		c3.2-7.6,11.5-12.2,19.3-10.8C-2425.5-1764.2-2423.3-1764.1-2424.3-1761z"/>
	<path fill="#747240" d="M-2263.3-1633.9c0-2.9,0-5.7-0.1-8.6c1.6-1.4,3.5-0.7,5.3-0.7c39.6,0,79.3,0,118.9,0c9.3,0,9.3,0,7.7,9.5
		l0,0c-2.3,3-5.7,2.4-8.8,2.4c-20.2,0.1-40.3,0-60.5,0c-18.2,0-36.3,0.1-54.5-0.1C-2258.1-1631.3-2261.3-1630.8-2263.3-1633.9z"/>
	<path fill="#73723F" d="M-2349.5-1588.7c-1,1.6-2,3.3-2.9,4.9c-3,2.6-5.5,1.1-8-1c0-0.3,0-0.6,0-0.9c-3-3.9-2.9-4.8,1.1-9
		c1-2.7,2-5.3,3-8c2-2.7,1.4-6.6,4-9c0-0.6,0-1.3,0.1-1.9c1.7-2.9,3.8-4.1,6.9-2c3.4,2.1,3.1,5.5,3,8.9
		C-2343.6-1600.3-2346.8-1594.6-2349.5-1588.7z"/>
	<path fill="#73723F" d="M-2285.4-1598.7c0.7-1.7,1.3-3.3,2-5c1-2.3,1.2-5,3-7c0-0.7,0-1.3,0.1-2c2.3-4,4.6-4.5,9-2
		c2.1,2.8,1.2,5.9,1,8.9c-0.8,2.1-0.9,4.5-2.9,6c-0.3,1.3-0.7,2.7-1,4c-2.7,2.7-0.5,6.9-3.2,9.9c-2.7,3.1-5.2,4.1-8.8,2.1l0,0
		c-3.7-3.5-3.8-4.7-1-9l0,0C-2286.3-1594.6-2286.2-1596.8-2285.4-1598.7z"/>
	<path fill="#73713F" d="M-2326.4-1587.7c-0.8,1.5-1.6,3.1-3.1,4.1c-2.1,1-4.5,2.2-6.3,0.2c-2.1-2.4-1.4-5.4-0.7-8.3l0,0
		c0.8-0.9,1-2.2,1.9-3c0.4-1.7,0.7-3.3,1.1-5c1.1-1.1,1.3-2.7,2-4c0-1.4,0.2-2.8,1-4c0.3-2.9,1.4-5.4,4-7l0,0c2.4-2,4.7-2.1,7,0.1
		c0.3,0.3,0.6,0.6,0.9,1c3.5,4.4,0.4,7.6-2,11c-1.9,3.4-2.8,7.2-3.9,11C-2325.1-1590.4-2325.3-1588.9-2326.4-1587.7z"/>
	<path fill="#74723F" d="M-2294.5-1613.7c0.3,1.6,0.7,3.3,1,4.9c-1.8,1.6-0.9,4.6-2.9,6c-0.4,1-0.7,2-1.1,3c-1.1,2.3-1,5.1-2.9,7
		c-0.9,3.2-2,6.3-4.1,9c-3.3,1.8-6.1,1.9-8-2l0,0c-1.1-3.7-0.2-6.9,2-10c0-0.3,0-0.7,0-1c1.8-3.1,0.9-7.4,4-10l0,0
		c1.4-1.4,1.3-3.4,2-5c0.5-2.2,2.3-3.1,4-4C-2297.8-1616.8-2295.9-1615.8-2294.5-1613.7z"/>
	<path fill="#737140" d="M-2220.8-1432.7c-22.6,1.6-39.8-18.7-39.3-37.8c0.6-23.8,15.3-39.7,39.8-39.7c22-0.1,38.2,16.2,38.5,39.5
		C-2181.5-1450.3-2199.8-1431-2220.8-1432.7z"/>
	<path fill="#73713F" d="M-2449.1-1432.7c-19.7,2.1-39.1-18.1-38.6-38.5c0.6-22.4,17.1-38.7,38-39.2c22.3-0.6,40.1,17.5,40.2,39.2
		C-2409.3-1451-2427-1430.9-2449.1-1432.7z"/>
	<path fill="#737140" d="M-2107-1432.7c-21.5,1.7-39.8-17.8-39.2-39.6c0.6-20.9,15.8-38,39.6-38c21.9,0,37.4,16.9,38.5,36.5
		C-2066.8-1449.1-2086.6-1431.1-2107-1432.7z"/>
	<path fill="#737140" d="M-2335-1432.7c-20.3,1.8-40-17.4-38.7-40.8c1.1-19.7,16.7-37,39.2-36.9c22.4,0.2,38.7,16.9,38.8,39.9
		C-2295.6-1448.8-2314.7-1431-2335-1432.7z"/>
	<path fill="#74723F" d="M-2376.1-1538.7c89.2,0,178.4,0,267.7-0.1c0,3.3,0,6.7,0,10c-1.7,0.9-3.6,0.5-5.4,0.5
		c-85.6,0-171.2,0-256.8,0c-1.8,0-3.7,0.5-5.4-0.5C-2376.1-1532.1-2376.1-1535.4-2376.1-1538.7z"/>
	<path fill="#9A9792" d="M-2219.6-1447.8c-15.6-1.7-24.4-11-23.9-25.3c0.4-12.3,10.6-21.8,23.4-21.7c12.8,0.1,22.3,9.3,22.8,21.7
		c0.4,10.5-3.8,17.9-13.2,22.6C-2213.3-1448.9-2216.4-1448.4-2219.6-1447.8z"/>
	<path fill="#9A9792" d="M-2448.1-1494.8c13.2,0.1,23.1,10,23.1,23c0,13.2-10.6,24.4-23.7,23.7c-12.1-0.6-23.2-9.7-22.8-24.1
		C-2471.2-1485-2461.2-1494.9-2448.1-1494.8z"/>
	<path fill="#9A9792" d="M-2116.5-1450.6c-9.1-4.9-13.6-12.3-13-22.8c0.5-9.3,5.3-15.8,13.5-19.4c9.4-4.1,18.4-2.5,26,4.3
		c11.6,10.3,7.9,31.7-6.3,37.8c-3.5,1.5-7.2,2.7-11.1,2.8C-2110.4-1448.6-2113.7-1448.8-2116.5-1450.6z"/>
	<path fill="#9A9792" d="M-2344.5-1450.6c-8.9-4.8-13.4-12-13-22.3c0.4-9.3,5.1-15.9,13.1-19.7c8.8-4.1,17.6-3,25.3,3.2
		c12.9,10.3,9.6,32.6-5.7,39c-3.4,1.4-6.9,2.5-10.6,2.6C-2338.4-1448.6-2341.7-1448.8-2344.5-1450.6z"/>
	<path fill="#ABD7D9" d="M-2194.2-1732.1v56.7h74.2C-2120-1675.4-2129.2-1732.1-2194.2-1732.1z"/>
</g>
</svg>
