<?xml version="1.0" encoding="utf-8"?>
<!-- Generator: Adobe Illustrator 18.0.0, SVG Export Plug-In . SVG Version: 6.00 Build 0)  -->
<!DOCTYPE svg PUBLIC "-//W3C//DTD SVG 1.1//EN" "http://www.w3.org/Graphics/SVG/1.1/DTD/svg11.dtd">
<svg version="1.1" id="Layer_1" xmlns="http://www.w3.org/2000/svg" xmlns:xlink="http://www.w3.org/1999/xlink" x="0px" y="0px"
	 viewBox="-2431.8 -1664.7 168.3 168.6" enable-background="new -2431.8 -1664.7 168.3 168.6" xml:space="preserve">
<g>
	<path fill="#1F2740" d="M-2307.6-1496.1h-80.3c-24.2,0-44-19.8-44-44v-80.3c0-24.2,19.8-44,44-44h80.3c24.2,0,44,19.8,44,44v80.3
		C-2263.6-1515.9-2283.4-1496.1-2307.6-1496.1z"/>
	<polygon fill="#F3F3F5" points="-2393.6,-1664.3 -2393.6,-1631 -2402.6,-1614.7 -2398.1,-1610.3 -2387.4,-1628.5 -2387.4,-1664.3 	
		"/>
	<polygon fill="#F3F3F5" points="-2350.4,-1664.3 -2350.4,-1619.4 -2316.4,-1601.3 -2316.4,-1570 -2309.6,-1570 -2309.6,-1604.2 
		-2344.7,-1622.5 -2344.7,-1664.3 	"/>
	<polygon fill="#F3F3F5" points="-2318.4,-1664.7 -2318.4,-1626.2 -2263.6,-1596.7 -2263.6,-1605.2 -2310.6,-1628.8 
		-2310.6,-1664.3 -2310.6,-1664.7 	"/>
	<rect x="-2342.4" y="-1570" fill="#F3F3F5" width="7" height="73.9"/>
	<polygon fill="#F3F3F5" points="-2318.4,-1496.1 -2318.4,-1533 -2287.9,-1556 -2287.9,-1570 -2282,-1570 -2282,-1552.7 
		-2313.3,-1530 -2313.3,-1496.1 	"/>
	<polygon fill="#F3F3F5" points="-2368.6,-1496.1 -2368.6,-1554.2 -2379.6,-1574.1 -2372.9,-1591.2 -2368.6,-1589.2 
		-2374.1,-1574.1 -2364.1,-1556 -2364.1,-1496.1 	"/>
	<polygon fill="#F3F3F5" points="-2393.9,-1496.5 -2393.9,-1549.7 -2403.9,-1565.7 -2398.9,-1570 -2387.4,-1551.7 -2387.4,-1496.1 	
		"/>
	<circle fill="none" stroke="#F3F3F5" stroke-width="5" stroke-miterlimit="10" cx="-2403.9" cy="-1608" r="8.1"/>
	<circle fill="none" stroke="#F3F3F5" stroke-width="5" stroke-miterlimit="10" cx="-2404.9" cy="-1572.1" r="8.1"/>
	<circle fill="none" stroke="#F3F3F5" stroke-width="5" stroke-miterlimit="10" cx="-2368.5" cy="-1595.8" r="8.1"/>
	<circle fill="none" stroke="#F3F3F5" stroke-width="5" stroke-miterlimit="10" cx="-2338.9" cy="-1576.5" r="8.1"/>
	<circle fill="none" stroke="#F3F3F5" stroke-width="5" stroke-miterlimit="10" cx="-2313.3" cy="-1563.9" r="8.1"/>
	<circle fill="none" stroke="#F3F3F5" stroke-width="5" stroke-miterlimit="10" cx="-2284.7" cy="-1576.5" r="8.1"/>
</g>
</svg>
