<?xml version="1.0" encoding="utf-8"?>
<!-- Generator: Adobe Illustrator 17.0.0, SVG Export Plug-In . SVG Version: 6.00 Build 0)  -->
<!DOCTYPE svg PUBLIC "-//W3C//DTD SVG 1.1//EN" "http://www.w3.org/Graphics/SVG/1.1/DTD/svg11.dtd">
<svg version="1.1" id="Layer_1" xmlns="http://www.w3.org/2000/svg" xmlns:xlink="http://www.w3.org/1999/xlink" x="0px" y="0px"
	 width="179.24px" height="179.24px" viewBox="0 0 179.24 179.24" enable-background="new 0 0 179.24 179.24" xml:space="preserve">
<circle fill="#B8CF00" cx="89.62" cy="89.62" r="89.62"/>
<path fill="#899A00" d="M118.11,174.12l46.88-37.25L61.52,32.61c0,0-27.53,50.51,2.97,77.76c5.25,11.75,21.94,32.17,21.94,32.17
	l31.5,31.39L118.11,174.12z"/>
<path fill="#FFFFFF" d="M62.57,34.62l9.67,16.33c0,0,5.17,2.67-6.67,9.83c-10.33,5.67-4.5,14.67-1.17,26.67
	c4.33,11.67,19,29.17,24.33,31.83c5.33,2.67,3.83,6,18.67-2c6.5-3.17,7.5,2.67,10.67,8c4.83,10,13.33,12.83,4,17
	c-3.17,2.67-8.67,5-8.67,5s-7,1.29-16.96,0.25s-52.04-35.08-58.38-89.42c-0.67-6.33,5.58-15.5,5.58-15.5s1.75-4.58,11.92-10
	C61.24,29.04,62.57,34.62,62.57,34.62z"/>
<path fill="#899A00" d="M118.17,174.6c0,0-0.05-0.01,0.32-0.08c3.82-0.79,26.92-6.82,46.99-37.15c0,0-6.02-6.47-13.77-4.49
	c-8.06,2.05-23.44,12.76-30.58,24.24C116.64,164.32,118.17,174.6,118.17,174.6z"/>
</svg>
