<?xml version="1.0" encoding="utf-8"?>
<!-- Generator: Adobe Illustrator 17.0.0, SVG Export Plug-In . SVG Version: 6.00 Build 0)  -->
<!DOCTYPE svg PUBLIC "-//W3C//DTD SVG 1.1//EN" "http://www.w3.org/Graphics/SVG/1.1/DTD/svg11.dtd">
<svg version="1.1" id="Layer_1" xmlns="http://www.w3.org/2000/svg" xmlns:xlink="http://www.w3.org/1999/xlink" x="0px" y="0px"
	 width="89.87px" height="74.5px" viewBox="0 0 89.87 74.5" enable-background="new 0 0 89.87 74.5" xml:space="preserve">
<path fill="#465353" d="M4.51,0h80.25c0,0,4.75-0.25,5,5.5s0,52,0,52s-0.25,4-4.5,4s-80.75,0-80.75,0s-4.75,0.5-4.5-5.25
	S0,5.75,0,5.75S-0.24,0,4.51,0z"/>
<path fill="#EEF1F6" d="M4.51,46.75h80.25c0,0,4.75-0.06,5,1.32c0.25,1.38,0,12.48,0,12.48s-0.25,0.96-4.5,0.96s-80.75,0-80.75,0
	s-4.75,0.12-4.5-1.26S0,48.13,0,48.13S-0.24,46.75,4.51,46.75z"/>
<path fill="#EB7964" d="M9.78,6.16h69.8c0,0,4.13-0.17,4.35,3.76c0.22,3.94,0,35.59,0,35.59s-0.22,2.74-3.91,2.74
	c-3.7,0-70.23,0-70.23,0s-4.13,0.34-3.91-3.59S5.85,10.1,5.85,10.1S5.64,6.16,9.78,6.16z"/>
<polygon fill="#465353" points="0,44.75 89.83,44.75 89.51,50.75 0.1,50.75 "/>
<text transform="matrix(1 0 0 1 27.5116 35.2516)" fill="#F7F9F9" font-family="'Impact'" font-size="24">&lt;/&gt;</text>
<rect x="32.69" y="61.5" fill="#CCCDCB" width="24.5" height="10.5"/>
<rect x="26.51" y="72" fill="#EEF1F6" width="37.25" height="2.5"/>
<circle fill="#5D5D5D" cx="45.14" cy="56.75" r="3.33"/>
</svg>
