<?xml version="1.0" encoding="utf-8"?>
<!-- Generator: Adobe Illustrator 17.0.0, SVG Export Plug-In . SVG Version: 6.00 Build 0)  -->
<!DOCTYPE svg PUBLIC "-//W3C//DTD SVG 1.1//EN" "http://www.w3.org/Graphics/SVG/1.1/DTD/svg11.dtd">
<svg version="1.1" id="Layer_1" xmlns="http://www.w3.org/2000/svg" xmlns:xlink="http://www.w3.org/1999/xlink" x="0px" y="0px"
	 width="322.67px" height="244.04px" viewBox="0 0 322.67 244.04" enable-background="new 0 0 322.67 244.04" xml:space="preserve">
<g>
	<path fill="#022F9A" d="M115.12,36.12c10.64,0,21.29,0.06,31.93-0.03c3.83-0.03,3.12,2.61,3.13,4.83
		c0.04,24.5-0.46,49.01,0.35,73.48c0.31,9.37-2.91,15.53-10.05,20.53c-2.86,2.01-5.61,4.19-8.57,6.03
		c-11.79,7.35-23.61,10.5-37.71,4.93c-14.34-5.66-29.5-9.43-44.52-13.13c-7.53-1.85-12.92-5.64-17.08-11.76
		c-15.94-23.38-19.53-48.54-8-74.44C36.15,20.64,56.79,5.69,85.26,1.96c4.1-0.54,5.27,0.6,5.08,4.64
		c-0.3,6.32-0.34,12.68,0.02,18.99c0.25,4.43-0.9,6.25-5.65,7.14c-18.44,3.42-33.03,18.48-35.69,36
		c-2.98,19.68,5.48,37.63,22.17,47.01c21.24,11.95,48.09,4.88,60.7-15.97c12.37-20.47,6.07-47.57-14.15-60.83
		c-0.93-0.61-1.88-1.2-2.82-1.8C114.99,36.8,115.06,36.46,115.12,36.12z"/>
	<path fill="#022F99" d="M155.86,91.36c-0.01-18.16-0.12-36.32,0.08-54.48c0.05-4.77-1.6-6.52-6.36-6.47
		c-16.16,0.16-32.32-0.04-48.48,0.12c-3.8,0.04-5.38-0.84-5.16-5c0.36-6.98,0.24-13.99,0.07-20.98c-0.07-3.09,0.65-4.45,4.11-4.44
		c47.49,0.09,94.97,0.08,142.46,0.01c3.06,0,4.07,1.03,3.99,4.04c-0.17,6.99-0.31,14.01,0.01,20.99c0.19,4.11-0.98,5.47-5.23,5.41
		c-15.83-0.23-31.66-0.12-47.48-0.09c-6.87,0.01-7.29,0.45-7.3,7.46c-0.02,14.83-0.1,29.66,0.04,44.49
		c0.03,3.72-0.88,6.41-3.72,9.15c-10.94,10.58-10.55,27,0.69,37.22c2.19,1.99,3.23,3.93,3.03,6.88c-0.24,3.65-0.21,7.33-0.04,10.99
		c0.14,3.04-1,4.09-4.04,4.02c-7.33-0.17-14.67-0.26-21.99,0.02c-3.81,0.14-4.77-1.17-4.73-4.84
		C155.96,127.68,155.86,109.52,155.86,91.36z"/>
	<path fill="#042F99" d="M267.53,156.8c-10.88,1.88-21.63,3.73-32.39,5.59c-24.12,4.16-48.25,8.23-72.33,12.54
		c-4.55,0.82-8.75,0.76-13.19-0.61c-38.2-11.75-76.88-21.89-114.9-34.24c-2.85-0.93-5.62-2.09-8.49-2.96
		c-6.17-1.87-12.1,0.89-14.38,6.58c-2.17,5.43,0.12,11.42,5.95,14.14c15.7,7.31,31.52,14.37,47.27,21.57
		c5,2.28,9.81,5.04,14.94,6.95c4.92,1.83,6.85,4.71,5.4,10.03c-4.59-0.94-8.55-3.46-12.71-5.36c-18.18-8.29-36.27-16.79-54.44-25.12
		c-12.02-5.52-16.8-14.87-12.6-25.01c3.59-8.67,12.19-12.88,21.18-10.25c38.99,11.43,78.05,22.61,116.88,34.55
		c9.73,2.99,18.85,2.64,28.46,0.88c20.48-3.74,41.01-7.18,61.52-10.73c2.01-0.35,4.43-0.56,4.79-2.84c0.4-2.49-2.22-2.97-3.93-3.77
		c-13.42-6.29-26.85-12.56-40.32-18.74c-6.3-2.89-11.47-6.8-13.45-13.81c-2.21-7.79-1.02-14.87,4.73-20.84
		c5.8-6.01,12.63-8.27,20.89-5.83c36.41,10.74,72.84,21.44,109.3,32.03c3.16,0.92,4.15,2.41,4.14,5.62
		c-0.1,34.16-0.12,68.32,0.01,102.49c0.01,3.86-1.34,4.69-4.95,4.69c-48.33-0.06-96.65,0.01-144.98,0.08
		c-3.09,0-5.83-1.06-8.69-1.99c-3.71-1.2-4.7-3.55-4.42-7.15c0.15-1.98,0.57-3.11,2.52-1.87c7.91,5.03,16.73,3.61,25.3,3.63
		c39.83,0.07,79.66,0.05,119.48,0.03c7.75,0,7.88-0.15,7.88-7.84c0.02-27.66-0.05-55.33,0.11-82.99c0.03-4.39-1.44-6.52-5.74-7.81
		c-31.25-9.41-62.89-17.51-93.75-28.2c-2.2-0.76-4.36-1.65-6.57-2.39c-7.03-2.35-14.06,0.64-16.6,7.02
		c-2.64,6.64-0.01,13.35,6.93,16.59c11.92,5.56,23.97,10.83,35.93,16.31c10.74,4.93,21.74,9.36,31.78,15.7
		C265.31,154.21,266.79,154.74,267.53,156.8z"/>
	<path fill="#032F9A" d="M29.65,126.53c-11.73-3.61-19.89,0.52-27.37,9.61c0-4.59,0-7.66,0-10.73c0-39.8,0.09-79.6-0.11-119.39
		C2.14,1.07,3.61-0.25,8.34,0.04c6.64,0.39,13.32,0.24,19.97,0.01c3.55-0.13,4.89,1.18,4.45,4.61c-0.08,0.65-0.06,1.34,0,2
		c0.96,10.03-1.53,18.42-7.54,27.18C7.05,60.34,8.47,95.93,27.16,123.08C27.69,123.85,28.26,124.61,29.65,126.53z"/>
	<path fill="#022F9A" d="M307.59,62.11c-0.17,0-0.34-0.01-0.5,0.01c-9.12,1.14-15.57-0.27-20.14-10.48
		c-5.49-12.28-17.32-18.53-30.68-20.68c-3.38-0.55-4.41-1.74-4.29-5.08c0.24-6.99,0.23-14,0-20.98c-0.11-3.5,0.92-4.65,4.53-4.4
		c30.54,2.13,59.45,27.44,65.93,57.65c0.74,3.46-0.37,4.1-3.37,3.99C315.25,62.01,311.42,62.11,307.59,62.11z"/>
	<path fill="#033099" d="M226.21,36.18c-3.47,2.92-6.41,5.02-8.9,7.56c-9.92,10.15-13.96,22.47-12.62,36.5
		c0.27,2.82,0.04,4.23-3.16,3.62c-2.98-0.57-6.72,2.12-8.65,0.21c-2.29-2.25-0.8-6.34-0.84-9.62c-0.12-11.33-0.07-22.66-0.05-33.99
		c0-1.74-0.56-4.19,2.16-4.22C204.56,36.09,214.97,36.18,226.21,36.18z"/>
	<path fill="#022F9C" d="M306.61,91.27c4.17,0.01,8.34,0.11,12.5-0.03c2.88-0.1,3.34,0.98,2.64,3.6c-1.74,6.49-4.4,12.54-7.71,18.36
		c-1.13,1.98-2.47,2.34-4.54,1.72c-8.3-2.48-16.61-4.93-24.95-7.27c-2.54-0.71-2.34-1.76-0.93-3.41c2.72-3.18,5.1-6.6,6.64-10.52
		c0.82-2.07,2.36-2.52,4.36-2.49C298.61,91.31,302.61,91.26,306.61,91.27z"/>
	<path fill="#05328E" d="M17.53,171.48c9.97,0.04,17.62,7.81,17.54,17.82c-0.08,9.83-7.61,17.27-17.47,17.25
		c-10.08-0.02-17.7-7.68-17.6-17.7C0.1,179.24,7.98,171.44,17.53,171.48z"/>
	<path fill="#06328D" d="M66.31,226.39c-0.05,9.63-7.91,17.23-17.74,17.13c-9.42-0.09-17.32-7.98-17.22-17.18
		c0.11-10.09,7.87-17.84,17.76-17.71C58.72,208.76,66.36,216.65,66.31,226.39z"/>
	<path fill="#05328D" d="M136.35,244.03c-9.64-0.22-17.27-8.1-17.14-17.69c0.13-9.35,8.36-17.14,17.94-16.96
		c9.53,0.17,17.23,8.17,17.1,17.78C154.14,236.67,146.09,244.25,136.35,244.03z"/>
	<path fill="#05318C" d="M123.11,192.21c-0.03,9.5-7.91,17.18-17.62,17.19c-9.12,0.01-17.22-7.97-17.35-17.1
		c-0.14-9.6,8.16-17.88,17.76-17.73C115.54,174.74,123.14,182.52,123.11,192.21z"/>
	<path fill="#083590" d="M90.2,205.34c0.04,1.16-0.69,1.61-1.38,2.05c-6.04,3.8-12.09,7.58-18.14,11.37
		c-1.2,0.75-2.42,1.43-3.28-0.36c-0.71-1.49,0-2.52,1.28-3.31c5.93-3.66,11.87-7.31,17.78-11C88.41,202.86,89.49,203.62,90.2,205.34
		z"/>
	<path fill="#114090" d="M37.23,208.83c-0.31,1.51-1.49,2.44-2.46,2.05c-2.31-0.91-4.18-2.74-4.86-5.11
		c-0.33-1.18,1.26-2.71,2.58-2.11C34.72,204.67,36.13,206.77,37.23,208.83z"/>
	<path fill="#134487" d="M120.75,206.05c1.77,0.86,3.3,2.2,3.72,4.11c0.2,0.9-1.15,2.3-2.28,2.06c-1.98-0.42-3.39-2.02-3.76-3.95
		C118.23,207.18,119.48,206.38,120.75,206.05z"/>
	<path fill="#95CDF0" d="M30.73,189.24c-0.05,7.14-6.36,13.17-13.61,13.01c-6.92-0.15-12.79-6.29-12.77-13.36
		c0.02-7.24,6.09-13.03,13.6-12.96C24.83,175.99,30.78,182.19,30.73,189.24z"/>
	<path fill="#96CCF2" d="M62.06,226.02c0.03,7.41-5.87,13.3-13.27,13.25c-7.26-0.05-13.37-6.16-13.33-13.34
		c0.04-6.8,6.34-13.09,13.15-13.14C55.93,212.75,62.03,218.74,62.06,226.02z"/>
	<path fill="#96CDEF" d="M136.69,213.55c7.25-0.05,13.22,5.63,13.37,12.71c0.15,7.18-6.1,13.85-12.95,13.83
		c-7.67-0.02-13.43-5.84-13.55-13.69C123.45,219.49,129.48,213.59,136.69,213.55z"/>
	<path fill="#96CCF1" d="M106.02,205.17c-7.47,0.05-13.69-5.85-13.74-13.01c-0.04-7.2,6.2-13.57,13.29-13.56
		c7.3,0.01,13.25,5.98,13.34,13.4C119.01,199.11,113.12,205.13,106.02,205.17z"/>
</g>
</svg>
