<?xml version="1.0" encoding="utf-8"?>
<!-- Generator: Adobe Illustrator 17.0.0, SVG Export Plug-In . SVG Version: 6.00 Build 0)  -->
<!DOCTYPE svg PUBLIC "-//W3C//DTD SVG 1.1//EN" "http://www.w3.org/Graphics/SVG/1.1/DTD/svg11.dtd">
<svg version="1.1" xmlns="http://www.w3.org/2000/svg" xmlns:xlink="http://www.w3.org/1999/xlink" x="0px" y="0px" width="1092px"
	 height="745.6px" viewBox="0 0 1092 745.6" enable-background="new 0 0 1092 745.6" xml:space="preserve">
<g id="Layer_2">
	<polygon fill="#FFFFFF" points="498,229.6 697,291.6 827,259.43 1092,656.6 851,745.6 546.92,680.6 243,745.6 0,657.6 264,259.43 	
		"/>
	<polygon fill="#29B667" points="163,495.68 282.33,627.02 254.33,708.35 77,642.35 	"/>
	<polygon fill="#2DCC70" points="282.33,627.02 254.33,708.35 417.33,674.35 	"/>
	<polygon fill="#2DCC70" points="291.5,598.85 483,661.35 544.92,648.35 546.33,365.35 365.5,377.85 	"/>
	<polygon fill="#2DCC70" points="744,442.35 788,575.35 941.5,521.85 870,399.85 	"/>
	<polygon fill="#2DCC70" points="703,320.35 731,404.85 850.5,368.35 805.5,290.35 	"/>
	<polygon fill="#2DCC70" points="802.5,616.35 965.5,563.35 1011.5,642.35 833.5,708.85 	"/>
	<polygon fill="#29B667" points="546,344.35 544.92,648.35 679,675.68 631,369.68 	"/>
	<polygon fill="#29B667" points="291.5,598.85 362.33,386.35 255.25,340.22 179.67,469.54 	"/>
	<polygon fill="#29B667" points="802.5,616.35 833.5,708.85 730.5,687.85 709,588.35 	"/>
	<polygon fill="#29B667" points="744,442.35 674,421.35 703,548.35 788,575.35 	"/>
	<polygon fill="#29B667" points="703,320.35 648.5,303.85 666,385.35 731,404.85 	"/>
	<polyline fill="#29B667" points="587.21,285.07 619.2,293.85 625.5,338.35 573,320.57 587.21,285.07 	"/>
</g>
<g id="Layer_1">
	<path fill="#E94C3D" d="M409.91,536.35c0,0-144-119-188-282s102-261,179-254c76-5,231,52,199,244
		C558.91,397.35,463.91,480.35,409.91,536.35z"/>
	<circle fill="#C1392B" cx="409" cy="185.85" r="137"/>
	<polygon fill="#E94C3D" points="409,108.35 384,159.35 326,169.35 367.5,208.35 359,263.35 409,237.35 459,263.35 451,207.35 
		492,167.35 435,159.35 	"/>
</g>
</svg>
