<?xml version="1.0" encoding="utf-8"?>
<!-- Generator: Adobe Illustrator 18.0.0, SVG Export Plug-In . SVG Version: 6.00 Build 0)  -->
<!DOCTYPE svg PUBLIC "-//W3C//DTD SVG 1.1//EN" "http://www.w3.org/Graphics/SVG/1.1/DTD/svg11.dtd">
<svg version="1.1" id="Layer_1" xmlns="http://www.w3.org/2000/svg" xmlns:xlink="http://www.w3.org/1999/xlink" x="0px" y="0px"
	 viewBox="-2392.1 -1706.3 208.7 288" enable-background="new -2392.1 -1706.3 208.7 288" xml:space="preserve">
<g>
	<rect x="-2358.8" y="-1641.6" fill="#DBCCB7" width="141.9" height="15.3"/>
	<rect x="-2392.1" y="-1706.3" fill="#7D7E7D" width="208.7" height="288"/>
	<rect x="-2374.8" y="-1673.6" fill="#FFEED2" width="176" height="240.7"/>
	<rect x="-2334.8" y="-1681.9" fill="#FAAB1F" width="96" height="16"/>
	<path fill="#FAAB1F" d="M-2310.3-1681.9c0,0,6.3-20.2,23.2-20.2s23.3,20.2,23.3,20.2H-2310.3z"/>
	<circle fill="#7A7B7A" cx="-2286.9" cy="-1690.4" r="5.8"/>
	<rect x="-2358.1" y="-1641.6" fill="none" width="15" height="15.3"/>
	<rect x="-2358.1" y="-1641.6" fill="#CCBEAE" width="15" height="15.3"/>
	<rect x="-2342.4" y="-1641.6" fill="#CCBEAE" width="15" height="15.3"/>
	<rect x="-2326.7" y="-1641.6" fill="#CCBEAE" width="15" height="15.3"/>
	<rect x="-2311.1" y="-1641.6" fill="#CCBEAE" width="15" height="15.3"/>
	<rect x="-2295.3" y="-1641.6" fill="#CCBEAE" width="15" height="15.3"/>
	<rect x="-2279.6" y="-1641.6" fill="#CCBEAE" width="15" height="15.3"/>
	<rect x="-2264.1" y="-1641.6" fill="#CCBEAE" width="15" height="15.3"/>
	<rect x="-2248.5" y="-1641.6" fill="#CCBEAE" width="15" height="15.3"/>
	<rect x="-2233" y="-1641.6" fill="#CCBEAE" width="15" height="15.3"/>
	<g>
		<rect x="-2358.8" y="-1609.6" fill="#DBCCB7" width="141.9" height="15.3"/>
		<rect x="-2358.1" y="-1609.6" fill="#CCBEAE" width="15" height="15.3"/>
		<rect x="-2342.4" y="-1609.6" fill="#CCBEAE" width="15" height="15.3"/>
		<rect x="-2326.7" y="-1609.6" fill="#CCBEAE" width="15" height="15.3"/>
		<rect x="-2311.1" y="-1609.6" fill="#CCBEAE" width="15" height="15.3"/>
		<rect x="-2295.3" y="-1609.6" fill="#CCBEAE" width="15" height="15.3"/>
		<rect x="-2279.6" y="-1609.6" fill="#CCBEAE" width="15" height="15.3"/>
		<rect x="-2264.1" y="-1609.6" fill="#CCBEAE" width="15" height="15.3"/>
		<rect x="-2248.5" y="-1609.6" fill="#CCBEAE" width="15" height="15.3"/>
		<rect x="-2233" y="-1609.6" fill="#CCBEAE" width="15" height="15.3"/>
	</g>
	<g>
		<rect x="-2358.8" y="-1577.3" fill="#DBCCB7" width="141.9" height="15.3"/>
		<rect x="-2358.1" y="-1577.3" fill="#CCBEAE" width="15" height="15.3"/>
		<rect x="-2342.4" y="-1577.3" fill="#CCBEAE" width="15" height="15.3"/>
		<rect x="-2326.7" y="-1577.3" fill="#CCBEAE" width="15" height="15.3"/>
		<rect x="-2311.1" y="-1577.3" fill="#CCBEAE" width="15" height="15.3"/>
		<rect x="-2295.3" y="-1577.3" fill="#CCBEAE" width="15" height="15.3"/>
		<rect x="-2279.6" y="-1577.3" fill="#CCBEAE" width="15" height="15.3"/>
		<rect x="-2264.1" y="-1577.3" fill="#CCBEAE" width="15" height="15.3"/>
		<rect x="-2248.5" y="-1577.3" fill="#CCBEAE" width="15" height="15.3"/>
		<rect x="-2233" y="-1577.3" fill="#CCBEAE" width="15" height="15.3"/>
	</g>
	<g>
		<rect x="-2358.8" y="-1546" fill="#DBCCB7" width="141.9" height="15.3"/>
		<rect x="-2358.1" y="-1546" fill="#CCBEAE" width="15" height="15.3"/>
		<rect x="-2342.4" y="-1546" fill="#CCBEAE" width="15" height="15.3"/>
		<rect x="-2326.7" y="-1546" fill="#CCBEAE" width="15" height="15.3"/>
		<rect x="-2311.1" y="-1546" fill="#CCBEAE" width="15" height="15.3"/>
		<rect x="-2295.3" y="-1546" fill="#CCBEAE" width="15" height="15.3"/>
		<rect x="-2279.6" y="-1546" fill="#CCBEAE" width="15" height="15.3"/>
		<rect x="-2264.1" y="-1546" fill="#CCBEAE" width="15" height="15.3"/>
		<rect x="-2248.5" y="-1546" fill="#CCBEAE" width="15" height="15.3"/>
		<rect x="-2233" y="-1546" fill="#CCBEAE" width="15" height="15.3"/>
	</g>
	<g>
		<rect x="-2358.8" y="-1513.5" fill="#DBCCB7" width="141.9" height="15.3"/>
		<rect x="-2358.1" y="-1513.5" fill="#CCBEAE" width="15" height="15.3"/>
		<rect x="-2342.4" y="-1513.5" fill="#CCBEAE" width="15" height="15.3"/>
		<rect x="-2326.7" y="-1513.5" fill="#CCBEAE" width="15" height="15.3"/>
		<rect x="-2311.1" y="-1513.5" fill="#CCBEAE" width="15" height="15.3"/>
		<rect x="-2295.3" y="-1513.5" fill="#CCBEAE" width="15" height="15.3"/>
		<rect x="-2279.6" y="-1513.5" fill="#CCBEAE" width="15" height="15.3"/>
		<rect x="-2264.1" y="-1513.5" fill="#CCBEAE" width="15" height="15.3"/>
		<rect x="-2248.5" y="-1513.5" fill="#CCBEAE" width="15" height="15.3"/>
		<rect x="-2233" y="-1513.5" fill="#CCBEAE" width="15" height="15.3"/>
	</g>
	<g>
		<rect x="-2358.8" y="-1482.3" fill="#DBCCB7" width="141.9" height="15.3"/>
		<rect x="-2358.1" y="-1482.3" fill="#CCBEAE" width="15" height="15.3"/>
		<rect x="-2342.4" y="-1482.3" fill="#CCBEAE" width="15" height="15.3"/>
		<rect x="-2326.7" y="-1482.3" fill="#CCBEAE" width="15" height="15.3"/>
		<rect x="-2311.1" y="-1482.3" fill="#CCBEAE" width="15" height="15.3"/>
		<rect x="-2295.3" y="-1482.3" fill="#CCBEAE" width="15" height="15.3"/>
		<rect x="-2279.6" y="-1482.3" fill="#CCBEAE" width="15" height="15.3"/>
		<rect x="-2264.1" y="-1482.3" fill="#CCBEAE" width="15" height="15.3"/>
		<rect x="-2248.5" y="-1482.3" fill="#CCBEAE" width="15" height="15.3"/>
		<rect x="-2233" y="-1482.3" fill="#CCBEAE" width="15" height="15.3"/>
	</g>
	<rect x="-2286.8" y="-1706.3" opacity="0.14" width="103.3" height="288"/>
</g>
</svg>
