<?xml version="1.0" encoding="utf-8"?>
<!-- Generator: Adobe Illustrator 17.0.0, SVG Export Plug-In . SVG Version: 6.00 Build 0)  -->
<!DOCTYPE svg PUBLIC "-//W3C//DTD SVG 1.1//EN" "http://www.w3.org/Graphics/SVG/1.1/DTD/svg11.dtd">
<svg version="1.1" id="Layer_1" xmlns="http://www.w3.org/2000/svg" xmlns:xlink="http://www.w3.org/1999/xlink" x="0px" y="0px"
	 width="900px" height="427px" viewBox="0 0 900 427" enable-background="new 0 0 900 427" xml:space="preserve">
<g>
	<path fill="#030303" d="M0,266c2.45-5.13,2.15-10.83,3.38-16.21c12.34-53.92,47.01-85.79,98.98-100.83
		c9.11-2.64,18.23-3.07,27.61-2.67c31.79,1.38,63.59,2.43,95.38,3.71c3.17,0.13,5.66-0.71,8.23-2.57
		c29-20.96,57.92-42.03,87.18-62.61c18.05-12.69,38.03-20.44,60.56-19.76c7.55,0.23,14.83,1.93,21.67,5.19
		c1.79,0.85,3.49,1.97,5.04,3.2c6.85,5.46,6.51,7.69-1.3,10.79c-18.15,7.2-35.61,15.67-50.48,28.66
		c-6.34,5.54-11.78,11.84-14.88,19.76c-2.79,7.14-2.4,14.02,2.97,20.06c2.39,2.69,4.8,3.67,8.71,2.38
		c48.06-15.96,96.19-31.7,144.3-47.51c82.74-27.19,165.47-54.41,248.23-81.56c3.28-1.08,6.19-2.32,7.8-5.58
		c1.76-3.55,5.22-3.11,8.27-3.3c2.36-0.14,4.05-0.51,3.12-3.34c-1.29-3.93,0.43-5.09,4.06-4.85c1.15,0.08,2.37,0.01,3.47-0.31
		c2.65-0.76,3.97-0.17,4.1,2.86c0.09,1.93-0.17,4.28,3.49,3.87c3.84-0.44,2.53-2.65,2.19-4.5c-0.45-2.41,0.45-3.36,2.77-3.45
		c1.99-0.08,4-0.21,5.97-0.54c2.46-0.41,3.32,0.57,3.22,2.93c-0.1,2.58,0.23,4.6,3.85,3.83c2.6-0.55,5.07-0.65,3.82-4.31
		c-0.92-2.69,0.19-3.52,2.78-3.53c1.82-0.01,3.65-0.34,5.44-0.69c2.24-0.44,3.29,0.14,3.54,2.65c0.17,1.73-0.66,4.53,3.21,4.11
		c3.46-0.37,3.69-2.1,3.07-4.66c-0.64-2.65,0.75-3.18,2.94-3.19c1.49-0.01,3.05,0.01,4.47-0.4c2.9-0.83,4.43-0.15,4.51,3.08
		c0.04,1.76-0.09,3.59,2.88,3.33c2.86-0.24,2.85-1.82,2.4-3.7c-0.79-3.34,1.06-4.03,3.74-4.12c1.33-0.05,2.69-0.03,3.98-0.3
		c3.03-0.65,4.47,0.45,4.22,3.56c-0.26,3.27,1.87,2.62,3.89,2.62c2.87,0,2.39-1.95,1.88-3.37C853.76,2.14,855.2,1.06,857,0
		c3,0,6,0,9,0c1.01,7.88,1.01,7.86,8.65,9.11c6.14,1,11.94,1.94,16.82,7C896,20.81,896.62,27.02,900,32c0,2,0,4,0,6
		c-2.31,3.68-1.69,8.45-5.21,11.89c-3.82,3.74-11.3,3.12-13.72-1.87c-4.34-8.96-10.55-10.85-19.39-5.85
		c-14.46,8.19-29.16,16-43.27,24.76c-8.04,4.99-16.51,6.41-25.53,7.01c-7.85,0.52-15.19-0.16-21.21-5.99
		c-1.91-1.86-3.92-2.19-6.75-1.17c-35.84,12.82-71.76,25.4-107.63,38.12c-36.38,12.9-72.7,25.94-109.09,38.82
		c-35.2,12.46-70.46,24.76-105.68,37.18c-31.12,10.97-62.25,21.94-93.32,33.06c-11.95,4.28-19.07,13.43-21.93,25.32
		c-3.85,15.98,6.98,29.04,24.36,30.73c8.76,0.85,17.21-0.8,25.74-2.37c6.73-1.25,13.56-1.44,20.33,0.22
		c11.16,2.74,14.71,10.32,8.87,20.16c-8.42,14.17-21.27,22.58-36.95,26.94c-13.54,3.77-27.32,3.37-41.17,2.62
		c-16.45-0.89-32.98-2.25-49.16,2.35c-19.17,5.45-34.18,17.05-45.9,32.75c-28.87,38.69-66.21,63.89-113.93,73.09
		c-1.81,0.35-4-0.71-5.45,1.24c-8.33,0-16.67,0-25,0c-5.47-2.76-11.7-2.82-17.39-4.94c-12.48-4.66-24.6-10.47-32.51-21.28
		c-18.9-25.83-30.68-54.9-36.31-86.46C1.94,309.54,2.31,304.49,0,300C0,288.67,0,277.33,0,266z M312.02,227.08
		c-10.82,3.8-21.2,7.67-31.74,11.01c-4,1.27-4.44,3-2.65,6.26c0.47,0.86,0.71,1.86,1.06,2.79c2.25,6.08,2.25,6.08-3.98,8.14
		c-3.47,1.15-7.41,3.89-10.28,3.03c-3.42-1.02-2.95-6.37-4.35-9.77c-0.72-1.76-1.02-2.89-3.42-1.97c-6.2,2.39-12.51,4.46-18.79,6.63
		c-1.77,0.61-2.13,1.54-1.56,3.4c0.91,2.94,3.82,6.54,2.09,8.69c-1.75,2.17-5.96,2.36-9.1,3.41c-0.47,0.16-0.98,0.22-1.45,0.36
		c-6.74,2.05-6.89,2.09-8.86-4.88c-0.9-3.19-2.1-3.72-5.16-2.45c-5.05,2.1-10.24,3.97-15.51,5.4c-4.42,1.2-5.59,3.21-3.48,7.32
		c1.47,2.85,0.75,4.72-2.7,5.51c-3.22,0.74-6.32,2.01-9.47,3.06c-6.03,2-6.09,2.02-7.82-3.99c-0.65-2.25-1.28-3.21-3.99-2.13
		c-6.94,2.75-14.14,4.85-21.07,7.63c-5.44,2.18-9.42,6.12-10.58,12.12c-1.58,8.17-3.66,16.21-6.22,24.12
		c-7.67,23.75-19.54,44.75-39.66,60.32c-6.48,5.01-13.44,9.26-21.01,12.33c-3.66,1.48-3.34,4.33-3.16,6.98
		c0.19,2.87,2.86,1.43,4.38,1.63c10.11,1.35,20.28,1.3,30.44,0.91c25.22-0.97,47.8-9.18,67.58-24.95
		c14.65-11.69,26.75-25.99,40-39.1c18.52-18.34,39.64-32.27,64.87-39.61c26.72-7.78,54.06-9.09,81.63-8.11
		c7.25,0.26,14.29-0.69,21.08-3.14c3.49-1.26,7.09-2.63,8.91-6.79c-12.02,2-23.67,3.34-35.58,1.87
		c-21.84-2.71-35.88-14.9-40.03-35.65C311.13,240.89,311.48,234.21,312.02,227.08z M119.29,226.88c-5.96-1.05-12.22,1.65-18.68,3.06
		c-1.66,0.36-2.62,1.48-3.29,2.81c-4.77,9.49-12.16,16.49-20.97,22.1c-2.23,1.42-2.52,2.92-1.69,5.4
		c2.88,8.66,6.36,17.26,7.96,26.18c1.83,10.2,6.7,14.98,17.05,14.34c4.95-0.31,10.49,3.1,14.69,0.63
		c9.76-5.74,21.21-8.99,28.56-18.62c1.83-2.4,2.55-4.24,1.69-7.12c-3.8-12.73-7.11-25.6-11.19-38.23
		C129.44,225.12,131.69,227.69,119.29,226.88z M133.21,218.8c0.02,0.21,0.07,1.04,0.22,1.85c1.03,5.89,1.31,6.07,6.9,4.23
		c4.71-1.55,9.34-3.4,14.13-4.66c3.49-0.91,4.77-2.44,3.15-5.79c-1.34-2.78-0.39-4.18,2.46-5.05c3.32-1.01,6.66-2.14,9.76-3.69
		c3.57-1.79,5.31-1.16,5.95,2.9c0.29,1.8-0.01,4.72,3.67,3.44c6.26-2.18,12.62-4.11,18.9-6.22c1.12-0.38,2.94-0.68,1.88-2.6
		c-2.84-5.1,1.19-5.58,4.37-6.69c2.19-0.76,4.43-1.44,6.54-2.39c2.91-1.32,4.97-1.26,5.5,2.51c0.28,2,1.21,2.86,3.4,2.1
		c6.26-2.17,12.56-4.25,18.87-6.28c1.69-0.54,2.63-1.22,1.87-3.15c-0.61-1.54-0.86-2.97-3.32-2.42c-21.08,4.74-42.55,4.8-64,5.4
		c-9.77,0.27-19.52,1.69-28.43,6.46C137.22,202.95,133.62,209.55,133.21,218.8z M310.72,153.19c-2.81-0.05-5.07,0.72-8.25,2.98
		c-14.13,10.03-28.59,19.47-45.18,25.07c-1.42,0.48-2.84,0.88-1.98,3.09c0.81,2.08,1.97,2.2,3.81,1.59
		c20.34-6.72,40.7-13.39,61.05-20.08c1.52-0.5,2.49-1.03,1.96-3.13C320.73,157.24,316.2,153.29,310.72,153.19z M337.42,207.06
		c-20.37,7.03-40.75,14.05-61.1,21.13c-1.97,0.68-4.56,0.85-3.2,4.53c1.32,3.57,3.25,1.82,5.03,1.19
		c18.75-6.6,37.43-13.43,56.26-19.78C338.87,212.63,339.78,210.86,337.42,207.06z M332.03,190.33c-0.19-2.25-0.82-3.35-3.64-2.4
		c-20.19,6.82-40.45,13.45-60.65,20.24c-1.45,0.49-3.61,0.76-2.25,3.68c1.05,2.25,2.06,2.53,4.13,1.82
		c20.12-6.91,40.25-13.8,60.39-20.65C331.36,192.56,332.58,192.23,332.03,190.33z M271.99,223.98c0.15-0.05,0.77-0.25,1.39-0.46
		c19.95-6.91,39.91-13.81,59.84-20.79c1.14-0.4,2.83-0.52,2.01-3.13c-0.89-2.81-2.41-1.83-3.73-1.4
		c-5.61,1.82-11.15,3.86-16.73,5.78c-14.39,4.95-28.79,9.89-43.2,14.79c-1.4,0.47-3.28,0.45-2.39,2.69
		C269.59,222.49,269.47,224.3,271.99,223.98z M264.29,203.87c0.15-0.08,0.29-0.18,0.44-0.23c20.75-6.93,41.5-13.84,62.24-20.79
		c1.55-0.52,2.67-1.54,1.75-3.37c-0.84-1.67-1.96-1.52-3.69-0.9c-7.37,2.62-14.86,4.93-22.28,7.39
		c-12.89,4.28-25.75,8.61-38.65,12.86c-1.41,0.46-3.16,0.32-2.31,2.67C262.24,202.75,262.36,204.24,264.29,203.87z M259.56,194.58
		c1.77-0.54,2.72-0.8,3.66-1.11c19.75-6.49,39.51-12.95,59.21-19.56c1.33-0.45,4.36-0.21,3.43-3.01c-0.92-2.76-3.08-0.88-4.54-0.4
		c-19.88,6.45-39.72,12.99-59.58,19.52c-0.79,0.26-1.55,0.6-2.34,0.84c-0.97,0.29-1.45,0.88-0.89,1.8
		C258.94,193.35,258.78,194.87,259.56,194.58z M215.95,254.4c-0.82-2.2-0.46-5.37-4.8-3.52c-6.11,2.61-12.49,4.66-18.85,6.63
		c-2.92,0.9-1.53,2.53-1.26,4.07c0.34,1.94,1.09,2.91,3.37,2.06c6.49-2.42,13.06-4.63,19.57-6.99
		C214.94,256.3,216.42,256.13,215.95,254.4z M209.23,232.44c-0.87-1.3,0.19-4.68-3.5-3.43c-6.64,2.24-13.22,4.66-19.92,6.7
		c-3.23,0.98-1.26,2.62-1.03,4.14c0.29,1.86,0.96,2.49,3.02,1.74c6.44-2.33,12.97-4.43,19.45-6.63
		C208.36,234.59,209.46,234.18,209.23,232.44z M163.92,242.97c-6.71,2.25-13.07,4.24-19.31,6.56c-2.31,0.86-0.49,2.87-0.36,4.31
		c0.1,1.04,0.44,2.53,2.14,1.94c6.28-2.19,12.52-4.48,18.81-6.65c2.53-0.87,0.68-2.45,0.64-3.63
		C165.8,244.24,165.38,242.79,163.92,242.97z M235.61,248.97c6.87-2.42,13.78-4.74,20.58-7.33c1.98-0.76,0.67-2.55,0.35-3.91
		c-0.37-1.57-1.31-2.21-2.88-1.66c-6.63,2.32-13.25,4.65-19.88,6.98c-2.36,0.83-0.95,2.44-0.65,3.67
		C233.42,247.89,233.59,249.56,235.61,248.97z M544.86,138.28c-1.07-0.71,0.1-3.69-3.18-2.45c-8.71,3.3-17.58,6.17-26.4,9.18
		c-1.59,0.54-2.8,1.26-2.03,3.19c0.65,1.64,1.59,2,3.46,1.3c8.7-3.25,17.47-6.28,26.23-9.38
		C543.85,139.81,544.98,139.78,544.86,138.28z M172.27,269.69c-1.61-0.69,1.22-5.26-3.15-3.91c-6.06,1.87-11.99,4.15-18,6.17
		c-3.03,1.02-0.91,2.97-0.8,4.43c0.13,1.57,0.86,2.57,2.96,1.77c5.7-2.18,11.49-4.12,17.26-6.11
		C171.58,271.68,172.36,271.27,172.27,269.69z M227.6,227.92c7.67-2.59,14.64-4.86,21.55-7.31c2.1-0.74,0.89-2.47,0.59-3.81
		c-0.36-1.58-1.4-2.21-2.96-1.68c-6.63,2.26-13.21,4.7-19.9,6.77c-2.31,0.71-1.28,1.83-0.93,2.93
		C226.35,226.11,226.17,227.98,227.6,227.92z M209.53,239.85c-6.95,2.34-14.26,4.63-21.43,7.31c-2.43,0.91,0.02,2.81,0.04,4.26
		c0.02,1.63,1.09,1.42,2.44,0.92c6.71-2.47,13.46-4.84,20.24-7.09c1.54-0.51,2.43-0.85,1.49-2.59
		C211.69,241.52,212.28,239.39,209.53,239.85z M550.92,137.35c9.23-3.27,18.46-6.55,27.7-9.82c1.68-0.59,1.18-1.51,0.63-2.69
		c-0.48-1.02-0.19-2.06-2.16-1.33c-8.89,3.32-17.86,6.46-26.9,9.37c-2.24,0.72-1.16,1.93-1.18,3.02
		C548.97,137.17,549.59,137.76,550.92,137.35z M613.97,113.45c-0.42-2.54-1.81-2.15-3.57-1.51c-8.31,3-16.66,5.89-24.98,8.84
		c-1.03,0.36-2.83-0.15-1.78,2.32c0.75,1.77,1.18,2.34,3.06,1.66c8.42-3.06,16.89-5.99,25.33-9.01
		C613.08,115.36,614.37,115,613.97,113.45z M536.94,110.7c-0.36-1.66-1.42-1.93-3.23-1.32c-8.81,2.97-17.67,5.81-26.48,8.78
		c-1.13,0.38-2.69,0.77-2.07,2.71c0.62,1.95,1.91,1.65,3.37,1.15c8.8-3,17.58-6.03,26.42-8.9
		C536.2,112.71,537.15,112.52,536.94,110.7z M231.69,238c7-2.39,14.12-4.72,21.17-7.29c1.85-0.67,0.45-2.24,0.23-3.43
		c-0.24-1.36-0.66-2.04-2.31-1.45c-6.77,2.41-13.56,4.76-20.4,6.95c-1.72,0.55-1.62,1.47-1.03,2.53
		C229.91,236.32,229.49,238.26,231.69,238z M508.98,150.3c-0.4-1.89-1.2-2.74-3.73-1.78c-7.02,2.67-14.13,5.11-21.28,7.4
		c-2.12,0.68-2.43,1.64-1.99,3.54c0.57,2.47,2.05,1.56,3.42,1.08c7.02-2.48,14.03-4.99,21.06-7.46
		C507.72,152.64,509.12,152.43,508.98,150.3z M169.09,258.02c-1.12-0.69,1.02-4.53-2.67-3.39c-6.1,1.87-12.04,4.25-18.14,6.14
		c-3.22,1-1.1,2.9-1,4.33c0.1,1.51,0.87,2.16,2.75,1.44c5.64-2.16,11.42-3.98,17.1-6.06C167.99,260.16,169.74,260.28,169.09,258.02z
		 M539.7,120.69c-0.61-1.95-1.07-3.29-3.47-2.45c-8.66,3.05-17.38,5.92-26.11,8.77c-2.01,0.66-2.63,1.83-2.01,3.72
		c0.77,2.32,2.18,0.65,3.18,0.31c8.69-2.92,17.35-5.93,26.02-8.89C538.31,121.81,539.8,122.17,539.7,120.69z M619.9,112.93
		c9.53-3.38,18.88-6.68,28.21-10.01c1.58-0.57,0.92-1.95,0.78-2.99c-0.15-1.13-1.2-1.06-1.96-0.8c-9.22,3.25-18.39,6.63-27.64,9.75
		c-1.78,0.6-1.27,1.59-1.24,2.62C618.09,112.79,618.91,113.15,619.9,112.93z M182.92,231.01c7.77-2.62,15.06-5,22.27-7.57
		c1.4-0.5,0.76-1.94,0.4-3.06c-0.43-1.36-1.3-1.82-2.61-1.38c-6.95,2.32-13.87,4.71-20.84,6.95c-1.96,0.63-1,1.75-0.64,2.68
		C181.87,229.57,181.67,231.15,182.92,231.01z M503.88,132.74c-0.8-1.66-0.99-3.4-3.51-2.5c-7.52,2.71-15.1,5.26-22.73,7.67
		c-1.9,0.6-1.84,1.72-1.48,3c0.39,1.38,1.17,1.83,2.86,1.22c7.66-2.78,15.4-5.33,23.11-7.97
		C502.94,133.89,504.36,134.14,503.88,132.74z M544.43,119.93c9.66-3.4,18.87-6.66,28.1-9.84c1.2-0.41,2.79,0.03,1.94-2.26
		c-0.73-1.97-1.46-1.78-3.24-1.15c-8.3,2.93-16.65,5.71-25.07,8.27C543.08,115.88,543.6,117.57,544.43,119.93z M612.92,87.02
		c9.31-3.06,18.63-6.11,27.92-9.22c0.86-0.29,1.29-1.06,0.68-1.96c-0.47-0.7-0.34-2.11-1.93-1.57c-9.24,3.16-18.5,6.29-27.75,9.43
		c-1.02,0.35-1.54,0.73-1.04,2.08C611.25,87,611.75,87.37,612.92,87.02z M163.22,235.76c-0.11-1.96-0.77-3.5-3.62-2.49
		c-5.52,1.95-11.02,4.02-16.65,5.58c-2.55,0.7-2.09,2-1.79,3.65c0.4,2.22,1.95,1.88,3.38,1.4c5.57-1.87,11.09-3.86,16.66-5.72
		C162.32,237.81,163.56,237.8,163.22,235.76z M570.45,97.25c-9.56,3.22-18.87,6.36-28.18,9.47c-1.23,0.41-1.46,1.23-1.09,2.31
		c0.44,1.31,1.22,1.57,2.6,1.1c8.94-3.08,17.88-6.15,26.89-9.01c1.8-0.57,1.37-1.53,1.23-2.58
		C571.78,97.63,571.23,97.07,570.45,97.25z M577.86,98.89c0.29-0.14,0.58-0.31,0.88-0.42c8.8-2.91,17.61-5.78,26.39-8.76
		c0.69-0.23,2.01-0.53,1.35-2.03c-0.52-1.17-1.04-2.09-2.52-1.6c-8.97,2.98-17.94,5.98-26.91,8.95c-1.35,0.45-1.13,1.45-0.91,2.39
		C576.36,98.25,576.86,98.9,577.86,98.89z M246.91,208.29c-0.91-1.04,0.14-4.14-3.56-2.68c-6.23,2.46-12.68,4.39-19.1,6.33
		c-2,0.6-2.18,1.28-1.59,3.15c0.63,2,1.53,2.16,3.27,1.55c6.33-2.23,12.68-4.39,19.04-6.53
		C245.88,209.8,247.09,210.02,246.91,208.29z M644.01,84.36c0.04-2.05-1.48-1.58-2.42-1.28c-9.03,2.93-18.02,5.96-27.03,8.96
		c-1.34,0.45-1.9,1.37-1.38,2.69c0.57,1.45,1.44,1.16,2.77,0.69c8.65-3.05,17.36-5.89,26.03-8.89
		C642.91,86.21,644.51,86.12,644.01,84.36z M499.31,120.9c-8.93,2.91-17.01,5.55-25.09,8.17c-1.26,0.41-1.4,1.35-1.04,2.36
		c0.43,1.19,1.28,2.01,2.68,1.54c7.93-2.64,15.84-5.36,23.79-7.93c1.33-0.43,1.48-1.2,1.28-2.22
		C500.67,121.5,499.82,120.82,499.31,120.9z M541.98,128.36c-0.53-2.05-1.89-1.35-3.38-0.84c-8.63,2.97-17.31,5.81-25.91,8.89
		c-0.7,0.25-3-0.23-2.2,2.2c0.7,2.15,2.07,1.69,3.42,1.22c8.64-2.96,17.27-5.95,25.87-9.01
		C540.78,130.48,542.11,130.16,541.98,128.36z M477.9,161.73c-0.83-1.22-0.71-3.54-3.24-2.65c-5.69,1.99-11.39,3.96-17.08,5.96
		c-1.88,0.66-1.92,2.06-1.31,3.63c0.61,1.59,1.72,1.66,3.19,1.13c5.44-1.99,10.91-3.9,16.36-5.84
		C476.91,163.57,478.14,163.31,477.9,161.73z M608.97,96.59c0.07-2.1-1.21-2.08-2.64-1.6c-8.86,2.96-17.68,6.06-26.59,8.86
		c-2,0.63-0.94,1.39-0.85,2.37c0.15,1.66,0.56,1.64,2.13,1.08c8.63-3.1,17.36-5.96,26.04-8.94C607.9,98.07,609.2,98.09,608.97,96.59
		z M503.97,113.84c0.67-0.29,1.26-0.6,1.88-0.8c8.79-2.92,17.59-5.79,26.34-8.8c0.8-0.27,3.16,0.57,2.09-2.04
		c-0.84-2.05-2.03-1.01-3.21-0.62c-6.92,2.25-13.83,4.5-20.75,6.75c-2.04,0.67-4.09,1.32-6.11,2.04c-1.05,0.37-1.6,1.08-1.24,2.29
		C503.14,113.26,503.07,114.01,503.97,113.84z M576.99,116.1c-0.14-1.28-1.25-1.32-2.74-0.81c-8.64,2.95-17.29,5.85-25.91,8.86
		c-1.06,0.37-2.93,0.62-2.06,2.59c0.75,1.71,1.9,1.07,3.28,0.58c8.3-2.95,16.68-5.7,24.97-8.67
		C575.39,118.35,577.04,118.46,576.99,116.1z M656.11,100.12c6.98-2.5,14.8-5.29,22.61-8.1c1.66-0.59,0.25-1.63,0.29-2.44
		c0.05-0.93-0.25-1.44-1.45-1.01c-7.71,2.75-15.45,5.44-23.18,8.11c-1.14,0.4-1.66,1.08-1.25,2.23
		C653.47,99.84,653.96,100.73,656.11,100.12z M506.03,140.9c0.02-1.47-0.46-2.21-2.09-1.65c-7.73,2.65-15.48,5.24-23.2,7.91
		c-1.36,0.47-2.21,1.5-1.68,3.09c0.58,1.74,2.04,0.95,2.91,0.66c7.58-2.56,15.09-5.3,22.67-7.85
		C505.93,142.62,506.1,141.95,506.03,140.9z M203.01,212.12c-0.21-2.01-1.25-2.48-3.1-1.86c-6.43,2.19-12.86,4.37-19.33,6.45
		c-1.49,0.48-2.3,0.91-1.78,2.73c0.57,1.99,1.5,1.55,2.95,1.03c6.3-2.23,12.64-4.36,19.01-6.39
		C201.93,213.72,203.06,213.71,203.01,212.12z M671.92,66.21c-0.65-0.88-0.52-2.43-2.69-1.65c-7.34,2.63-14.75,5.07-22.21,7.35
		c-1.71,0.52-1.42,1.11-1.2,2.39c0.31,1.83,0.92,1.39,2.25,0.93c7.23-2.51,14.52-4.86,21.81-7.19
		C670.88,67.71,671.78,67.5,671.92,66.21z M452.5,151.17c5.96-1.99,12.32-4.09,18.65-6.26c1.25-0.43,1.02-1.68,0.64-2.5
		c-0.38-0.83-0.52-2.19-2.3-1.57c-6.14,2.15-12.32,4.19-18.52,6.13c-1.9,0.59-0.94,1.85-0.84,2.78
		C450.22,150.69,450.8,151.58,452.5,151.17z M611.35,105.17c-0.43-1.39-0.4-2.41-1.98-1.86c-8.9,3.12-17.83,6.14-26.75,9.22
		c-1.18,0.41-2.16,1.1-1.4,2.54c0.6,1.13,1.45,0.77,2.5,0.39c8.58-3.06,17.22-6,25.79-9.08
		C610.12,106.17,611.8,106.37,611.35,105.17z M639.04,67.93c-0.37-2.5-2.03-1.15-2.97-0.85c-8.54,2.72-17.05,5.52-25.53,8.41
		c-0.87,0.3-2.76,0.02-2.31,1.86c0.46,1.89,1.72,1.26,3.08,0.81c8.38-2.79,16.8-5.46,25.2-8.22
		C637.54,69.6,638.77,69.32,639.04,67.93z M569.93,91.46c-0.69-1.16-0.82-2.41-2.58-1.82c-8.96,3-17.95,5.91-26.94,8.83
		c-1.4,0.45-1.83,1.41-1.37,2.66c0.6,1.66,1.54,0.39,2.33,0.13c8.72-2.81,17.44-5.62,26.15-8.47
		C568.37,92.51,569.11,91.92,569.93,91.46z M708,79.88c0.07-1.98-0.79-1.61-2.12-1.13c-6.91,2.48-13.86,4.87-20.83,7.19
		c-1.23,0.41-2.36,0.69-1.79,2.24c0.49,1.33,1.22,1.97,3.01,1.29c6.64-2.55,13.37-4.87,20.11-7.17
		C707.72,81.84,708.33,81.23,708,79.88z M498.12,114.37c-0.02-1.76-1.12-1.67-2.34-1.27c-7.84,2.59-15.67,5.21-23.51,7.79
		c-0.95,0.31-1.95,0.37-1.58,1.88c0.42,1.65,1.59,1.55,2.67,1.19c7.88-2.61,15.73-5.32,23.61-7.93
		C497.9,115.73,498.44,115.44,498.12,114.37z M221.67,207.29c7.12-2.41,14.23-4.84,21.35-7.23c1.19-0.4,0.9-1.15,0.61-1.93
		c-0.45-1.23-1.09-1.8-2.59-1.29c-6.75,2.29-13.54,4.44-20.31,6.69c-0.94,0.31-1.9,0.78-1.17,2.15
		C220.02,206.52,220.15,207.72,221.67,207.29z M410.85,184.78c-1.05-0.25,0.26-3.61-3.06-2.34c-4.4,1.69-8.91,3.09-13.38,4.58
		c-2.03,0.68-1.68,2.21-1.31,3.64c0.46,1.78,1.54,2.09,3.31,1.41c4.16-1.6,8.41-2.96,12.59-4.5
		C410.01,187.22,411.44,187.04,410.85,184.78z M646.69,92.82c-0.6-1.55-1.22-1.76-2.96-1.12c-8.72,3.21-17.57,6.09-26.35,9.14
		c-0.78,0.27-2.76-0.45-1.76,1.79c0.64,1.44,1.27,1.3,2.64,0.8c8.89-3.23,17.83-6.29,26.77-9.37
		C645.77,93.8,646.74,93.97,646.69,92.82z M160.79,226.49c-0.38-2.55-1.55-2.92-3.57-2.2c-5.47,1.93-10.99,3.74-16.5,5.52
		c-1.49,0.48-2.98,0.64-2.14,2.91c0.69,1.88,1.96,1.48,3.2,1.07c5.75-1.89,11.47-3.89,17.23-5.75
		C160.06,227.7,160.84,227.41,160.79,226.49z M388.38,173.04c5.54-1.83,10.66-3.43,15.7-5.26c1.45-0.53,0.77-1.78,0.31-2.93
		c-0.55-1.41-0.95-2.21-2.77-1.54c-4.57,1.69-9.21,3.17-13.85,4.68c-1.39,0.45-1.94,1.01-1.07,2.45
		C387.29,171.41,386.66,173.36,388.38,173.04z M649.53,83.94c8.24-2.77,16.1-5.39,23.95-8.08c1-0.34,0.64-1.34,0.55-2.14
		c-0.14-1.25-0.97-1.02-1.72-0.77c-7.71,2.56-15.42,5.13-23.12,7.72c-0.85,0.29-1.41,0.89-1.05,1.89
		C648.43,83.38,648.97,83.96,649.53,83.94z M432.08,177.21c0.12-1.52-0.8-2.92-3.23-2.13c-4.17,1.35-8.25,3-12.42,4.35
		c-2.07,0.67-1.68,2.07-1.3,3.41c0.47,1.65,1.33,2.26,3.27,1.45c3.79-1.6,7.74-2.84,11.64-4.18
		C431.14,179.74,432.37,179.6,432.08,177.21z M469,133.42c-0.24-1.58-1.06-2.16-2.95-1.5c-5.67,1.97-11.36,3.89-17.1,5.63
		c-1.81,0.55-2.43,1.34-1.87,3.07c0.59,1.82,1.78,1.42,3.16,0.95c5.54-1.91,11.1-3.76,16.68-5.55
		C468.15,135.61,468.98,135.06,469,133.42z M713.55,79.8c7.19-2.58,14.38-5.16,21.57-7.74c1.36-0.49,0.92-1.59,0.81-2.51
		c-0.17-1.45-1.29-0.74-1.86-0.55c-7,2.32-13.97,4.71-20.95,7.09c-1.57,0.53-1.15,1.83-1.04,2.93
		C712.17,79.85,712.79,80.02,713.55,79.8z M575.6,90.01c9.28-3.04,18.46-6.04,27.63-9.06c1.08-0.36,0.85-1.31,0.74-2.07
		c-0.18-1.25-1.14-0.94-1.89-0.69c-8.98,2.94-17.94,5.91-26.92,8.85c-0.99,0.32-1.21,0.99-1.16,1.89
		C574.05,90.13,574.83,90.13,575.6,90.01z M474.98,152.26c-0.73-1.38-1.18-2.82-3.6-1.89c-5.34,2.06-10.78,3.85-16.24,5.57
		c-1.84,0.58-2.62,1.57-1.97,3.24c0.68,1.76,2.28,0.98,3.43,0.59c5.41-1.85,10.77-3.88,16.19-5.71
		C473.79,153.73,474.69,153.58,474.98,152.26z M374.87,199.68c4.18-1.5,8.04-3.06,12.02-4.24c2.19-0.65,1.74-1.48,1.27-3.18
		c-0.51-1.85-1.01-2.69-2.97-1.98c-3.54,1.27-7.09,2.53-10.66,3.7c-1.45,0.48-1.94,1.48-1.31,2.65
		C373.75,197.63,373.55,199.22,374.87,199.68z M411.34,165.22c4.29-1.43,8.95-2.93,13.57-4.57c1.36-0.48,1.34-1.83,0.91-2.98
		c-0.43-1.15-1.24-2.05-2.67-1.55c-4.46,1.55-8.87,3.27-13.39,4.65c-1.86,0.57-1.03,1.43-0.86,2.46
		C409.12,164.47,409.3,165.56,411.34,165.22z M676.39,65.81c7.38-2.5,14.73-5.15,22.2-7.43c2.58-0.79,3.09-1.86,1.98-4.17
		c-7.4,2.47-14.75,5.14-22.25,7.33C675.55,62.34,675.46,63.54,676.39,65.81z M703.81,64.69c-0.48-1.6-1.59-2-3.06-1.51
		c-6.94,2.31-13.89,4.6-20.79,7.02c-0.83,0.29-2.44,0.57-1.54,2.39c0.78,1.58,1.71,0.89,2.78,0.52c6.93-2.38,13.88-4.75,20.83-7.06
		C702.84,65.78,703.66,65.75,703.81,64.69z M669.01,57.75c-0.55-1.98-1.92-0.87-2.76-0.6c-6.92,2.2-13.8,4.51-20.69,6.8
		c-1.05,0.35-2.72,0.39-2.38,1.9c0.4,1.81,1.98,1.2,3.22,0.79c6.78-2.22,13.56-4.45,20.33-6.72
		C667.78,59.57,668.97,59.21,669.01,57.75z M407.97,175.5c-0.58-1.74-1.26-3.21-3.78-2.21c-4.06,1.61-8.17,3.12-12.35,4.4
		c-1.71,0.52-2.37,0.87-1.95,2.88c0.54,2.6,2.2,1.62,3.34,1.25c4.31-1.4,8.54-3.04,12.8-4.59
		C406.87,176.92,408.16,177.15,407.97,175.5z M452.27,171.53c-1.08-2.05-1.04-4.54-4.17-3.14c-3.11,1.4-6.33,2.81-9.64,3.46
		c-3.98,0.79-1.46,3.23-1.11,4.36c0.51,1.63,2.2,0.57,3.39,0.08C444.56,174.74,448.85,174.19,452.27,171.53z M466.13,125.02
		c-0.01-2.29-1.17-1.74-2.57-1.27c-5.77,1.95-11.59,3.76-17.37,5.7c-0.96,0.32-2.59,0.38-2.09,2.1c0.49,1.69,1.7,1.57,3.16,1.06
		c5.53-1.93,11.08-3.78,16.65-5.56C465.09,126.67,466.1,126.41,466.13,125.02z M729.02,46.26c-0.02-1.23-0.63-1.37-1.9-0.95
		c-6.79,2.29-13.6,4.49-20.4,6.73c-1.26,0.41-1.98,1.22-1.64,2.61c0.46,1.87,1.51,0.99,2.63,0.61c6.32-2.14,12.68-4.21,19.03-6.26
		C728.04,48.58,729.3,48.23,729.02,46.26z M761.06,61.19c-0.09-1.12-0.98-1.44-2.06-1.07c-5.87,2-11.73,4.04-17.58,6.12
		c-1.28,0.46-1.78,1.57-1.29,2.83c0.53,1.36,1.56,0.72,2.48,0.4c5.47-1.93,10.95-3.81,16.4-5.79
		C760.01,63.32,761.42,63.11,761.06,61.19z M413.83,174.57c4.77-1.62,9.55-3.18,14.28-4.9c1.06-0.39,1.07-1.62,0.75-2.6
		c-0.33-0.99-0.92-1.62-2.18-1.19c-4.62,1.56-9.28,3-13.88,4.63c-1.45,0.51-0.92,1.93-0.68,3.01
		C412.31,174.36,412.81,174.99,413.83,174.57z M401.77,156.62c-0.45-2.17-1.37-3.23-3.77-2.32c-4.09,1.55-8.31,2.78-12.4,4.33
		c-0.91,0.34-3.32-0.3-1.97,2.56c0.86,1.83,1.58,2.18,3.17,1.63c4.44-1.53,8.87-3.1,13.3-4.67
		C400.91,157.86,402.31,158.16,401.77,156.62z M368.67,179.82c4.33-1.5,8.51-2.84,12.59-4.44c1.32-0.52,0.86-1.99,0.5-3.08
		c-0.43-1.31-1.41-1.74-2.7-1.3c-3.69,1.26-7.33,2.68-11.07,3.76c-1.84,0.53-1.07,1.59-0.95,2.56
		C367.17,178.48,367.52,179.54,368.67,179.82z M698.98,47.89c-0.55-1.7-1.82-0.93-2.77-0.62c-6.91,2.22-13.8,4.49-20.67,6.81
		c-0.96,0.32-2.78,0.34-2.26,1.92c0.53,1.63,2.08,1.04,3.36,0.61c6.62-2.22,13.25-4.43,19.89-6.59
		C697.66,49.66,698.73,49.36,698.98,47.89z M709.27,63.66c7.2-2.53,14.41-5.06,21.62-7.56c0.76-0.26,1.16-0.57,0.7-1.36
		c-0.5-0.84-0.87-1.42-2.23-0.94c-6.86,2.46-13.79,4.72-20.71,7.01c-0.93,0.31-2.1,0.33-1.2,1.79
		C707.86,63.27,708.17,64.17,709.27,63.66z M432.13,158.12c4.69-1.55,8.74-2.84,12.76-4.24c1.74-0.61,0.96-1.76,0.36-2.79
		c-0.45-0.78,0.22-2.53-1.98-1.66c-3.79,1.49-7.74,2.57-11.6,3.9c-1.25,0.43-1.73,1.19-0.92,2.63
		C431.28,156.91,431.01,158.39,432.13,158.12z M379,163.77c-0.62-1.18-0.4-3.2-3.14-2.02c-3.28,1.42-6.84,2.19-10.28,3.27
		c-2.65,0.83-2.04,3.93-1.11,4.13c4.45,0.94,8.16-2.25,12.36-3.09C378.16,165.8,379,165.37,379,163.77z M652.17,91.68
		c8.02-2.85,15.86-5.64,23.69-8.44c0.62-0.22,1.36-0.63,0.86-1.39c-0.29-0.45-1.18-0.94-1.59-0.8c-7.91,2.6-15.78,5.32-23.67,7.96
		c-1.36,0.45-0.54,1.28-0.47,1.94C651.07,91.78,651.59,92.02,652.17,91.68z M422.78,148.13c-0.1-0.49-0.86-1.59-2.51-1.07
		c-4.53,1.43-9.01,2.99-13.5,4.53c-2.02,0.69-0.73,2.2-0.61,3.25c0.18,1.47,1.24,1.03,2.25,0.67c4.33-1.52,8.65-3.07,13.04-4.4
		C422.65,150.74,423.17,150.35,422.78,148.13z M372.41,189.02c3.97-1.36,7.97-2.67,11.91-4.13c1.55-0.57,0.71-2,0.53-2.98
		c-0.18-1.04-0.9-1.52-2.16-1.06c-3.8,1.38-7.64,2.66-11.49,3.9c-1.27,0.41-1.4,1.25-1.14,2.28
		C370.36,188.21,370.95,189.16,372.41,189.02z M753.83,38.71c-0.53-1.57-1.27-1.81-2.98-1.17c-5.2,1.96-10.5,3.66-15.81,5.3
		c-1.24,0.38-2.26,0.51-2.01,2.11c0.31,1.92,1.82,1.28,2.71,0.99c5.59-1.82,11.13-3.79,16.69-5.71
		C753.18,39.97,754.15,39.94,753.83,38.71z M704.69,47.2c0.11-0.02,0.95-0.08,1.72-0.34c5.12-1.7,10.3-3.26,15.31-5.25
		c1.78-0.71,5.7-0.54,4.89-2.76c-0.99-2.74-4-0.08-5.93,0.46c-5.43,1.5-10.73,3.44-16.07,5.26c-0.85,0.29-2.11,0.43-1.62,1.92
		C703.15,46.98,702.95,47.91,704.69,47.2z M683.35,80.83c0.93-0.37,2.57-1.1,4.26-1.68c5.53-1.91,11.09-3.75,16.61-5.69
		c0.79-0.28,2.24-0.5,1.56-1.9c-0.38-0.79-1.46-0.68-2.25-0.42c-6.93,2.34-13.86,4.68-20.76,7.12c-0.78,0.28-2.02,0.67-1.74,2.02
		C681.21,81.12,681.88,81.14,683.35,80.83z M448.84,161.43c-0.68-1.78-1.33-3.11-3.61-2.14c-3.15,1.34-6.37,2.62-9.67,3.48
		c-1.89,0.5-2.35,0.83-1.73,2.84c0.67,2.14,1.81,1.45,3,1.04c3.39-1.17,6.75-2.47,10.15-3.59
		C447.98,162.73,448.96,162.66,448.84,161.43z M382.24,154.02c5.57-1.8,10.72-3.43,15.85-5.13c1-0.33,1.04-1.18,0.59-2.01
		c-0.51-0.93-1.16-1.46-2.4-1.03c-4.71,1.61-9.45,3.11-14.18,4.66c-1.17,0.38-1.37,1.15-1.14,2.31
		C381.17,153.96,381.79,154.09,382.24,154.02z M360.12,204.93c2.17-0.79,4.8-1.82,7.47-2.71c1.9-0.63,1.5-1.74,0.96-3.1
		c-0.57-1.43-0.98-2.82-3.03-2.01c-2.43,0.97-4.84,2.1-7.36,2.72c-2.29,0.57-1.23,2.03-1.02,3.02
		C357.39,203.96,357.68,205.61,360.12,204.93z M404.02,146.81c5.45-1.75,10.41-3.31,15.33-4.96c1.01-0.34,0.72-1.38,0.57-2.13
		c-0.28-1.45-1.36-1.14-2.31-0.84c-4.39,1.39-8.75,2.83-13.14,4.21c-1.15,0.36-1.59,1.11-1.45,2.21
		C403.12,146.17,403.53,146.84,404.02,146.81z M442.75,142.73c-1.07-0.56,0.07-3.67-3.06-2.18c-3.34,1.6-7.07,2.4-10.65,3.48
		c-1.67,0.5-1.59,1.29-1.29,2.87c0.41,2.12,1.29,1.64,2.62,1.19c3.54-1.19,7.15-2.22,10.66-3.5
		C441.7,144.35,443.25,144.34,442.75,142.73z M711.71,70.97c6.86-2.47,14.21-5.11,21.53-7.8c0.29-0.11,0.61-0.82,0.52-1.15
		c-0.2-0.73-0.8-0.86-1.54-0.6c-7.05,2.47-14.11,4.92-21.16,7.4c-0.54,0.19-1.41,0.19-1.27,1.1
		C709.9,70.61,710.38,71.07,711.71,70.97z M737.28,54.01c6.11-2.07,11.97-4.07,17.84-6.01c1.06-0.35,1.19-0.99,0.97-1.86
		c-0.39-1.5-1.24-0.94-2.24-0.6c-5.56,1.89-11.15,3.67-16.72,5.53c-0.87,0.29-2,0.58-1.58,1.87
		C735.83,53.79,736.61,54.16,737.28,54.01z M360.7,177.15c-3.28,1.1-5.86,2.13-8.52,2.81c-2.03,0.52-1.96,1.23-1.45,3.1
		c0.55,2,1.39,2.41,3.02,1.86c2.6-0.88,5.09-2.18,7.75-2.79c2.35-0.54,0.77-1.51,0.61-2.36
		C361.88,178.54,361.99,177.02,360.7,177.15z M362.94,160.4c3.92-1.26,7.79-2.45,11.62-3.76c1.23-0.42,1.89-1.46,1.24-2.76
		c-0.56-1.13-1.57-0.85-2.57-0.51c-3.59,1.22-7.17,2.46-10.8,3.56c-1.57,0.47-1.63,1.46-1.27,2.65
		C361.42,160.44,362.04,160.9,362.94,160.4z M364.39,187.03c-3.79,1.23-6.94,2.06-9.91,3.3c-1.62,0.67-0.53,2.34-0.32,3.5
		c0.23,1.25,1.23,1.23,2.31,0.83c2.58-0.94,5.19-1.79,7.78-2.68c1.25-0.43,2.08-1.08,1.07-2.47
		C364.74,188.72,365.57,186.92,364.39,187.03z M347.09,172.43c0.96,0.83,0.5,3.6,3.38,2.55c2.29-0.84,4.64-1.52,6.94-2.34
		c1.32-0.47,2.11-1.2,1.65-2.91c-0.48-1.79-1.55-2.01-2.96-1.54c-2.47,0.82-4.9,1.75-7.34,2.64
		C348.07,171.09,346.99,170.86,347.09,172.43z M751.15,31.46c-0.11-1.27-0.71-1.85-1.65-1.55c-5.84,1.85-11.67,3.77-17.49,5.69
		c-0.91,0.3-1.36,1.08-0.89,1.94c0.5,0.9,1.51,0.57,2.23,0.34c5.29-1.73,10.57-3.51,15.83-5.32
		C749.91,32.31,750.56,31.8,751.15,31.46z M350.15,202.53c-2.21,1.53-5.94,0.52-6.88,4.06c-0.04,0.16-0.28,4.12,2.29,3.28
		c2.51-0.82,6.07-0.44,6.99-3.85C352.68,205.52,352.91,202.44,350.15,202.53z M426.62,139.43c4-1.38,7.99-2.76,11.99-4.15
		c0.77-0.27,1.74-0.51,1.11-1.63c-0.37-0.66-0.73-1.77-1.71-1.47c-4.1,1.25-8.17,2.59-12.22,4.01c-1.23,0.43-0.82,1.65-0.69,2.57
		C425.23,139.66,425.93,139.46,426.62,139.43z M758.71,54.44c-0.1-0.48-0.2-0.95-0.29-1.43c-6.88,1.05-13.09,4.46-19.78,6.19
		c-0.63,0.16-0.82,1.07-0.42,1.68c0.62,0.95,1.57,0.22,2.16,0.02C746.51,58.82,752.6,56.61,758.71,54.44z M339.73,189.89
		c1.64-1.93,5.79-0.18,6.19-3.97c0.17-1.59-0.71-3.82-2.79-2.77c-2.11,1.06-6.05-0.24-6.08,3.87
		C337.05,188.41,337.52,190,339.73,189.89z M356.09,161.51c0.04-1.64-0.49-2.38-2.35-1.69c-2.49,0.92-5.07,1.6-7.58,2.45
		c-1.11,0.38-1.96,0.81-1.33,2.45c0.65,1.68,1.49,1.34,2.67,0.89c2.3-0.86,4.62-1.63,6.93-2.47
		C355.2,162.86,356.71,163.3,356.09,161.51z M348.97,196.79c0.11-2.39-0.13-4.17-1.84-3.68c-2.48,0.7-5.7,0.45-7.01,3.24
		c-0.47,0.99,0.72,3.57,1.73,3.2C344.37,198.63,347.63,198.76,348.97,196.79z M336.09,179.92c1.86-1.88,5.71-0.42,6.75-3.66
		c0.25-0.77-0.14-3.7-2.12-2.82c-2.3,1.03-5.93,0.12-6.73,3.66C333.7,178.35,334.06,179.81,336.09,179.92z M333.55,170.11
		c1.81-1.27,5.48-0.08,6.3-3.52c0.26-1.08-1.17-2.11-2.45-1.41c-2.12,1.17-5.44,0.37-6.33,3.45
		C330.68,169.99,331.76,170.61,333.55,170.11z"/>
	<path fill="#FCFCFC" d="M153.56,304.14c4.03-0.01,7.85-3.25,7.97-6.77c0.12-3.75-3.7-7.1-8.09-7.08c-4.23,0.02-7.76,3.02-7.87,6.71
		C145.45,300.84,149.16,304.15,153.56,304.14z M145.87,328.32c4.32-0.08,7.89-3.21,7.78-6.81c-0.11-3.61-3.76-6.52-8.11-6.46
		c-4.49,0.06-7.77,2.96-7.67,6.77C137.97,325.52,141.52,328.4,145.87,328.32z M136.65,351.4c4.32,0.09,8.02-2.81,8.17-6.4
		c0.16-3.6-3.39-6.74-7.73-6.83c-4.4-0.09-7.98,2.72-8.12,6.39C128.83,348.25,132.26,351.32,136.65,351.4z M166.09,342.45
		c3.78-1.88,8.08-0.75,9.85-4.29c1.6-3.21,2.8-6.83,3.16-10.38c0.44-4.27-4.17-2.95-6.34-4.36c-1.93-1.26-2.4,0.6-2.75,2.13
		C168.8,330.84,167.56,336.13,166.09,342.45z"/>
	<path fill="#7F7F7F" d="M117.24,225.19c12.4,0.81,10.15-1.76,14.13,10.54c4.08,12.63,7.4,25.51,11.19,38.23
		c0.86,2.88,0.13,4.73-1.69,7.12c-7.34,9.63-18.8,12.88-28.56,18.62c-4.21,2.47-9.74-0.94-14.69-0.63
		c-10.35,0.65-15.22-4.14-17.05-14.34c-1.6-8.92-5.08-17.52-7.96-26.18c-0.83-2.48-0.54-3.98,1.69-5.4
		c8.82-5.62,16.2-12.62,20.97-22.1c0.67-1.33,1.63-2.45,3.29-2.81C105.02,226.84,111.28,224.13,117.24,225.19z"/>
	<path fill="#FF0606" d="M153.56,304.14c-4.4,0.01-8.11-3.3-7.99-7.14c0.11-3.68,3.64-6.69,7.87-6.71c4.39-0.02,8.21,3.33,8.09,7.08
		C161.41,300.89,157.59,304.14,153.56,304.14z"/>
	<path fill="#030303" d="M145.87,328.32c-4.35,0.08-7.9-2.8-8-6.5c-0.1-3.81,3.18-6.71,7.67-6.77c4.36-0.06,8.01,2.85,8.11,6.46
		C153.76,325.12,150.18,328.24,145.87,328.32z"/>
	<path fill="#030303" d="M136.65,351.4c-4.39-0.09-7.82-3.15-7.68-6.84c0.14-3.66,3.72-6.48,8.12-6.39
		c4.34,0.09,7.89,3.22,7.73,6.83C144.67,348.6,140.97,351.49,136.65,351.4z"/>
	<path fill="#030303" d="M166.09,342.45c1.47-6.32,2.71-11.61,3.92-16.91c0.35-1.53,0.82-3.39,2.75-2.13
		c2.18,1.42,6.78,0.09,6.34,4.36c-0.36,3.55-1.56,7.17-3.16,10.38C174.18,341.7,169.87,340.57,166.09,342.45z"/>
</g>
</svg>
