<?xml version="1.0" encoding="utf-8"?>
<!-- Generator: Adobe Illustrator 17.0.0, SVG Export Plug-In . SVG Version: 6.00 Build 0)  -->
<!DOCTYPE svg PUBLIC "-//W3C//DTD SVG 1.1//EN" "http://www.w3.org/Graphics/SVG/1.1/DTD/svg11.dtd">
<svg version="1.1" id="Layer_1" xmlns="http://www.w3.org/2000/svg" xmlns:xlink="http://www.w3.org/1999/xlink" x="0px" y="0px"
	 width="665.03px" height="427px" viewBox="0 0 665.03 427" enable-background="new 0 0 665.03 427" xml:space="preserve">
<g>
	<path fill="#FDFEFD" d="M413.75,333.87L475.77,65l178.84,46.76l-62.95,262.91C591.67,374.67,434.5,342.5,413.75,333.87z"/>
	<g>
		<path fill="#324761" d="M119.05,310.8c-1.2-1.93-1.15-4.07-1.15-6.24c0.03-91.23,0.05-182.46,0.06-273.7
			c0-5.82,0.27-11.66-0.11-17.46C117.45,7.27,119.83,2.98,125,0c0.67,0,1.33,0,2,0c1.89,1,3.93,0.49,5.89,0.49
			c118.74,0.03,237.48,0.02,356.22,0.05c1.96,0,4-0.48,5.9,0.46c3.97,1.39,6.44,4.78,6.28,8.35c-0.38,8.41,0.47,16.84-0.47,25.26
			c-0.2,1.78-1.5,2.13-1.83,3.37c-4.11,4.2-9.74,4.15-14.94,5.25c-1.09,0.23-1.75-0.83-2.1-1.77c-0.65-1.77-2.09-1.88-3.64-1.87
			c-109.97,0.06-219.93,0.03-329.89,0.04c-10.78,0-10.82,0.01-10.8,10.83c0.07,35.65,0.06,71.31,0.08,106.96
			c0.03,48.79-0.06,97.59-0.11,146.38c0,2.48,0.25,5.03-1.24,7.27C130.56,313.24,124.78,313.81,119.05,310.8z"/>
		<path fill="#FCD000" d="M119.05,310.8c5.7,0,11.41,0,17.11,0c6.4-2.6,9.32-0.97,9.38,5.73c0.14,16.09,0.25,32.18-0.05,48.27
			c-0.38,6.12,1.47,12.4-1.38,18.33c1.91,11.02-2.93,18.91-11.28,25.51c-3.62,2.86-6.73,6.41-9.81,9.88
			c-4.07,4.58-8.62,8.11-15.01,8.48c-2.33,0-4.67,0-7,0c-5-1.44-10.21,0.37-15.21-0.98c-0.42-1.38-0.03-2.31,1.5-2.44
			c1.8-0.16,3.6,0.01,4.95-0.07c-0.94-0.18-2.36-0.06-3.76,0.01c-2.36,0.12-3.25-1.17-3.57-3.23c-0.39-2.48-0.43-4.97-0.43-7.46
			c-0.02-13.31,0.28-26.62-0.09-39.92c-0.54-19.44,0.51-38.86,0.18-58.3c-0.02-1.16-0.08-2.34,0.47-3.42
			C96.37,311.04,107.71,310.92,119.05,310.8z"/>
		<path fill="#334860" d="M27.94,370.81C18.63,370.88,9.31,370.94,0,371c0-18.67,0-37.33,0-56c9.29-1.28,18.63-0.05,27.93-0.66
			c2.49,4.04,1.95,8.19,0.5,12.39c-3.54,1.1-6.5-1.68-10.07-1.38c-5.54,0.47-6.73,1.18-6.86,6.82c-0.16,7.16-0.11,14.32-0.02,21.48
			c0.06,5.07,1.31,6.08,6.4,5.68c3.56-0.28,7.22-1.86,10.59,0.74C29.82,363.72,30.36,367.34,27.94,370.81z"/>
		<path fill="#E6EDD8" d="M57,427c-0.03-0.29-0.06-0.57-0.08-0.86c0.23-0.24,0.43-0.65,0.69-0.69c9.47-1.51,18.94-2.09,28.37,0.35
			c4.97,0.89,10.15-0.98,15.02,1.2C86.33,427,71.67,427,57,427z"/>
		<path fill="#E8E8E8" d="M480.01,38.2c4.27-1.18,2.43,2.67,3.57,4.42c5.1-1.54,10.25-3.09,15.41-4.65c3.13,2.47,6.48,0.62,8.8-0.75
			c4.38-2.57,6.27-0.16,6.95,2.99c1.22,5.71,3.81,10.96,4.96,16.65c-5.86,1.28-11.74,2.39-18.57,5.1c3.03,1.1,4.78,1.92,6.61,2.37
			c16.93,4.18,33.36,10.09,50.45,13.84c24.53,5.38,48.99,11.15,73.36,17.32c7.16,1.81,14.35,3.95,21.82,4.61
			c2.26,0.2,4.01,1.01,3.1,4.26c-1.57,5.67-2.81,11.47-3.76,17.28c-0.76,4.67-3.47,4.93-7.12,4.05c-6.6-1.59-13.17-3.3-19.81-4.71
			c-24.91-5.28-49.55-11.74-74.38-17.35c-16.71-3.77-33.46-7.53-50.04-11.95c-8.76-2.33-17.79-3.62-26.36-6.72
			c-1.82-5.28-1.82-5.26-7.5-3.49c-1.2,0.37-2.35,1.2-3.71,0.53c-0.26-0.43-0.42-0.88-0.48-1.38c0.27-5.7,0.19-5.94-5.32-4.22
			c-19.23,5.98-38.72,11.1-57.74,17.75c-4.19,1.46-8.93,1.57-12.29,5.06c-1.7-0.14-2.04-1.54-2.37-2.77
			c-1.58-5.89-3.97-11.53-5.5-17.44c-1.37-4.18,0.2-6.4,4.41-7.64c10.8-3.17,21.63-6.28,32.37-9.65c5.03-1.58,10.11-3.06,14.93-5.26
			c13.98-3.54,27.8-7.69,41.6-11.88C476.57,43.61,480.58,43.21,480.01,38.2z"/>
		<path fill="#324761" d="M144.11,383.13c0-5.97,0.01-11.94,0.01-17.91c2.27-2.36,5.25-1.81,8.02-1.82
			c23.33-0.05,46.66-0.03,69.99-0.03c83.33,0,166.65,0.01,249.98-0.04c2.91,0,6.05,0.81,8.6-1.45c1.71-2.89,0.22-6.08,0.88-9.05
			c0.42-1.89-0.03-4.63,3.4-4.01c4.21,1.87,8.9,1.89,13.19,4c2.53,1.25,3.12,2.42,3.14,4.6c0.04,5.82,0.16,11.65-0.09,17.47
			c-0.24,5.54-5.09,8.47-9.09,8.49c-42.61,0.24-85.23,0.21-127.84-0.07c-32.46-0.21-64.92,0.54-97.38,0.13
			c-37.45-0.47-74.9,0.13-112.34,0.09C151.09,383.53,147.6,383.27,144.11,383.13z"/>
		<path fill="#ECEDF1" d="M441,227c-1.99,8-3.99,16-5.98,24c-3.85-0.66-8.57,1.41-11.09-3.5c-0.68-3.28,0.68-6.23,1.41-9.29
			c1.33-5.56,0.62-6.8-5.05-6.63c-15.63,0.46-31.26,1-46.9,1.17c-6.54,0.07-7.26-0.8-7.48-7.2c-0.83-24.14-0.2-48.27-0.41-72.41
			c-0.03-4-0.19-8,0.12-11.99c0.51-6.52,2.61-8.47,9.09-8.65c2.5-0.07,5,0.02,7.49-0.07c2.7-0.11,3.48-1.34,2.59-3.92
			c-1.35-3.93-2.33-7.97-3.29-12.01c-0.03-0.57,0.1-1.12,0.35-1.63c3.13-2.07,7.4-0.37,10.34-3.11c2.96,1.32,2.66,4.46,3.16,6.75
			c1.08,5.02,4.5,9.57,3.23,15.08c-1.3,1.66-3.27,1.46-5.03,1.64c-2.78,0.27-3.22,1.58-2.44,4.06c4.62,14.74,8.69,29.66,13.54,44.31
			c1.78,5.39,3.97,10.88,6.98,15.86c1.97,3.26,2.91,6.78,2.46,10.49c-0.51,4.23,1.46,4.42,4.67,3.5c3.21-0.93,6.2-2.43,9.39-3.36
			c5.03-1.46,6.84,0.09,5.42,5.03c-0.93,3.22-1.19,6.53-2,9.76c-0.35,1.4-1.17,3.02,0.41,4.11c1.46,1.01,3.17,0.68,4.83,0.32
			C438.46,228.95,439.01,226.67,441,227z"/>
		<path fill="#ECEDF1" d="M430.97,268.97c-1.65,7.35-3.3,14.69-4.96,22.04c-3.27-2.72-7.74-0.68-11.17-2.79
			c-0.37-0.48-0.6-1.02-0.69-1.62c0.18-3.69,1.41-7.17,2.15-10.75c0.97-4.66,0.68-5.08-4.22-5.26c-1.5-0.05-3-0.02-4.49-0.02
			c-41.77-0.01-83.55,0.03-125.32,0c-1.83,0-3.66,0.05-5.49-0.07c-5.44-0.35-6.94-1.89-7.29-7.4c-0.87-13.56,0.17-14.68,13.54-14.69
			c15.48,0,30.96,0.22,46.44-0.05c28.93-0.5,57.86,0.45,86.79,0.06c2.32-0.03,4.67-0.17,6.91,0.68c2.32,1.28,1.43,3.4,1.36,5.3
			c-0.1,2.84-1.04,5.5-1.78,8.21c-0.86,3.14-0.33,5.25,3.6,5.04C427.98,267.57,429.65,267.75,430.97,268.97z"/>
		<path fill="#ECEDF1" d="M421.99,307c-1.72,6.99-2.25,14.27-4.97,21.02c-2.16-0.11-4.31,0.27-6.46,0.22
			c-1.94-0.05-4.11,0.21-5-2.27c-0.55-4.26,0.99-8.23,1.75-12.29c0.64-3.4-0.49-5.07-4.05-5.06c-2.99,0.01-5.99-0.04-8.99-0.02
			c-31.62,0.2-63.24-0.34-94.86,0.27c-7.31,0.14-14.61-0.41-21.94,0.27c-5.45,0.5-7.62-1.72-8-7.11
			c-1.02-14.59-0.07-15.44,14.63-15.66c9.33-0.14,18.57,1.66,27.91,1.04c31.59-2.13,63.21-0.46,94.82-0.95
			c2.78-0.04,5.71-0.5,8.14,1.54l0.05,0.05c1.28,1.49,0.74,3.14,0.39,4.75c-0.41,1.95-0.98,3.87-1.41,5.82
			c-1.67,7.64-1.59,7.76,6.06,7.92C420.76,306.54,421.4,306.67,421.99,307z"/>
		<path fill="#ECEDF1" d="M590.05,257.57c-12.9-2.98-25.8-5.93-38.7-8.94c-26.73-6.24-53.46-12.44-80.15-18.83
			c-4.18-1-8.3-2.29-12.58-2.87c-1.27-0.17-2.57-0.84-2.36-2.1c0.58-3.57,1.31-7.15,2.39-10.6c0.45-1.43,2.1-0.94,3.5-0.73
			c11.78,1.79,23.2,5.13,34.76,7.91c15.43,3.71,31.05,6.71,46.38,10.78c10.07,2.68,20.35,4.4,30.4,7.28
			c5.61,1.61,11.53,2.67,17.36,3.79c5.38,1.03,5.96,2.59,3.65,7.59c-0.6,1.29-0.66,2.55-0.72,3.86
			C593.87,257.32,592.43,258.2,590.05,257.57z"/>
		<path fill="#ECEDF1" d="M621.83,135.51c-0.83,4.58-1.3,7.85-2.04,11.07c-0.41,1.8-1.98,1.41-3.28,1.1
			c-9.31-2.21-18.54-4.87-27.94-6.55c-12.23-2.18-24-6.22-36.27-8.25c-7.12-1.18-14.08-3.34-21.13-5.01
			c-14.79-3.51-29.58-7.04-44.4-10.41c-3.17-0.72-4.67-1.27-3.97-5.41c1.85-10.96,1.4-10.66,12.02-7.69
			c16.36,4.57,33.06,7.82,49.54,11.91c11.84,2.94,23.79,5.42,35.58,8.62c12.76,3.46,25.75,6.11,38.66,9.03
			C620.37,134.31,621.81,134.72,621.83,135.51z"/>
		<path fill="#ECEDF1" d="M447.94,267.99c6.15,1.26,11.52,2.22,16.82,3.47c11.73,2.76,23.44,5.58,35.12,8.53
			c6.39,1.62,12.81,3.43,19.21,4.6c10.87,1.98,21.35,5.4,32.18,7.45c5.18,0.98,10.25,2.59,15.37,3.93c0.62,0.16,1.56,0.29,1.76,0.71
			c1.97,4.21-1.1,7.62-2.2,11.26c-0.71,2.34-3.18,2.14-5.56,1.45c-18.54-5.33-37.38-9.45-56.22-13.57
			c-12.1-2.64-24.06-5.92-36.09-8.87c-7.2-1.77-14.44-3.36-21.6-5.25c-1.98-0.52-4.44-1.35-2.91-4.49
			C445.33,274.09,442.73,268.73,447.94,267.99z"/>
		<path fill="#ECEDF1" d="M475.6,158.01c5.68,1.38,11.92,2.93,18.17,4.39c17.18,4.01,34.42,7.85,51.56,11.97
			c14.75,3.54,29.58,6.8,44.3,10.52c2.49,0.63,5.06,1.86,4.85,4.15c-0.32,3.49-0.34,7.34-2.72,10.36c-0.53,0.67-1.49,0.46-2.35,0.26
			c-11.71-2.83-23.37-5.95-35.17-8.34c-6.77-1.37-13.29-3.61-20.21-4.59c-7.11-1-13.92-3.94-21.08-5.35
			c-10.7-2.12-21.25-5.04-31.94-7.23c-3.09-0.63-5.78-2.49-9.09-2.43c-1.24,0.02-2.72-1.3-2.52-2.68c0.46-3.26,1.2-6.5,2.14-9.66
			C471.99,157.93,473.66,158,475.6,158.01z"/>
		<path fill="#ECEDF1" d="M568.03,223.96c-5.27-1.47-11.44-3.39-17.71-4.89c-18.31-4.36-36.59-8.92-55.03-12.66
			c-9.68-1.96-19.08-5.08-28.86-6.52c-2.22-0.33-3.4-1.5-3.5-4.02c-0.14-3.51,2.02-6.27,2.63-9.52c0.25-1.32,1.74-0.97,2.97-0.68
			c11.09,2.61,22.17,5.28,33.25,7.87c10.92,2.55,21.86,5.11,32.84,7.49c12.58,2.72,25.04,5.98,37.55,9.02
			c0.63,0.15,1.5,0.28,1.78,0.73c2.4,3.86-0.89,7.22-1.13,10.88C572.69,223.76,570.82,224.03,568.03,223.96z"/>
		<path fill="#ECEDF1" d="M541.47,333.73c-4.25-2.2-10.54-2.2-16.33-3.97c-13.12-4.01-26.67-6.14-39.88-9.7
			c-10.16-2.73-20.5-4.72-30.67-7.48c-4.2-1.14-8.51-2.63-13.07-2.66c-3.87-0.02-6.02-1.65-4.06-5.97c0.46-1.01,0.4-2.26,0.55-3.4
			c0.6-4.66,2.57-5.79,7.07-4.7c11.69,2.84,23.57,4.98,35.1,8.34c9.49,2.77,19.16,4.82,28.7,7.21c9.7,2.42,19.52,4.72,29.38,6.63
			c2.92,0.56,5.78,1.41,8.66,2.14c0.32,0.08,0.74,0.18,0.89,0.41c2.12,3.35-0.17,6.65-0.29,9.96
			C547.43,332.8,545.59,334.37,541.47,333.73z"/>
		<path fill="#F15F4B" d="M623.13,251.1c6.61-9.99,13.27-19.94,19.79-29.98c4.37-6.72,6.47-7.15,12.57-2.05
			c1.51,1.26,2.96,2.6,4.44,3.9c-2.77,1.67-4.72,3.94-6.11,6.92c-1.76,3.77-4.33,7.13-7.03,10.26
			c-10.26,11.91-18.36,25.22-25.97,38.88c-4.29,7.7-9.65,14.72-14.52,22.02c-4.7,7.05-8.42,14.68-13.5,21.47
			c-1.31,1.75-2.61,3.46-4.85,4.09c-3.6,0.36-5.8-2.13-8.11-4.19c-2.14-1.91-0.88-3.97,0.31-5.81
			c6.55-10.18,13.14-20.34,19.48-30.66c5.73-9.33,12.01-18.3,17.56-27.75C618.75,255.55,619.92,252.42,623.13,251.1z"/>
		<path fill="#ECEDF1" d="M475.72,140.22c0.67-2.55,1.24-5.13,2.06-7.63c0.65-1.97,1.89-2.71,4.24-2.15
			c20.36,4.89,40.77,9.62,61.15,14.43c8.66,2.05,17.31,4.19,25.96,6.28c3.47,0.84,5.26,1.99,4.11,6.5
			c-2.16,8.48-1.71,8.51-10.37,6.5c-9.34-2.16-18.74-4.04-28.06-6.23c-18.29-4.3-36.55-8.71-54.81-13.12
			C477.71,144.27,475.26,143.63,475.72,140.22z"/>
		<path fill="#ECEDF1" d="M547.98,265.45c0.22,3.54-1.94,6.17-2.6,9.25c-0.31,1.44-2.02,1.28-3.43,0.81
			c-9.07-3.04-18.52-4.9-27.79-6.89c-10.16-2.18-20.22-4.9-30.47-6.79c-10.68-1.97-21.13-5.2-31.63-8.05
			c-2.86-0.78-2.21-3.46-1.88-5.5c0.37-2.26,1.93-4.18,1.97-6.64c0.03-1.58,1.29-1.55,2.6-1.24c12.53,2.97,25.07,5.9,37.61,8.84
			c9.65,2.26,19.31,4.52,28.97,6.75c7.71,1.78,15.43,3.51,23.14,5.32C546.69,261.83,548.67,262.74,547.98,265.45z"/>
		<path fill="#D34D37" d="M587.94,326.14c3.32-3.22,5.75-7.03,8.13-11.01c5.76-9.63,11.67-19.21,18.18-28.34
			c6.08-8.54,10.51-18,16.22-26.73c6.08-9.29,13.09-17.85,19.76-26.67c1.63-2.16,2.9-4.46,3.94-6.87c1.14-2.66,2.87-3.94,5.77-3.54
			c6.32,4.06,6.38,4.09,2.25,10.39c-17.42,26.58-34.91,53.12-52.32,79.72c-4.08,6.24-7.92,12.63-11.87,18.96
			c-4.67,1.45-7.05-2.13-9.97-4.53C587.75,327.06,587.72,326.61,587.94,326.14z"/>
		<path fill="#D9DADE" d="M441,227c-1.4,4.81-5.28,4.15-8.87,3.95c-2.58-0.15-3.69-1.58-2.55-4.04c1.91-4.11,1.06-8.81,3.13-12.97
			c1.11-2.24,0.43-4.22-3.11-3.03c-4.39,1.47-8.56,3.54-13.16,4.5c-3.52,0.74-4.74,0.13-3.9-3.65c1.04-4.72-0.29-8.73-2.91-13.01
			c-2.74-4.49-4.89-9.69-6.39-14.71c-3.44-11.53-7.06-23-10.46-34.54c-1.12-3.79-1.7-7.73-3.54-11.33
			c-1.41-2.76-0.48-4.56,2.91-4.15c1.97,0.24,3.91-1.07,5.86-0.04c2.2-0.03,1.99,1.88,2.44,3.16c5.46,15.72,10.09,31.67,14.28,47.77
			c1.63,6.27,4.65,12.09,6.36,18.37c0.71,2.59,2.58,3.19,5.09,2.41c2.69-0.84,5.3-2.01,8.12-2.39c0.49-0.01,0.96,0.1,1.42,0.29
			c1.32,1.13-0.21,2.52,0.39,3.87c2.82,1.23,6.14-3.83,8.81,0.47C443.62,214.29,442.31,220.65,441,227z"/>
		<path fill="#EBE6E8" d="M587.94,326.14c0.04,0.26,0.08,0.51,0.12,0.77c-0.38,6.03-4.51,10.28-8.32,13.9
			c-2.08,1.98-3.4,4.6-5.74,6.25c-1.47,1.05-2.84,2.33-4.46,3.08c-1.6,0.75-3.11,3.05-4.68,2.17c-1.89-1.05-1.14-3.76-0.76-5.5
			c1.68-7.68,1.45-15.95,5.24-22.96c3.67-6.78,8.49-12.93,12.73-19.41c7.5-11.45,14.92-22.94,22.4-34.4
			c3.87-5.93,7.92-11.75,11.67-17.76c2.04-3.27,4.1-4.03,6.98-1.17c-10.42,16.7-20.81,33.42-31.29,50.08
			c-3.26,5.18-6.57,10.35-10.21,15.26c-2.24,3.02-2.75,4.99,1.17,6.86C584.54,324.12,585.87,325.81,587.94,326.14z"/>
		<path fill="#ECEDF1" d="M463.98,80.98c0.01,0.34,0.01,0.69,0.02,1.03c0.99,2.52-0.01,4.9-0.67,7.24
			c-0.84,2.98-0.37,4.18,2.99,2.95c2.11-0.77,4.2-2.14,6.65-1.22c-0.99,4.01-1.97,8.02-2.96,12.03c-2.13-0.62-4.17-0.51-6.26,0.37
			c-1.61,0.68-3.31,1.69-5.15,0.48c-0.29-0.43-0.48-0.9-0.57-1.41c0.1-5.87-0.15-5.97-5.74-4.11c-14.96,4.97-30.12,9.26-45.19,13.86
			c-5.45,1.66-7.39,0.59-8.69-4.17c-1.51-5.51,0-8.79,5.02-10.05c9.35-2.33,18.46-5.48,27.72-8.09c9.6-2.69,18.98-6.08,28.6-8.67
			C461.15,80.85,462.5,79.84,463.98,80.98z"/>
		<path fill="#EAEAEC" d="M435.99,203.99c-0.34,0-0.67-0.01-1.01-0.01c-1.19-4.24,0.19-8.2,1.31-12.19
			c2.07-7.36,3.87-14.79,5.61-22.22c1.04-4.44,0-5.3-4.24-3.86c-4.25,1.45-8.52,2.87-12.88,3.93c-5.35,1.3-8.76-1.11-9.69-6.46
			c-0.45-2.58,0.17-4.85,2.73-5.77c9.2-3.32,18.53-6.23,28.12-8.2c0.5,0.11,0.94,0.35,1.33,0.68c1.48,2.35,0.84,4.8,0.21,7.19
			c-0.71,2.7,0.23,3.24,2.74,2.61c2.19-0.55,4.38-1.68,6.75-0.69c-1.55,6.49-3.13,12.98-4.64,19.48
			c-1.82,7.85-3.58,15.71-5.37,23.57C443.27,202.47,440.03,205.49,435.99,203.99z"/>
		<path fill="#ECEDF1" d="M458.99,102.98c0,0.33,0.01,0.67,0.01,1c0.89,2.37-0.62,4.47-0.79,6.73c-0.38,4.97-0.5,4.94,4.11,3.55
			c1.83-0.55,3.69-1.66,5.65-0.31c-0.99,3.01-1.98,6.03-2.97,9.04c-3.31,2.96-7.8,2.7-11.63,4.26c-0.51-0.21-0.83-0.57-0.97-1.1
			c-0.16-0.83-0.1-1.67,0.11-2.47c0.82-3.2-0.55-3.93-3.4-3.09c-8.11,2.41-16.16,5.05-24.26,7.5c-3.97,1.2-7.92,2.48-11.89,3.67
			c-5.28,1.58-7.58,0-9.35-5.86c-1.33-4.41-0.24-5.65,5.09-7.63c16.03-5.97,32.84-9.41,48.85-15.4
			C458.02,102.7,458.52,102.81,458.99,102.98z"/>
		<path fill="#ECEDF1" d="M462.98,134.99c-1,3.68-2.01,7.36-3.01,11.04c-4.06,2.18-8.42,3.39-12.96,4l-0.03-0.05
			c-0.59-0.7-0.54-1.5-0.4-2.34c0.92-5.49,0.56-5.77-4.87-3.87c-7.67,2.68-15.51,4.81-23.32,7.04c-4.98,1.42-7.45-0.3-9.01-5.77
			c-1.22-4.29,0.1-6.3,5.12-7.8c11.12-3.31,22-7.41,33.27-10.24c1.75-0.44,3.45-1.41,5.19-0.02l0.04,0.04
			c0.96,2.46,0.19,4.93-0.11,7.36c-0.32,2.62,0.69,3.18,3.12,2.84C458.51,136.87,460.29,134.53,462.98,134.99z"/>
		<path fill="#D9DADE" d="M406,326.99c2.92-0.18,5.87,0.42,8.74-0.71c1.42-0.56,2.1,0.39,2.28,1.73c-1.28,3.52-0.02,5.13,3.67,5.85
			c10.53,2.05,20.75,5.43,31.35,7.23c3.71,0.63,7.09,2.75,10.97,2.89c0.52,4.18-2.86,3.36-4.92,3.44
			c-7.46,0.29-14.92,0.15-22.39,0.09c-2.31-0.02-4.64-0.32-6.92,0.32c-3.02,0.76-5.88-0.2-8.77-0.81
			c-3.74-0.61-7.37-1.65-11.04-2.57c-5.24-1.32-6.41-2.46-6.31-7.76c0.06-3.3,0.14-6.67,2.56-9.36
			C405.47,327.23,405.73,327.11,406,326.99z"/>
		<path fill="#E8E8E8" d="M428,347c1.47-1.64,3.43-0.96,5.18-0.97c8.49-0.07,16.98,0,25.47-0.06c1.66-0.01,3.88,0.81,4.36-1.98
			c7.27,1.88,14.84,2.39,21.98,4.84c-2.59,0.06-1.98,2-2.01,3.5c-0.08,3.55-0.1,7.1-0.14,10.66c-11.89-4.78-24.64-6.32-36.91-9.66
			c-4.47-1.22-9.01-2.27-13.55-3.23C430.58,349.71,428.27,349.7,428,347z"/>
		<path fill="#D9DBDD" d="M421.99,307c-0.15,0.07-0.3,0.13-0.45,0.2c-3.16,1.33-7.14,1.9-9.39,0.09c-1.68-1.35-0.24-5.44,0.36-8.26
			c0.78-3.68,1.67-7.33,2.52-11c2.59-0.01,5.18,0.06,7.76-0.06c2.23-0.1,3.38,0.72,3.23,3.04
			C424.68,296.34,423.33,301.67,421.99,307z"/>
		<path fill="#D8DADC" d="M430.97,268.97c-1.48,0.01-2.95,0.03-4.43,0.04c-6.85,0.01-7.35-0.15-5.25-6.66
			c1.32-4.1,1.35-8.35,2.69-12.36c-0.23-0.89,0.11-1.22,1-1.02c3.19,1.47,7.14-0.83,10.04,2.03
			C434.49,257.18,432.28,262.97,430.97,268.97z"/>
		<path fill="#D9DADE" d="M472.97,90.98c-2.77,1.06-5.58,2.05-8.32,3.19c-2.89,1.2-3.85-0.08-3.3-2.69c0.68-3.2,1.75-6.32,2.64-9.48
			c2.54-2.24,5.98-2.4,8.92-3.73c1.66-0.75,3.32-0.21,2.72,2.39c-0.33,1.41-0.45,2.88-0.66,4.32
			C473.54,86.72,473.11,88.8,472.97,90.98z"/>
		<path fill="#DADBDE" d="M447.02,150.02c3.87-2.79,8.32-3.7,12.96-4c-1,4.32-2,8.64-3,12.96c-3.45,0.95-7.7,3.59-10.17,2.44
			c-3.43-1.61,0.93-5.78,0.22-8.95C446.86,151.7,447.01,150.84,447.02,150.02z"/>
		<path fill="#DADBDE" d="M462.98,134.99c-0.65,0.49-1.3,0.97-1.94,1.47c-2.57,1.99-5.83,3.18-8.62,2.18
			c-3.43-1.24,0.1-4.21-0.37-6.44c-0.37-1.75-0.04-3.58,0.96-5.19c3.44-3,7.94-2.82,11.98-4C464.32,127,463.65,130.99,462.98,134.99
			z"/>
		<path fill="#D9DADD" d="M467.96,113.97c-0.94,0.29-1.91,0.88-2.82,0.81c-3.05-0.24-6.42,4.62-8.32,1.27
			c-1.37-2.42-0.38-6.96,1.29-10.29c0.3-0.59,0.59-1.18,0.88-1.77c2.11-0.87,4.17-1.89,6.35-2.55c1.77-0.54,3.97-1.45,4.67,1.57
			C469.9,106.77,467.4,110.08,467.96,113.97z"/>
		<path fill="#D8D9DA" d="M574,347.04c-0.4-5.63,5.52-6.5,7.71-10.22c1.99-3.38,4.23-6.62,6.36-9.93c3.62,1.12,5.69,5.24,9.94,5.13
			C589.79,336.71,583.15,343.88,574,347.04z"/>
		<path fill="#C6CACD" d="M435.99,203.99c3.73-0.24,6.89-3.68,10.97-1.95c-0.68,1.97-1.36,3.94-2.04,5.9
			c-1.91-1.31-3.64-0.57-5.51,0.27c-1.53,0.69-3.57,2.29-4.88,0.91C432.79,207.28,435.22,205.66,435.99,203.99z"/>
		<path fill="#E7BE05" d="M85.98,425.8c-9.69,0.11-19.37,0.23-29.06,0.34c-8.82-8.78-17.59-17.61-26.51-26.28
			c-1.85-1.8-2.43-3.66-2.41-6.13c0.08-7.64-0.03-15.27-0.07-22.91c0-3.8-0.01-7.6-0.01-11.4c-0.48-0.48-0.96-1.03-1.01-1.68
			c-0.79-9.63-0.79-19.26,0-28.89c0.05-0.66,0.54-1.2,1.03-1.67c0-4.28-0.01-8.56-0.01-12.84c-0.25-2.48,0.7-3.42,3.35-3.4
			c17.92,0.16,35.84,0.17,53.75,0.23c0.43,1.03,1.49,1.68,1.39,3.07c-0.94,13.29-0.31,26.6-0.39,39.9
			C85.91,374.2,86,394.26,86,414.32c0,8.37,0,8.36,8.23,8.7c0.57,0.02,1.14,0.2,1.96,0.35C92.85,425.48,88.52,421.68,85.98,425.8z"
			/>
		<path fill="#FDFEFD" d="M424.98,248.97c-0.33,0.34-0.66,0.68-1,1.02c-20.81,0-41.63,0.25-62.44-0.13
			c-7.21-0.13-14.62-0.7-21.66-0.42c-12.96,0.52-25.91,0.19-38.85,0.51c-8.32,0.21-16.65,0.15-24.98-0.01
			c-3.55-0.07-5.19,1.01-5.1,4.83c0.41,17.09-2.44,13.85,13.62,14.24c13.79,0.34,27.63,0.61,41.37,0.35
			c29.29-0.54,58.56,0.03,87.84-0.35c6.26-0.08,6.15-0.03,4.36,6.03c-1.25,4.25-2.12,8.62-3.16,12.94
			c-29.81,0.01-59.62,0.08-89.43-0.03c-5.67-0.02-11.17,1.28-16.86,1.15c-10.79-0.26-21.53-1.55-32.35-1.2
			c-4.19,0.13-5.72,1.51-5.39,5.59c0.24,2.98,0.3,6.02-0.01,8.98c-0.48,4.54,2.44,6.02,5.71,5.37c9.74-1.93,19.49-0.57,29.21-0.68
			c32.47-0.38,64.95-0.14,97.42-0.14c6.81,0,6.89,0.02,5.69,6.46c-0.85,4.54-1.97,9.02-2.97,13.53c0,0,0,0,0,0
			c-2.64,1.87-5.69,1.61-8.67,1.61c-38.11,0.01-76.21,0-114.32,0.01c-10.5,0-11.8,1.57-10.32,11.92c0.34,2.38,1.39,3.58,3.78,3.73
			c2,0.13,3.99,0.11,5.99,0.12c41.43,0.08,82.87-0.14,124.3,0.11c4.47,0.03,8.83,1.11,13.26,1.5c2.66,0.34,5.33,0.67,7.99,1.01
			c1.99,1.76,4.55,1.64,6.94,2.2c14.88,3.46,29.73,7.1,44.62,10.5c2.08,0.47,2.27,2.12,3.28,3.29c0.29,1.4-0.12,2.25-1.71,2.25
			c-2-0.01-3.99,0.02-5.99,0.02c-110.34-0.01-220.68-0.02-331.03-0.03c-0.06-15.26-0.12-30.51-0.17-45.77
			c-0.02-8.12-0.01-8.12-7.79-8.65c0.05-42.49,0.12-84.99,0.14-127.48c0.02-45.66,0-91.31,0.01-136.97c0-1.33,0.09-2.67,0.03-4
			c-0.13-3.32,1.18-4.39,4.7-4.39c112.16,0.1,224.32,0.07,336.48,0.07c0.83,0,1.66,0.11,2.49,0.17c2.6,2.25,3.31,4.38-0.68,5.74
			c-13.83,4.72-27.92,8.59-42.03,12.41c-1.73,0.47-3.59,0.47-5.38,0.69c-4.08,1.88-8.44,1.56-12.74,1.56
			c-83.8,0.02-167.6,0.01-251.4,0.01c-10.16,0-10.17,0-10.17,10.06c0,11.83-0.01,23.66,0,35.49c0.01,9.21,0.01,9.21,9.46,9.22
			c3.83,0,7.66-0.04,11.5,0.02c2.16,0.03,4.35-0.05,6.3,1.17c3.84,4.79,4.47,10.63,5.07,16.4c0.37,3.6-2.42,4.38-5.28,4.49
			c-6.82,0.27-13.64,0.04-20.47,0.13c-6.2,0.07-6.59,0.4-6.6,6.45c-0.03,26.62-0.04,53.25,0,79.87c0.01,6.07,0.42,6.46,6.57,6.48
			c15.48,0.05,30.95,0.01,46.43,0.02c2.33,0,4.66-0.1,6.98,0.29c1.29,0.19,2.41,0.7,3.26,1.73c2.72,3.78,5.55,7.5,7.57,11.71
			c1.38,2.87,3.32,3.82,6.42,3.07c13.74-3.35,27.73-6.44,40.67-11.82c9.36-3.89,18.45-4.68,27.97-4.86
			c12.31-0.23,24.63-0.01,36.94-0.08c5.56-0.03,6.05-0.49,6.06-5.96c0.05-26.96,0.05-53.92,0-80.88c-0.01-5.65-0.5-6.09-6.44-6.11
			c-14.15-0.05-28.29-0.01-42.44-0.02c-2.32,0-4.66,0.16-6.96-0.4c-1.84-0.51-2.54-1.96-2.93-3.64c-0.3-1.29-0.73-2.54-1.18-3.79
			c-3.46-9.68-9.16-12.19-18.9-8.32c-1.6,0.64-3.49,2.18-4.89,0.15c-1.36-1.97-1.16-4.1,1.27-5.46c2.42-0.84,4.93-0.66,7.41-0.66
			c34.04-0.02,68.09-0.03,102.13,0.03c2.9,0,6.05-0.73,8.48,1.76c1.75,5.12,3.38,10.28,5.29,15.34c1.11,2.95-0.13,3.54-2.69,3.51
			c-3.83-0.06-7.68,0.24-11.48-0.09c-3.64-0.31-5.25,1.39-5.79,4.59c-0.28,1.62-0.34,3.3-0.34,4.95
			c-0.02,23.98,0.02,47.95-0.05,71.93c-0.01,4.41,1.66,8.73,0.18,13.26c-0.64,1.95,0.88,3.73,3.25,3.01
			c4.11-1.24,8.29-0.77,12.39-0.6c13.31,0.53,26.54-1.39,39.84-1.07c5.3,0.13,5.89,1.02,4.77,6.35
			C426.52,240.54,424.34,244.49,424.98,248.97z"/>
		<path fill="#EB4A2B" d="M141.77,11.35c4.33,0.03,7.54,3.31,7.43,7.6c-0.1,4.27-3.04,7.12-7.29,7.07
			c-4.27-0.05-7.14-2.95-7.13-7.18C134.8,14.73,137.98,11.33,141.77,11.35z"/>
		<path fill="#EEE9E3" d="M187.79,18.79c0.06,3.77-3.5,7.29-7.38,7.31c-3.92,0.02-7.34-3.4-7.34-7.32c0-3.92,3.41-7.32,7.34-7.33
			C184.3,11.45,187.72,14.86,187.79,18.79z"/>
		<path fill="#71C5BB" d="M153.87,18.51c0.04-3.9,3.44-7.36,7.2-7.33c3.81,0.03,7.15,3.5,7.15,7.41c-0.01,3.95-3.35,7.33-7.22,7.32
			C157.23,25.89,153.83,22.37,153.87,18.51z"/>
		<path fill="#F2F5F6" d="M473.52,21.09c-2.16,0-4.31-0.03-6.47,0.01c-1.79,0.04-3.26,0.02-3.11-2.54c0.12-2.05,1.1-2.44,2.84-2.42
			c4.48,0.07,8.95,0.12,13.43,0.01c2.2-0.05,2.82,0.83,2.82,2.93c0,2.52-1.69,1.94-3.05,1.98
			C477.83,21.13,475.68,21.08,473.52,21.09z"/>
		<path fill="#79C3BC" d="M382.03,115.17c-35.53-0.05-71.07-0.11-106.6-0.15c-4.15-0.01-8.3,0.07-12.45,0.1
			c-0.72,0.1-1.31-0.15-1.71-0.73c-5.55-7.89-13.07-6.94-20.89-4.64c-1.8,0.72-3.55,1.06-5.03-0.65c-4.35-4.84-10.21-5.17-15.92-0.9
			c-4.2,3.14-4.55,3.03-6.53-1.75c-2.04-4.94-2.94-10.2-4.2-15.35c-0.64-2.61-1.42-5.14-2.62-7.51c-1.92-3.83-5.97-5.78-9.94-4.97
			c-3.93,0.8-6.35,3.62-6.84,8.04c-0.16,1.48-0.04,3.01-1.04,4.28c-2.47-1.49-2.47-1.49-2.08-5c-8.34,7.53-4.78,16.06-0.84,24.61
			c0.5,1.09,0.73,2.21,0.49,3.4c-0.14,0.51-0.41,0.93-0.81,1.28c-7.82-0.07-15.66-0.49-23.45-0.09c-5.02,0.26-6.03-1.5-5.94-6.17
			c0.29-15.31,0.31-30.63-0.01-45.94c-0.1-4.87,1.35-6.07,6.12-6.06c86.72,0.14,173.45,0.11,260.17,0.11c3.33,0,6.66-0.02,9.99-0.02
			c0.07,2-1.53,1.73-2.75,2.1c-15.33,4.65-30.62,9.44-46,13.92c-4.08,1.19-1.68,3.79-2,5.84c-0.09,0.32-0.19,0.68-0.43,0.88
			c-5.89,4.89-5.79,4.86-3.46,12.61c1.72,5.71,3.68,11.37,4.94,17.21c0.37,1.72,1.28,3.53-0.28,5.17L382.03,115.17z"/>
		<path fill="#FDFDFD" d="M452.97,126.97c-10.74,3.23-21.48,6.44-32.21,9.68c-2.05,0.62-4.03,1.6-6.12,1.92
			c-3.31,0.51-5.44,1.72-4.43,5.48c1.33,4.95,3.98,6.94,7.72,5.78c8.47-2.63,16.9-5.37,25.36-8.01c1.64-0.51,3.62-2.26,4.98-0.58
			c1.52,1.88,1.1,4.34-0.38,6.46c-0.45,0.65-0.6,1.51-0.89,2.27c-9.34,2.72-18.67,5.45-28.01,8.16c-2.89,0.84-3.65,2.83-2.59,5.38
			c1.17,2.83,2.04,6.51,6.44,5.3c4.43-1.21,8.76-2.77,13.15-4.15c1.1-0.35,2.22-0.62,3.34-0.9c4.36-1.08,5.42-0.12,4.48,4.31
			c-0.82,3.86-1.86,7.67-2.81,11.5c-2,8.13-4,16.26-6,24.4c-3.13,1.08-6.34,1.96-9.36,3.28c-3.4,1.49-4.63,0.12-5.75-3
			c-5.3-14.76-9.19-29.95-13.72-44.94c-2.57-8.49-5.42-16.9-8.14-25.34c0.02-5.37-2.59-10.11-4.05-15.07
			c-0.66-2.25,0.12-5.06-1.96-6.91c-3.76-3.59-5.02-7.95-4.02-13.01c0.1-4.3,4-4.19,6.44-4.75c9.62-2.23,18.72-6.03,28.21-8.64
			c8.56-2.35,17.02-5.04,25.53-7.58c3.92-1.17,7.83-2.33,11.75-3.49c5.23-1.54,5.92-0.9,4.85,4.62c-0.12,0.63-0.52,1.22-0.79,1.82
			c-12.74,4.02-25.43,8.2-38.24,11.99c-7.55,2.23-14.93,5.04-22.78,6.34c-4.2,0.7-4.76,3.83-3,9.83c1.22,4.14,3.79,2.74,6.3,1.92
			c15.8-5.15,31.93-9.22,47.59-14.82c6.29-2.25,6.53-1.8,5.13,6.75c-5.38,4.32-12.28,4.66-18.47,6.81
			c-9.61,3.34-19.69,5.28-29.19,9.07c-0.62,0.25-1.21,0.55-1.82,0.81c-1.83,0.77-4.88-0.48-5.29,2.57c-0.42,3.08,1.44,5.7,2.89,8.24
			c1.12,1.95,3.17,0.79,4.54,0.37c10.58-3.21,21.11-6.62,31.65-9.97c0.94-0.3,1.87-0.64,2.83-0.88
			C455.6,117.59,455.6,117.59,452.97,126.97z"/>
		<path fill="#71B4AD" d="M387.99,98.99c1.34,4.34,2.68,8.67,4.02,13.01c0.13,1.92-0.39,3.18-2.69,3.03
			c-2.45-0.16-4.92-0.17-7.37-0.25c-1.5-8.98-4.41-17.58-7.34-26.13c-1.78-5.2-1.63-6.54,3.34-8.5c1.07-0.42,2.15-0.83,3.23-1.24
			C383.45,85.6,385.72,92.29,387.99,98.99z"/>
		<path fill="#EBEDF1" d="M420.01,345.99c-47.79,0-95.57-0.06-143.36,0.12c-4.75,0.02-5.83-1.47-5.75-5.92
			C271.14,327,270.96,327,284.11,327c40.63,0,81.25,0,121.88-0.01c-1.5,3.69-2.05,7.51-2.06,11.5c-0.01,2.96,1.41,3.97,4.03,4.51
			C412.01,343.85,415.99,344.98,420.01,345.99z"/>
		<path fill="#ECEDF1" d="M204.02,346c-14.49,0-28.97-0.08-43.46,0.06c-3.38,0.03-4.65-0.85-4.63-4.46
			c0.13-29.14,0.11-58.28,0.01-87.42c-0.01-3.31,1.11-4.26,4.33-4.24c29.14,0.1,58.28,0.11,87.42-0.02
			c3.71-0.02,4.38,1.46,4.37,4.72c-0.09,28.97-0.11,57.95,0.02,86.92c0.02,3.55-1.15,4.54-4.59,4.5
			C233,345.91,218.51,346,204.02,346z"/>
		<path fill="#ECEDF1" d="M289.98,134.01c17.47,0,34.95,0.12,52.42-0.1c4.22-0.05,5.75,0.85,5.71,5.45
			c-0.22,28.46-0.19,56.92-0.02,85.37c0.02,4.08-1.03,5.46-5.26,5.37c-12.48-0.27-24.97,0.13-37.44-0.18
			c-7.17-0.18-14.21,1.12-21.34,1.09c-0.65,0-1.44-0.05-1.95,0.27c-15.18,9.42-32.98,10.73-49.49,16.03
			c-1.65,0.53-3.56,0.47-3.96-0.88c-1.71-5.85-6.28-10.01-8.65-15.43c3.52-2.46,7.36-1.38,11.14-1.02c2.65,0.97,4.37,3,5.69,5.33
			c1.72,3.03,3.96,3.42,7.14,2.38c8.04-2.63,16.23-4.81,24.39-7.06c4.72-1.01,9.18-2.94,13.9-3.96c3.37-0.73,5.25-3.07,6.29-6.41
			c1.55-4.99,2.13-10.1,2.44-15.24c0.56-9.48,3.26-18.65,3.66-28.18c0.54-12.84-2.77-25.08-4.82-37.54
			C289.55,137.53,288.69,135.73,289.98,134.01z"/>
		<path fill="#F6D6BD" d="M289.98,134.01c2.79,13.92,6.48,27.67,6.16,42.1c-0.21,9.66-2.88,18.93-3.64,28.5
			c-0.38,4.87-0.74,9.79-2.14,14.68c-1.3,4.54-2.85,7.74-7.65,8.88c-4.93,1.17-9.81,2.56-14.71,3.85
			c-1.22-9.95-4.36-19.46-7.04-29.04c-6.18-22.08-11.79-44.32-18.41-66.28c-2.29-7.6-4.35-15.3-5.64-23.16
			c0.22-2.01,1.55-3.33,2.88-4.66c8.61-4.93,18.41-2.29,23.19,6.23c0,2.92-1,5.54,4.21,3.08c10.34-4.88,19.02-1.53,21.77,12.12
			C289.21,131.58,288.72,133.03,289.98,134.01z"/>
		<path fill="#ECEDF1" d="M218.02,229.98c-18.96,0.01-37.92-0.1-56.87,0.12c-4.25,0.05-5.26-1.33-5.24-5.39
			c0.16-28.44,0.19-56.87-0.02-85.31c-0.03-4.52,1.34-5.68,5.65-5.5c7.8,0.33,15.63,0.02,23.44,0.13c3.31,0.05,4.55-0.8,3.47-4.39
			c-1.42-4.73-2.3-9.62-3.41-14.44c0,0-0.09-0.42-0.09-0.42c2.76-1.74,5.69-1.37,8.64-0.65c1.58,0.69,2.9,1.86,3.16,3.5
			c0.72,4.53,2.96,8.65,3.48,13.21c-0.03,2.55-1.28,4.13-3.85,4.33c-4.06,0.31-4.08,2.8-2.96,5.61c2,4.97,2.93,10.21,4.14,15.38
			c0.67,2.84,1.86,5.77,0.06,8.66c-2.27,1.17-3.66-0.82-5.35-1.59c-1.65-0.75-3.11-1.88-4.64-2.86c-9.01-5.79-10.58-5.6-17.93,2.13
			c-1.81,1.45-3.74,2.72-5.05,4.74c-3.25,5.02-3.25,9.54,0.5,14.18c5.58,6.92,12.75,12.12,19.78,17.37
			c9.17,6.85,18.46,13.55,26.86,21.35C214.66,222.82,218.52,225.09,218.02,229.98z"/>
		<path fill="#D7D9DD" d="M218.02,229.98c-4.18-8.29-11.79-13.2-18.69-18.75c-9.67-7.77-20.07-14.62-29.35-22.9
			c-3.59-3.2-7.47-6.44-8.81-11.16c-1.62-5.7,1.99-11.99,7.84-15.17c0.53,0.45,1.01,1.03,0.95,1.68
			c-0.82,9.38,6.41,13.9,12.15,18.75c4.78,4.04,10.11,7.53,14.8,11.74c8.38,7.53,18.69,12.69,26.01,21.56
			c2.75,3.33,5.44,6.7,7.98,10.18c1.07,1.47,1.98,3.12,1.08,5.08c-3.99,0-7.98,0-11.97-0.01
			C219.57,230.22,218.84,230.02,218.02,229.98z"/>
		<path fill="#ECCDB8" d="M231.98,231.01c-5.82-11.72-14.7-20.65-25.54-27.73c-4.99-3.26-9.36-7.26-13.76-11.2
			c-5.49-4.92-11.94-8.53-17.24-13.82c-4.77-4.76-7.41-9.59-6.43-16.26c2.77-3.57,4.86-8.04,10.75-7.05
			c2.43,0.41,4.17,1.95,6.15,3.02c3.85,2.07,7.41,4.66,11.09,7.03c1.93-0.15,3.45,0.96,5.13,1.61c1.49,0.57,3.16,2.16,4.57,1.06
			c1.51-1.17,0.17-3.06-0.2-4.61c-1.93-8.19-4.61-16.17-6.59-24.35c-0.63-2.59,0.21-5.22-0.92-7.66c-1.99-5.22-2.19-11.01-5-15.97
			c-2.83-7.84-5.96-15.61-6.1-24.13c0.09-4.36-1.04-8.89,3.86-11.95c6.31-3.93,13.78-1.9,16.07,5.16c2.33,7.17,4.13,14.51,6.2,21.77
			c0.36,1.25,0.92,2.45,1.61,4.27c3.75-5.55,8.91-6.88,14.71-6.21c2.9,0.34,5.52,1.35,5.7,4.98c0.86,1.2,1.11,2.7,1.91,3.94
			c2.21,8.77,4.34,17.56,6.66,26.3c3.43,12.93,7.4,25.71,10.71,38.7c4.08,15.98,9.18,31.7,12.87,47.8c0.52,2.26,2.9,4.27-0.2,6.31
			c-8.39,2.51-16.79,5.01-25.18,7.52c-3.11,0.93-5.74,0.55-6.77-2.96C235.35,234.16,232.97,233.12,231.98,231.01z"/>
		<path fill="#70B7AE" d="M187.9,90.94c2.34,7.97,5.42,15.75,6.1,24.13c-3.02-0.09-6.03-0.19-9.05-0.28
			c0.29-4.69-3.41-7.97-4.2-12.44c-1.25-7.1-2.09-13.56,6.02-17.14C187.7,86.82,186.06,89.27,187.9,90.94z"/>
		<path fill="#B1C8B6" d="M237.96,112.91c-2.73-0.3-1.74-2.4-1.91-3.94c1.27,1.03,2.5,0.12,3.75-0.09
			C239.18,110.22,238.57,111.57,237.96,112.91z"/>
		<path fill="#D8D9DC" d="M198.99,131.05c1.51,5.35,3.04,10.7,4.54,16.06c1.68,6,3.33,12.02,5.02,18.02
			c0.46,1.63,1.01,3.41-0.25,4.73c-1.5,1.56-2.61-0.62-3.9-0.99c-2.68-0.76-5.3-1.88-7.4-3.87c0.64-7.05-2.11-13.5-3.63-20.16
			c-0.4-1.75-0.97-3.49-1.63-5.16c-1.53-3.85-0.98-6.17,3.85-5.68C197.73,134.21,199.21,133.59,198.99,131.05z"/>
	</g>
</g>
</svg>
