<?xml version="1.0" encoding="utf-8"?>
<!-- Generator: Adobe Illustrator 18.0.0, SVG Export Plug-In . SVG Version: 6.00 Build 0)  -->
<!DOCTYPE svg PUBLIC "-//W3C//DTD SVG 1.1//EN" "http://www.w3.org/Graphics/SVG/1.1/DTD/svg11.dtd">
<svg version="1.1" id="Layer_1" xmlns="http://www.w3.org/2000/svg" xmlns:xlink="http://www.w3.org/1999/xlink" x="0px" y="0px"
	 viewBox="-2761.7 -1728.8 89.6 234.3" enable-background="new -2761.7 -1728.8 89.6 234.3" xml:space="preserve">
<g>
	<path fill="#E74D69" d="M-2747.2-1657.5l60.2,0c0,0-1.8,40-11.8,66.5h-36.9C-2735.7-1591-2747.6-1639.9-2747.2-1657.5z"/>
	<path fill="#4C4C4B" d="M-2743.6-1628c0,0-25.2,10.7-16.2,40.8c4.3,14.6,6.1,19.4,6.1,19.4h6.5c0,0-5.4-29.1,8.2-37.5L-2743.6-1628
		z"/>
	<path fill="#4C4C4B" d="M-2690.2-1628c0,0,25.2,10.7,16.2,40.8c-4.3,14.6-6.1,19.4-6.1,19.4h-6.5c0,0,5.4-29.1-8.2-37.5
		L-2690.2-1628z"/>
	<polygon fill="#4C4C4B" points="-2726.2,-1585 -2727.3,-1573.7 -2704.8,-1573.7 -2706.6,-1585 	"/>
	<path fill="#E74D69" d="M-2716.1-1494.5c0,0-17.8-35.5-15.9-52.1c1.8-16.6,15.2-20.7,22.7-16.2s11.3,12.6,9.3,27.5
		S-2716.1-1494.5-2716.1-1494.5z"/>
	<path fill="#4C4C4B" d="M-2716-1518.3c0,0-8.9-17.7-8-26s7.6-10.4,11.3-8.1s5.7,6.3,4.7,13.7S-2716-1518.3-2716-1518.3z"/>
	<path fill="#E74D69" d="M-2747.2-1663.3c0,0-2.3-33.3,30.2-65.5c0,0,29.3,25.5,30,65.5H-2747.2z"/>
	<circle fill="#4C4C4B" cx="-2717" cy="-1682.7" r="10.8"/>
</g>
</svg>
