<?xml version="1.0" encoding="utf-8"?>
<!-- Generator: Adobe Illustrator 17.0.0, SVG Export Plug-In . SVG Version: 6.00 Build 0)  -->
<!DOCTYPE svg PUBLIC "-//W3C//DTD SVG 1.1//EN" "http://www.w3.org/Graphics/SVG/1.1/DTD/svg11.dtd">
<svg version="1.1" id="Layer_1" xmlns="http://www.w3.org/2000/svg" xmlns:xlink="http://www.w3.org/1999/xlink" x="0px" y="0px"
	 width="464.27px" height="472.32px" viewBox="0 0 464.27 472.32" enable-background="new 0 0 464.27 472.32" xml:space="preserve">
<g>
	<path fill="#EFB835" d="M70.37,386.82c-2.34-2.25-4.67-4.51-7.01-6.76c-1.02-1.04-2.04-2.07-3.06-3.11c-1.95-3.1-3.9-6.2-5.85-9.29
		c-0.31-0.87-0.62-1.74-0.92-2.61c-0.98-4.56-1.56-9.17-1.47-13.85c0.36-2.01,0.72-4.02,1.07-6.03c3.12-9.62,10.2-16.07,17.64-22.32
		c5.41-4.54,5.28-4.69,1.34-10.68c-0.53-1.03-1.07-2.06-1.6-3.09c-1.47-3.3-2.94-6.61-4.41-9.91c-0.16-1.54-0.74-2.9-1.8-4.04
		c-0.85-3.87-2.47-7.44-4.22-10.96c-0.14-1.54-0.72-2.9-1.71-4.08c-1.34-4.07-1.58-9.29-8.21-7.76c-1.68,0-3.35,0-5.03,0
		c-4.94-0.2-9.88-0.39-14.83-0.59c-1.38-0.46-2.76-0.93-4.14-1.39c-2.61-1.42-5.22-2.84-7.82-4.26c-1.32-1.09-2.65-2.18-3.97-3.27
		c-2.3-2.73-4.61-5.46-6.91-8.19c-0.34-0.51-0.67-1.02-1.01-1.54c-1.48-3.3-2.96-6.61-4.44-9.91c-0.49-1.71-0.98-3.42-1.47-5.13
		c-0.18-4.95-0.35-9.89-0.53-14.84c0-1.68,0-3.35,0-5.03c1.54-15.68,10.73-25.79,26.3-28.97c1.63-0.33,3.24-0.74,4.85-1.11
		c1.35-0.03,2.71-0.06,4.06-0.09c5.66,0.04,11.32-0.01,16.97,0.18c2.28,0.08,3.21-0.88,3.84-2.91c2.64-8.39,5.4-16.74,8.11-25.11
		c1.07-2.64,2.14-5.29,3.21-7.93c1.93-3.62,3.52-7.48,5.86-10.81c2.84-4.04,1.99-6.86-1.78-9.4c-0.92-1.42-1.74-2.92-3.26-3.82
		c-2.02-2.33-4.04-4.66-6.07-6.99c-0.94-1.07-1.89-2.13-2.83-3.2c-1.56-2.67-3.12-5.35-4.69-8.02c-0.5-1.28-1-2.56-1.5-3.84
		c-1.11-4.94-1-9.95-0.98-14.96c0.34-1.68,0.69-3.36,1.03-5.03c6.56-14.34,17.04-24.87,31.03-31.99c2.35-0.46,4.69-0.92,7.04-1.39
		c4.62,0.1,9.26-0.05,13.81,1.04c1.07,0.39,2.14,0.77,3.21,1.16c2.97,1.74,5.94,3.48,8.9,5.21c1.03,0.96,2.06,1.92,3.09,2.88
		c1.95,2.71,4.25,5.07,6.83,7.17c1,1.05,2,2.11,2.99,3.16c1.34,1.93,2.48,3.76,5.48,2.12c5.44-2.98,11.08-5.6,16.64-8.37
		c2.85-0.54,5.48-1.66,8.01-3.05c2.67-0.88,5.35-1.71,8-2.66c12.56-4.54,12.56-4.55,11.84-18.23c0-1.68,0-3.35,0-5.03
		c-0.05-6.41,1.91-12.32,4.49-18.08c4.26-6.13,9.36-11.4,15.78-15.3c5.68-2.69,11.57-4.61,17.92-4.81c1.68,0,3.35,0,5.03,0
		c4.94,0.25,9.87,0.5,14.81,0.75c1.39,0.41,2.77,0.82,4.16,1.23c2.93,1.43,5.87,2.86,8.8,4.29c0.74,0.98,1.66,1.72,2.87,2.05
		c2.47,2.6,4.94,5.2,7.41,7.79c0.51,0.72,1.03,1.44,1.54,2.15c1.52,3.63,3.04,7.25,4.57,10.88c0.3,1.34,0.6,2.69,0.9,4.03
		c0.02,5.31,0.04,10.63,0.06,15.94c0,1.68,0,3.35,0,5.03c-1.25,6.42,3.95,6.6,7.81,8.07c1.11,1.13,2.61,1.37,4.04,1.77
		c3.66,1.33,7.31,2.67,10.97,4c1.29,0.51,2.58,1.01,3.86,1.52c3.33,1.4,6.66,2.79,9.99,4.19c0.73,0.31,1.45,0.62,2.18,0.94
		c6.5,4.09,6.42,4.01,11.52-1.25c4.5-4.63,8.36-9.89,13.55-13.85c4.16-3.17,9.02-4.82,13.89-6.44c1.69-0.12,3.37-0.24,5.06-0.36
		c4.3,0.55,8.59,1.09,12.89,1.64c1.36,0.59,2.72,1.17,4.07,1.76c2.59,1.72,5.19,3.44,7.78,5.17c1.04,1.02,2.07,2.05,3.1,3.07
		c2.27,2.33,4.54,4.65,6.81,6.98c0.64,0.65,1.28,1.3,1.91,1.94c2.11,3.3,4.22,6.61,6.33,9.91c0.38,0.99,0.76,1.99,1.13,2.98
		c1.15,4.58,1.15,9.27,1.39,13.94c-0.17,1.68-0.34,3.37-0.5,5.05c-2.88,10.3-10.02,17.65-17.26,24.94
		c-1.86,1.87-3.42,4.08-5.42,5.78c-3.26,2.78-3.08,5.42-0.28,8.27c0.53,1.05,1.07,2.09,1.6,3.14c1.49,3.29,2.98,6.57,4.47,9.86
		c0.17,1.53,0.75,2.89,1.74,4.08c1.3,3.69,2.61,7.38,3.91,11.08c0.33,0.97,0.67,1.95,1,2.92c1.3,4.3,1.24,9.05,4.29,12.76
		c1.68,0,3.35,0,5.03,0c4.99,0,9.98,0,14.97,0c1.67,0.33,3.33,0.67,5,1c4.47-0.58,8.63,1.16,12.95,1.7
		c1.03,0.43,2.06,0.86,3.09,1.29c2.63,1.73,5.27,3.47,7.9,5.2c1.31,1.41,2.61,2.83,3.92,4.24c1.41,2.9,2.82,5.8,4.23,8.7
		c-0.07,1.11-0.04,2.2,0.84,3.05c0.07,5.31,0.15,10.62,0.22,15.93c0,1.36,0.01,2.71,0.01,4.07c-0.79,7.93-3.71,15.1-7.75,21.88
		c-3.28,4.44-7.17,8.29-11.38,11.84c-5.91,3.36-12.13,5.65-19.06,5.42c-1.68,0-3.36,0-5.03,0c-4.16-0.05-8.33,0.02-12.48-0.21
		c-2.55-0.14-3.99,0.73-4.88,3.15c-2.59,7.02-5.35,13.97-8.04,20.95c-1.23,2.97-2.46,5.93-3.68,8.9c-1.93,3.36-3.86,6.72-5.79,10.07
		c-7.1-5.82-13.03-12.85-19.7-19.11c-1.39-1.31-1.01-2.48-0.38-4c6.28-15.16,11.5-30.78,20.59-44.7c1.54-2.35,2.74-3.26,5.32-3.24
		c10.67,0.07,21.34-0.19,32,0.11c4.52,0.13,7.16-1.86,9.23-5.4c1.97-3.37,3.03-6.84,2.92-10.88c-0.35-13.65,1.81-11.69-12.08-11.79
		c-12.17-0.09-24.33-0.07-36.5,0.02c-2.61,0.02-4.49-0.22-4.84-3.43c-0.19-1.76-1.26-3.41-1.7-5.16
		c-6.09-24.61-14.41-48.32-28.7-69.53c-2.02-3-0.93-4.75,1.14-6.87c9.06-9.29,18.04-18.66,27.04-28.01
		c3.76-3.91,3.73-8.27-0.08-12.19c-1.75-1.79-3.63-3.45-5.26-5.34c-4.86-5.63-7.39-5.92-12.44-0.6
		c-8.47,8.91-16.82,17.94-25.05,27.07c-2.48,2.75-4.31,2.99-7.5,0.83c-11.58-7.81-23.48-15.13-36.85-19.62
		c-12.16-4.09-23.81-9.11-34.15-16.97c-2.35-1.79-3.18-3.29-3.15-6.01c0.12-10.33-0.05-20.67,0.11-31c0.06-4.12-1.75-6.84-4.91-9.21
		c-4.85-3.62-10.31-1.77-15.47-1.91c-7.23-0.2-11.66,4.62-11.67,11.87c-0.02,11.5-0.15,23,0.07,34.5c0.07,3.71-1.12,5.32-4.78,6.01
		c-4.37,0.83-8.61,2.34-12.89,3.6c-14.51,4.24-28.84,8.9-41.77,17.04c-5.34,3.36-10.82,6.49-16.27,9.68
		c-2.13,1.25-4.3,1.92-6.33-0.29c-5.76-6.22-11.82-12.16-17.68-18.28c-13.23-13.83-10.57-15.73-24.31-1.78
		c-0.12,0.12-0.24,0.23-0.35,0.35c-3.82,3.94-3.81,7.28-0.18,11.2c6.41,6.94,12.72,13.97,19.09,20.95c2.79,3.06,7.06,5.56,7.74,9.55
		c0.75,4.38-3.86,7.39-5.71,11.22c-0.5,1.04-1.23,1.97-1.79,2.99c-4.23,7.73-9.44,15.1-12.44,23.28
		c-5.06,13.81-8.85,28.09-12.87,42.26c-0.87,3.06-2.16,3.84-5.11,3.81c-12.5-0.14-25-0.07-37.5-0.05c-6.58,0.01-6.9,0.34-6.91,6.66
		c-0.01,2.5-0.05,5,0,7.5c0.17,8.58,5.48,13.83,13.94,13.83c8.67,0,17.33,0.04,26-0.03c2.16-0.02,3.57,0.47,4.89,2.49
		c7.13,10.89,12.53,22.58,17.15,34.71c3.23,8.49,6.57,16.96,11.79,24.56c3.57,5.19,6.52,10.8,9.8,16.19
		c0.68,1.12,1.79,1.94,0.09,3.29c-2.73,2.16-5.25,4.59-7.86,6.9c-6.96,6.16-14.02,12.2-20.83,18.53c-3.22,2.99-2.73,5.91,0.57,8.72
		c2.28,1.94,4.34,4.13,6.51,6.2c3.67,3.52,7.31,3.63,10.81,0.04c3.7-3.81,7.41-7.65,10.73-11.78c3.97-4.95,9.08-8.92,12.7-14.02
		c2.73-3.86,4.47-3.33,7.82-1.2c11.92,7.57,24.02,14.75,37.33,19.84c11.04,4.22,22.37,7.31,33.72,10.41c3.7,1.01,5,2.64,4.92,6.52
		c-0.25,11.66-0.07,23.33-0.12,35c-0.01,2.39,0.33,4.55,1.6,6.66c3,5.02,7.14,6.71,13.09,7.23c12.66,1.1,18.29-7.24,17.49-17.76
		c-0.69-8.95-0.03-17.99-0.18-26.99c-0.05-3.16,0.87-5.2,3.68-6.93c9.92-6.12,20.37-11.03,30.93-15.95
		c9.78-4.56,15.84-2.67,21.97,5.24c3.47,4.49,7.94,8.26,12.8,11.39c-0.77,0.59-1.55,1.18-2.32,1.78c-0.84-0.01-1.56,0.23-2.02,0.99
		c0,0,0,0,0,0c-3.15,0.81-6.1,2.08-8.95,3.63c-6.83,2.43-13.73,4.68-20.48,7.33c-7.62,2.99-7.58,3.15-7.56,11.57
		c0.01,3.48,0.1,6.96,0.16,10.44c0,1.68,0,3.35,0,5.03c-0.57,7.67-3.52,14.48-7.5,20.92c-3.25,3.91-6.81,7.51-10.74,10.73
		c-6.14,3.73-12.6,6.48-19.94,6.54c-1.68,0-3.35,0-5.03,0c-4.98-0.39-10.02,0.22-14.94-0.99c-1.02-0.34-2.04-0.68-3.06-1.02
		c-3.29-1.78-6.59-3.57-9.88-5.35c-1.04-0.9-2.08-1.79-3.12-2.69c-2.26-2.49-4.52-4.98-6.78-7.47c-0.38-0.56-0.76-1.12-1.13-1.67
		c-1.57-3.38-3.13-6.75-4.7-10.13c-0.44-1.62-0.13-3.44-1.29-4.87c-0.07-4.98-0.15-9.95-0.22-14.93c0-1.68,0-3.35,0-5.03
		c0.33-6.4,0.33-6.4-7.79-8.11c-1.35-0.55-2.71-1.1-4.06-1.65c-3.61-1.28-7.21-2.57-10.82-3.85c-1.07-0.42-2.14-0.84-3.2-1.26
		c-3.3-1.39-6.59-2.79-9.89-4.18c-1.15-1.08-2.52-1.7-4.06-1.97c-1.12-0.69-2.33-1.27-3.35-2.09c-2.8-2.24-4.63-1.59-6.9,1.18
		c-6.84,8.36-13.69,16.85-24.74,20.09c-2.27,0.38-4.55,0.76-6.82,1.14c-4.45,0.11-8.83-0.54-13.19-1.31
		c-0.75-0.96-1.85-1.03-2.94-1.14c-2.7-1.62-5.4-3.24-8.09-4.86C72.89,389.05,71.63,387.94,70.37,386.82z"/>
	<path fill="#D8A62F" d="M309.5,373.4c-4.86-3.14-9.33-6.9-12.8-11.39c-6.12-7.91-12.19-9.8-21.97-5.24
		c-10.56,4.93-21.01,9.84-30.93,15.95c-2.81,1.73-3.74,3.77-3.68,6.93c0.15,9-0.5,18.04,0.18,26.99
		c0.81,10.52-4.83,18.86-17.49,17.76c-5.95-0.52-10.09-2.21-13.09-7.23c-1.26-2.12-1.61-4.28-1.6-6.66
		c0.05-11.67-0.13-23.34,0.12-35c0.08-3.87-1.22-5.51-4.92-6.52c-11.35-3.09-22.68-6.18-33.72-10.41
		c-13.31-5.09-25.41-12.27-37.33-19.84c-3.35-2.13-5.09-2.66-7.82,1.2c-3.61,5.11-8.72,9.07-12.7,14.02
		c-3.32,4.13-7.03,7.97-10.73,11.78c-3.5,3.6-7.14,3.48-10.81-0.04c-2.16-2.07-4.23-4.26-6.51-6.2c-3.3-2.81-3.79-5.73-0.57-8.72
		c6.81-6.32,13.87-12.37,20.83-18.53c2.61-2.31,5.13-4.74,7.86-6.9c1.7-1.34,0.59-2.16-0.09-3.29c-3.27-5.39-6.23-11-9.8-16.19
		c-5.22-7.61-8.56-16.07-11.79-24.56C85.53,269.2,80.13,257.51,73,246.62c-1.32-2.02-2.74-2.5-4.89-2.49
		c-8.67,0.07-17.33,0.03-26,0.03c-8.46,0-13.77-5.25-13.94-13.83c-0.05-2.5,0-5,0-7.5c0.02-6.32,0.34-6.65,6.91-6.66
		c12.5-0.02,25-0.09,37.5,0.05c2.96,0.03,4.25-0.75,5.11-3.81c4.02-14.17,7.81-28.45,12.87-42.26c3-8.18,8.21-15.55,12.44-23.28
		c0.56-1.02,1.29-1.95,1.79-2.99c1.85-3.83,6.46-6.84,5.71-11.22c-0.68-3.99-4.95-6.48-7.74-9.55
		c-6.36-6.98-12.68-14.01-19.09-20.95c-3.63-3.93-3.64-7.26,0.18-11.2c0.12-0.12,0.24-0.24,0.35-0.35
		c13.74-13.95,11.08-12.04,24.31,1.78c5.86,6.12,11.92,12.06,17.68,18.28c2.04,2.2,4.2,1.53,6.33,0.29
		c5.45-3.19,10.93-6.32,16.27-9.68c12.93-8.15,27.26-12.8,41.77-17.04c4.29-1.25,8.52-2.77,12.89-3.6c3.67-0.69,4.86-2.3,4.78-6.01
		c-0.22-11.5-0.09-23-0.07-34.5c0.01-7.25,4.44-12.07,11.67-11.87c5.16,0.14,10.62-1.71,15.47,1.91c3.16,2.36,4.97,5.09,4.91,9.21
		c-0.15,10.33,0.01,20.67-0.11,31c-0.03,2.72,0.79,4.22,3.15,6.01c10.35,7.86,21.99,12.88,34.15,16.97
		c13.37,4.5,25.26,11.81,36.85,19.62c3.19,2.15,5.02,1.92,7.5-0.83c8.23-9.13,16.58-18.15,25.05-27.07
		c5.05-5.32,7.59-5.04,12.44,0.6c1.63,1.89,3.52,3.55,5.26,5.34c3.82,3.92,3.85,8.28,0.08,12.19c-9,9.35-17.98,18.72-27.04,28.01
		c-2.07,2.12-3.16,3.88-1.14,6.87c14.29,21.21,22.61,44.91,28.7,69.53c0.43,1.76,1.51,3.4,1.7,5.16c0.35,3.21,2.22,3.45,4.84,3.43
		c12.17-0.09,24.33-0.11,36.5-0.02c13.89,0.1,11.73-1.86,12.08,11.79c0.1,4.03-0.95,7.51-2.92,10.88c-2.08,3.54-4.71,5.53-9.23,5.4
		c-10.66-0.3-21.33-0.04-32-0.11c-2.58-0.02-3.78,0.89-5.32,3.24c-9.08,13.91-14.3,29.53-20.59,44.7c-0.63,1.52-1.01,2.7,0.38,4
		c6.67,6.26,12.6,13.29,19.7,19.11c1.54,2.18,3.73,3.58,5.92,4.99c0.97,1.45,2.43,2.29,3.91,3.1c2.36,1.97,4.72,3.94,7.08,5.91
		c0.92,1.02,1.83,2.04,2.75,3.06c1.64,3.02,3.28,6.04,4.92,9.06c0.33,1.32,0.22,2.8,1.32,3.86c0.18,3.15,0.37,6.31,0.55,9.46
		c-5.5-0.97-10.46-3.31-15.02-6.41c-3.14-2.14-6.22-4.5-8.91-7.18c-23.05-23.05-46-46.2-68.99-69.32c2.4-4.97,4.8-9.95,7.2-14.92
		c5.93,5.83,11.89,11.62,17.78,17.49c6.87,6.84,6.9,6.89,10.3-2.26c7.12-19.16,10.4-38.68,8.31-59.32
		c-2.38-23.47-10.5-44.36-24.34-63.21c-10.56-14.39-23.83-25.63-39.38-34.42C255.62,99.25,225.8,95.17,194.66,102
		c-30.33,6.65-54.89,22.81-73.55,47.75c-16.33,21.84-24.44,46.47-24.93,73.66c-0.21,11.85,1.69,23.35,4.73,34.83
		c5.17,19.57,14.9,36.52,28.33,51.35c10.08,11.13,21.87,20.06,35.36,27.04c11.81,6.11,24.08,10.1,37.01,12.53
		c9.98,1.88,19.94,1.95,30.13,1.22c13.62-0.98,26.42-4.44,39.02-9.23c2.46-0.93,2.91-2.39,0.88-3.94
		c-5.17-3.93-8.64-9.55-13.9-13.44c-3.09-2.29-6.59-4.63-7.68-8.85c0.04-0.23,0.09-0.45,0.14-0.68c5.28-0.84,9.86-3.57,14.73-5.52
		c25.93,24.84,51.61,49.92,76.87,75.44c3.49,3.53,6.23,7.78,7.66,12.68c-0.91,0-1.83-0.01-2.74-0.01c-1.54-0.49-3.08-0.98-4.61-1.47
		c-2.89-1.45-5.79-2.89-8.68-4.34c-1.44-1.23-2.88-2.46-4.32-3.69c-1.72-2.32-3.67-4.42-5.98-6.17c-1.31-1.37-2.61-2.74-3.92-4.1
		C316.71,373.89,314.49,369.99,309.5,373.4z"/>
	<path fill="#273C4B" d="M349.46,396.86c-1.43-4.9-4.17-9.15-7.66-12.68c-25.26-25.52-50.95-50.6-76.87-75.44
		c-1.57-1.53-3.14-3.06-4.71-4.59c-1.07-1.61-2.4-2.95-4.04-3.99c-2.2-2.63-4.8-4.74-7.96-6.12c-0.37-0.92-1.25-1.02-2.04-1.26
		c-3.96-2.57-8.23-4.29-12.94-4.85c-1.19-1.03-2.64-0.86-4.05-0.86c-4.24-1.33-8.59-1.43-12.97-1.15c-2.01-0.61-4.02-0.62-6.03,0.06
		c-4.41,0.03-8.73-0.65-13.01-1.68c-0.98-0.42-1.97-0.84-2.95-1.26c-3-2.03-5.99-4.05-8.99-6.08c-1.01-0.96-2.03-1.92-3.04-2.88
		c-2.25-2.54-4.5-5.07-6.75-7.61c-0.7-0.9-1.4-1.79-2.09-2.69c-1.74-2.54-3.49-5.07-5.23-7.61c-0.61-1.65-1.49-3.13-2.79-4.34
		c-1.49-3.46-3.6-6.55-5.79-9.58c-0.4-0.72-0.8-1.44-1.2-2.15c-0.96-3.91-2.83-7.7-1.51-11.9c0.81-1.42,1.86-2.59,3.36-3.31
		c3.52-0.51,6.47,1.16,9.51,2.49c1.27,1.28,2.72,2.28,4.43,2.88c2.35,2.01,4.87,3.76,7.68,5.07c1.21,1.32,2.64,2.31,4.32,2.92
		c2.78,2.33,5.64,4.53,9.04,5.92c3.06,2.7,6.44,2.24,9.77,0.77c6.38-2.8,11.67-6.94,15.37-12.99c4.36-7.13,7.57-14.73,9.62-22.82
		c1.14-4.71,0.01-8.75-3.54-12.09c-0.66-1.41-1.72-2.43-3.08-3.16c-2.13-2.54-4.76-4.43-7.68-5.95c-1.25-1.3-2.69-2.31-4.41-2.89
		c-2.43-2.04-5.1-3.69-8.04-4.9c-1.06-1.15-2.38-1.85-3.86-2.27c-2.67-1.93-5.33-3.86-8-5.79c-0.46-0.98-0.93-1.97-1.39-2.95
		c0.27-3.9,3.85-4.34,6.26-6.01c2.24-0.41,4.49-0.82,6.73-1.24c5.09-0.31,10.17-0.62,15.26-0.93c1.67,0.03,3.35,0.07,5.02,0.1
		c4.3,0.48,8.6,0.96,12.89,1.44c1.22,0.84,2.64,0.74,4.02,0.83c3.35,1.28,6.7,2.56,10.05,3.85c1.31,0.73,2.62,1.46,3.93,2.19
		c2.62,1.97,5.24,3.94,7.86,5.91c1.04,1.03,2.09,2.07,3.13,3.1c1.98,2.62,3.96,5.24,5.94,7.86c0.71,1.34,1.41,2.68,2.12,4.03
		c0.82,3.29,1.64,6.58,2.46,9.86c-0.06,2.01-0.12,4.03-0.17,6.04c-0.52,4.99-0.72,9.98-0.14,14.98c-0.16,1.74-0.26,3.47,0.45,5.14
		c0.28,4.09,1.08,8.06,2.67,11.85c0.3,1.46,0.61,2.93,1.73,4.04c1.09,3.96,3.16,7.35,5.89,10.37c0.3,1.23,1.05,2.11,2.1,2.76
		c1.67,2.68,3.9,4.83,6.31,6.83c2.83,3.49,5.97,6.68,9.4,9.57c22.98,23.12,45.94,46.27,68.99,69.32c2.68,2.68,5.76,5.04,8.91,7.18
		c4.55,3.1,9.51,5.44,15.02,6.41c2.11,0.42,4.23,0.84,6.34,1.26c1.7,0.1,3.41,0.2,5.11,0.3c4.62,0.18,9.25,0.35,13.87,0.53
		c1.38,0.4,2.77,0.8,4.15,1.19c3.3,1.86,6.59,3.71,9.89,5.57c0.68,0.59,1.37,1.18,2.05,1.77c2.25,2.35,4.51,4.7,6.76,7.05
		c1.07,1.35,2.13,2.7,3.2,4.06c1.93,2.81,3.87,5.61,5.8,8.42c0.32,0.49,0.65,0.98,0.97,1.47c1.67,3.56,3.73,6.89,6.14,9.99
		c0.69,1.37,1.38,2.75,2.07,4.12c0.03,0.33,0.01,0.67,0.09,0.98c0.96,3.67,2.37,7.55-1.08,10.59c-3.31,2.92-6.48-0.04-9.66-0.89
		c-1.19-1.29-2.62-2.2-4.26-2.81c-2.61-1.72-5.22-3.43-7.83-5.15c-1.16-1.29-2.57-2.23-4.19-2.86c-2.39-2.04-4.88-3.93-7.82-5.14
		c-3.33-2.76-6.72-1.94-10.21-0.3c-12.5,5.88-17.31,17.2-20.91,29.39c-2.79,5.11-2.34,9.83,1.72,14.1c0.64,1.44,1.72,2.47,3.05,3.26
		c2.61,2.85,5.65,5.12,9.13,6.79c0.24,0.78,0.89,0.94,1.58,1.06c2.88,2.38,6.06,4.27,9.47,5.78c1.06,1.15,2.39,1.84,3.88,2.28
		c2.25,1.96,4.5,3.91,6.75,5.87c0.95,5.97-4.27,5.54-7.46,7.22c-5.38,0.59-10.76,1.19-16.15,1.78c-1.67-0.03-3.34-0.05-5.01-0.08
		c-4.32-0.4-8.64-0.79-12.96-1.19c-1.48-1.07-3.25-0.9-4.93-1.14c-3.35-1.31-6.69-2.63-10.04-3.94c-1.02-0.6-2.04-1.21-3.06-1.81
		c-2.6-2.03-5.21-4.06-7.81-6.09c-1.02-1.07-2.03-2.13-3.05-3.2c-1.76-2.56-3.51-5.13-5.27-7.69c-0.5-1.04-1-2.07-1.5-3.11
		c-1.36-4.25-2.06-8.58-1.76-13.05c0.07-1.95,0.15-3.91,0.22-5.86c0.27-4.69,0.71-9.39-0.66-14.01c-0.02-1.74,0.13-3.51-0.93-5.06
		C352.17,402.78,351.18,399.7,349.46,396.86z M399.24,461.12c2,0,4,0.07,5.99-0.04c0.55-0.03,1.29-0.47,1.56-0.94
		c0.5-0.87-0.06-1.67-0.88-1.99c-3.54-1.43-5.53-4.74-8.49-6.87c-8.09-5.84-13.21-12.85-11.37-23.77
		c2.36-13.99,7.22-26.54,18.28-35.85c5.97-5.02,11.67-10.42,21.18-7.79c4.86,1.34,9.37,2.46,13.37,5.57
		c0.98,0.76,2.55,2.33,3.88,0.8c1.11-1.27,0.16-2.96-0.69-4.15c-4.91-6.85-10.47-13.1-17.64-17.69c-1.07-0.68-2.5-1.19-3.74-1.14
		c-7,0.29-13.96-0.28-20.86-1.15c-8.12-1.02-15.59-4.24-22.59-8.4c-5.84-3.47-10.44-8.42-15.37-13.05
		c-8.06-7.56-15.8-15.47-23.53-23.31c-8.45-8.56-17.18-16.87-25.38-25.71c-9.07-9.77-18.7-19.04-28.25-28.36
		c-9.67-9.43-15.73-20.93-18.49-33.9c-1.77-8.32-2.87-16.86-1.27-25.59c2.85-15.56-17.55-37.17-33.34-35.42
		c-4.3,0.48-7.91-1.74-12.05-1.71c-2.11,0.02-4.27-0.51-5.05,1.66c-0.76,2.11,1.29,3.29,2.97,3.96c5.87,2.34,10.2,7.02,14.65,10.99
		c4.22,3.77,8.3,9.32,8.74,15.19c0.63,8.44-2.66,16.69-5.56,24.48c-2.19,5.88-6.41,11.35-10.81,15.97
		c-6.47,6.8-13.62,13.64-24.01,13.1c-6.79-0.35-13.31-2.36-18.33-7.72c-1.12-1.19-3.01-3.38-5.11-1.23
		c-1.91,1.95-0.34,4.01,0.95,5.27c5.13,5.02,8.63,11.29,14.19,16.18c5.13,4.51,10.18,6.88,16.37,6.53
		c10.86-0.61,21.62,0.42,31.84,3.43c10.32,3.04,19.41,9.38,26.63,17.4c5,5.54,11.13,9.73,15.98,15.4
		c4.58,5.36,9.91,10.08,14.92,15.07c5.16,5.14,10.27,10.31,15.5,15.37c5.03,4.86,10.25,9.53,15.27,14.4
		c5.31,5.14,10.59,10.31,15.69,15.65c4.96,5.19,9.75,10.38,13.02,17.08c3.49,7.15,4.75,14.73,6.82,22.18
		c0.87,3.16,1.73,5.9,1.05,9.43c-1.99,10.4-2.35,20.08,6.81,28.7C380.09,456.69,388.7,460.52,399.24,461.12z"/>
	<path fill="#EFB835" d="M250.06,314.94c1.08,4.21,4.58,6.56,7.68,8.85c5.26,3.89,8.73,9.51,13.9,13.44
		c2.04,1.55,1.58,3.01-0.88,3.94c-12.61,4.79-25.4,8.25-39.02,9.23c-10.19,0.74-20.15,0.66-30.13-1.22
		c-12.92-2.43-25.2-6.43-37.01-12.53c-13.5-6.98-25.29-15.91-35.36-27.04c-13.43-14.84-23.16-31.79-28.33-51.35
		c-3.03-11.48-4.94-22.98-4.73-34.83c0.49-27.19,8.6-51.82,24.93-73.66c18.65-24.95,43.21-41.1,73.55-47.75
		c31.14-6.83,60.95-2.75,88.99,13.08c15.56,8.78,28.82,20.03,39.38,34.42c13.84,18.85,21.96,39.73,24.34,63.21
		c2.09,20.64-1.19,40.17-8.31,59.32c-3.4,9.15-3.43,9.1-10.3,2.26c-5.89-5.87-11.85-11.66-17.78-17.49
		c0.94-3.88,1.88-7.77,2.83-11.65c1.42-5.57,2.33-11.2,2.17-16.97c0-2-0.01-3.99-0.01-5.99c0.53-4.08-0.58-8.01-1.03-12.01
		c-0.34-1.68-0.69-3.36-1.03-5.04c-0.66-4.18-1.6-8.28-3.56-12.08c-0.12-1.08-0.19-2.19-1.19-2.91c-1.07-4.3-3.01-8.19-5.62-11.76
		c-0.44-0.75-0.88-1.5-1.32-2.26c-1.41-3.41-3.61-6.29-6.14-8.93c-0.56-1.4-1.56-2.44-2.76-3.32c-1.54-2.73-3.77-4.83-6.25-6.7
		c-0.88-1.53-2.19-2.57-3.74-3.34c-2.64-2.82-5.63-5.17-9.12-6.87c-0.71-0.52-1.43-1.04-2.14-1.57c-3.09-2.15-6.2-4.26-9.9-5.27
		c-1.12-1.1-2.48-1.69-4.02-1.88c-3.45-1.87-7.12-3.1-10.97-3.82c-1.35-0.35-2.69-0.71-4.04-1.06c-4.26-1.08-8.54-1.98-12.96-1.98
		c-1.35-0.05-2.7-0.1-4.05-0.15c-5.69-0.23-11.38-0.73-16.97,0.93c-1.72-0.06-3.47-0.31-5.02,0.75c-7.79,1.02-15.14,3.38-21.99,7.24
		c-0.84-0.01-1.55,0.25-2,1.01l0,0c-19,8.98-32.87,23.07-41.87,42.02c-4.21,7.48-7.04,15.42-8.08,23.97
		c-0.81,1.59-1.16,3.26-0.88,5.04c-1.43,5.26-1.21,10.61-0.93,15.96c-0.16,1.73-0.4,3.48,0.56,5.09c-0.02,4.45,0.42,8.82,2.05,13.01
		c0.09,1.39-0.07,2.85,1.05,3.97c0.33,3.56,1.71,6.78,3.23,9.95c0.64,2.17,1.33,4.31,2.82,6.08c0.81,2.97,2.58,5.41,4.27,7.9
		c0.92,1.35,1.84,2.7,2.76,4.04c1.52,3.04,3.68,5.59,6.12,7.92c0.61,1.35,1.6,2.36,2.86,3.12c2.01,2.68,4.34,5.04,7.17,6.86
		c1.28,1.04,2.56,2.08,3.85,3.12c2.65,2.53,5.59,4.63,9,6.01c0.76,1.03,1.84,1.54,3.03,1.86c2.7,1.91,5.6,3.4,8.83,4.19
		c1.22,1.03,2.64,1.57,4.21,1.75c3.8,1.72,7.71,2.99,11.9,3.29c1.19,1.08,2.64,0.86,4.06,0.84c4.56,1.41,9.24,1.57,13.95,1.43
		c1.7,0.57,3.4,0.57,5.11,0c6.07-0.14,12.13-0.31,17.92-2.46C245.45,315.72,247.75,315.33,250.06,314.94z"/>
	<path fill="#20313F" d="M399.24,461.12c-10.53-0.6-19.15-4.43-27.14-11.95c-9.16-8.62-8.8-18.3-6.81-28.7
		c0.68-3.53-0.18-6.27-1.05-9.43c-2.06-7.46-3.33-15.04-6.82-22.18c-3.27-6.69-8.06-11.89-13.02-17.08
		c-5.1-5.34-10.38-10.51-15.69-15.65c-5.03-4.87-10.24-9.54-15.27-14.4c-5.23-5.06-10.35-10.24-15.5-15.37
		c-5.01-4.99-10.34-9.71-14.92-15.07c-4.84-5.67-10.98-9.86-15.98-15.4c-7.23-8.02-16.31-14.36-26.63-17.4
		c-10.21-3.01-20.98-4.04-31.84-3.43c-6.19,0.35-11.24-2.03-16.37-6.53c-5.56-4.89-9.06-11.16-14.19-16.18
		c-1.3-1.27-2.86-3.32-0.95-5.27c2.1-2.15,4,0.03,5.11,1.23c5.01,5.36,11.54,7.37,18.33,7.72c10.4,0.54,17.55-6.29,24.01-13.1
		c4.4-4.63,8.61-10.1,10.81-15.97c2.9-7.79,6.19-16.03,5.56-24.48c-0.44-5.87-4.52-11.42-8.74-15.19
		c-4.45-3.98-8.77-8.65-14.65-10.99c-1.68-0.67-3.73-1.85-2.97-3.96c0.78-2.17,2.94-1.64,5.05-1.66c4.14-0.03,7.76,2.19,12.05,1.71
		c15.79-1.75,36.19,19.86,33.34,35.42c-1.6,8.73-0.5,17.27,1.27,25.59c2.76,12.97,8.82,24.47,18.49,33.9
		c9.55,9.32,19.18,18.59,28.25,28.36c8.2,8.83,16.93,17.15,25.38,25.71c7.73,7.83,15.47,15.74,23.53,23.31
		c4.93,4.63,9.53,9.58,15.37,13.05c7,4.16,14.46,7.38,22.59,8.4c6.9,0.87,13.86,1.43,20.86,1.15c1.24-0.05,2.67,0.46,3.74,1.14
		c7.17,4.59,12.73,10.84,17.64,17.69c0.85,1.19,1.8,2.88,0.69,4.15c-1.33,1.54-2.9-0.03-3.88-0.8c-4-3.11-8.52-4.23-13.37-5.57
		c-9.5-2.63-15.21,2.77-21.18,7.79c-11.06,9.31-15.93,21.86-18.28,35.85c-1.84,10.92,3.27,17.93,11.37,23.77
		c2.96,2.13,4.95,5.44,8.49,6.87c0.82,0.33,1.38,1.12,0.88,1.99c-0.27,0.47-1.01,0.91-1.56,0.94
		C403.24,461.19,401.23,461.12,399.24,461.12z"/>
</g>
</svg>
