<?xml version="1.0" encoding="utf-8"?>
<!-- Generator: Adobe Illustrator 18.0.0, SVG Export Plug-In . SVG Version: 6.00 Build 0)  -->
<!DOCTYPE svg PUBLIC "-//W3C//DTD SVG 1.1//EN" "http://www.w3.org/Graphics/SVG/1.1/DTD/svg11.dtd">
<svg version="1.1" id="Layer_1" xmlns="http://www.w3.org/2000/svg" xmlns:xlink="http://www.w3.org/1999/xlink" x="0px" y="0px"
	 viewBox="-2370.6 -1623.4 59.7 96.8" enable-background="new -2370.6 -1623.4 59.7 96.8" xml:space="preserve">
<g>
	<rect x="-2360.6" y="-1594.4" fill="#777777" width="39.7" height="16"/>
	<path fill="#D35E5E" d="M-2358.2-1578.4v21c0,0,18.5,20.8,35.2,0v-21H-2358.2z"/>
	<rect x="-2360.6" y="-1594.4" fill="#C15252" width="39.7" height="16"/>
	<path opacity="0.14" fill="#1C1C1B" d="M-2339.7-1594.4v16v30.2h0.7c5.1-0.2,10.6-2.5,16-9.2v-21h2.2v-16H-2339.7z"/>
	<path fill="#C5D0C8" d="M-2358.2-1594.4v-18.3c0,0,2.3-10.5,17.5-10.8s17.7,9.8,17.7,9.8v19.3H-2358.2z"/>
	<circle fill="#636466" cx="-2350.4" cy="-1614.7" r="1.2"/>
	<circle fill="#636466" cx="-2345" cy="-1614.7" r="1.2"/>
	<circle fill="#636466" cx="-2340" cy="-1614.7" r="1.2"/>
	<circle fill="#636466" cx="-2334.8" cy="-1614.7" r="1.2"/>
	<circle fill="#636466" cx="-2329" cy="-1614.7" r="1.2"/>
	<circle fill="#636466" cx="-2350.4" cy="-1610.1" r="1.2"/>
	<circle fill="#636466" cx="-2345" cy="-1610.1" r="1.2"/>
	<circle fill="#636466" cx="-2340" cy="-1610.1" r="1.2"/>
	<circle fill="#636466" cx="-2334.8" cy="-1610.1" r="1.2"/>
	<circle fill="#636466" cx="-2329" cy="-1610.1" r="1.2"/>
	<circle fill="#636466" cx="-2350.4" cy="-1606.1" r="1.2"/>
	<circle fill="#636466" cx="-2345" cy="-1606.1" r="1.2"/>
	<circle fill="#636466" cx="-2340" cy="-1606.1" r="1.2"/>
	<circle fill="#636466" cx="-2334.8" cy="-1606.1" r="1.2"/>
	<circle fill="#636466" cx="-2329" cy="-1606.1" r="1.2"/>
	<circle fill="#636466" cx="-2350.4" cy="-1601.9" r="1.2"/>
	<circle fill="#636466" cx="-2345" cy="-1601.9" r="1.2"/>
	<circle fill="#636466" cx="-2340" cy="-1601.9" r="1.2"/>
	<path fill="#063947" d="M-2363-1580.7l-0.1,23.6c0,0,4.7,13.5,22.4,13.6c17.7,0.1,22-12.2,22-12.2v-24.8h2.4v24.6
		c0,0-2.2,13.8-24.3,14.7c-21.3,0-24.9-16.2-24.9-16.2v-23.1L-2363-1580.7z"/>
	<circle fill="#636466" cx="-2334.8" cy="-1601.9" r="1.2"/>
	<circle fill="#636466" cx="-2329" cy="-1601.9" r="1.2"/>
	<rect x="-2367.2" y="-1591.1" fill="#063947" width="6.7" height="10.5"/>
	<rect x="-2320.9" y="-1591.1" fill="#063947" width="6.7" height="10.5"/>
	<rect x="-2370.6" y="-1588.5" fill="#0A4A59" width="3.3" height="5.3"/>
	<rect x="-2314.2" y="-1588.5" fill="#0A4A59" width="3.3" height="5.3"/>
	<polygon fill="#544A49" points="-2336,-1537.7 -2336,-1547 -2345,-1547 -2345,-1537.7 -2359.3,-1537.7 -2359.3,-1526.5 
		-2358.6,-1526.5 -2319.8,-1526.5 -2319.8,-1535.5 -2319.8,-1537.7 	"/>
</g>
</svg>
