<?xml version="1.0" encoding="UTF-8"?>
<!DOCTYPE svg PUBLIC "-//W3C//DTD SVG 1.1//EN" "http://www.w3.org/Graphics/SVG/1.1/DTD/svg11.dtd">
<!-- Creator: CorelDRAW X7 -->
<svg xmlns="http://www.w3.org/2000/svg" xml:space="preserve" width="100%" height="100%" version="1.1" style="shape-rendering:geometricPrecision; text-rendering:geometricPrecision; image-rendering:optimizeQuality; fill-rule:evenodd; clip-rule:evenodd"
viewBox="0 0 2282 1591"
 xmlns:xlink="http://www.w3.org/1999/xlink">
 <defs>
  <style type="text/css">
   <![CDATA[
    .fil0 {fill:#454545}
   ]]>
  </style>
 </defs>
 <g id="Layer_x0020_1">
  <metadata id="CorelCorpID_0Corel-Layer"/>
  <path class="fil0" d="M1377 1434l-2 50c-57,39 -408,39 -467,3 -6,-71 10,-77 82,-77 111,0 324,-17 387,24zm-1079 -1326c34,-41 155,-20 206,-20 69,0 139,0 208,0 283,0 1098,-18 1270,3 18,63 17,1127 5,1240 -201,22 -986,4 -1289,4 -69,0 -139,0 -208,0 -37,0 -75,0 -112,1 -45,0 -53,3 -83,-13l3 -1215zm-92 1220c-52,4 -266,2 -190,188 41,99 206,71 335,71l1597 0c132,0 286,31 323,-84 48,-145 -75,-173 -194,-173 -30,-288 27,-1105 -16,-1293 -94,-59 -738,-30 -918,-30 -176,0 -831,-28 -921,27 -43,185 8,1001 -16,1294z"/>
  <path class="fil0" d="M1042 956c20,-33 38,-81 47,-123 172,92 213,266 318,185 0,-68 -107,-148 -164,-193 -58,-46 -48,-38 -63,-75l131 -35 -436 -163 167 404z"/>
 </g>
</svg>
