<?xml version="1.0" encoding="UTF-8"?>
<!DOCTYPE svg PUBLIC "-//W3C//DTD SVG 1.1//EN" "http://www.w3.org/Graphics/SVG/1.1/DTD/svg11.dtd">
<!-- Creator: CorelDRAW X7 -->
<svg xmlns="http://www.w3.org/2000/svg" xml:space="preserve" width="100%" height="100%" version="1.1" style="shape-rendering:geometricPrecision; text-rendering:geometricPrecision; image-rendering:optimizeQuality; fill-rule:evenodd; clip-rule:evenodd"
viewBox="0 0 267 267"
 xmlns:xlink="http://www.w3.org/1999/xlink">
 <defs>
  <style type="text/css">
   <![CDATA[
    .fil0 {fill:url(#id0)}
    .fil1 {fill:url(#id1)}
    .fil3 {fill:url(#id2)}
    .fil5 {fill:url(#id3)}
    .fil2 {fill:url(#id4)}
    .fil4 {fill:url(#id5)}
    .fil6 {fill:url(#id6)}
   ]]>
  </style>
  <linearGradient id="id0" gradientUnits="userSpaceOnUse" x1="257.075" y1="251.854" x2="9.58661" y2="14.811">
   <stop offset="0" style="stop-opacity:1; stop-color:#454545"/>
   <stop offset="0.270588" style="stop-opacity:1; stop-color:#A1A1A1"/>
   <stop offset="1" style="stop-opacity:1; stop-color:#FEFEFE"/>
  </linearGradient>
  <radialGradient id="id1" gradientUnits="userSpaceOnUse" gradientTransform="matrix(1 -0 -0 1 0 0)" cx="133.331" cy="133.335" r="342.969" fx="133.331" fy="133.335">
   <stop offset="0" style="stop-opacity:1; stop-color:#FEFEFE"/>
   <stop offset="0.980392" style="stop-opacity:1; stop-color:#E6E6E6"/>
   <stop offset="1" style="stop-opacity:1; stop-color:#CFCFCF"/>
  </radialGradient>
  <radialGradient id="id2" gradientUnits="userSpaceOnUse" gradientTransform="matrix(1.56717 -0.909819 0.909819 1.56717 -191 141)" cx="205.791" cy="82.1732" r="17.9016" fx="205.791" fy="82.1732">
   <stop offset="0" style="stop-opacity:1; stop-color:#969697"/>
   <stop offset="0.301961" style="stop-opacity:1; stop-color:#606060"/>
   <stop offset="1" style="stop-opacity:1; stop-color:#2B2A29"/>
  </radialGradient>
  <radialGradient id="id3" gradientUnits="userSpaceOnUse" gradientTransform="matrix(1.56717 -0.909903 0.909819 1.56731 -302 72)" xlink:href="#id2" cx="205.791" cy="203.126" r="17.9016" fx="205.791" fy="203.126">
  </radialGradient>
  <radialGradient id="id4" gradientUnits="userSpaceOnUse" gradientTransform="matrix(1.56717 -0.909819 0.909819 1.56717 -116 20)" xlink:href="#id2" cx="72.7874" cy="82.1732" r="17.9016" fx="72.7874" fy="82.1732">
  </radialGradient>
  <radialGradient id="id5" gradientUnits="userSpaceOnUse" gradientTransform="matrix(1.56717 -0.909903 0.909819 1.56731 -226 -49)" xlink:href="#id2" cx="72.7874" cy="203.126" r="17.9016" fx="72.7874" fy="203.126">
  </radialGradient>
  <radialGradient id="id6" gradientUnits="userSpaceOnUse" gradientTransform="matrix(1.56717 -0.909819 0.909819 1.56717 -208 46)" xlink:href="#id2" cx="139.291" cy="142.276" r="17.9016" fx="139.291" fy="142.276">
  </radialGradient>
 </defs>
 <g id="Layer_x0020_1">
  <metadata id="CorelCorpID_0Corel-Layer"/>
  <g id="_2237583071216">
   <path class="fil0" d="M27 18c69,-23 141,-23 215,0 4,1 7,4 8,8 21,69 17,141 0,216 -1,4 -4,6 -8,7 -66,22 -137,22 -215,0 -4,-1 -7,-3 -8,-7 -20,-70 -24,-142 0,-216 1,-4 4,-7 8,-8z"/>
   <circle class="fil1" cx="133" cy="133" r="131"/>
   <circle class="fil2" cx="67" cy="73" r="21"/>
   <circle class="fil3" cx="200" cy="73" r="21"/>
   <circle class="fil4" cx="67" cy="194" r="21"/>
   <circle class="fil5" cx="200" cy="194" r="21"/>
   <circle class="fil6" cx="133" cy="133" r="21"/>
  </g>
 </g>
</svg>
