<svg shape-rendering="geometricPrecision" text-rendering="geometricPrecision" image-rendering="optimizeQuality" xmlns="http://www.w3.org/2000/svg" viewBox="-985.7 -537.4 2701.6 1834.9"><path fill="#FAFAFA" d="M1715.9 955.6c-1.2 6.6-2 13.4-3.5 19.9-7.6 33.6-28.4 54.6-61.6 63-27.3 6.9-54.7 7.2-82 0-35.5-9.3-56.9-33.1-64.7-68.3-13.9-63 1-119 43.8-167.4 24.2-27.4 53.6-48.3 85.1-66.3 2.7-1.6 4-1.1 5.4 1.6 2.4 4.6 7.4 9.2 6.9 13.3-.5 4.3-7.7 5.9-11.9 8.7-27.2 17.6-53 36.9-74.2 61.8-9 10.6-16.7 22-22.5 34.7-.7 1.5-1.2 3-2.2 5.2 11.7-3.5 22.6-6.8 33.9-8.7 30.1-5.2 60-5.7 89.4 3.5 34.3 10.7 54 36 57 71.8.1 1.4-.3 3 1 4.2.1 7.6.1 15.3.1 23zm-112.3-86.1c-22.1.4-44.6 3.6-66.8 10.6-7.8 2.5-11.5 6.8-13 14.2-5.8 27.7-5 55 5 81.6 8 21.2 23.3 35.5 45 42.1 24 7.4 48.3 7.5 72.3.5 23.2-6.8 37.7-22.4 43.7-45.7 4-15.3 4.6-30.9 2.1-46.6-3.7-23.4-16.1-40.1-38.3-49-15.7-6.2-32.2-7.6-50-7.7zM1494 1297.5c-6.8-2.5-6.8-2.5-4-9.5l11.4-28.8c.8-2.1 1.5-3.8-.6-5.8-1.1-1-1.5-2.9-2-4.5-11.2-29.9-22.4-59.8-33.5-89.7-.4-1.2-.9-2.4-1.6-4.2-1.5 10.7-1.5 10.9-11.3 8.4-6.4-1.6-11.8-.2-16.7 4-5.3 4.7-9.1 10.6-13 16.4-1.1 1.7-.8 3.5-.8 5.3 0 20-.2 40 .1 60 .1 4.8-1.6 6.8-6.2 6.9-.7 0-1.3.2-2 .2-9.8.6-10.9-.5-10.9-10.1v-93c0-6.2.6-6.8 6.8-6.9h3.5c6.2.1 6.9.8 6.9 6.9 0 2.8 0 5.7.1 8.5 0 .3.3.5.6.9 2.9-3.2 5.6-6.5 8.6-9.5 8.8-9.2 19.3-10.4 30.7-6.2 1.6.6 2.7.7 4.5.2 4.8-1.5 9.9-1.1 14.8-.3 3.4.5 3.8 3.9 4.7 6.5 8.7 24.4 17.4 48.9 26.1 73.3.6 1.7 1.3 3.4 2.4 6.1 3.7-10.9 7.1-20.8 10.5-30.7 5.7-16.5 11.5-33 16.8-49.6 1.5-4.7 4.1-6.1 8.7-6.2 12.9-.1 13.4.5 9 12.8-15.2 42.1-30.5 84.1-45.5 126.2-2.2 6.3-4.4 11.7-12.1 12.2-2 .2-4 .2-6 .2zM-337.8 982.3c-1.4 3.4-1.5 6.4-1.6 9.3-.3 7.5-.4 15-.4 22.5 0 3.6-.5 5.1-4.5 2.6-24.1-15.5-38.7-37.8-46.9-64.9-7.5-25.1-8.7-50.7-7.5-76.6.2-3.9 1.6-4.8 5.1-4.8 5.2 0 10.3-.5 15.5-.7 3.3-.2 4.8-1.6 5.4-5.2 2.1-12.6 6.8-24.4 13.8-35.1 1.9-3 1.2-3.7-1.7-4.1-7.5-1-15-.8-22.5-.9-6.2-.1-6.3-.5-4-6.3 8.7-22 22.4-40 42.3-53 1.2-.8 2.2-2.5 3.9-1.6 1.9 1 1.1 3 1.1 4.5.2 7.8.2 15.7.4 23.5.1 3.3.1 6.6 1.6 10.3 9-10.1 19.7-17.3 31.3-23 34.4-17 69.6-19 105.3-4.3 9.1 3.8 17.9 8.1 25.7 14.3 3.4 2.7 3.3-.5 3.4-2.2.4-7.1.6-14.3.9-21.5.1-1.6-.7-3.6 1.2-4.6 1.9-1 3 .8 4.4 1.6 22.9 13.3 37.6 33.3 47.2 57.5 1.3 3.3.8 4.7-2.9 4.7-4.8.1-9.7.3-14.5.6-3.4.2-5.3.7-2.6 5 6.5 10.5 10.7 22.2 13.3 34.3.8 3.7 2.3 5 5.8 5.4 11.1 1.4 11.6 1.4 11.8 12.2.9 32.6-2.4 64.6-17.6 94.2-9.7 18.9-24.1 33.3-42.3 44.1-3.1 1.8-3.8.2-3.9-2.5-.2-6.3-.4-12.7-.6-19-.1-1.5.1-3.4-1.3-4.1-1.7-.9-2.5 1.2-3.6 2-34 22.2-70.3 29.3-109.6 16.9-17.2-5.4-32.7-13.9-46.3-25.8-1.7-1.3-3-3.1-5.1-5.3zm88.5 21.7c9.3.1 18.5-.7 27.3-3.4 21-6.4 41.2-13.8 53.5-34.3 7.4-12.3 12.4-25.4 15-39.4 3.2-16.8 3.8-33.7 2.7-50.7-.3-4.1.6-6.3 5.3-6 2.9.1 6.2-.1 5-5-3.4-13.4-9-25.8-16.7-37.2-.6-.9-1.5-2-2.5-2.3-3.1-.9-4.6-3.2-6-5.6-4.3-7.4-10.1-13.5-17.1-18.5-63.5-45.8-152.5-15-173.9 60.2-.9 3.2-2.9 6.6.8 9.5.6.5.5 2.2.4 3.4-1.2 11-.8 21.9 0 32.9 1.3 16.6 4.3 33.1 13.6 47 21.9 32.8 53.7 48.1 92.6 49.4zM1204.5 1039.3c-30.2-.2-53.4-4.7-74.4-17.9-17.7-11.1-30.6-26.5-39.7-45.2-11.5-23.7-16.5-49-18.6-75.1-2-25.3-.3-50.3 5.7-74.9 8-33 24.1-60.5 55.1-77.1 16.3-8.7 33.9-12.9 52.1-14.2 16.1-1.2 32.2-.8 48.3 2.2 36.5 6.9 63.5 26.2 79.3 60.2 10.5 22.6 14.6 46.6 15.8 71.2 1.1 22.1.7 44.2-3.1 66.1-4.5 26-13.2 50.3-31.2 70.2-13.3 14.6-30.1 23.9-49.1 29.1-15.1 4.1-30.4 5.8-40.2 5.4zm97.3-152.7c0-7.2-.2-14.3-.8-21.4-1.8-20.7-5.1-40.9-14.3-59.8-11.4-23.5-29.4-39-55-45.4-16-4-32.1-4.6-48.4-2.6-37.3 4.7-62.3 24.5-75.1 59.9-6.4 17.9-9.1 36.4-9.9 55.3-1.3 30.7.7 60.9 12.6 89.7 8.7 21.1 23 37.3 44.3 46.5 19.4 8.4 39.8 9.7 60.7 7.8 37-3.3 65.7-27 76.6-62.6 6.6-22.1 9-44.6 9.3-67.4zM340.2 1037h-90.5c-7.2 0-7.3-.1-7.3-7.2 0-51.1.1-102.3-.1-153.4 0-4.5 1.1-6.2 5.8-6.1 9.8.3 19.7-.4 29.5.2 47.9 2.7 95.9.4 143.8 1.2 6.1.1 6.9.9 6.9 6.9v19.5c0 6.9-.7 7.6-7.8 7.6H290c-6.8 0-6.8 0-6.8 7v83c0 7.7 0 7.7 8 7.7h137.9c8.6 0 8.6 0 8.6 8.9v18c0 6.5-.3 6.8-6.7 6.8h-86.5c-1.4-.1-2.9-.1-4.3-.1zM599.1 1037h-90.5c-6.8 0-7-.3-7-7.1 0-51.3.1-102.6-.1-154 0-4.6 1.5-5.8 5.7-5.7 58.1 1.8 116.2 1.2 174.3 1.3 4.4 0 5.8 1.9 5.7 6.1-.2 7.2 0 14.3-.1 21.5 0 5.9-.7 6.5-6.7 6.5h-130c-8.2 0-8.2 0-8.2 8.4v82c0 7.3 0 7.3 7.6 7.3h139.5c7.5 0 7.5 0 7.5 7.8 0 6.7-.3 13.3.1 20 .3 4.7-1.5 6-6 6-30.5-.2-61.1-.1-91.8-.1zM907 1037h-96.5c-6.5 0-6.9-.3-6.8-6.7.3-17.2-2.7-12.1 11.3-22 30.8-21.9 61.2-44.4 89.5-69.5 24.9-22.1 49.1-45.1 66.9-73.7 10-16.1 16.4-33.1 13.7-52.5-3.9-28.4-19.8-44.3-46.9-51.9-12.3-3.4-25-4.8-37.5-4.6-25 .3-49.3 4.9-72.1 15.8-3.9 1.9-7.7 4-11.5 5.9-3.1 1.5-5.2.9-5.2-3.1 0-5.2.1-10.3 0-15.5-.1-3.1 1.9-4.5 4.2-5.6 30-14.3 61.6-20.6 94.9-18.9 18.1.9 35.8 3.4 52.6 10.5 24.3 10.2 39.2 28.3 44.9 54.1 7.2 32.5-2.6 60.7-20.9 87-21.2 30.4-48.1 55.1-76.4 78.5-19.5 16.1-39.9 31.1-60.6 45.6-1.1.8-2.2 1.5-3.2 2.4-.6.5-1.3 1.1-1.1 2.1.3 1 1.3.9 2.1.9 2 0 4-.1 6-.1h149c7.4 0 7.5 0 7.5 7.6 0 13.9 0 13.9-14.1 13.9-30.1-.2-59.9-.2-89.8-.2zM176.5 964.6c0 18.3-.1 36.7.1 55 0 4-1 6.1-5.2 7.6-19.6 7-39.8 10.3-60.6 11.5-21.9 1.2-43.7-.4-65-5.1-41.2-9.1-73.6-30.4-91-70.4-9.2-21-12.8-43.3-13.6-66.1-.3-7.3 0-14.7-.1-22-.1-3.4 1.2-4.8 4.7-4.8 10.7.1 21.3.1 32 0 3.6 0 4.4 1.5 4.3 4.8-.3 15.5-.4 31 2.6 46.3 4.9 24.9 14.6 47 35.6 62.7C35 995.2 52 1000.6 70 1003.3c20.5 3.1 40.8 2.2 61-1.7 4.3-.8 5.6-2.7 5.6-7-.2-28.5-.1-57-.1-85.5 0-6.3.6-6.9 6.8-6.9 9.2 0 18.3.2 27.5-.1 4.4-.1 5.9 1.6 5.8 5.9-.2 18.9-.1 37.8-.1 56.6zM-573.3 744.6c18.8.4 41.8-1.2 64.7.7 20.2 1.7 38.9 7.8 52.3 24.4 12.1 15 14.2 33 13.7 51.4-.1 2.7-1.9 3.2-4.1 3.2h-35.5c-3.7 0-3.9-2.3-3.7-5 .4-7.6-.5-15-3.9-21.9-6.4-13.1-18.4-17.4-31.6-18.5-18.4-1.6-37-.4-55.4-.6-9.5-.1-19 .1-28.5-.1-4.2-.1-5.9 1.1-5.8 5.7.3 11.8 0 23.7.2 35.5.1 3.8-1.3 5-4.9 5-10.5-.1-21-.1-31.5 0-3.5 0-4.6-1.3-4.6-4.8.1-23.2.2-46.3 0-69.5 0-4.6 1.8-5.6 5.9-5.6 22.8.1 45.7.1 72.7.1zM-827.2 912.5h30c5 0 5.5-.9 3.5-5.6-4.4-10.4-8.6-20.9-13.1-31.3-1.5-3.5-1.2-5.3 3.2-5.3 11.3.1 22.7.1 34 0 3.3 0 4.9 1.5 6.2 4.5 16.3 38.6 32.8 77.1 49.2 115.7 5.8 13.6 11.6 27.2 17.3 40.8 1.9 4.5 1.2 5.6-3.8 5.6-10.8.1-21.7-.1-32.5.1-3.1 0-4.8-1.1-6-4-6.3-15.2-12.8-30.3-19.2-45.5-5.3-12.6-10.6-25.1-15.8-37.7-1.5-3.6-4.2-4.1-7.6-4.1-27.7.1-55.3 0-83 0-1.7 0-3.3.1-5-.2-2.5-.3-3.5-1.8-2.6-4.3 2.9-8.5 5.9-16.9 8.8-25.5 1-3.1 3.3-3.3 5.9-3.3 10.2.1 20.3.1 30.5.1zM93.8 742.6c27.1-.7 52.3 3.3 77.2 10.2 4 1.1 5.7 3.3 5.6 7.5-.2 7.7-.1 15.3-.1 23 0 6.5-.8 7.2-6.9 5-16.7-6.1-33.9-10-51.5-11.5-30.9-2.6-61.2-.8-89.4 14-13 6.8-23.3 16.5-30.9 29-2 3.3-4.2 4.7-8 4.6-11.3-.2-22.7 0-34-.1-4.9 0-5.5-1-3.7-5.2 8.5-20.8 21.2-38.4 40.1-51.1 15.1-10.2 31.7-16.7 49.5-20.5 17.5-3.8 35.3-5.7 52.1-4.9zM338.6 744.6h89.9c6.4 0 6.7.3 6.7 6.8v19.5c0 6.1-.9 6.9-6.9 6.9H289.9c-6.6 0-6.6 0-6.6 6.7 0 11.7-.1 23.3.1 35 .1 3.7-1.2 5-4.9 4.9-10.3-.2-20.7-.2-31 0-3.8.1-5.2-1-5.2-5.1.2-22.8.2-45.6 0-68.4 0-4.8 1.6-6.4 6.3-6.3h90zM598 744.6h90c6.3 0 6.4.2 6.4 6.4v20.5c0 5.7-.7 6.3-6.9 6.3H552c-9.6 0-9.6 0-9.6 9.5 0 10.7-.1 21.3.1 32 .1 3.7-1.1 5.2-4.8 5.1-10.5-.1-21-.1-31.5 0-3.3 0-4.7-1.1-4.7-4.7.1-23.3.2-46.7 0-70 0-5.1 2.9-5.1 6.5-5.1h90zM1438.9 885.6v145c0 6-.4 6.4-6.6 6.5h-14c-2.9.1-4.3-1.2-4.2-4.2.1-2 0-4 0-6V771.5c0-6.8-.3-7.1-7-7.1-6.2 0-12.3-.1-18.5.1-4.2.1-6-1.4-6-5.8 0-9.1-.1-9 8.5-11.4 13.5-3.7 26.9-7.4 40.3-11.3 6.2-1.8 7.4-1.1 7.4 5.4.1 47.9.1 96 .1 144.2zM453.8 1181.9c-4-2.7-7.9-5-11.4-7.6-12.8-9.7-18.8-22.3-15.2-38.4 3.4-15.2 14-23.2 28.5-26.7 10.7-2.6 21.5-2.7 32.2-.2 13.1 3.1 23.4 9.9 26.5 24 3.3 14.5-1.3 26.6-12.1 36.5-4.3 3.9-9.3 6.9-14.6 10.4 6.2 3.6 12.3 6.7 17.6 10.9 18 14.1 20.7 38.1 6.1 54.5-4.2 4.7-9.4 8-15.3 10-16.9 5.6-34.1 6.1-51 .3-25.1-8.6-32.2-37.7-14.3-57.4 5-5.5 11.2-9.4 17.5-13.1 1.8-1.2 3.5-2.1 5.5-3.2zm17.5 61.8c3.1-.2 6.5-.2 10-.9 8.9-1.9 16.1-6 18.5-15.3 2.6-9.7-.2-18-7.9-24.7-6.1-5.3-13.3-8.8-20.3-12.5-1.3-.7-2.4-.7-3.7 0-7.3 3.7-14.4 7.7-20 13.8-6.3 7-8.3 15.1-5.5 24.1 2.7 8.5 9.3 12.5 17.6 14.4 3.6.9 7.2 1 11.3 1.1zM446 1142.9c-.3 6.4 2.1 11.7 6.5 16.2 5.1 5.2 11.4 8.6 17.6 12.1 1.2.7 2.5.9 3.8.2 7.6-4.3 14.8-9.1 19.2-17 7-12.7 1.2-26.8-12.6-30.5-6.7-1.8-13.5-1.7-20.2.3-9.1 2.6-14.1 9.3-14.3 18.7zM-965 1037h-16.5c-4.1 0-5-1.9-3.5-5.4 11.3-26.4 22.6-52.8 33.8-79.3 10.7-25.2 21.4-50.5 31.9-75.8 1.8-4.4 4-6.5 9.1-6.3 9.6.5 19.3.2 29 .1 3.4 0 5.4.1 3.4 4.7-18.4 44.3-36.6 88.8-54.9 133.1-3.3 8.1-6.8 16.2-10 24.4-1.2 3.1-3.1 4.5-6.4 4.4-5.3 0-10.6.1-15.9.1zM-651.8 953.1c0-25.6.1-51.3-.1-76.9 0-4.3 1.1-6 5.6-5.8 10.2.3 20.3.2 30.5 0 3.6 0 5 1.2 5 5-.1 52-.1 103.9 0 155.9 0 4.4-1.7 5.9-5.9 5.9-9.5-.1-19 0-28.5-.1-6.2 0-6.5-.4-6.5-6.5-.1-25.9-.1-51.7-.1-77.5zM1018.9 1241.1c0 4-.1 6.9 0 9.8.1 3-1.2 4.7-4.3 5-1.8.2-3.6.5-5.5.4-6.6-.2-7.3-1-7.3-7.7v-144.4c0-6.9.7-7.5 7.8-7.7 11-.2 11.2 0 11.2 10.8v52.8c2.3-.5 3.5-2.2 4.9-3.4 9.6-8.3 20.4-13.2 33.3-11.9 16.7 1.7 27.7 11 32.8 26.6 6.5 19.9 6.7 40.1-.9 59.7-10.7 27.8-42.5 35.5-65.1 16.1-2-1.7-4-3.6-6.9-6.1zm2-39.7v17.5c0 1.7.1 3.2 1.4 4.6 4.7 5.2 9.4 10.4 15.5 14 12.1 7.3 26.2 4.2 32.5-8.4 9.3-18.5 8.9-37.6.2-56.3-3.7-8-10.9-11.8-20-11.5-10.1.3-16.8 6.3-23.5 12.8-4.2 4.1-7.1 8.5-6.3 14.8.6 4.1.2 8.3.2 12.5zM78 1161.9c4.4-3.4 7.9-6.4 11.6-9 9-6.2 19-7.9 29.5-5.9 15.1 2.8 24.8 14.1 27 30.6 1.2 9.1.9 18.3.9 27.4.1 15.3-.2 30.6.1 46 .1 4.9-2.1 6.4-6.5 6.6-12.1.7-12.6.3-12.6-11.7v-52c0-5.7-.4-11.3-2.2-16.8-4.3-12.9-16.7-18.1-28.8-12.1-7.5 3.7-13 9.8-18.2 16.1-1.3 1.6-.9 3.5-.9 5.3v64c0 6-.8 6.9-6.8 7.2-11.7.7-12.2.2-12.2-11.1v-140.9c0-6.7.5-7.2 7.3-7.5h2c9.1 0 9.7.6 9.7 9.4.1 17.8.1 35.6.1 54.4zM626.1 1162.1c4-3.2 7.1-6.1 10.6-8.5 14.6-10.2 34-9.9 46.3 1 9.1 8 11.7 18.9 11.9 30.2.4 22.3.2 44.6.3 66.9 0 4.2-1.9 5.5-5.6 5.9-12.4 1.1-13.4.3-13.4-11.9 0-18.8-.1-37.6-.2-56.5 0-4.9-.9-9.6-2.9-14.1-4.7-10.9-15.4-15.2-26.4-10.7-8.4 3.5-14.3 10.1-19.9 17-1.3 1.6-.8 3.5-.8 5.3 0 21.3-.2 42.6.1 63.9.1 5.1-2 6.8-6.6 7-11.9.6-12.5.2-12.5-11.4v-140.9c0-6.4.6-7 7-7.3 11.2-.6 12 .1 12 11.1v47.5c.1 1.6.1 3.2.1 5.5zM-78.6 1109.4c10.3 0 20.7.2 31-.1 4.8-.1 6.8 1.9 6.8 6.3 0 1.8.1 3.7-.1 5.5-.4 3.6-2.1 5.5-6.2 5.5-15.2-.2-30.3.1-45.5-.2-4.3-.1-5.3 1.2-5.2 5.3a534 534 0 0 1 0 31c-.1 4 .9 5.2 5 4.7 8.5-.9 17-.9 25.4.6 26.3 4.8 39.6 24.1 35.1 50.5-3.4 20.2-15.2 32.8-34.8 38.1-17.5 4.8-34.6 3.1-51.3-3.5-6-2.4-9-12.1-5.7-17.7 2-3.3 4.2-1.4 6.4-.3 10.8 5.8 22.3 8.2 34.6 7.5 22.3-1.4 34.9-18.6 29.2-40.2-2.8-10.6-11.3-17.1-24.4-18.9-9-1.2-17.9-.8-26.9.2-2 .2-4 .2-6 .3-4.1.2-6.3-1.7-6.3-5.9v-61.9c0-4.7 2.4-6.9 7.2-6.9 10.7.2 21.2.1 31.7.1zM-841.1 744.6c5.8 0 11.7.1 17.5 0 3.2 0 5.1 1.1 6.4 4.3 9.9 23.4 20 46.8 30 70.1 1.9 4.4 1.4 5.3-3.4 5.4-11 .1-22-.1-33 .1-3.4 0-5.1-1.3-6.3-4.4-3.2-8.4-6.7-16.6-10.2-24.9-.5-1.2-.6-2.9-2.2-3-1.8 0-2.3 1.7-2.8 3.1-3.5 8.5-7.1 16.9-10.3 25.4-1.1 2.8-2.8 3.8-5.6 3.8-10.5-.1-21 0-31.5 0-2.7 0-4.7-.2-3.1-4 9.9-23 19.8-46.1 29.4-69.3 2-4.9 4.5-7.2 10-6.6 5.1.4 10.1 0 15.1 0zM341.7 1239.3c1.7 1.2 3.6.7 5.3.7h54.5c5.7 0 7.1 1.6 7.2 8.1.1 7.1-1.3 8.8-7 8.8h-77.5c-6.1 0-7.6-1.7-8.1-7.6-.5-6.1 1.9-10.9 6.1-15.2 11.9-12.1 23.8-24.3 35.4-36.6 8.2-8.8 15.4-18.4 20.2-29.5 2.5-5.7 3.7-11.7 3.8-18 .3-15.1-9.4-25.2-24.6-25.4-10.7-.1-20 4.1-29 9.6-2.1 1.3-4.1 3.6-6.7 2.2-2.8-1.5-2-4.6-2.3-7.2-.7-5.8 1.6-9.8 6.7-12.7 15-8.5 30.8-11.6 47.6-7.7 19.9 4.6 30.5 21.4 28.5 43-1.5 17-9.7 30.5-19.8 43.3-11.5 14.5-25 27.2-37.6 40.7-1 1.1-2.4 1.9-2.7 3.5zM-206.5 1240h37.9c7.5 0 15 .1 22.5-.1 4.6-.1 6.4 2.1 6.4 6.3v3.5c-.2 6.3-1.1 7.2-7.4 7.3h-74c-10.3 0-14.2-6.3-9.9-16.1 1.3-3 3.5-5.2 5.7-7.5 13.5-14 27.8-27.3 40.2-42.4 8.1-9.8 15.3-20.2 17.6-33.1.9-5.1 1.2-10.3.1-15.4-2.5-10.9-11.5-17.6-23.5-17.8-10.9-.2-20.4 4.2-29.4 9.7-2.1 1.2-4.1 3.6-6.7 2-2.5-1.5-1.7-4.4-2.1-6.8-.9-6.3 1.7-10.4 7.2-13.4 17.1-9.2 34.9-12.4 53.3-5.2 16.4 6.4 23.4 20.6 22.1 40.6-1.1 17.6-10 31.4-20.6 44.5-11.1 13.8-23.9 25.9-36 38.8-1 1.4-2.6 2.4-3.4 5.1zM942.7 1205.4c-10.2 0-20.3.2-30.5-.1-3.7-.1-4.3 1.2-4.2 4.6.6 21.7 14.2 34 36.1 32.5 9.1-.6 17.7-2.7 26.1-6.2 6.8-2.9 8-2 8 5.1.1 7.3-.6 8.6-7.5 11.1-15 5.4-30.5 7.3-46.2 4-16.5-3.4-27.8-13.2-32.8-29.4-5-16.3-5.2-32.9 0-49.2 7.3-22.9 27.5-35.6 51.4-32.7 24.7 2.9 38.7 19 39.4 45.1.4 14.6-.3 15.3-14.8 15.3-8.3-.1-16.6-.1-25-.1zm-7.2-14h24c1.5 0 3.3.7 3.9-1.9 2.5-11.6-7.4-26.4-19.3-28.9-18.7-3.9-34.1 7.7-35.9 27.1-.3 2.8.5 3.8 3.4 3.8 7.9-.2 15.9-.1 23.9-.1zM1360.9 1243.3c-12.6 12.3-26.5 16.8-42.8 13.3-15-3.2-23.2-12.5-24.8-27.9-1.4-13.4 5.9-25.2 19-30.9 11.9-5.2 24.5-5.6 37.3-5.5 9.3.1 9.3 0 9.2-9.1-.4-19.8-12-25.2-32.1-22.1-7.3 1.1-13.9 4.5-20.3 8-5.2 2.9-7.2 1.8-8-4-.8-5.8.6-9.4 5.8-12 16.3-8.5 33.5-10.9 51.3-5.9 14.5 4 22 14.8 22.3 32.3.4 23.8.1 47.6.2 71.5 0 3.1-1.2 4.7-4.2 5-1.2.1-2.3.4-3.5.4-7.9.3-9-.8-9.1-8.5-.1-1.2-.2-2.3-.3-4.6zm-14.2-37.3c-8 0-16 0-23.5 3.5-6.6 3.1-10.3 8.3-10.3 15.7 0 6.7 2.4 12.2 8.5 15.2 8.5 4 17 3.2 24.7-1.8 7.2-4.7 13.9-9.4 12.9-20.3-1-12.2-.2-12.3-12.3-12.3zM1257.8 1240.5c-2.7.6-3.6 2.5-5 3.8-7.7 7.2-16.4 12.6-27.2 13.3-21.9 1.3-36.6-11-38.5-32.8-2.1-24.4-.6-48.9-.9-73.4 0-4.7 1.9-5.3 12.4-5 3.7.1 7 .2 6.9 5.5-.2 18.3-.1 36.6 0 54.9 0 5.8.1 11.6 1.4 17.4 3.8 15.7 18.2 21.8 32 13.4 6-3.7 10.7-9 15.4-14.1 1.7-1.8 1.4-4 1.4-6.1v-63.9c0-6 .8-6.8 6.9-7 12.3-.4 12.3-.4 12.3 11.6 0 30.3-.1 60.6.1 90.9 0 5.3-1.8 7.4-6.7 7.4-2.3 0-4.6-.2-7-.4-2.6-.2-3.8-1.6-3.7-4.3.3-3.7.2-7.3.2-11.2zM802.9 1183v-65.4c0-7.9 1.9-9.8 9.6-9.9h61c5.8 0 7.1 1.6 7.1 8.6 0 6.9-1.3 8.3-7.3 8.4-15.2 0-30.3.2-45.5-.1-4.3-.1-5.3 1.3-5.3 5.4.2 13.2.2 26.3 0 39.5-.1 4 .9 5.4 5.2 5.4 14.3-.3 28.6-.1 43-.1 5.8 0 6.9 1.4 6.9 8.2 0 6.6-1.4 8.4-6.9 8.5-14.5 0-29 .1-43.5-.1-3.8-.1-4.8 1-4.8 4.8.2 17.5.1 35 .1 52.5 0 6.5-.4 6.9-6.9 7.7-.8.1-1.7.1-2.5.2-9.4.2-10.2-.7-10.2-9.9V1183zM542.6 1198.8c0-10-.1-20 .1-30 .1-3.4-.8-4.9-4.4-4.5-2.3.3-4.7.1-7 0-5.5-.1-6.7-1.4-6.7-7.9 0-6.7.9-7.8 6.5-7.9 11.5-.1 11.5-.1 11.5-11.8 0-3.3.2-6.7-.1-10-.4-4.4 1.9-5.9 5.8-6.2 12-1 13.2.1 13.2 11.9 0 4.2.1 8.3 0 12.5-.1 2.9 1 3.7 3.7 3.6 6.5-.2 13 .2 19.5-.1 4.9-.3 6.7 1.8 6.6 6.4 0 1.8-.1 3.7-.3 5.5-.4 3-2.2 4.2-5.2 4.1-6.8-.1-13.7.1-20.5-.1-3.1-.1-3.9 1.1-3.9 4 .1 18.6.1 37.3.1 55.9 0 .7.1 1.3.1 2 1.4 15.1 8.7 19.7 23.2 14.5 5.3-1.9 5.9-1.6 6.5 4.1.8 8.8-.9 11.6-9.6 13.1-11.4 2-22.7 2.3-31.7-6.9-6.4-6.6-7.2-15.2-7.4-23.7-.2-9.5 0-19 0-28.5zM13.3 1198.3c.5 8.9-.9 19.7.6 30.5 1.7 12.2 8.7 16.5 20.6 12.7 8.3-2.6 9-1.9 8.8 6.9-.1 4.9-2.3 7.8-7 8.9-6.9 1.7-13.8 2.1-20.8.8-11.7-2.2-18.6-10-20.5-22.7-1.1-8-.8-16-.8-23.9 0-14-.2-28 .1-42 .1-4.6-1.4-5.9-5.6-5.3-1.6.2-3.3.1-5 0-2.6-.1-5.6.7-6.7-2.8-1.3-4.1-1.6-8.4 1-12 1.7-2.3 4.7-1 7.1-1 9.1-.1 9.1 0 9.1-9.2 0-4.5.1-9 0-13.5-.1-3.2 1.5-4.6 4.3-5.1 1.3-.2 2.6-.3 4-.3 10.4-.2 10.8.2 10.8 10.7 0 4.3.2 8.7-.1 13-.3 3.7 1.2 4.5 4.6 4.4 6.7-.2 13.3.1 20-.1 3.7-.1 5.2 1.6 5.4 5 .1 2 .1 4 0 6-.2 3.4-2 5-5.5 5-6.5-.1-13 .2-19.5-.1-4.1-.2-5 1.3-4.9 5.1.2 9.1 0 18.1 0 29zM1132.2 1163.8c4.4-4.8 7.5-9.1 11.5-12.5 8.3-7.3 17.6-7.8 27.6-4.7 2.2.7 3.9 2 3.9 4.6 0 3.7.1 7.3-.1 11-.1 3-1.8 4.2-4.7 3.2-1.3-.4-2.5-.8-3.8-1.3-8-2.9-14.7-.7-20.4 5.1-4.3 4.4-7.7 9.6-11.1 14.7-1.2 1.9-.9 3.8-.9 5.8 0 20.1-.1 40.3.1 60.4 0 4.1-1.5 5.8-5.3 6-1.2.1-2.3.3-3.5.3-9.5.2-10.3-.6-10.3-9.8v-92.4c0-7.2.5-7.7 7.6-7.8 1.2 0 2.3.1 3.5 0 4.3-.2 6.6 1.3 6.2 6.1-.6 3.2-.3 6.6-.3 11.3zM-499 870.4h30c1.6 0 3.7-.8 4.6 1 1 2-1.3 2.7-2.4 3.8-14.2 14.1-31.6 22.4-50.2 28.6-12 4-24.4 6.7-36.7 9.2-6.6 1.3-6.9 1-8.4-5.4-1.7-7.6-3.6-15.2-5.5-22.8-1.1-4.3.5-6.1 4.8-6.7 9.6-1.4 18.9-3.7 28.1-6.8 2.3-.8 4.6-.9 6.9-.9h28.8zM234.1 1191.5c7.1 0 14.3.1 21.4-.1 3.8-.1 5.6 1.5 5.7 5.1.1 1.8.1 3.6 0 5.4-.1 3.7-1.8 5.3-5.6 5.3-14.8-.1-29.6-.1-44.4 0-3.5 0-5.3-1.6-5.5-5-.1-2-.1-4 0-6 .2-3.4 1.8-5 5.4-5 7.7.5 15.4.3 23 .3z"/><path fill="#FAFAFA" d="M-189.2 892.1c0 33.2-27 60.2-60.1 60.1-33.1-.1-59.9-27.1-59.9-60.3.1-33.1 27.2-60 60.3-59.8 33 0 59.7 27 59.7 60zM1715.9 955.6c-1.2 6.6-2 13.4-3.5 19.9-7.6 33.6-28.4 54.6-61.6 63-27.3 6.9-54.7 7.2-82 0-35.5-9.3-56.9-33.1-64.7-68.3-13.9-63 1-119 43.8-167.4 24.2-27.4 53.6-48.3 85.1-66.3 2.7-1.6 4-1.1 5.4 1.6 2.4 4.6 7.4 9.2 6.9 13.3-.5 4.3-7.7 5.9-11.9 8.7-27.2 17.6-53 36.9-74.2 61.8-9 10.6-16.7 22-22.5 34.7-.7 1.5-1.2 3-2.2 5.2 11.7-3.5 22.6-6.8 33.9-8.7 30.1-5.2 60-5.7 89.4 3.5 34.3 10.7 54 36 57 71.8.1 1.4-.3 3 1 4.2.1 7.6.1 15.3.1 23zm-112.3-86.1c-22.1.4-44.6 3.6-66.8 10.6-7.8 2.5-11.5 6.8-13 14.2-5.8 27.7-5 55 5 81.6 8 21.2 23.3 35.5 45 42.1 24 7.4 48.3 7.5 72.3.5 23.2-6.8 37.7-22.4 43.7-45.7 4-15.3 4.6-30.9 2.1-46.6-3.7-23.4-16.1-40.1-38.3-49-15.7-6.2-32.2-7.6-50-7.7zM1494 1297.5c-6.8-2.5-6.8-2.5-4-9.5l11.4-28.8c.8-2.1 1.5-3.8-.6-5.8-1.1-1-1.5-2.9-2-4.5-11.2-29.9-22.4-59.8-33.5-89.7-.4-1.2-.9-2.4-1.6-4.2-1.5 10.7-1.5 10.9-11.3 8.4-6.4-1.6-11.8-.2-16.7 4-5.3 4.7-9.1 10.6-13 16.4-1.1 1.7-.8 3.5-.8 5.3 0 20-.2 40 .1 60 .1 4.8-1.6 6.8-6.2 6.9-.7 0-1.3.2-2 .2-9.8.6-10.9-.5-10.9-10.1v-93c0-6.2.6-6.8 6.8-6.9h3.5c6.2.1 6.9.8 6.9 6.9 0 2.8 0 5.7.1 8.5 0 .3.3.5.6.9 2.9-3.2 5.6-6.5 8.6-9.5 8.8-9.2 19.3-10.4 30.7-6.2 1.6.6 2.7.7 4.5.2 4.8-1.5 9.9-1.1 14.8-.3 3.4.5 3.8 3.9 4.7 6.5 8.7 24.4 17.4 48.9 26.1 73.3.6 1.7 1.3 3.4 2.4 6.1 3.7-10.9 7.1-20.8 10.5-30.7 5.7-16.5 11.5-33 16.8-49.6 1.5-4.7 4.1-6.1 8.7-6.2 12.9-.1 13.4.5 9 12.8-15.2 42.1-30.5 84.1-45.5 126.2-2.2 6.3-4.4 11.7-12.1 12.2-2 .2-4 .2-6 .2z"/><path fill="#FAFAFA" d="M-337.8 982.3c-1.4 3.4-1.5 6.4-1.6 9.3-.3 7.5-.4 15-.4 22.5 0 3.6-.5 5.1-4.5 2.6-24.1-15.5-38.7-37.8-46.9-64.9-7.5-25.1-8.7-50.7-7.5-76.6.2-3.9 1.6-4.8 5.1-4.8 5.2 0 10.3-.5 15.5-.7 3.3-.2 4.8-1.6 5.4-5.2 2.1-12.6 6.8-24.4 13.8-35.1 1.9-3 1.2-3.7-1.7-4.1-7.5-1-15-.8-22.5-.9-6.2-.1-6.3-.5-4-6.3 8.7-22 22.4-40 42.3-53 1.2-.8 2.2-2.5 3.9-1.6 1.9 1 1.1 3 1.1 4.5.2 7.8.2 15.7.4 23.5.1 3.3.1 6.6 1.6 10.3 9-10.1 19.7-17.3 31.3-23 34.4-17 69.6-19 105.3-4.3 9.1 3.8 17.9 8.1 25.7 14.3 3.4 2.7 3.3-.5 3.4-2.2.4-7.1.6-14.3.9-21.5.1-1.6-.7-3.6 1.2-4.6 1.9-1 3 .8 4.4 1.6 22.9 13.3 37.6 33.3 47.2 57.5 1.3 3.3.8 4.7-2.9 4.7-4.8.1-9.7.3-14.5.6-3.4.2-5.3.7-2.6 5 6.5 10.5 10.7 22.2 13.3 34.3.8 3.7 2.3 5 5.8 5.4 11.1 1.4 11.6 1.4 11.8 12.2.9 32.6-2.4 64.6-17.6 94.2-9.7 18.9-24.1 33.3-42.3 44.1-3.1 1.8-3.8.2-3.9-2.5-.2-6.3-.4-12.7-.6-19-.1-1.5.1-3.4-1.3-4.1-1.7-.9-2.5 1.2-3.6 2-34 22.2-70.3 29.3-109.6 16.9-17.2-5.4-32.7-13.9-46.3-25.8-1.7-1.3-3-3.1-5.1-5.3zm88.5 21.7c9.3.1 18.5-.7 27.3-3.4 21-6.4 41.2-13.8 53.5-34.3 7.4-12.3 12.4-25.4 15-39.4 3.2-16.8 3.8-33.7 2.7-50.7-.3-4.1.6-6.3 5.3-6 2.9.1 6.2-.1 5-5-3.4-13.4-9-25.8-16.7-37.2-.6-.9-1.5-2-2.5-2.3-3.1-.9-4.6-3.2-6-5.6-4.3-7.4-10.1-13.5-17.1-18.5-63.5-45.8-152.5-15-173.9 60.2-.9 3.2-2.9 6.6.8 9.5.6.5.5 2.2.4 3.4-1.2 11-.8 21.9 0 32.9 1.3 16.6 4.3 33.1 13.6 47 21.9 32.8 53.7 48.1 92.6 49.4zM1204.5 1039.3c-30.2-.2-53.4-4.7-74.4-17.9-17.7-11.1-30.6-26.5-39.7-45.2-11.5-23.7-16.5-49-18.6-75.1-2-25.3-.3-50.3 5.7-74.9 8-33 24.1-60.5 55.1-77.1 16.3-8.7 33.9-12.9 52.1-14.2 16.1-1.2 32.2-.8 48.3 2.2 36.5 6.9 63.5 26.2 79.3 60.2 10.5 22.6 14.6 46.6 15.8 71.2 1.1 22.1.7 44.2-3.1 66.1-4.5 26-13.2 50.3-31.2 70.2-13.3 14.6-30.1 23.9-49.1 29.1-15.1 4.1-30.4 5.8-40.2 5.4zm97.3-152.7c0-7.2-.2-14.3-.8-21.4-1.8-20.7-5.1-40.9-14.3-59.8-11.4-23.5-29.4-39-55-45.4-16-4-32.1-4.6-48.4-2.6-37.3 4.7-62.3 24.5-75.1 59.9-6.4 17.9-9.1 36.4-9.9 55.3-1.3 30.7.7 60.9 12.6 89.7 8.7 21.1 23 37.3 44.3 46.5 19.4 8.4 39.8 9.7 60.7 7.8 37-3.3 65.7-27 76.6-62.6 6.6-22.1 9-44.6 9.3-67.4zM340.2 1037h-90.5c-7.2 0-7.3-.1-7.3-7.2 0-51.1.1-102.3-.1-153.4 0-4.5 1.1-6.2 5.8-6.1 9.8.3 19.7-.4 29.5.2 47.9 2.7 95.9.4 143.8 1.2 6.1.1 6.9.9 6.9 6.9v19.5c0 6.9-.7 7.6-7.8 7.6H290c-6.8 0-6.8 0-6.8 7v83c0 7.7 0 7.7 8 7.7h137.9c8.6 0 8.6 0 8.6 8.9v18c0 6.5-.3 6.8-6.7 6.8h-86.5c-1.4-.1-2.9-.1-4.3-.1zM599.1 1037h-90.5c-6.8 0-7-.3-7-7.1 0-51.3.1-102.6-.1-154 0-4.6 1.5-5.8 5.7-5.7 58.1 1.8 116.2 1.2 174.3 1.3 4.4 0 5.8 1.9 5.7 6.1-.2 7.2 0 14.3-.1 21.5 0 5.9-.7 6.5-6.7 6.5h-130c-8.2 0-8.2 0-8.2 8.4v82c0 7.3 0 7.3 7.6 7.3h139.5c7.5 0 7.5 0 7.5 7.8 0 6.7-.3 13.3.1 20 .3 4.7-1.5 6-6 6-30.5-.2-61.1-.1-91.8-.1zM907 1037h-96.5c-6.5 0-6.9-.3-6.8-6.7.3-17.2-2.7-12.1 11.3-22 30.8-21.9 61.2-44.4 89.5-69.5 24.9-22.1 49.1-45.1 66.9-73.7 10-16.1 16.4-33.1 13.7-52.5-3.9-28.4-19.8-44.3-46.9-51.9-12.3-3.4-25-4.8-37.5-4.6-25 .3-49.3 4.9-72.1 15.8-3.9 1.9-7.7 4-11.5 5.9-3.1 1.5-5.2.9-5.2-3.1 0-5.2.1-10.3 0-15.5-.1-3.1 1.9-4.5 4.2-5.6 30-14.3 61.6-20.6 94.9-18.9 18.1.9 35.8 3.4 52.6 10.5 24.3 10.2 39.2 28.3 44.9 54.1 7.2 32.5-2.6 60.7-20.9 87-21.2 30.4-48.1 55.1-76.4 78.5-19.5 16.1-39.9 31.1-60.6 45.6-1.1.8-2.2 1.5-3.2 2.4-.6.5-1.3 1.1-1.1 2.1.3 1 1.3.9 2.1.9 2 0 4-.1 6-.1h149c7.4 0 7.5 0 7.5 7.6 0 13.9 0 13.9-14.1 13.9-30.1-.2-59.9-.2-89.8-.2zM176.5 964.6c0 18.3-.1 36.7.1 55 0 4-1 6.1-5.2 7.6-19.6 7-39.8 10.3-60.6 11.5-21.9 1.2-43.7-.4-65-5.1-41.2-9.1-73.6-30.4-91-70.4-9.2-21-12.8-43.3-13.6-66.1-.3-7.3 0-14.7-.1-22-.1-3.4 1.2-4.8 4.7-4.8 10.7.1 21.3.1 32 0 3.6 0 4.4 1.5 4.3 4.8-.3 15.5-.4 31 2.6 46.3 4.9 24.9 14.6 47 35.6 62.7C35 995.2 52 1000.6 70 1003.3c20.5 3.1 40.8 2.2 61-1.7 4.3-.8 5.6-2.7 5.6-7-.2-28.5-.1-57-.1-85.5 0-6.3.6-6.9 6.8-6.9 9.2 0 18.3.2 27.5-.1 4.4-.1 5.9 1.6 5.8 5.9-.2 18.9-.1 37.8-.1 56.6zM-573.3 744.6c18.8.4 41.8-1.2 64.7.7 20.2 1.7 38.9 7.8 52.3 24.4 12.1 15 14.2 33 13.7 51.4-.1 2.7-1.9 3.2-4.1 3.2h-35.5c-3.7 0-3.9-2.3-3.7-5 .4-7.6-.5-15-3.9-21.9-6.4-13.1-18.4-17.4-31.6-18.5-18.4-1.6-37-.4-55.4-.6-9.5-.1-19 .1-28.5-.1-4.2-.1-5.9 1.1-5.8 5.7.3 11.8 0 23.7.2 35.5.1 3.8-1.3 5-4.9 5-10.5-.1-21-.1-31.5 0-3.5 0-4.6-1.3-4.6-4.8.1-23.2.2-46.3 0-69.5 0-4.6 1.8-5.6 5.9-5.6 22.8.1 45.7.1 72.7.1zM-827.2 912.5h30c5 0 5.5-.9 3.5-5.6-4.4-10.4-8.6-20.9-13.1-31.3-1.5-3.5-1.2-5.3 3.2-5.3 11.3.1 22.7.1 34 0 3.3 0 4.9 1.5 6.2 4.5 16.3 38.6 32.8 77.1 49.2 115.7 5.8 13.6 11.6 27.2 17.3 40.8 1.9 4.5 1.2 5.6-3.8 5.6-10.8.1-21.7-.1-32.5.1-3.1 0-4.8-1.1-6-4-6.3-15.2-12.8-30.3-19.2-45.5-5.3-12.6-10.6-25.1-15.8-37.7-1.5-3.6-4.2-4.1-7.6-4.1-27.7.1-55.3 0-83 0-1.7 0-3.3.1-5-.2-2.5-.3-3.5-1.8-2.6-4.3 2.9-8.5 5.9-16.9 8.8-25.5 1-3.1 3.3-3.3 5.9-3.3 10.2.1 20.3.1 30.5.1zM93.8 742.6c27.1-.7 52.3 3.3 77.2 10.2 4 1.1 5.7 3.3 5.6 7.5-.2 7.7-.1 15.3-.1 23 0 6.5-.8 7.2-6.9 5-16.7-6.1-33.9-10-51.5-11.5-30.9-2.6-61.2-.8-89.4 14-13 6.8-23.3 16.5-30.9 29-2 3.3-4.2 4.7-8 4.6-11.3-.2-22.7 0-34-.1-4.9 0-5.5-1-3.7-5.2 8.5-20.8 21.2-38.4 40.1-51.1 15.1-10.2 31.7-16.7 49.5-20.5 17.5-3.8 35.3-5.7 52.1-4.9zM338.6 744.6h89.9c6.4 0 6.7.3 6.7 6.8v19.5c0 6.1-.9 6.9-6.9 6.9H289.9c-6.6 0-6.6 0-6.6 6.7 0 11.7-.1 23.3.1 35 .1 3.7-1.2 5-4.9 4.9-10.3-.2-20.7-.2-31 0-3.8.1-5.2-1-5.2-5.1.2-22.8.2-45.6 0-68.4 0-4.8 1.6-6.4 6.3-6.3h90zM598 744.6h90c6.3 0 6.4.2 6.4 6.4v20.5c0 5.7-.7 6.3-6.9 6.3H552c-9.6 0-9.6 0-9.6 9.5 0 10.7-.1 21.3.1 32 .1 3.7-1.1 5.2-4.8 5.1-10.5-.1-21-.1-31.5 0-3.3 0-4.7-1.1-4.7-4.7.1-23.3.2-46.7 0-70 0-5.1 2.9-5.1 6.5-5.1h90zM1438.9 885.6v145c0 6-.4 6.4-6.6 6.5h-14c-2.9.1-4.3-1.2-4.2-4.2.1-2 0-4 0-6V771.5c0-6.8-.3-7.1-7-7.1-6.2 0-12.3-.1-18.5.1-4.2.1-6-1.4-6-5.8 0-9.1-.1-9 8.5-11.4 13.5-3.7 26.9-7.4 40.3-11.3 6.2-1.8 7.4-1.1 7.4 5.4.1 47.9.1 96 .1 144.2zM453.8 1181.9c-4-2.7-7.9-5-11.4-7.6-12.8-9.7-18.8-22.3-15.2-38.4 3.4-15.2 14-23.2 28.5-26.7 10.7-2.6 21.5-2.7 32.2-.2 13.1 3.1 23.4 9.9 26.5 24 3.3 14.5-1.3 26.6-12.1 36.5-4.3 3.9-9.3 6.9-14.6 10.4 6.2 3.6 12.3 6.7 17.6 10.9 18 14.1 20.7 38.1 6.1 54.5-4.2 4.7-9.4 8-15.3 10-16.9 5.6-34.1 6.1-51 .3-25.1-8.6-32.2-37.7-14.3-57.4 5-5.5 11.2-9.4 17.5-13.1 1.8-1.2 3.5-2.1 5.5-3.2zm17.5 61.8c3.1-.2 6.5-.2 10-.9 8.9-1.9 16.1-6 18.5-15.3 2.6-9.7-.2-18-7.9-24.7-6.1-5.3-13.3-8.8-20.3-12.5-1.3-.7-2.4-.7-3.7 0-7.3 3.7-14.4 7.7-20 13.8-6.3 7-8.3 15.1-5.5 24.1 2.7 8.5 9.3 12.5 17.6 14.4 3.6.9 7.2 1 11.3 1.1zM446 1142.9c-.3 6.4 2.1 11.7 6.5 16.2 5.1 5.2 11.4 8.6 17.6 12.1 1.2.7 2.5.9 3.8.2 7.6-4.3 14.8-9.1 19.2-17 7-12.7 1.2-26.8-12.6-30.5-6.7-1.8-13.5-1.7-20.2.3-9.1 2.6-14.1 9.3-14.3 18.7zM-965 1037h-16.5c-4.1 0-5-1.9-3.5-5.4 11.3-26.4 22.6-52.8 33.8-79.3 10.7-25.2 21.4-50.5 31.9-75.8 1.8-4.4 4-6.5 9.1-6.3 9.6.5 19.3.2 29 .1 3.4 0 5.4.1 3.4 4.7-18.4 44.3-36.6 88.8-54.9 133.1-3.3 8.1-6.8 16.2-10 24.4-1.2 3.1-3.1 4.5-6.4 4.4-5.3 0-10.6.1-15.9.1zM-651.8 953.1c0-25.6.1-51.3-.1-76.9 0-4.3 1.1-6 5.6-5.8 10.2.3 20.3.2 30.5 0 3.6 0 5 1.2 5 5-.1 52-.1 103.9 0 155.9 0 4.4-1.7 5.9-5.9 5.9-9.5-.1-19 0-28.5-.1-6.2 0-6.5-.4-6.5-6.5-.1-25.9-.1-51.7-.1-77.5zM1018.9 1241.1c0 4-.1 6.9 0 9.8.1 3-1.2 4.7-4.3 5-1.8.2-3.6.5-5.5.4-6.6-.2-7.3-1-7.3-7.7v-144.4c0-6.9.7-7.5 7.8-7.7 11-.2 11.2 0 11.2 10.8v52.8c2.3-.5 3.5-2.2 4.9-3.4 9.6-8.3 20.4-13.2 33.3-11.9 16.7 1.7 27.7 11 32.8 26.6 6.5 19.9 6.7 40.1-.9 59.7-10.7 27.8-42.5 35.5-65.1 16.1-2-1.7-4-3.6-6.9-6.1zm2-39.7v17.5c0 1.7.1 3.2 1.4 4.6 4.7 5.2 9.4 10.4 15.5 14 12.1 7.3 26.2 4.2 32.5-8.4 9.3-18.5 8.9-37.6.2-56.3-3.7-8-10.9-11.8-20-11.5-10.1.3-16.8 6.3-23.5 12.8-4.2 4.1-7.1 8.5-6.3 14.8.6 4.1.2 8.3.2 12.5zM78 1161.9c4.4-3.4 7.9-6.4 11.6-9 9-6.2 19-7.9 29.5-5.9 15.1 2.8 24.8 14.1 27 30.6 1.2 9.1.9 18.3.9 27.4.1 15.3-.2 30.6.1 46 .1 4.9-2.1 6.4-6.5 6.6-12.1.7-12.6.3-12.6-11.7v-52c0-5.7-.4-11.3-2.2-16.8-4.3-12.9-16.7-18.1-28.8-12.1-7.5 3.7-13 9.8-18.2 16.1-1.3 1.6-.9 3.5-.9 5.3v64c0 6-.8 6.9-6.8 7.2-11.7.7-12.2.2-12.2-11.1v-140.9c0-6.7.5-7.2 7.3-7.5h2c9.1 0 9.7.6 9.7 9.4.1 17.8.1 35.6.1 54.4zM626.1 1162.1c4-3.2 7.1-6.1 10.6-8.5 14.6-10.2 34-9.9 46.3 1 9.1 8 11.7 18.9 11.9 30.2.4 22.3.2 44.6.3 66.9 0 4.2-1.9 5.5-5.6 5.9-12.4 1.1-13.4.3-13.4-11.9 0-18.8-.1-37.6-.2-56.5 0-4.9-.9-9.6-2.9-14.1-4.7-10.9-15.4-15.2-26.4-10.7-8.4 3.5-14.3 10.1-19.9 17-1.3 1.6-.8 3.5-.8 5.3 0 21.3-.2 42.6.1 63.9.1 5.1-2 6.8-6.6 7-11.9.6-12.5.2-12.5-11.4v-140.9c0-6.4.6-7 7-7.3 11.2-.6 12 .1 12 11.1v47.5c.1 1.6.1 3.2.1 5.5zM-78.6 1109.4c10.3 0 20.7.2 31-.1 4.8-.1 6.8 1.9 6.8 6.3 0 1.8.1 3.7-.1 5.5-.4 3.6-2.1 5.5-6.2 5.5-15.2-.2-30.3.1-45.5-.2-4.3-.1-5.3 1.2-5.2 5.3a534 534 0 0 1 0 31c-.1 4 .9 5.2 5 4.7 8.5-.9 17-.9 25.4.6 26.3 4.8 39.6 24.1 35.1 50.5-3.4 20.2-15.2 32.8-34.8 38.1-17.5 4.8-34.6 3.1-51.3-3.5-6-2.4-9-12.1-5.7-17.7 2-3.3 4.2-1.4 6.4-.3 10.8 5.8 22.3 8.2 34.6 7.5 22.3-1.4 34.9-18.6 29.2-40.2-2.8-10.6-11.3-17.1-24.4-18.9-9-1.2-17.9-.8-26.9.2-2 .2-4 .2-6 .3-4.1.2-6.3-1.7-6.3-5.9v-61.9c0-4.7 2.4-6.9 7.2-6.9 10.7.2 21.2.1 31.7.1zM-841.1 744.6c5.8 0 11.7.1 17.5 0 3.2 0 5.1 1.1 6.4 4.3 9.9 23.4 20 46.8 30 70.1 1.9 4.4 1.4 5.3-3.4 5.4-11 .1-22-.1-33 .1-3.4 0-5.1-1.3-6.3-4.4-3.2-8.4-6.7-16.6-10.2-24.9-.5-1.2-.6-2.9-2.2-3-1.8 0-2.3 1.7-2.8 3.1-3.5 8.5-7.1 16.9-10.3 25.4-1.1 2.8-2.8 3.8-5.6 3.8-10.5-.1-21 0-31.5 0-2.7 0-4.7-.2-3.1-4 9.9-23 19.8-46.1 29.4-69.3 2-4.9 4.5-7.2 10-6.6 5.1.4 10.1 0 15.1 0zM341.7 1239.3c1.7 1.2 3.6.7 5.3.7h54.5c5.7 0 7.1 1.6 7.2 8.1.1 7.1-1.3 8.8-7 8.8h-77.5c-6.1 0-7.6-1.7-8.1-7.6-.5-6.1 1.9-10.9 6.1-15.2 11.9-12.1 23.8-24.3 35.4-36.6 8.2-8.8 15.4-18.4 20.2-29.5 2.5-5.7 3.7-11.7 3.8-18 .3-15.1-9.4-25.2-24.6-25.4-10.7-.1-20 4.1-29 9.6-2.1 1.3-4.1 3.6-6.7 2.2-2.8-1.5-2-4.6-2.3-7.2-.7-5.8 1.6-9.8 6.7-12.7 15-8.5 30.8-11.6 47.6-7.7 19.9 4.6 30.5 21.4 28.5 43-1.5 17-9.7 30.5-19.8 43.3-11.5 14.5-25 27.2-37.6 40.7-1 1.1-2.4 1.9-2.7 3.5zM-206.5 1240h37.9c7.5 0 15 .1 22.5-.1 4.6-.1 6.4 2.1 6.4 6.3v3.5c-.2 6.3-1.1 7.2-7.4 7.3h-74c-10.3 0-14.2-6.3-9.9-16.1 1.3-3 3.5-5.2 5.7-7.5 13.5-14 27.8-27.3 40.2-42.4 8.1-9.8 15.3-20.2 17.6-33.1.9-5.1 1.2-10.3.1-15.4-2.5-10.9-11.5-17.6-23.5-17.8-10.9-.2-20.4 4.2-29.4 9.7-2.1 1.2-4.1 3.6-6.7 2-2.5-1.5-1.7-4.4-2.1-6.8-.9-6.3 1.7-10.4 7.2-13.4 17.1-9.2 34.9-12.4 53.3-5.2 16.4 6.4 23.4 20.6 22.1 40.6-1.1 17.6-10 31.4-20.6 44.5-11.1 13.8-23.9 25.9-36 38.8-1 1.4-2.6 2.4-3.4 5.1zM942.7 1205.4c-10.2 0-20.3.2-30.5-.1-3.7-.1-4.3 1.2-4.2 4.6.6 21.7 14.2 34 36.1 32.5 9.1-.6 17.7-2.7 26.1-6.2 6.8-2.9 8-2 8 5.1.1 7.3-.6 8.6-7.5 11.1-15 5.4-30.5 7.3-46.2 4-16.5-3.4-27.8-13.2-32.8-29.4-5-16.3-5.2-32.9 0-49.2 7.3-22.9 27.5-35.6 51.4-32.7 24.7 2.9 38.7 19 39.4 45.1.4 14.6-.3 15.3-14.8 15.3-8.3-.1-16.6-.1-25-.1zm-7.2-14h24c1.5 0 3.3.7 3.9-1.9 2.5-11.6-7.4-26.4-19.3-28.9-18.7-3.9-34.1 7.7-35.9 27.1-.3 2.8.5 3.8 3.4 3.8 7.9-.2 15.9-.1 23.9-.1zM1360.9 1243.3c-12.6 12.3-26.5 16.8-42.8 13.3-15-3.2-23.2-12.5-24.8-27.9-1.4-13.4 5.9-25.2 19-30.9 11.9-5.2 24.5-5.6 37.3-5.5 9.3.1 9.3 0 9.2-9.1-.4-19.8-12-25.2-32.1-22.1-7.3 1.1-13.9 4.5-20.3 8-5.2 2.9-7.2 1.8-8-4-.8-5.8.6-9.4 5.8-12 16.3-8.5 33.5-10.9 51.3-5.9 14.5 4 22 14.8 22.3 32.3.4 23.8.1 47.6.2 71.5 0 3.1-1.2 4.7-4.2 5-1.2.1-2.3.4-3.5.4-7.9.3-9-.8-9.1-8.5-.1-1.2-.2-2.3-.3-4.6zm-14.2-37.3c-8 0-16 0-23.5 3.5-6.6 3.1-10.3 8.3-10.3 15.7 0 6.7 2.4 12.2 8.5 15.2 8.5 4 17 3.2 24.7-1.8 7.2-4.7 13.9-9.4 12.9-20.3-1-12.2-.2-12.3-12.3-12.3zM1257.8 1240.5c-2.7.6-3.6 2.5-5 3.8-7.7 7.2-16.4 12.6-27.2 13.3-21.9 1.3-36.6-11-38.5-32.8-2.1-24.4-.6-48.9-.9-73.4 0-4.7 1.9-5.3 12.4-5 3.7.1 7 .2 6.9 5.5-.2 18.3-.1 36.6 0 54.9 0 5.8.1 11.6 1.4 17.4 3.8 15.7 18.2 21.8 32 13.4 6-3.7 10.7-9 15.4-14.1 1.7-1.8 1.4-4 1.4-6.1v-63.9c0-6 .8-6.8 6.9-7 12.3-.4 12.3-.4 12.3 11.6 0 30.3-.1 60.6.1 90.9 0 5.3-1.8 7.4-6.7 7.4-2.3 0-4.6-.2-7-.4-2.6-.2-3.8-1.6-3.7-4.3.3-3.7.2-7.3.2-11.2zM802.9 1183v-65.4c0-7.9 1.9-9.8 9.6-9.9h61c5.8 0 7.1 1.6 7.1 8.6 0 6.9-1.3 8.3-7.3 8.4-15.2 0-30.3.2-45.5-.1-4.3-.1-5.3 1.3-5.3 5.4.2 13.2.2 26.3 0 39.5-.1 4 .9 5.4 5.2 5.4 14.3-.3 28.6-.1 43-.1 5.8 0 6.9 1.4 6.9 8.2 0 6.6-1.4 8.4-6.9 8.5-14.5 0-29 .1-43.5-.1-3.8-.1-4.8 1-4.8 4.8.2 17.5.1 35 .1 52.5 0 6.5-.4 6.9-6.9 7.7-.8.1-1.7.1-2.5.2-9.4.2-10.2-.7-10.2-9.9V1183zM542.6 1198.8c0-10-.1-20 .1-30 .1-3.4-.8-4.9-4.4-4.5-2.3.3-4.7.1-7 0-5.5-.1-6.7-1.4-6.7-7.9 0-6.7.9-7.8 6.5-7.9 11.5-.1 11.5-.1 11.5-11.8 0-3.3.2-6.7-.1-10-.4-4.4 1.9-5.9 5.8-6.2 12-1 13.2.1 13.2 11.9 0 4.2.1 8.3 0 12.5-.1 2.9 1 3.7 3.7 3.6 6.5-.2 13 .2 19.5-.1 4.9-.3 6.7 1.8 6.6 6.4 0 1.8-.1 3.7-.3 5.5-.4 3-2.2 4.2-5.2 4.1-6.8-.1-13.7.1-20.5-.1-3.1-.1-3.9 1.1-3.9 4 .1 18.6.1 37.3.1 55.9 0 .7.1 1.3.1 2 1.4 15.1 8.7 19.7 23.2 14.5 5.3-1.9 5.9-1.6 6.5 4.1.8 8.8-.9 11.6-9.6 13.1-11.4 2-22.7 2.3-31.7-6.9-6.4-6.6-7.2-15.2-7.4-23.7-.2-9.5 0-19 0-28.5zM13.3 1198.3c.5 8.9-.9 19.7.6 30.5 1.7 12.2 8.7 16.5 20.6 12.7 8.3-2.6 9-1.9 8.8 6.9-.1 4.9-2.3 7.8-7 8.9-6.9 1.7-13.8 2.1-20.8.8-11.7-2.2-18.6-10-20.5-22.7-1.1-8-.8-16-.8-23.9 0-14-.2-28 .1-42 .1-4.6-1.4-5.9-5.6-5.3-1.6.2-3.3.1-5 0-2.6-.1-5.6.7-6.7-2.8-1.3-4.1-1.6-8.4 1-12 1.7-2.3 4.7-1 7.1-1 9.1-.1 9.1 0 9.1-9.2 0-4.5.1-9 0-13.5-.1-3.2 1.5-4.6 4.3-5.1 1.3-.2 2.6-.3 4-.3 10.4-.2 10.8.2 10.8 10.7 0 4.3.2 8.7-.1 13-.3 3.7 1.2 4.5 4.6 4.4 6.7-.2 13.3.1 20-.1 3.7-.1 5.2 1.6 5.4 5 .1 2 .1 4 0 6-.2 3.4-2 5-5.5 5-6.5-.1-13 .2-19.5-.1-4.1-.2-5 1.3-4.9 5.1.2 9.1 0 18.1 0 29zM1132.2 1163.8c4.4-4.8 7.5-9.1 11.5-12.5 8.3-7.3 17.6-7.8 27.6-4.7 2.2.7 3.9 2 3.9 4.6 0 3.7.1 7.3-.1 11-.1 3-1.8 4.2-4.7 3.2-1.3-.4-2.5-.8-3.8-1.3-8-2.9-14.7-.7-20.4 5.1-4.3 4.4-7.7 9.6-11.1 14.7-1.2 1.9-.9 3.8-.9 5.8 0 20.1-.1 40.3.1 60.4 0 4.1-1.5 5.8-5.3 6-1.2.1-2.3.3-3.5.3-9.5.2-10.3-.6-10.3-9.8v-92.4c0-7.2.5-7.7 7.6-7.8 1.2 0 2.3.1 3.5 0 4.3-.2 6.6 1.3 6.2 6.1-.6 3.2-.3 6.6-.3 11.3zM-499 870.4h30c1.6 0 3.7-.8 4.6 1 1 2-1.3 2.7-2.4 3.8-14.2 14.1-31.6 22.4-50.2 28.6-12 4-24.4 6.7-36.7 9.2-6.6 1.3-6.9 1-8.4-5.4-1.7-7.6-3.6-15.2-5.5-22.8-1.1-4.3.5-6.1 4.8-6.7 9.6-1.4 18.9-3.7 28.1-6.8 2.3-.8 4.6-.9 6.9-.9h28.8zM234.1 1191.5c7.1 0 14.3.1 21.4-.1 3.8-.1 5.6 1.5 5.7 5.1.1 1.8.1 3.6 0 5.4-.1 3.7-1.8 5.3-5.6 5.3-14.8-.1-29.6-.1-44.4 0-3.5 0-5.3-1.6-5.5-5-.1-2-.1-4 0-6 .2-3.4 1.8-5 5.4-5 7.7.5 15.4.3 23 .3z"/><path fill="#22457D" d="M-189.2 892.1c0 33.2-27 60.2-60.1 60.1-33.1-.1-59.9-27.1-59.9-60.3.1-33.1 27.2-60 60.3-59.8 33 0 59.7 27 59.7 60zM48.8-136.3h420V38.9h-420zM48.8 64.6h420v175.2h-420zM-422.5 65.8h420V241h-420zM-170.8 266.2h420v175.2h-420zM292.2 266.2h420v175.2h-420zM292.2 467.1h420v175.2h-420zM515 64.6h420v175.2H515zM515-136.3h420V38.9H515z"/><path fill="#FAFAFA" d="M763 266.2h166.6v174.9H763zM763 467.3h166.6v174.9H763zM764-537.4h166.6v174.9H764zM764-336.3h166.6v174.9H764zM-170.8-136.2H-4.2V38.7h-166.6zM-390.2 266.3h166.6v174.9h-166.6z"/></svg>