<svg xmlns="http://www.w3.org/2000/svg" viewBox="0 0 8494 5036" shape-rendering="geometricPrecision" text-rendering="geometricPrecision" image-rendering="optimizeQuality" fill-rule="evenodd" clip-rule="evenodd"><defs><style>.fil0,.fil1{fill:#fefefe}.fil1{fill-rule:nonzero}</style></defs><g id="Layer_x0020_1"><g id="_925626701424"><path class="fil0" d="M3845 2530h588c62 0 79 23 79 81v527c0 87 3 114-96 114h-547c-29 0-59 5-79-27-20-29-12-131-12-174v-440c0-49 18-81 67-81zm-58-29c-73 8-61 78-61 148v419c0 67-3 143 0 210 6 81 93 67 143 67h524c58 0 142 14 160-50 6-26 3-460 3-521 0-64 3-142 0-207-6-84-91-69-143-69l-626 3zM3781 2323c-3-20-3-501-3-544 0-47-11-120 62-126 55-2 119 0 177 0h367c47 0 119-11 128 56 3 32 0 471 0 544 0 44 12 119-58 122-58 3-122 0-181 0-49 0-433 3-454-3-17-5-35-23-38-49zm-5-696c-27 9-44 24-50 56 0 11-3 707 0 730 15 70 99 56 154 56h210c52 0 396 2 416-3 61-21 50-91 50-158 0-55 3-602-3-628-3-27-24-50-50-56-20-5-279-3-314-3h-210c-38 0-180-2-203 6zM3650 3208c-14 55-75 44-136 44-70 0-522 5-548 0-58-12-46-76-46-134 0-88-6-521 3-545 17-55 78-43 136-43 67 0 519-3 545 3 58 11 49 72 49 131v183c0 47 3 343-3 361zm-724-707c-73 14-59 81-59 151v419c0 64-6 149 0 210 6 78 93 64 146 64 49 0 605 3 626-3 72-15 55-93 55-152v-524c0-64 17-142-44-163-20-8-75-5-99-5-49 0-608 0-625 3zM4687 2533c26-6 480-3 547-3 58 0 119-9 137 43 6 24 0 481 0 545 0 55 11 119-44 131-29 8-145 3-183 3-50 0-434 2-457 0-21-3-38-21-47-44-6-20 0-480 0-544 0-62-12-117 47-131zm-41-32c-76 11-61 87-61 148v419c0 67-3 143 0 210 3 29 20 52 43 61 27 12 271 6 309 6 32 0 399 3 419 0 73-12 58-99 58-152v-419c0-64 3-145 0-209-2-32-20-53-43-62-24-8-274-5-309-5-29 0-402 0-416 3z"/><path class="fil0" d="M4119 2937h-70c0 6 85 146 96 154 6-5 88-145 88-154h-73v-247h-41v247zM4090 1892c-12 21-35 55-41 79h70c6 20 0 96 0 125v122h41l3-247h70c-6-21-35-58-47-82l-50-75-46 78zM3080 2896c23 12 142 85 154 88v-73h248l2-41h-250v-73c-9 3-96 62-116 73l-35 21c-3 5 0 3-3 5zM5048 2984c8-3 64-38 75-47l79-49c-12-12-151-88-154-88l-3 70h-248v41h248l3 73z"/><g><path class="fil0" d="M1117 3933h24v145c0 17 1 28 1 32 2 9 4 17 9 24 4 6 11 11 20 16 9 4 18 6 27 6 8 0 15-2 23-5 7-3 13-8 18-14s8-13 11-22c1-6 2-18 2-37v-145h24v145c0 21-2 39-6 52s-13 24-25 34c-13 10-28 15-46 15-19 0-36-5-49-14-14-9-24-21-28-37-3-9-5-26-5-50v-145zm303 82l-14 15c-12-12-24-18-36-18-7 0-14 3-19 8s-8 10-8 17c0 6 2 11 7 16 4 6 13 12 27 19 17 9 28 17 34 25s9 18 9 28c0 15-5 27-15 37s-23 15-38 15c-11 0-20-2-30-7-9-4-17-10-23-18l15-16c11 13 24 19 37 19 9 0 17-3 23-8 6-6 10-13 10-21 0-6-2-12-7-17-4-5-13-12-28-19-16-8-27-17-33-25s-9-17-9-27c0-13 5-24 14-33s21-14 35-14c16 0 33 8 49 24zm190 99l19 10c-6 12-14 22-22 30-8 7-17 13-28 17-10 4-22 6-35 6-29 0-51-9-68-28-16-19-24-40-24-64 0-23 7-43 21-60 17-22 41-34 70-34 30 0 54 12 72 35 13 16 20 36 20 60h-160c1 21 7 37 20 50 13 14 28 20 47 20 9 0 18-1 27-5 8-3 15-7 21-12s13-13 20-25zm0-48c-3-12-7-21-13-29-6-7-14-13-23-17-10-5-20-7-31-7-17 0-32 6-45 17-9 8-16 20-21 36h133zm179-136h23v66h36v19h-36v158h-23v-158h-31v-19h31v-66zm93-3h23v101c9-12 19-22 30-28 12-6 24-9 36-9 14 0 26 4 36 10 10 7 18 16 23 28 4 11 7 29 7 53v91h-23v-85c0-20-1-34-2-40-3-12-8-21-16-27-7-6-17-9-29-9-14 0-26 5-37 14s-18 20-22 34c-2 9-3 25-3 48v65h-23v-246zm353 187l19 10c-6 12-13 22-22 30-8 7-17 13-28 17-10 4-22 6-35 6-29 0-51-9-68-28-16-19-24-40-24-64 0-23 7-43 21-60 17-22 41-34 70-34 30 0 55 12 73 35 12 16 19 36 19 60h-160c1 21 7 37 20 50 13 14 29 20 47 20 9 0 18-1 27-5 8-3 16-7 22-12s12-13 19-25zm0-48c-3-12-7-21-13-29-6-7-14-13-23-17-10-5-20-7-31-7-17 0-32 6-45 17-9 8-16 20-21 36h133zm156-70h23v82c0 21 1 34 3 42 4 11 10 19 19 26 9 6 20 9 33 9s23-3 32-9 15-14 19-24c2-7 3-22 3-44v-82h23v87c0 24-2 42-8 55-6 12-14 22-26 29-11 7-26 10-43 10s-32-3-43-10c-12-7-20-17-26-30-6-12-9-31-9-56v-85zm206 0h23v32c9-12 19-21 31-27 12-7 25-10 39-10 25 0 47 9 65 28 18 18 27 39 27 65s-9 48-27 66-39 27-64 27c-14 0-27-3-39-9s-22-14-32-26v95h-23v-241zm92 17c-20 0-37 7-50 21-14 14-20 31-20 51 0 14 3 26 9 36 6 11 14 19 25 26 12 6 24 9 36 9s24-3 34-9c11-7 20-16 26-27 7-11 10-23 10-35 0-13-3-25-10-36-6-11-15-20-25-26-11-6-23-10-35-10zm404-17v177h-23v-31c-9 12-20 21-32 26-12 6-25 9-39 9-25 0-46-9-64-27-17-18-26-40-26-66s9-47 27-65c17-19 39-28 64-28 15 0 28 3 39 10 12 6 22 15 31 27v-32h23zm-91 17c-13 0-25 4-35 10-11 6-19 15-26 26-6 11-9 23-9 36 0 12 3 24 9 35 7 11 15 20 26 27 11 6 22 9 35 9 12 0 24-3 35-9 11-7 20-15 26-26 6-10 9-22 9-36 0-20-7-37-21-51-13-14-30-21-49-21zm142-17h23v31c9-12 19-21 30-27 12-6 24-9 37-9s25 4 35 10c10 7 18 16 23 28 5 11 7 29 7 53v91h-23v-85c0-20 0-34-2-40-3-12-8-21-16-27-7-6-17-9-29-9-14 0-26 5-37 14s-18 20-22 34c-2 9-3 25-3 48v65h-23v-177zm380-69v246h-22v-31c-10 12-21 21-32 26-12 6-25 9-39 9-25 0-47-9-64-27-18-18-27-40-27-66s9-47 27-65c18-19 39-28 64-28 15 0 28 4 40 10 11 6 22 15 31 28v-102h22zm-91 86c-13 0-24 4-35 10s-19 15-26 26c-6 11-9 23-9 36 0 12 3 24 10 35 6 11 14 20 25 27 11 6 23 9 35 9s24-3 35-9c11-7 20-15 26-26 6-10 9-22 9-36 0-20-7-37-20-51-14-14-30-21-50-21zm412-86v246h-23v-31c-9 12-20 21-32 26-12 6-25 9-39 9-25 0-46-9-64-27s-26-40-26-66 9-47 26-65c18-19 40-28 65-28 14 0 28 4 39 10 12 6 22 15 31 28v-102h23zm-91 86c-13 0-25 4-35 10-11 6-20 15-26 26s-9 23-9 36c0 12 3 24 9 35 7 11 15 20 26 27 11 6 22 9 35 9 12 0 24-3 35-9 11-7 20-15 26-26 6-10 9-22 9-36 0-20-7-37-21-51-13-14-30-21-49-21zm227-22c27 0 49 10 67 30 17 18 25 39 25 64 0 24-9 46-26 64-17 19-39 28-66 28-28 0-50-9-67-28-17-18-26-40-26-64 0-25 8-46 24-64 18-20 41-30 69-30zm-1 23c-19 0-35 7-48 21-14 14-21 30-21 50 0 13 3 25 10 36 6 11 14 19 25 25 10 6 22 9 34 9 13 0 25-3 35-9 11-6 19-14 25-25s10-23 10-36c0-20-7-36-21-50s-30-21-49-21zm111-18h23l54 128 57-128h4l57 128 55-128h23l-76 177h-5l-56-127-56 127h-5l-75-177zm301 0h23v31c9-12 19-21 30-27s23-9 36-9 25 4 35 10c11 7 18 16 23 28 5 11 8 29 8 53v91h-23v-85c0-20-1-34-3-40-3-12-8-21-15-27-8-6-17-9-29-9-14 0-27 5-38 14s-18 20-21 34c-2 9-3 25-3 48v65h-23v-177zm472 0v177h-23v-31c-9 12-20 21-32 26-12 6-25 9-39 9-25 0-46-9-64-27s-27-40-27-66 9-47 27-65c18-19 40-28 65-28 14 0 27 3 39 10 12 6 22 15 31 27v-32h23zm-91 17c-13 0-25 4-36 10-10 6-19 15-25 26s-10 23-10 36c0 12 4 24 10 35s15 20 26 27c10 6 22 9 34 9 13 0 25-3 36-9 11-7 19-15 25-26 6-10 9-22 9-36 0-20-6-37-20-51-13-14-30-21-49-21zm133-17h24v26c7-11 14-18 22-23s16-8 24-8c6 0 13 2 20 6l-12 20c-5-3-9-4-12-4-7 0-15 4-22 10s-12 16-16 29c-3 10-4 30-4 61v60h-24v-177zm101 0h23v26c7-11 14-18 22-23s16-8 24-8c7 0 13 2 20 6l-11 20c-5-3-9-4-13-4-7 0-14 4-22 10-7 6-12 16-16 29-3 10-4 30-4 61v60h-23v-177zm193-5c27 0 50 10 68 30 16 18 24 39 24 64 0 24-9 46-26 64-17 19-39 28-66 28-28 0-50-9-67-28-17-18-26-40-26-64 0-25 8-46 25-64 17-20 40-30 68-30zm0 23c-19 0-36 7-49 21-14 14-21 30-21 50 0 13 3 25 10 36 6 11 14 19 25 25 10 6 22 9 35 9 12 0 24-3 34-9 11-6 19-14 25-25 7-11 10-23 10-36 0-20-7-36-21-50-13-14-30-21-48-21zm110-18h23l54 128 57-128h4l57 128 55-128h23l-76 177h-5l-56-127-56 127h-5l-75-177zm390 19l-14 15c-13-12-24-18-36-18-7 0-14 3-19 8s-8 10-8 17c0 6 2 11 6 16 5 6 14 12 28 19 17 9 28 17 34 25s9 18 9 28c0 15-5 27-15 37s-23 15-38 15c-11 0-20-2-30-7-9-4-17-10-23-18l15-16c11 13 24 19 37 19 9 0 17-3 23-8 6-6 10-13 10-21 0-6-2-12-7-17-4-5-14-12-28-19-16-8-27-17-33-25s-9-17-9-27c0-13 5-24 14-33s21-14 35-14c16 0 33 8 49 24zm152-85h23v66h36v19h-36v158h-23v-158h-31v-19h31v-66zm178 61c27 0 49 10 67 30 17 18 25 39 25 64 0 24-9 46-26 64-17 19-39 28-66 28-28 0-50-9-67-28-17-18-26-40-26-64 0-25 8-46 24-64 18-20 41-30 69-30zm-1 23c-19 0-35 7-48 21-14 14-21 30-21 50 0 13 3 25 10 36 6 11 14 19 25 25 10 6 22 9 34 9 13 0 25-3 35-9 11-6 19-14 25-25s10-23 10-36c0-20-7-36-21-50s-30-21-49-21zm227-18h23v31c9-12 19-21 30-27s23-9 36-9c14 0 25 4 36 10 10 7 18 16 22 28 5 11 8 29 8 53v91h-23v-85c0-20-1-34-2-40-3-12-8-21-16-27-7-6-17-9-29-9-14 0-26 5-37 14s-18 20-22 34c-2 9-3 25-3 48v65h-23v-177zm380 0v177h-23v-31c-9 12-20 21-32 26-12 6-25 9-39 9-25 0-46-9-64-27s-27-40-27-66 9-47 27-65c18-19 40-28 65-28 14 0 27 3 39 10 12 6 22 15 31 27v-32h23zm-91 17c-13 0-25 4-36 10-10 6-19 15-25 26s-10 23-10 36c0 12 4 24 10 35s15 20 26 27c10 6 22 9 34 9 13 0 25-3 36-9 11-7 19-15 25-26 6-10 9-22 9-36 0-20-6-37-20-51-13-14-30-21-49-21zm125-17h24l60 129 59-129h24l-81 177h-4l-82-177zm210-73c5 0 9 2 13 6 4 3 6 8 6 13s-2 10-6 13c-4 4-8 6-13 6s-10-2-13-6c-4-3-6-8-6-13s2-10 6-13c3-4 8-6 13-6zm-11 73h22v177h-22v-177zm223 0h22v141c0 24-2 43-6 54-6 16-17 29-31 38-15 8-33 13-53 13-16 0-29-2-41-7-12-4-22-10-30-17-7-7-14-18-21-32h25c7 12 15 21 26 26 11 6 24 9 40 9 15 0 28-3 39-9s18-13 23-22c4-8 7-22 7-42v-9c-9 11-19 19-32 25-12 6-25 9-39 9-17 0-32-4-46-12s-26-19-33-33c-8-14-12-29-12-45s4-32 12-46 20-25 34-33 29-13 45-13c14 0 26 3 37 9 12 5 23 14 34 27v-31zm-68 17c-13 0-25 4-36 10s-19 15-26 26c-6 11-9 22-9 35 0 20 6 36 19 48 13 13 30 19 51 19s38-6 50-18c13-13 20-30 20-50 0-13-3-25-9-36-6-10-14-18-25-24-11-7-22-10-35-10zm315-17v177h-22v-31c-10 12-21 21-33 26-11 6-24 9-38 9-25 0-47-9-65-27-17-18-26-40-26-66s9-47 27-65c18-19 39-28 64-28 15 0 28 3 40 10 11 6 22 15 31 27v-32h22zm-91 17c-13 0-24 4-35 10s-19 15-26 26c-6 11-9 23-9 36 0 12 3 24 9 35 7 11 15 20 26 27 11 6 22 9 35 9 12 0 24-3 35-9 11-7 20-15 26-26 6-10 9-22 9-36 0-20-7-37-20-51-14-14-30-21-50-21zm162-83h23v66h36v19h-36v158h-23v-158h-31v-19h31v-66zm243 184l19 10c-6 12-13 22-22 30-8 7-17 13-28 17-10 4-22 6-35 6-29 0-51-9-68-28-16-19-24-40-24-64 0-23 7-43 21-60 17-22 41-34 70-34 30 0 55 12 73 35 12 16 19 36 19 60h-160c1 21 7 37 20 50 13 14 29 20 47 20 9 0 18-1 27-5 8-3 16-7 22-12s12-13 19-25zm0-48c-3-12-7-21-13-29-6-7-14-13-23-17-10-5-20-7-31-7-17 0-32 6-45 17-9 8-16 20-21 36h133zM836 4570v-245h23v99c10-12 20-21 32-27s25-8 39-8c25 0 46 9 64 27s27 40 27 66c0 25-9 47-27 65s-39 27-65 27c-14 0-27-3-39-9s-22-15-31-28v33h-23zm92-18c12 0 24-3 35-9 10-6 19-15 25-26 7-11 10-23 10-36 0-12-3-24-10-36-6-11-15-20-26-26-10-6-22-9-34-9s-24 3-35 9c-12 6-20 15-26 25-6 11-9 23-9 37 0 20 6 37 20 51 13 13 30 20 50 20zm284-41l19 10c-7 13-14 23-22 30-8 8-18 13-28 17s-22 6-35 6c-29 0-52-9-68-28s-25-40-25-64c0-23 7-43 21-60 18-22 41-33 71-33s54 11 72 34c13 16 20 36 20 60h-160c0 21 7 37 20 51 12 13 28 19 47 19 9 0 18-1 26-4 9-4 16-8 22-13s13-13 20-25zm0-47c-3-13-8-22-14-30-5-7-13-13-23-17-9-5-19-7-30-7-18 0-33 6-45 17-9 8-16 20-21 37h133zm86-137h23v66h36v20h-36v157h-23v-157h-31v-20h31v-66zm70 66h23l54 128 57-128h4l57 128 55-128h23l-76 177h-5l-56-127-57 127h-4l-75-177zm450 118l19 10c-6 13-13 23-22 30-8 8-17 13-27 17-11 4-22 6-36 6-29 0-51-9-67-28-17-19-25-40-25-64 0-23 7-43 21-60 17-22 41-33 70-33 30 0 55 11 73 34 13 16 19 36 19 60h-160c1 21 7 37 20 51 13 13 29 19 47 19 9 0 18-1 27-4 8-4 16-8 22-13s12-13 19-25zm0-47c-3-13-7-22-13-30-6-7-14-13-23-17-10-5-20-7-30-7-18 0-33 6-46 17-9 8-16 20-20 37h132zm217 47l19 10c-6 13-14 23-22 30-8 8-17 13-28 17-10 4-22 6-35 6-29 0-52-9-68-28s-24-40-24-64c0-23 7-43 20-60 18-22 41-33 71-33s54 11 72 34c13 16 20 36 20 60h-160c0 21 7 37 20 51 13 13 28 19 47 19 9 0 18-1 26-4 9-4 16-8 22-13s13-13 20-25zm0-47c-3-13-8-22-13-30-6-7-14-13-24-17-9-5-19-7-30-7-17 0-32 6-45 17-9 8-16 20-21 37h133zM2102 4393h23v32c9-13 19-22 30-28 11-5 23-8 36-8s25 3 35 10c11 6 18 15 23 27 5 11 8 29 8 53v91h-23v-84c0-21-1-34-3-41-2-12-8-21-15-27-8-6-17-8-29-8-14 0-27 4-38 13-10 9-18 21-21 34-2 9-3 25-3 48v65h-23v-177zm315-66h23v66h36v20h-36v157h-23v-157h-31v-20h31v-66zm93-2h23v100c9-12 20-21 31-27s23-9 36-9 25 3 35 10c10 6 18 15 23 27 5 11 7 29 7 53v91h-23v-84c0-21 0-34-2-41-3-12-8-21-15-27-8-6-18-8-30-8-14 0-26 4-37 13s-18 21-22 34c-2 9-3 25-3 48v65h-23v-245zm353 186l19 10c-6 13-13 23-22 30-8 8-17 13-27 17-11 4-22 6-36 6-29 0-51-9-67-28-17-19-25-40-25-64 0-23 7-43 21-60 17-22 41-33 70-33 30 0 55 11 73 34 13 16 19 36 19 60h-160c1 21 7 37 20 51 13 13 29 19 47 19 9 0 18-1 27-4 8-4 16-8 22-13s12-13 19-25zm0-47c-3-13-7-22-13-30-6-7-14-13-23-17-10-5-20-7-30-7-18 0-33 6-46 17-9 8-16 20-20 37h132zm309 47l19 10c-6 13-13 23-22 30-8 8-17 13-28 17-10 4-22 6-35 6-29 0-51-9-68-28-16-19-24-40-24-64 0-23 7-43 21-60 17-22 41-33 70-33 30 0 55 11 73 34 12 16 19 36 19 60h-160c1 21 7 37 20 51 13 13 29 19 47 19 9 0 18-1 27-4 8-4 16-8 22-13s12-13 19-25zm0-47c-3-13-7-22-13-30-6-7-14-13-23-17-10-5-20-7-31-7-17 0-32 6-45 17-9 8-16 20-20 37h132zm51-71h23l60 129 59-129h25l-81 177h-5l-81-177zm350 118l20 10c-7 13-14 23-22 30-9 8-18 13-28 17-11 4-22 6-35 6-29 0-52-9-68-28-17-19-25-40-25-64 0-23 7-43 21-60 18-22 41-33 70-33 31 0 55 11 73 34 13 16 19 36 20 60h-160c0 21 7 37 19 51 13 13 29 19 48 19 9 0 18-1 26-4 9-4 16-8 22-13s12-13 19-25zm1-47c-3-13-8-22-14-30-6-7-13-13-23-17-10-5-20-7-30-7-18 0-33 6-45 17-10 8-16 20-21 37h133zm67-71h22v32c9-13 19-22 31-28 11-5 23-8 36-8s25 3 35 10c10 6 18 15 23 27 5 11 7 29 7 53v91h-23v-84c0-21 0-34-2-41-3-12-8-21-16-27-7-6-17-8-29-8-14 0-26 4-37 13s-18 21-22 34c-2 9-3 25-3 48v65h-22v-177zm222-66h23v66h36v20h-36v157h-23v-157h-31v-20h31v-66zm183 85l-15 15c-12-12-24-17-35-17-8 0-14 2-19 7-6 5-8 10-8 17 0 6 2 11 6 16 5 6 14 12 28 19 16 9 28 17 34 25 6 9 9 18 9 28 0 15-5 27-15 37-11 10-23 15-39 15-10 0-20-2-29-6-9-5-17-11-23-19l14-16c12 13 24 20 37 20 10 0 17-3 24-9 6-6 9-13 9-21 0-6-2-12-6-17s-14-12-29-19c-16-8-27-16-32-24-6-8-9-18-9-28 0-13 5-24 14-33s21-13 35-13c16 0 32 7 49 23zm309-19v177h-23v-31c-10 12-20 21-32 27-12 5-25 8-39 8-25 0-46-9-64-27s-27-40-27-66 9-47 27-65 40-27 65-27c14 0 27 3 39 9s22 15 31 27v-32h23zm-92 18c-12 0-24 3-35 9-10 6-19 15-25 26s-10 23-10 36c0 12 4 24 10 35 6 12 15 20 26 27 10 6 22 9 34 9 13 0 25-3 36-9s19-15 25-26c6-10 9-22 9-36 0-20-6-37-20-51-13-14-30-20-50-20zm143-18h23v32c9-13 19-22 30-28 11-5 23-8 36-8 14 0 25 3 36 10 10 6 18 15 22 27 5 11 8 29 8 53v91h-23v-84c0-21-1-34-3-41-2-12-7-21-15-27-7-6-17-8-29-8-14 0-26 4-37 13s-19 21-22 34c-2 9-3 25-3 48v65h-23v-177zm380-68v245h-23v-31c-9 12-20 21-32 27-12 5-25 8-39 8-25 0-46-9-64-27-17-18-26-40-26-66s9-47 27-65c17-18 39-27 64-27 15 0 28 3 39 9 12 6 22 15 31 28v-101h23zm-91 86c-13 0-25 3-35 9-11 6-19 15-26 26-6 11-9 23-9 36 0 12 3 24 9 35 7 12 15 20 26 27 11 6 22 9 35 9 12 0 24-3 35-9s20-15 26-26c6-10 9-22 9-36 0-20-7-37-21-51-13-14-30-20-49-20zm232-86h22v245h-22v-245zm219 186l19 10c-6 13-13 23-22 30-8 8-17 13-27 17-11 4-22 6-36 6-29 0-51-9-67-28-17-19-25-40-25-64 0-23 7-43 21-60 17-22 41-33 70-33 30 0 55 11 73 34 13 16 19 36 19 60h-160c1 21 7 37 20 51 13 13 29 19 47 19 9 0 18-1 27-4 8-4 16-8 22-13s12-13 19-25zm0-47c-3-13-7-22-13-30-6-7-14-13-23-17-10-5-20-7-30-7-18 0-33 6-46 17-9 8-16 20-20 37h132zm141-139v22c-9-4-16-5-22-5-4 0-8 0-11 2s-5 4-6 6c0 3-1 9-1 19v24h37v20h-37v157h-23v-157h-23v-20h23v-28c0-12 1-21 4-27 2-5 6-10 12-13 5-3 12-5 20-5 7 0 16 2 27 5zm51 2h22v66h36v20h-36v157h-22v-157h-31v-20h31v-66zm362 66v177h-23v-31c-10 12-20 21-32 27-12 5-25 8-39 8-25 0-47-9-64-27-18-18-27-40-27-66s9-47 27-65 39-27 65-27c14 0 27 3 39 9s22 15 31 27v-32h23zm-92 18c-12 0-24 3-35 9-10 6-19 15-25 26-7 11-10 23-10 36 0 12 3 24 10 35 6 12 15 20 25 27 11 6 23 9 35 9 13 0 24-3 35-9 12-6 20-15 26-26 6-10 9-22 9-36 0-20-7-37-20-51s-30-20-50-20zm143-18h23v32c9-13 19-22 30-28 11-5 23-8 36-8s25 3 35 10c11 6 18 15 23 27 5 11 8 29 8 53v91h-23v-84c0-21-1-34-3-41-2-12-8-21-15-27-8-6-17-8-29-8-14 0-27 4-38 13-10 9-18 21-21 34-2 9-3 25-3 48v65h-23v-177zm380-68v245h-23v-31c-9 12-20 21-32 27-12 5-25 8-39 8-25 0-46-9-64-27s-26-40-26-66 8-47 26-65 40-27 65-27c14 0 27 3 39 9s22 15 31 28v-101h23zm-91 86c-13 0-25 3-35 9-11 6-20 15-26 26s-9 23-9 36c0 12 3 24 9 35 6 12 15 20 26 27 11 6 22 9 34 9 13 0 25-3 36-9s20-15 26-26c6-10 9-22 9-36 0-20-7-37-21-51-13-14-30-20-49-20zm226-18h23v26c7-10 15-18 22-23 8-5 16-7 25-7 6 0 13 2 20 6l-12 19c-5-2-9-3-12-3-8 0-15 3-22 9s-13 16-16 29c-3 10-5 30-5 61v60h-23v-177zm117-73c5 0 10 2 13 6 4 3 6 8 6 13s-2 10-6 13c-3 4-8 6-13 6s-9-2-13-6c-4-3-6-8-6-13s2-10 6-13c4-4 8-6 13-6zm-11 73h22v177h-22v-177zm223 0h22v141c0 25-2 43-6 54-6 16-16 29-31 38-15 8-33 13-53 13-15 0-29-2-41-7-12-4-22-10-30-17-7-7-14-18-21-32h25c7 12 16 21 26 26 11 6 24 9 40 9 15 0 28-3 39-9s18-13 23-21c5-9 7-23 7-43v-9c-9 11-19 19-32 25-12 6-25 9-39 9-16 0-32-4-46-12s-25-19-33-33c-8-13-12-28-12-45 0-16 4-31 12-46 8-14 20-25 34-33 15-8 30-12 46-12 13 0 25 2 37 8 11 5 22 14 33 27v-31zm-67 18c-13 0-25 3-36 9s-20 15-26 26c-7 11-10 23-10 35 0 20 7 36 20 49 13 12 30 19 50 19 21 0 38-7 51-19 12-13 19-29 19-50 0-13-3-25-9-36-6-10-14-18-25-24s-22-9-34-9zm138-86h23v100c9-12 19-21 30-27s23-9 36-9c14 0 25 3 36 10 10 6 18 15 22 27 5 11 8 29 8 53v91h-23v-84c0-21-1-34-2-41-3-12-8-21-16-27-7-6-17-8-29-8-14 0-26 4-37 13s-18 21-22 34c-2 9-3 25-3 48v65h-23v-245zm223 2h23v66h36v20h-36v157h-23v-157h-31v-20h31v-66zm362 66v177h-23v-31c-9 12-20 21-32 27-12 5-25 8-39 8-25 0-46-9-64-27s-26-40-26-66 9-47 26-65c18-18 40-27 65-27 14 0 28 3 39 9 12 6 22 15 31 27v-32h23zm-91 18c-13 0-25 3-35 9-11 6-20 15-26 26s-9 23-9 36c0 12 3 24 9 35 7 12 15 20 26 27 11 6 22 9 35 9 12 0 24-3 35-9s20-15 26-26c6-10 9-22 9-36 0-20-7-37-21-51-13-14-30-20-49-20zm134-18h23v26c7-10 14-18 22-23s16-7 24-7c6 0 13 2 20 6l-12 19c-4-2-8-3-12-3-7 0-15 3-22 9s-12 16-16 29c-3 10-4 30-4 61v60h-23v-177zm100 0h23v26c7-10 15-18 22-23 8-5 16-7 24-7 7 0 13 2 21 6l-12 19c-5-2-9-3-12-3-8 0-15 3-22 9s-13 16-17 29c-2 10-4 30-4 61v60h-23v-177zm193-4c27 0 50 9 68 29 16 18 24 39 24 64s-8 46-26 65c-17 18-39 27-66 27s-50-9-67-27c-17-19-26-40-26-65s8-46 25-64c18-20 40-29 68-29zm0 22c-19 0-35 7-49 21s-20 31-20 50c0 13 3 25 9 36s14 20 25 26c10 6 22 9 35 9 12 0 24-3 34-9 11-6 19-15 26-26 6-11 9-23 9-36 0-19-7-36-21-50-13-14-29-21-48-21zm110-18h24l54 128 56-128h4l57 128 55-128h23l-76 177h-4l-57-127-56 127h-5l-75-177zm-6130 329h22v140l83-72h33l-98 84 104 93h-33l-89-80v80h-22v-245zm316 186l20 10c-7 13-14 23-22 30-9 8-18 13-28 17-11 4-22 6-35 6-29 0-52-9-68-28-17-19-25-40-25-64 0-22 7-42 21-60 17-22 41-33 70-33 31 0 55 11 73 34 13 16 19 36 20 60h-160c0 21 7 38 19 51 13 13 29 19 48 19 9 0 17-1 26-4s16-8 22-13 12-13 19-25zm1-47c-4-13-8-22-14-29-6-8-13-14-23-18s-20-7-30-7c-18 0-33 6-45 17-10 8-16 20-21 37h133zm47-71h24l61 136 60-136h24l-106 242h-24l35-80-74-162zm310-66h23v66h36v20h-36v157h-23v-157h-31v-20h31v-66zm177 62c28 0 50 9 68 29 17 18 25 39 25 64s-9 46-26 65c-17 18-40 27-67 27s-49-9-66-27c-18-19-26-40-26-65 0-24 8-46 24-64 18-19 41-29 68-29zm0 22c-19 0-35 7-49 21-13 14-20 31-20 50 0 13 3 25 9 36 7 11 15 20 26 26 10 6 22 9 34 9 13 0 24-3 35-9s19-15 25-26 9-23 9-36c0-19-6-36-20-50s-30-21-49-21zm399 19l-18 11c-16-21-37-31-64-31-22 0-40 7-54 21-15 14-22 30-22 50 0 13 4 25 10 36 7 12 16 21 27 27 12 6 25 9 39 9 26 0 47-10 64-31l18 12c-9 13-20 23-34 30-15 7-31 10-49 10-28 0-51-9-70-26-18-18-28-40-28-65 0-17 5-33 13-48 9-14 21-26 36-34s32-12 51-12c11 0 23 1 34 5s20 8 27 14c8 6 15 13 20 22zm44-105h22v100c9-12 20-21 31-27s23-9 36-9 25 3 35 10c10 6 18 15 23 27 5 11 7 29 7 53v91h-22v-84c0-21-1-34-3-41-3-12-8-21-15-27-8-5-18-8-30-8-13 0-26 4-37 13s-18 21-21 34c-3 9-4 25-4 48v65h-22v-245zm379 68v177h-22v-30c-10 11-21 20-33 26-11 5-24 8-38 8-25 0-47-9-65-27-17-18-26-40-26-66 0-25 9-47 27-65s39-27 64-27c15 0 28 3 40 9 11 6 22 15 31 28v-33h22zm-91 18c-13 0-24 3-35 9s-19 15-26 26c-6 11-9 23-9 36 0 12 3 24 9 35 7 12 15 21 26 27s22 9 35 9c12 0 24-3 35-9s20-15 26-26c6-10 9-22 9-36 0-20-7-37-20-51-14-14-30-20-50-20zm143-18h22v32c9-12 20-21 31-27s23-9 36-9 25 3 35 10c10 6 18 15 23 27 5 11 7 29 7 53v91h-22v-84c0-21-1-34-3-41-3-12-8-21-15-27-8-5-18-8-30-8-14 0-26 4-37 13s-18 21-21 34c-3 9-4 25-4 48v65h-22v-177zm356 0h23v141c0 25-3 43-7 54-6 17-16 29-31 38s-32 13-53 13c-15 0-29-2-41-6-12-5-22-11-30-18-7-7-14-18-20-32h24c7 12 16 21 26 26 11 6 24 9 40 9 15 0 28-3 39-9 11-5 18-13 23-21 5-9 7-23 7-43v-9c-9 11-19 19-32 25-12 6-25 9-39 9-16 0-32-4-46-12s-25-19-33-33c-8-13-12-28-12-45 0-16 4-31 12-45 9-15 20-26 34-34 15-8 30-12 46-12 13 0 25 2 37 8 11 5 22 14 33 27v-31zm-67 18c-13 0-25 3-36 9s-20 15-26 26c-7 11-10 23-10 36 0 19 7 35 20 48 13 12 30 19 50 19 21 0 38-7 51-19 12-13 19-29 19-50 0-13-3-25-9-35-6-11-14-19-25-25s-22-9-34-9zm288 100l19 10c-7 13-14 23-22 30-8 8-18 13-28 17s-22 6-35 6c-29 0-52-9-68-28s-25-40-25-64c0-22 7-42 21-60 18-22 41-33 71-33s54 11 72 34c13 16 20 36 20 60h-160c0 21 7 38 20 51 12 13 28 19 47 19 9 0 18-1 26-4 9-3 16-8 22-13s13-13 20-25zm0-47c-3-13-8-22-14-29-5-8-13-14-23-18-9-4-19-7-30-7-18 0-33 6-45 17-9 8-16 20-21 37h133zm179-137h22v66h36v20h-36v157h-22v-157h-31v-20h31v-66zM4141 4722h23v100c9-12 19-21 30-27s23-9 36-9 25 3 36 10c10 6 17 15 22 27 5 11 8 29 8 53v91h-23v-84c0-21-1-34-2-41-3-12-8-21-16-27-7-5-17-8-29-8-14 0-26 4-37 13s-19 21-22 34c-2 9-3 25-3 48v65h-23v-245zm353 186l19 10c-6 13-14 23-22 30-8 8-18 13-28 17s-22 6-35 6c-29 0-52-9-68-28s-24-40-24-64c0-22 7-42 20-60 18-22 41-33 71-33s54 11 72 34c13 16 20 36 20 60h-160c0 21 7 38 20 51 12 13 28 19 47 19 9 0 18-1 26-4 9-3 16-8 22-13s13-13 20-25zm0-47c-3-13-8-22-13-29-6-8-14-14-24-18-9-4-19-7-30-7-17 0-32 6-45 17-9 8-16 20-21 37h133zm309 47l19 10c-7 13-14 23-22 30-8 8-18 13-28 17s-22 6-35 6c-29 0-52-9-68-28s-25-40-25-64c0-22 7-42 21-60 18-22 41-33 71-33s54 11 72 34c13 16 20 36 20 60h-160c0 21 7 38 20 51 12 13 28 19 47 19 9 0 18-1 26-4 9-3 16-8 22-13s13-13 20-25zm0-47c-3-13-8-22-14-29-5-8-13-14-23-18-9-4-19-7-30-7-18 0-33 6-45 17-9 8-16 20-21 37h133zm50-71h24l60 129 59-129h24l-81 177h-4l-82-177zm351 118l19 10c-6 13-13 23-22 30-8 8-17 13-28 17-10 4-22 6-35 6-29 0-51-9-68-28-16-19-24-40-24-64 0-22 7-42 21-60 17-22 41-33 70-33 30 0 54 11 73 34 12 16 19 36 19 60h-160c1 21 7 38 20 51s28 19 47 19c9 0 18-1 27-4 8-3 15-8 21-13s13-13 20-25zm0-47c-3-13-7-22-13-29-6-8-14-14-23-18-10-4-20-7-31-7-17 0-32 6-45 17-9 8-16 20-21 37h133zm67-71h23v32c9-12 19-21 30-27s23-9 36-9c14 0 25 3 36 10 10 6 18 15 22 27 5 11 8 29 8 53v91h-23v-84c0-21-1-34-3-41-2-12-7-21-15-27-7-5-17-8-29-8-14 0-26 4-37 13s-19 21-22 34c-2 9-3 25-3 48v65h-23v-177zm223-66h23v66h36v20h-36v157h-23v-157h-31v-20h31v-66zm358 103l-18 11c-16-21-38-31-65-31-21 0-39 7-54 21-14 14-21 30-21 50 0 13 3 25 10 36 6 12 15 21 27 27 11 6 24 9 39 9 26 0 47-10 64-31l18 12c-9 13-20 23-35 30-14 7-30 10-48 10-29 0-52-9-70-26-19-18-28-40-28-65 0-17 4-33 13-48 9-14 20-26 36-34 15-8 32-12 50-12 12 0 23 1 34 5s21 8 28 14c8 6 14 13 20 22zm220-37v177h-23v-30c-10 11-20 20-32 26-12 5-25 8-39 8-25 0-46-9-64-27s-27-40-27-66c0-25 9-47 27-65s39-27 65-27c14 0 27 3 39 9s22 15 31 28v-33h23zm-92 18c-12 0-24 3-35 9-10 6-19 15-25 26-7 11-10 23-10 36 0 12 3 24 10 35 6 12 15 21 26 27 10 6 22 9 34 9 13 0 24-3 36-9 11-6 19-15 25-26 6-10 9-22 9-36 0-20-6-37-20-51-13-14-30-20-50-20zm163-84h22v66h36v20h-36v157h-22v-157h-31v-20h31v-66zm242 184l20 10c-7 13-14 23-22 30-9 8-18 13-28 17-11 4-22 6-35 6-29 0-52-9-68-28-17-19-25-40-25-64 0-22 7-42 21-60 18-22 41-33 70-33 31 0 55 11 73 34 13 16 19 36 20 60h-160c0 21 7 38 19 51 13 13 29 19 48 19 9 0 18-1 26-4 9-3 16-8 22-13s12-13 19-25zm1-47c-3-13-8-22-14-29-6-8-13-14-23-18s-20-7-30-7c-18 0-33 6-45 17-10 8-16 20-21 37h133zm220-71h22v141c0 25-2 43-6 54-6 17-17 29-31 38-15 9-33 13-53 13-16 0-29-2-41-6-12-5-22-11-30-18-7-7-14-18-21-32h25c7 12 15 21 26 26 11 6 24 9 39 9 16 0 29-3 40-9 11-5 18-13 23-21 4-9 7-23 7-43v-9c-9 11-20 19-32 25s-25 9-39 9c-17 0-32-4-46-12-15-8-26-19-33-33-8-13-12-28-12-45 0-16 4-31 12-45 8-15 19-26 34-34 14-8 29-12 45-12 14 0 26 2 37 8 12 5 23 14 34 27v-31zm-68 18c-13 0-25 3-36 9s-19 15-26 26c-6 11-9 23-9 36 0 19 6 35 19 48 13 12 30 19 51 19s38-7 50-19c13-13 20-29 20-50 0-13-3-25-9-35-6-11-14-19-25-25s-22-9-35-9zm223-22c27 0 50 9 68 29 16 18 24 39 24 64s-8 46-26 65c-17 18-39 27-66 27s-50-9-67-27c-17-19-26-40-26-65 0-24 8-46 25-64 18-19 40-29 68-29zm0 22c-19 0-36 7-49 21-14 14-21 31-21 50 0 13 4 25 10 36s14 20 25 26c10 6 22 9 35 9 12 0 24-3 34-9 11-6 19-15 26-26 6-11 9-23 9-36 0-19-7-36-21-50-13-14-30-21-48-21zm125-18h24v26c7-10 14-18 22-23 7-5 16-7 24-7 6 0 13 2 20 6l-12 19c-5-2-9-3-12-3-7 0-15 3-22 9s-12 16-16 29c-3 10-4 30-4 61v60h-24v-177zm90 0h24l61 136 59-136h25l-106 242h-24l34-80-73-162zm223 141c6 0 10 2 14 6s6 8 6 14-2 10-6 14-8 6-14 6c-5 0-10-2-14-6s-6-8-6-14 2-10 6-14 9-6 14-6z"/></g><path class="fil1" d="M17 1118c-8 0-17-9-17-18 0-11 9-20 17-20h8457c11 0 20 9 20 20 0 9-9 18-20 18H17z"/><path class="fil0" d="M923 603V12h75l390 457V12h85v591h-76l-390-460v460h-84zm853-79V408c-53 17-88 32-108 46-20 15-29 29-29 47 0 17 3 29 14 38 9 8 24 14 44 14 15 0 26-3 41-9 11-5 26-11 38-20zm3 47c-21 14-38 23-56 29-17 6-38 8-58 8-35 0-61-8-82-23-20-17-29-41-29-70s12-52 32-73c21-20 53-37 96-52l94-32v-6-11c0-24-3-38-15-50s-32-14-58-14c-21 0-44 2-67 11-23 12-47 23-70 41v-76c20-17 44-29 67-38 26-8 52-11 79-11 52 0 87 11 110 32 23 23 35 58 35 108v165c0 15 0 24 3 30 3 5 6 8 12 8 5 0 11 0 14-3 6-3 15-8 26-17v46c-14 12-29 21-40 27-15 5-29 8-47 8-14 0-26-3-32-8-9-6-12-15-14-29zm305 40l-186-398h87l120 259 113-259h84l-180 398h-38zm256-515c0-12 6-23 15-32 6-9 17-12 29-12 15 0 23 3 32 12s15 20 15 32-6 23-15 32-17 12-32 12c-12 0-23-3-29-12-9-9-15-20-15-32zm6 507V213h79v390h-79zm204 72c0 18 9 32 29 44 17 9 47 15 84 15 35 0 64-6 85-15 20-9 32-23 32-41 0-17-12-32-35-40-23-9-58-15-105-15-26 0-49 6-64 15-17 11-26 23-26 37zm46-198c-29-8-52-23-66-43-18-21-24-47-24-79 0-46 15-81 50-108 32-23 78-34 145-34h155v61h-67c11 11 20 26 23 37 6 12 9 27 9 44 0 32-9 61-29 85-21 20-47 35-82 43-6 0-17 3-29 3-41 6-64 18-64 32 0 15 32 29 90 41 15 3 26 6 35 6 38 8 67 23 87 40 18 18 29 44 29 70 0 41-17 73-49 94-35 20-82 29-146 29-61 0-107-9-142-29-32-21-47-50-47-88 0-29 9-49 29-67 18-17 47-32 82-38-15-5-26-14-32-20-6-9-12-17-12-26 0-12 6-21 15-29 8-9 20-15 40-24zm67-200c-23 0-43 8-58 20-14 14-23 32-23 55 0 24 9 41 23 53 15 14 32 20 58 20 27 0 47-6 62-20 14-12 23-29 23-53 0-23-9-41-23-55-18-12-38-20-62-20zm443 247V408c-52 17-90 32-108 46-20 15-32 29-32 47 0 17 6 29 18 38 8 8 23 14 40 14 15 0 30-3 41-9 15-5 26-11 41-20zm3 47c-21 14-38 23-55 29-18 6-38 8-59 8-35 0-61-8-81-23-21-17-29-41-29-70s8-52 32-73c20-20 52-37 96-52l93-32v-6-11c0-24-6-38-18-50-11-12-29-14-55-14-23 0-44 2-67 11-23 12-46 23-70 41v-76c21-17 41-29 67-38 24-8 53-11 79-11 49 0 87 11 110 32 24 23 35 58 35 108v165c0 15 0 24 3 30 3 5 6 8 12 8s9 0 15-3c5-3 14-8 26-17v46c-15 12-29 21-44 27-14 5-29 8-44 8-14 0-26-3-35-8-5-6-11-15-11-29zm396 20c-12 6-26 12-41 15-12 2-29 5-44 5-43 0-75-11-93-32-17-20-26-58-26-113V279h-67v-8l137-152h9v94h122v66h-122v181c0 32 2 52 11 61s23 15 44 15c14 0 26-3 35-6 11-3 23-6 35-15v76zm61-495c0-12 3-23 11-32 9-9 18-12 33-12 11 0 23 3 32 12 5 9 11 20 11 32s-6 23-11 32c-9 9-21 12-32 12-15 0-24-3-33-12-8-9-11-20-11-32zm3 507V213h78v390h-78zm238-195c0 34 12 67 35 93 27 23 56 38 91 38 32 0 64-15 87-38 26-26 38-59 38-93 0-38-12-67-38-94-23-26-52-37-87-37s-64 11-91 37c-23 27-35 56-35 94zm-81 0c0-59 20-105 58-146 41-38 90-58 149-58 26 0 52 6 78 14 26 12 47 27 64 44 21 20 35 44 47 67 9 26 14 49 14 79 0 26-5 52-14 78-12 23-26 47-47 64-20 21-40 35-64 44-23 12-49 17-78 17-59 0-108-20-149-61-38-38-58-87-58-142zm483 195V213h79v46c20-17 41-32 58-41 20-8 41-11 64-11 41 0 76 11 99 35 23 26 38 58 38 102v259h-79V364c0-32-8-55-20-70-15-15-35-23-64-23-18 0-35 3-53 11-14 9-29 21-43 38v283h-79zm1170-140v93c-35 20-69 32-107 44-35 8-70 11-105 11s-67-3-99-11c-29-9-58-24-87-41-44-29-76-64-102-111-24-43-35-93-35-145 0-38 6-76 23-114 15-38 38-70 67-99 32-29 67-52 108-67 38-14 81-23 131-23 32 0 64 6 99 12 32 8 67 20 102 38v90c-38-21-73-35-105-44-35-12-67-14-96-14-70 0-128 20-172 64-47 43-67 96-67 160s20 119 64 163c47 40 102 64 169 64 35 0 70-6 105-18 35-11 70-29 107-52zm140-55c0 34 12 67 35 93 26 23 55 38 90 38s64-15 88-38c26-26 37-59 37-93 0-38-11-67-37-94-24-26-53-37-88-37s-64 11-90 37c-23 27-35 56-35 94zm-81 0c0-59 20-105 58-146 41-38 90-58 148-58 29 0 53 6 79 14 26 12 46 27 67 44 20 20 35 44 46 67 9 26 15 49 15 79 0 26-6 52-15 78-11 23-26 47-46 64-21 21-41 35-67 44-23 12-50 17-79 17-58 0-107-20-148-61-38-38-58-87-58-142zm486 195V213h78v46c21-17 41-32 59-41 20-8 40-11 64-11 40 0 75 11 99 35 23 26 37 58 37 102v259h-78V364c0-32-6-55-21-70-14-15-35-23-61-23-20 0-38 3-55 11-15 9-29 21-44 38v283h-78zm649-12c-12 6-26 12-38 15-15 2-29 5-47 5-43 0-75-11-93-32-17-20-26-58-26-113V279h-67v-8l137-152h9v94h122v66h-122v181c0 32 6 52 11 61 9 9 24 15 47 15 12 0 23-3 35-6 11-3 20-6 32-15v76zm64 12V213h78v84c21-35 41-58 59-73 17-11 35-20 55-20 15 0 29 3 44 11 14 6 29 15 46 27l-43 69c-12-11-24-17-35-23-12-6-24-9-38-9-21 0-38 12-55 30-15 17-27 40-33 72v222h-78zm381-195c0 34 12 67 35 93 26 23 55 38 90 38s64-15 88-38c26-26 38-59 38-93 0-38-12-67-38-94-24-26-53-37-88-37s-64 11-90 37c-23 27-35 56-35 94zm-81 0c0-59 20-105 58-146 41-38 90-58 148-58 30 0 56 6 79 14 26 12 47 27 67 44 20 20 35 44 47 67 8 26 14 49 14 79 0 26-6 52-14 78-12 23-27 47-47 64-20 21-41 35-67 44-23 12-49 17-79 17-58 0-107-20-148-61-38-38-58-87-58-142zm489 195V12h78v591h-78zm157-27v-84c23 15 44 26 67 35 20 9 41 12 58 12 21 0 38-3 47-9 11-9 17-18 17-32 0-18-20-35-64-56-12-5-20-11-26-14-38-20-64-38-76-55-14-18-20-38-20-64 0-32 12-59 35-76 23-20 55-29 96-29 23 0 44 3 64 6 20 5 41 14 58 26v76c-23-15-44-24-64-30-20-5-41-8-58-8-15 0-29 3-38 5-9 6-12 15-12 27 0 20 27 43 82 70l6 2c43 21 70 41 84 56 12 17 21 38 21 64 0 32-15 61-41 81-26 21-58 32-102 32-23 0-47-3-70-8-23-6-44-15-64-27z"/></g></g></svg>