<svg xmlns="http://www.w3.org/2000/svg" viewBox="0 0 6400 3600" shape-rendering="geometricPrecision" text-rendering="geometricPrecision" image-rendering="optimizeQuality" fill-rule="evenodd" clip-rule="evenodd"><defs><style>.fil2{fill:none}.fil2,.fil4{fill-rule:nonzero}.fil4{fill:#02567e}.fil6{fill:#081d56}.fil6,.fil5{fill-rule:nonzero}.fil5{fill:#1183a2}.fil3{fill:#308db8}.fil3,.fil0{fill-rule:nonzero}.fil0{fill:#77d4fc}.fil8{fill:#bee6f7}.fil8,.fil1{fill-rule:nonzero}.fil1{fill:#d2effc}.fil9{fill:#d8948c}.fil9,.fil7{fill-rule:nonzero}.fil7{fill:#e2d7b8}</style></defs><g id="Layer_x0020_1"><g id="_60506079168"><path class="fil0" d="M6400 3600H0V0h6400z"/><path class="fil1" d="M5397 3v964h-34V3h34zm0 964s-2 86 112 86h891v34h-891c-147 0-146-120-146-120h34zM230 2641s-39 199 156 199h649c0 1 91 29 94-232-3-18-33-168 267-165 292 4 769 0 794 0 0 0 207-13 185 372l2 495c-1 0-15 187 153 177h1c137 0 403 3 452 3 49 1 125-15 116 110h-33c-1-60 6-78-68-77-156-1-312-2-467-2-196 10-190-180-187-211h-1l-2-496h17l-17-1c21-347-149-337-149-337h-1c-2 0-497 4-795 0-277-3-234 127-234 127v3c-3 281-114 270-132 267H386c-205 3-192-204-189-232V10h33v2631z"/><path class="fil1" d="M1173 3v157c2 8 14 55 51 57 53 3 1204 0 1237 0 9 0 97-4 99 118 2 109 7 190 7 190v2s-4 86 48 86c70 1 2991 0 3043 0 9-1 123-9 121 136-2 129 6 2748 6 2851h-33c-1-103-8-2722-7-2852 2-112-84-101-84-101H2615c-83-1-82-109-82-120 0-8-4-86-6-192-2-91-64-85-64-85l-1 1c-4 0-1186 2-1240 0-66-4-82-86-82-86l17-3h-17V3h33z"/><path class="fil2" d="M1483 0v3600"/><path class="fil3" d="M1500 0v3600h-33V0z"/><path class="fil4" d="M0 322l5902-4v30L0 352zM3 152l5902-4v30L3 182z"/><path class="fil3" d="M4927 3v3597h-34V3z"/><path class="fil1" d="M623 10v3590h-33V10zM810 10v3590h-33V10zM5993 3v3597h-33V3zM6173 0v3600h-33V0z"/><path class="fil3" d="M3268 5v3595h-33V5z"/><path class="fil4" d="M3405 681h-307V451h307z"/><path class="fil1" d="M3293 565c0-24-19-43-43-43-23 0-43 19-43 43 0 23 20 42 43 42 24 0 43-19 43-42z"/><path class="fil3" d="M5167 3600V2597c-1-12-9-160 133-162 130-2 1097-5 1100-5v33c-3 0-970 4-1100 5-112 2-100 127-100 127l-17 2h17v1003h-33zM1727 3017H7v-34h1720v34zm153 583h-33v-527c1-24-8-38-25-47-21-10-53-12-93-9l-3-34c46-3 84 0 110 13 30 15 46 40 44 77v527zM0 2480h1127v27H0zM0 2627h1127v26H0z"/><path class="fil5" d="M1130 967H133V630h997z"/><path class="fil1" d="M302 702c51 0 88 39 87 89-2 49-38 84-87 85-50 0-88-39-87-90 2-48 38-84 87-84z"/><path class="fil6" d="M845 781c-5 36-22 57-56 56s-53-22-52-56c1-31 21-50 52-51 35 0 51 22 56 51zM541 729c33 4 54 22 53 56s-22 54-56 52c-31-1-50-21-51-52 0-34 21-52 54-56zM1084 781c-3 34-20 56-54 56s-54-20-54-54c-1-31 19-51 50-53 34-2 52 19 58 51z"/><path class="fil7" d="M1586 2958c1-6 2-12 6-17 0 7 2 14-2 21l-4-4z"/><path class="fil5" d="M5679 5c0-2-1-4-1-5h27c7 14 20 21 36 19 13-2 24-8 29-19h30c3 13 12 22 26 26 17 5 32-1 42-17 5-9 10-3 15-1 5 3 11 4 7 13-8 17-4 32 10 44 15 12 32 11 47 0 9-7 10 2 14 6 4 3 7 7 1 13-15 17-16 31-7 46 10 16 24 22 42 17 8-2 10 2 11 8 2 5 7 11-3 15-18 7-27 20-25 40 2 19 15 30 33 32 11 2 7 9 7 14 0 6-1 12-9 11-20-1-34 8-40 27-5 19 3 34 20 43 9 4 4 9 2 13-3 5-3 13-13 8-17-9-33-5-46 9-12 12-12 29-1 46 7 11-2 13-6 18-6 7-9 3-14-2-14-14-30-16-45-8s-23 24-18 43c2 9-2 11-8 13-7 2-12 2-15-7-10-22-31-29-51-20-11 5-19 14-20 27-2 9-6 12-15 11s-12-5-12-14c1-18-10-30-26-36-15-5-32 1-42 15-4 8-7 11-16 6-8-5-8-8-5-16 6-16 2-33-11-43-14-10-30-11-44-1-9 6-12 3-18-3-6-7-7-11 1-18 12-12 14-30 5-43-9-15-23-23-40-18-8 2-11-1-13-8s-2-11 7-15c16-6 24-20 22-38-2-17-12-29-30-32-8-1-11-4-9-12 1-6-1-15 11-15 18 1 30-8 35-25s0-32-15-42c-8-5-6-9-3-15 4-5 5-10 14-6 16 7 31 3 43-10 11-14 13-29 3-44-6-8-3-11 3-16 5-5 9-9 16-1 12 11 27 13 43 6 15-8 21-21 19-39z"/><path class="fil1" d="M5813 389c-24 10-49 10-73 6-36-5-68-22-93-48-7-7-7-11 2-14 5-3 10-5 15-8 20-14 38-22 61-4 12 10 29 10 44 8 9 0 13 2 17 10 9 16 18 33 27 50zM5869 358c-10-18-19-36-29-53-4-7-1-11 2-16 13-18 19-38 17-60 0-7 1-11 7-14l45-24c6-4 9-3 12 5 17 53-7 127-54 162zM5609 282c-19-57 1-126 43-164 8-7 11-5 15 3 2 4 4 9 7 13 14 20 22 39 3 61-10 10-11 26-9 40 2 13-4 18-14 23-15 7-29 15-45 24zM5888 131c-18 10-36 19-53 29-5 3-9 2-12-1-20-15-41-21-65-20-3 0-7 0-8-1-10-18-21-35-30-53-3-7 5-6 9-7 55-15 123 8 159 53zM5801 232c0 21-17 39-38 39s-40-18-40-39c1-20 19-38 40-38 20 0 37 18 38 38z"/><path class="fil8" d="M5603 3033v567h-33v-567zM5787 3037v563h-34v-563z"/><path class="fil4" d="M6031 2827c12-5 20-3 25 13 5 14-1 19-13 24-27 11-38 33-35 61 2 28 18 44 44 51 14 4 24 7 22 26-2 17-11 16-25 17-26 2-47 15-54 41-8 27-2 51 21 68 9 7 18 11 11 26s-15 13-29 9c-24-7-49-4-66 17-17 23-19 48-4 71 10 15 5 21-6 30-10 10-17 8-27-1-21-19-45-23-70-10-25 14-37 36-31 64 3 12 0 18-11 22-12 4-20 4-26-10-11-26-33-39-61-37-28 3-47 19-53 48-2 14-9 17-22 16-12-1-18-4-22-18-15-66-61-79-110-32-8 8-14 10-24 4-10-5-12-12-11-23 9-67-25-96-89-72-13 6-19 1-27-8-8-8-8-15 0-24 19-22 22-47 7-71-13-23-35-35-61-29-16 4-18-5-22-15-7-15 2-18 12-25 41-28 46-73 10-99-7-6-17-10-26-12-15-3-15-13-14-25s6-16 18-17c29-1 48-16 56-44 9-28-2-50-25-65-12-8-9-15-4-25 5-11 11-16 25-11 27 12 50 4 68-18s20-47 3-70c-10-13-3-19 5-27 10-10 17-9 28 1 20 19 45 23 70 9 24-14 37-37 30-65-4-15 2-18 14-22 12-5 19-3 25 10 12 26 33 38 61 36 30-3 47-21 53-48 3-13 7-19 21-17 13 1 19 5 20 20 1 29 16 51 45 58s53-2 69-29c7-12 14-9 24-4 9 4 16 10 11 22-12 28-8 53 16 72 25 20 52 19 77 0 12-10 17 1 23 7 9 9 12 16 1 27-22 20-28 46-13 73 14 25 37 33 66 30z"/><path class="fil1" d="M5828 3162c-15-27-29-53-44-79-6-10-5-18 1-27 23-31 34-66 30-105-1-12 5-17 14-22 22-12 45-24 67-37 13-8 19-3 22 10 23 87-10 206-90 260zM5661 2702c71-1 132 24 184 73 14 13 18 22-3 30-8 3-16 7-23 12-32 24-64 34-100 5-8-7-23-7-34-10-18-5-40 8-52-8-18-24-31-52-45-79-6-12 3-14 12-17 20-7 40-5 61-6zM5396 2970c2-78 27-138 74-189 15-17 25-17 33 4 3 7 6 14 10 20 21 31 37 61 5 96-12 13-12 33-14 52-1 13 7 30-10 39-26 15-53 29-80 42-8 4-9-6-10-11-4-20-9-41-8-53zM5667 3226c-75-3-138-26-191-76-15-13-20-24 4-33 8-3 15-7 22-12 30-21 58-29 90-2 13 12 34 18 51 15 38-6 53 16 67 45 28 55 30 55-32 62-5 0-10 1-11 1zM5594 2963c2-35 30-59 67-57 35 2 59 29 57 66-2 32-32 59-64 57-34-2-63-33-60-66z"/><path class="fil3" d="M971 2779c-1 20 12 30 32 23 4-1 7-4 11 1 4 4 3 7 0 12-10 20-2 33 20 36 4 0 7-1 9 5 2 5-1 7-4 10-19 16-17 28 4 40 5 2 7 4 7 9-1 6-4 6-8 8-23 7-27 20-11 39 3 4 4 6 2 11-3 4-6 3-11 3-22-2-32 10-25 32 2 4 3 7-1 11-4 3-6 2-10 0-22-12-36-5-37 20 0 4 0 8-5 9s-7-1-10-5c-17-19-30-17-41 6-3 4-4 6-9 6-6 0-6-3-8-8-6-25-20-29-40-11-3 2-5 5-9 2-5-2-5-5-5-9 3-26-8-36-33-27-4 2-7 2-10-2s-2-6 0-10c14-22 6-36-19-38-5 0-8 0-10-5-2-6 3-7 6-9 18-14 17-31-4-41-4-2-9-3-8-9 0-7 4-7 9-8 23-5 28-23 11-40-2-3-6-4-4-9 3-4 5-5 10-5 28 2 35-7 27-32-2-6-1-8 2-11 4-3 7-2 11 1 22 12 34 5 37-20 0-4-1-7 4-9 5-1 7 1 10 5 16 19 29 17 42-5 2-5 4-7 9-6 4 0 5 3 6 6 10 26 19 28 42 12 4-3 6-2 9-1 6 3 2 8 2 13z"/><path class="fil1" d="M798 2904c1-29 10-51 27-70 7-7 10-6 15 3 7 14 16 27 3 43-3 4-4 12-4 18 2 11-4 17-13 20-8 3-16 14-23 9-5-4-4-17-5-23zM896 2999c-25 0-47-9-66-25-6-6-9-10 1-15 15-8 29-18 46-4 4 3 10 4 15 3 11-1 16 4 21 13 14 26 13 28-17 28zM969 2840c-8 5-16 11-24 14-21 6-36-14-57-12-7 0-12-19-18-29-2-5 3-6 6-7 29-10 74 6 93 34zM993 2902c0 25-9 47-25 66-6 7-10 6-15-2-7-14-18-28-3-44 2-3 4-8 3-12-2-16 8-22 20-28 18-9 19-9 20 11v9zM897 2923c-13-2-22-8-22-22 0-15 8-23 22-24 12-1 25 11 24 24-2 13-10 21-24 22z"/><path class="fil4" d="M1240 2676c-36-2-53 20-40 50 2 7 7 12-1 19s-12 3-19-2c-32-20-56-6-58 32 0 7 2 13-7 15-9 3-11-3-15-9-23-28-49-26-65 7-3 6-3 14-14 13s-10-8-12-15c-8-35-37-43-62-19-5 4-5 12-15 7-10-4-7-10-7-18 4-37-16-52-50-39-7 2-11 6-17-1s-5-11-1-19c19-32 6-56-29-58-7 0-13 4-16-6-2-9 2-11 7-15 31-24 28-46-8-64-6-3-9-6-9-12 0-7 3-11 10-14 42-17 44-26 18-64-4-6-2-10 0-15 3-6 8-4 14-4 39 4 52-13 41-51-2-7-2-10 2-14 6-5 10-6 17-2 37 17 51 9 58-32 1-7 3-10 9-12 7-2 10 1 14 6 29 30 45 28 65-7 4-7 8-10 15-9 9 1 9 7 11 14 11 33 34 40 61 17 5-4 8-10 16-6 9 5 7 11 7 19-4 32 17 50 47 40 8-3 14-9 22 1 8 9-1 12-5 18-15 28-2 52 31 54 7 1 15-2 18 8s-4 12-10 17c-26 21-23 48 9 63 7 3 13 4 12 14-1 12-9 9-16 10-31 8-40 37-20 60 5 5 17 6 10 19-6 11-14 4-18 4z"/><path class="fil1" d="M1086 2709c-54 15-101 3-144-31-14-10-20-18 1-29 65-34 44 4 93 7 42 8 34 7 50 53zM1196 2564c0 40-15 74-41 104-8 9-14 11-21-2-11-23-33-44-7-72 5-6 6-18 5-27-1-16 7-23 20-30 41-22 44-20 44 27zM1043 2412c40 0 74 14 104 40 11 9 11 15-2 22-22 11-42 28-67 6-7-5-19-6-28-6-16 1-25-5-32-20-22-41-22-42 25-42zM945 2447c6 11 11 21 16 29 11 15 15 28 1 44-5 7-10 18-9 26 5 35-22 42-44 54-13 8-16 1-18-10-7-56 8-103 54-143zM1039 2526c20-2 38 15 38 35-1 22-15 35-36 36-45 1-51-67-2-71z"/><path class="fil4" d="M5063 3407h-306v-230h306z"/><path class="fil1" d="M4951 3290c0-24-19-43-42-43-24 0-43 19-43 43s19 43 43 43c23 0 42-19 42-43z"/><path class="fil4" d="M5063 680h-306V450h306z"/><path class="fil1" d="M4951 563c0-23-19-42-42-42-24 0-43 19-43 42 0 24 19 43 43 43 23 0 42-19 42-43z"/><path class="fil4" d="M1637 683h-307V453h307z"/><path class="fil1" d="M1525 567c0-24-19-43-43-43-23 0-43 19-43 43 0 23 20 42 43 42 24 0 43-19 43-42z"/><path class="fil4" d="M1637 3407h-307v-230h307z"/><path class="fil1" d="M1525 3290c0-24-19-43-43-43-23 0-43 19-43 43s20 43 43 43c24 0 43-19 43-43z"/><path class="fil3" d="M953 3v627h-33V3zM393 3v627h-33V3z"/><path class="fil4" d="M355 3497h-7c-35-1-70-1-105 7-13 4-26 8-38 16-6 7-13 13-21 18-18 15-24 36-28 59v3h-16c4-38 20-70 54-93 5-7 14-9 22-13 20-9 41-12 62-14 23-3 47-2 70-2h7v19z"/><path class="fil1" d="M184 3538c5-8 13-14 21-18-7 26-11 53-13 80h-16c1-21 5-42 8-62z"/><path class="fil5" d="M356 3361h26v-38h513v235H382v-42h-26l-1-49h27v-52h-26z"/><path class="fil1" d="M215 3497c-7 3-14 7-21 11 23-72 75-114 138-124 8-1 16-2 24-2v19h-3c-39 2-74 15-102 44-12 13-21 28-30 43-1 3-2 7-6 9z"/><path class="fil4" d="M850 3346c11 0 19 8 19 19 1 11-7 20-18 20-10 1-21-9-21-19 1-11 9-20 20-20z"/><path class="fil1" d="M850 3435c-11 0-20-8-20-19 0-10 10-19 20-19 12 1 19 8 19 20 0 11-7 18-19 18z"/><path class="fil4" d="M850 3493c-11-1-19-8-19-20s7-19 19-18c12 0 20 8 19 19 0 11-8 19-19 19z"/><path class="fil9" d="M4128 686h-42c0-7-2-14 3-20 3 6-3 17 10 17 11 0 24 3 28-13 0 5 1 11 1 16z"/><path class="fil3" d="M2153 790V0h-18v790zM2250 789V0h-18v789z"/><path class="fil4" d="M2380 900c6 3 11 2 13-7 3-8-1-10-7-13-14-6-20-17-19-32 2-15 10-24 24-27 8-2 13-4 12-14-2-9-6-8-13-9-14-1-25-8-29-22s-2-27 11-36c5-3 10-6 6-13-4-8-8-7-15-5-14 3-26 2-36-10-9-11-10-25-2-37 5-8 3-11-3-16-5-5-9-4-14 1-11 10-24 12-38 5-13-7-19-19-16-34 1-7 0-10-6-12s-10-2-14 5c-6 14-17 21-32 20-15-2-25-10-28-25-1-8-5-10-12-9-6 1-10 2-11 10-9 35-33 42-59 17-4-5-7-6-13-3-5 3-6 7-5 13 5 36-14 51-47 38-8-3-11 0-15 4-4 5-4 8 0 13 10 12 11 25 4 38-7 12-19 18-33 15-8-2-9 3-12 8-3 8 2 10 7 13 22 15 24 39 5 53-3 3-9 5-13 6-8 2-8 7-8 13 0 7 3 9 10 9 15 1 25 9 29 24 5 15-1 26-13 35-6 4-5 8-2 12 2 7 6 9 13 6 15-6 27-1 36 10 10 12 11 25 2 37-5 7-2 10 3 15s9 4 14-1c11-10 24-12 38-5 13 8 19 20 15 35-2 8 1 9 8 12 7 2 10 1 13-6 6-13 18-20 33-19 15 2 24 11 28 26 1 6 4 9 11 9 7-1 10-3 10-11 1-16 9-27 25-31 15-4 28 1 36 15 4 7 8 5 13 3 4-3 8-5 5-12-6-15-4-28 9-38 13-11 28-10 41 0 7 5 9-1 12-4 5-5 7-9 1-14-12-11-15-24-7-39 7-13 19-18 35-16z"/><path class="fil1" d="M2272 722c-8 14-15 28-23 42-3 5-3 10 0 14 13 17 19 35 16 56 0 7 3 9 8 12 11 6 24 12 35 19 7 5 10 2 12-5 12-46-5-109-48-138zM2183 967c38 0 71-13 98-39 8-7 10-12-2-16-4-2-8-4-12-7-17-12-34-18-53-2-4 4-12 3-18 5-9 3-21-4-28 4-9 13-16 28-23 42-4 6 1 8 6 9 10 4 22 3 32 4zM2043 824c1 42 14 73 39 101 8 8 13 8 17-3 2-3 4-7 6-10 11-17 20-32 2-51-6-7-6-18-7-28 0-7 4-16-5-21-14-7-28-15-43-22-4-2-5 3-5 6-2 11-5 22-4 28zM2186 688c-39 2-73 14-101 40-7 8-10 13 2 18l12 6c16 12 31 16 48 1 7-6 18-9 27-7 20 3 28-9 36-24 15-30 15-29-18-33-2 0-5-1-6-1zM2148 828c1 18 16 31 35 30s32-16 31-35c-2-17-17-31-34-30-18 1-33 17-32 35z"/></g></g></svg>