<svg xmlns:svg="http://www.w3.org/2000/svg" xmlns="http://www.w3.org/2000/svg" viewBox="0 0 3009 7334.8" version="1.1" width="3009" height="7334.8" style="image-rendering:optimizeQuality;shape-rendering:geometricPrecision;text-rendering:geometricPrecision"><g transform="translate(-10984,0.81913927)"><path d="m12953 7030c10 26-2 55-27 65-25 11-54-1-65-26-549-1300-548-2393-280-3315 268-921 802-1668 1324-2279 18-20 49-23 70-5 21 18 24 49 6 70-515 602-1042 1338-1304 2241-263 902-263 1974 276 3249z" class="fil0" fill="#02567e"/><path d="m12103 7087c-21 18-52 16-70-5-18-21-15-52 5-70 505-434 443-1068 362-1885-125-1274-293-2983 1505-5110 18-21 49-24 70-6 21 18 24 50 6 71-1770 2094-1605 3779-1481 5035 83 847 147 1503-397 1970z" class="fil3" fill="#f9fbd6"/><path d="m11273 7082c-18 21-50 23-71 5-20-18-23-49-5-70 1406-1618 1453-2345 1505-3140 47-739 99-1536 1200-3125 16-23 47-29 69-13 23 15 29 46 13 69-1085 1567-1136 2350-1183 3075-52 813-100 1556-1528 3199z" class="fil1" fill="#c82c45"/><path d="m12656 7050 502 0 0 284-502 0zm-836 0 502 0 0 284-502 0zm-836 0 502 0 0 284-502 0z" class="fil4" fill="#1183a2"/></g></svg>