<?xml version="1.0" encoding="UTF-8"?>
<!DOCTYPE svg PUBLIC "-//W3C//DTD SVG 1.1//EN" "http://www.w3.org/Graphics/SVG/1.1/DTD/svg11.dtd">
<!-- Creator: CorelDRAW X7 -->
<svg xmlns="http://www.w3.org/2000/svg" xml:space="preserve" width="100%" height="100%" version="1.1" style="shape-rendering:geometricPrecision; text-rendering:geometricPrecision; image-rendering:optimizeQuality; fill-rule:evenodd; clip-rule:evenodd"
viewBox="0 0 953 2320"
 xmlns:xlink="http://www.w3.org/1999/xlink">
 <defs>
  <style type="text/css">
   <![CDATA[
    .fil3 {fill:#02567E}
    .fil0 {fill:#081D56}
    .fil2 {fill:#308DB8}
    .fil1 {fill:#D2EFFC}
   ]]>
  </style>
 </defs>
 <g id="Layer_x0020_1">
  <metadata id="CorelCorpID_0Corel-Layer"/>
  <g id="_60510307184">
   <path class="fil0" d="M624 2224c3,8 -1,17 -9,20 -8,4 -17,0 -21,-8 -173,-411 -173,-757 -88,-1048 85,-292 254,-528 419,-721 5,-6 15,-7 22,-2 6,6 7,16 2,22 -163,191 -330,424 -413,709 -83,285 -83,625 88,1028l0 0z"/>
   <path class="fil1" d="M355 2242c-7,6 -17,5 -22,-2 -6,-6 -5,-16 1,-22 160,-137 140,-338 115,-596 -40,-403 -93,-944 476,-1616 5,-7 15,-8 22,-2 6,5 7,16 2,22 -560,663 -508,1195 -469,1593 27,268 47,475 -125,623l0 0z"/>
   <path class="fil2" d="M92 2240c-5,7 -16,8 -22,2 -7,-6 -8,-16 -2,-22 445,-512 460,-742 476,-993 15,-234 32,-486 380,-989 5,-7 15,-9 22,-4 7,5 9,15 4,22 -343,495 -360,743 -374,972 -17,258 -32,493 -484,1012l0 0z"/>
   <path class="fil3" d="M530 2230l158 0 0 90 -158 0 0 -90zm-265 0l159 0 0 90 -159 0 0 -90zm-264 0l159 0 0 90 -159 0 0 -90z"/>
  </g>
 </g>
</svg>
