<?xml version="1.0" encoding="UTF-8"?>
<!DOCTYPE svg PUBLIC "-//W3C//DTD SVG 1.1//EN" "http://www.w3.org/Graphics/SVG/1.1/DTD/svg11.dtd">
<!-- Creator: CorelDRAW X7 -->
<svg xmlns="http://www.w3.org/2000/svg" xml:space="preserve" width="100%" height="100%" version="1.1" style="shape-rendering:geometricPrecision; text-rendering:geometricPrecision; image-rendering:optimizeQuality; fill-rule:evenodd; clip-rule:evenodd"
viewBox="0 0 240 343"
 xmlns:xlink="http://www.w3.org/1999/xlink">
 <defs>
  <style type="text/css">
   <![CDATA[
    .fil1 {fill:#5B5B5B;fill-rule:nonzero}
    .fil0 {fill:url(#id0)}
    .fil2 {fill:url(#id1)}
   ]]>
  </style>
  <linearGradient id="id0" gradientUnits="userSpaceOnUse" x1="7.64567" y1="141.496" x2="232.472" y2="141.496">
   <stop offset="0" style="stop-opacity:1; stop-color:#2B2A29"/>
   <stop offset="1" style="stop-opacity:1; stop-color:#727271"/>
  </linearGradient>
  <linearGradient id="id1" gradientUnits="userSpaceOnUse" xlink:href="#id0" x1="3.03937" y1="318.874" x2="236.953" y2="318.874">
  </linearGradient>
 </defs>
 <g id="Layer_x0020_1">
  <metadata id="CorelCorpID_0Corel-Layer"/>
  <g id="_2237107786352">
   <path class="fil0" d="M146 68c13,-11 18,-25 11,-41 -23,-48 -91,-14 -74,27 3,7 13,16 13,16 0,-1 0,0 0,0 -4,5 -8,10 -13,16 -10,13 -18,17 -13,25l38 59c7,11 14,22 21,33 -1,1 -1,1 -2,3l-19 12c-2,-3 -57,-86 -59,-89l-3 3c-10,13 -26,37 -32,51 -11,22 -7,53 4,73 2,5 5,9 8,14 6,9 7,9 13,9 50,0 105,0 156,0 11,0 11,1 16,-6 7,-7 12,-17 16,-29 9,-27 6,-50 -7,-72 -19,-32 -41,-61 -66,-90 -3,-3 -7,-8 -10,-12l2 -2z"/>
   <path class="fil1" d="M144 65c6,-5 10,-11 12,-17l0 0c1,-6 1,-12 -2,-19 -8,-16 -21,-22 -33,-22 -5,0 -11,1 -15,3 -5,3 -10,6 -13,9 -9,9 -12,21 -7,33 2,5 7,11 10,13l1 2 1 0c0,0 1,1 1,1l0 0 1 2 -1 2 -1 1 -1 2 0 0c-2,2 -4,4 -6,6 -2,3 -3,5 -5,7 -3,3 -5,6 -7,8 -6,6 -8,9 -6,13l0 0 37 59 0 0c3,5 6,9 9,14 5,7 9,13 13,20l1 2 -1 1 -1 1 0 0c0,1 -1,1 -2,2l-1 0 -18 13 -3 2 -2 -3 -4 -7c-12,-17 -43,-64 -52,-79 -6,8 -13,18 -20,28 -5,8 -9,16 -12,22 -5,10 -7,22 -6,34 1,13 4,26 10,36 1,3 2,5 3,8 2,2 3,4 5,6 3,4 4,6 5,7 1,1 3,1 5,1 44,-1 91,0 136,0l20 0 0 0 4 0 0 0c6,0 6,0 10,-5 3,-4 6,-8 8,-13 3,-4 5,-9 7,-15 4,-13 6,-25 5,-36 -1,-12 -5,-22 -12,-33 -9,-16 -20,-31 -31,-46 -11,-15 -22,-29 -35,-43l0 0c-1,-2 -3,-5 -5,-7 -2,-2 -3,-4 -5,-6l-2 -2 2 -2 3 -3 0 0zm18 -15c-2,7 -7,14 -14,20l0 0c1,1 2,3 3,4 2,2 4,4 5,6l0 0c13,14 25,29 36,44 11,15 21,30 31,47 7,11 11,23 12,35 2,12 0,25 -5,39 -2,6 -4,11 -7,16 -2,6 -6,10 -9,14 -6,8 -6,8 -15,8l-4 -1 -20 0c-45,0 -92,0 -136,0 -4,1 -6,0 -8,-1 -3,-2 -4,-4 -8,-9 -2,-2 -3,-5 -4,-7 -2,-3 -3,-5 -4,-8 -6,-11 -10,-25 -11,-39 0,-13 2,-26 7,-37 3,-6 8,-14 13,-22 7,-11 14,-21 20,-29l0 0 3 -4 4 -3 1 5c1,2 41,61 54,82l3 4 16 -11c-4,-6 -8,-12 -11,-17 -3,-5 -6,-10 -9,-15l-38 -58 0 0c-5,-8 -1,-13 7,-21 2,-3 4,-5 7,-8 2,-3 3,-5 5,-7 2,-2 4,-4 6,-7l0 0c-4,-3 -10,-9 -12,-15 -7,-16 -2,-30 8,-40 4,-5 9,-8 15,-11 6,-2 12,-3 18,-4 15,0 30,8 39,26 4,8 4,16 2,24l0 0z"/>
   <path class="fil2" d="M237 323c2,-10 -5,-19 -12,-22 -6,-4 -23,-2 -32,-2l-137 0c-21,0 -48,-6 -53,16 -2,10 5,19 12,22 7,3 23,2 32,2l137 0c23,0 48,6 53,-16z"/>
   <path class="fil1" d="M233 322c1,-4 0,-7 -1,-10 -2,-4 -5,-7 -8,-8 -5,-3 -16,-2 -25,-2 -3,0 -5,0 -6,0l0 0 -137 0 0 0c-4,0 -8,0 -11,0 -18,-1 -35,-2 -38,13l0 0c-1,5 0,8 1,11l0 0c2,4 5,7 8,8 5,2 16,2 25,2 2,0 5,0 6,0l0 0 137 0 0 0c4,0 8,0 12,0 18,1 34,1 37,-14zm5 -13c2,4 3,9 2,14 -5,21 -24,20 -44,20 -4,-1 -8,-1 -12,-1l0 0 -137 0 0 0c-2,0 -4,0 -6,0 -10,1 -22,1 -28,-2 -4,-2 -8,-6 -11,-11l0 0c-2,-4 -3,-9 -2,-15l0 0c4,-20 25,-20 45,-19 4,0 7,0 11,0l0 0 137 0 0 0c2,0 4,0 6,0 9,0 22,0 28,3 4,2 8,5 11,11z"/>
  </g>
 </g>
</svg>
