<?xml version="1.0" encoding="UTF-8"?>
<!DOCTYPE svg PUBLIC "-//W3C//DTD SVG 1.1//EN" "http://www.w3.org/Graphics/SVG/1.1/DTD/svg11.dtd">
<!-- Creator: CorelDRAW X7 -->
<svg xmlns="http://www.w3.org/2000/svg" xml:space="preserve" width="100%" height="100%" version="1.1" style="shape-rendering:geometricPrecision; text-rendering:geometricPrecision; image-rendering:optimizeQuality; fill-rule:evenodd; clip-rule:evenodd"
viewBox="0 0 1547 710"
 xmlns:xlink="http://www.w3.org/1999/xlink">
 <defs>
  <style type="text/css">
   <![CDATA[
    .fil0 {fill:#FEFEFE}
   ]]>
  </style>
 </defs>
 <g id="Layer_x0020_1">
  <metadata id="CorelCorpID_0Corel-Layer"/>
  <g id="_1779897321168">
   <path class="fil0" d="M14 672l11 0c7,0 12,-1 15,-2 3,-1 6,-2 9,-4 3,-3 5,-6 7,-11 2,-4 2,-9 2,-14 0,-6 0,-11 -2,-15 -2,-4 -4,-7 -7,-10 -3,-2 -6,-4 -9,-5 -4,0 -9,-1 -16,-1l-5 0 -5 0 0 62zm-15 12l0 -86 19 0c13,0 22,0 27,1 5,2 9,4 13,7 5,3 9,8 11,14 3,6 4,13 4,21 0,8 -1,15 -4,20 -2,6 -6,11 -11,15 -4,3 -8,5 -13,6 -5,2 -12,2 -23,2l-4 0 -19 0zm143 -26l-45 0c1,5 2,9 5,12 3,3 7,5 11,5 5,0 8,-1 11,-3 3,-1 5,-4 7,-8l11 6c-3,6 -7,10 -12,12 -5,3 -10,5 -16,5 -9,0 -17,-3 -22,-9 -5,-5 -8,-12 -8,-22 0,-8 3,-16 8,-21 6,-6 13,-9 22,-9 9,0 16,3 21,8 5,5 7,12 7,22l0 2zm-13 -9c0,-4 -2,-7 -5,-9 -2,-2 -6,-3 -10,-3 -4,0 -8,1 -10,3 -3,2 -5,5 -6,9l31 0zm39 7c0,6 2,11 5,14 2,3 6,5 11,5 5,0 9,-1 11,-5 3,-3 4,-8 4,-13 0,-6 -1,-11 -4,-14 -3,-4 -6,-5 -11,-5 -5,0 -9,1 -12,4 -2,4 -4,8 -4,14zm-12 55l0 -83 13 0 0 9c1,-3 4,-6 7,-8 3,-2 7,-3 12,-3 7,0 13,3 18,8 5,6 7,13 7,22 0,10 -2,17 -7,22 -5,6 -11,9 -19,9 -4,0 -7,-1 -10,-3 -3,-1 -6,-4 -8,-7l0 34 -13 0zm123 -27l-12 0 0 -7c-3,3 -5,6 -9,7 -3,2 -6,3 -10,3 -8,0 -14,-3 -19,-9 -4,-5 -7,-12 -7,-22 0,-9 3,-16 7,-22 5,-5 11,-8 19,-8 4,0 8,1 11,3 4,2 6,5 8,8l0 -9 12 0 0 56zm-12 -28c0,-6 -1,-10 -4,-14 -3,-3 -7,-4 -12,-4 -4,0 -8,1 -11,5 -3,3 -4,8 -4,14 0,5 1,10 4,13 3,4 6,5 11,5 5,0 9,-2 12,-5 2,-4 4,-8 4,-14zm43 -19c1,-4 3,-6 5,-8 3,-2 6,-3 9,-3 2,0 4,0 5,1 2,0 4,1 6,2l-5 11c-1,-1 -2,-2 -4,-2 -1,0 -2,-1 -4,-1 -4,0 -7,2 -9,5 -2,4 -3,10 -3,18l0 24 -13 0 0 -56 13 0 0 9zm35 47l0 -45 -10 0 0 -11 10 0 0 -21 13 0 0 21 10 0 0 11 -10 0 0 45 -13 0zm47 0l-13 0 0 -56 12 0 0 9c2,-4 5,-6 8,-8 4,-2 8,-3 12,-3 4,0 8,1 11,3 3,2 5,4 7,8 2,-4 6,-7 9,-8 3,-2 7,-3 11,-3 4,0 7,1 10,2 3,1 5,3 7,6 0,1 1,3 1,4 0,2 1,5 1,8l0 4 0 34 -13 0 0 -29c0,-7 -1,-12 -3,-14 -1,-3 -4,-4 -8,-4 -5,0 -9,2 -11,5 -2,3 -3,9 -3,17l0 25 -13 0 0 -29c0,-6 -1,-11 -3,-14 -1,-3 -4,-4 -8,-4 -3,0 -5,1 -7,2 -2,1 -4,2 -5,4 -1,2 -2,3 -2,5 0,2 0,6 0,11l0 25zm147 -26l-45 0c0,5 2,9 5,12 3,3 6,5 11,5 4,0 8,-1 10,-3 3,-1 6,-4 8,-8l10 6c-3,6 -7,10 -11,12 -5,3 -10,5 -17,5 -9,0 -16,-3 -21,-9 -6,-5 -8,-12 -8,-22 0,-8 3,-16 8,-21 6,-6 13,-9 21,-9 9,0 16,3 21,8 6,5 8,12 8,22l0 2zm-13 -9c-1,-4 -2,-7 -5,-9 -2,-2 -6,-3 -10,-3 -5,0 -8,1 -11,3 -2,2 -4,5 -5,9l31 0zm26 35l0 -56 13 0 0 9c2,-4 5,-6 9,-8 3,-2 7,-3 12,-3 4,0 8,1 11,2 3,1 5,3 7,6 1,2 2,3 2,5 0,3 1,6 1,11l0 34 -13 0 0 -29c0,-7 -1,-12 -3,-14 -2,-3 -5,-4 -10,-4 -3,0 -5,1 -8,2 -2,1 -4,2 -5,4 -1,2 -2,4 -2,6 -1,2 -1,5 -1,10l0 25 -13 0zm75 0l0 -45 -10 0 0 -11 10 0 0 -21 13 0 0 21 10 0 0 11 -10 0 0 45 -13 0zm114 -28c0,-5 -1,-9 -5,-13 -3,-3 -7,-5 -12,-5 -5,0 -9,2 -12,5 -4,4 -5,8 -5,13 0,6 1,10 5,14 3,3 7,5 12,5 5,0 9,-2 12,-5 4,-4 5,-8 5,-14zm-48 0c0,-4 1,-8 2,-11 2,-4 4,-7 7,-10 3,-3 6,-5 10,-7 4,-1 8,-2 12,-2 4,0 8,1 12,2 4,2 7,4 10,7 3,3 5,6 7,10 1,3 2,7 2,11 0,4 -1,8 -2,12 -2,4 -4,7 -7,10 -3,3 -6,5 -10,6 -4,2 -8,3 -12,3 -4,0 -8,-1 -12,-3 -4,-1 -7,-3 -10,-6 -3,-3 -5,-6 -7,-10 -1,-4 -2,-8 -2,-12zm77 28l0 -45 -9 0 0 -11 9 0 0 -15c0,-7 2,-13 5,-16 3,-4 8,-6 15,-6 1,0 2,0 4,1 1,0 3,0 4,0l0 12c-1,-1 -2,-1 -3,-1 -1,-1 -2,-1 -3,-1 -3,0 -5,1 -7,3 -1,2 -2,5 -2,10l0 13 14 0 0 11 -14 0 0 45 -13 0zm101 4l-39 -90 15 0 20 46c1,2 2,5 2,7 1,2 2,5 2,7 1,-2 1,-5 2,-7 1,-2 2,-5 3,-7l19 -46 15 0 -39 90zm45 -84c0,-2 1,-4 3,-6 1,-1 3,-2 6,-2 2,0 4,1 5,2 2,2 3,4 3,6 0,2 -1,4 -3,6 -1,1 -3,2 -5,2 -3,0 -5,-1 -6,-2 -2,-2 -3,-4 -3,-6zm2 80l0 -56 13 0 0 56 -13 0zm25 -10l11 -6c0,3 2,5 4,7 2,1 5,2 8,2 3,0 5,-1 7,-2 2,-1 2,-3 2,-6 0,-3 -2,-5 -8,-7 -2,-1 -4,-2 -5,-2 -6,-3 -10,-5 -12,-8 -3,-2 -4,-5 -4,-9 0,-5 2,-9 6,-12 4,-3 9,-5 15,-5 5,0 9,1 12,2 3,2 5,4 6,7l-9 7c0,-2 -2,-4 -3,-5 -2,-1 -4,-1 -6,-1 -2,0 -4,0 -6,2 -1,1 -2,2 -2,4 0,3 3,6 10,8 2,1 4,2 5,2 5,2 9,4 11,7 2,3 3,6 3,10 0,5 -2,10 -6,13 -4,3 -10,5 -17,5 -5,0 -10,-1 -14,-3 -3,-2 -6,-6 -8,-10zm71 -46l0 32c0,5 1,9 3,12 2,2 6,3 11,3 5,0 9,-1 11,-3 2,-3 3,-7 3,-12l0 -32 13 0 0 28c0,11 -2,18 -6,23 -5,5 -12,8 -21,8 -10,0 -17,-3 -21,-8 -4,-4 -6,-12 -6,-23l0 -28 13 0zm111 56l-12 0 0 -7c-3,3 -5,6 -8,7 -4,2 -7,3 -11,3 -8,0 -14,-3 -19,-9 -4,-5 -7,-12 -7,-22 0,-9 3,-16 7,-22 5,-5 11,-8 19,-8 4,0 8,1 11,3 4,2 6,5 8,8l0 -9 12 0 0 56zm-12 -28c0,-6 -1,-10 -4,-14 -3,-3 -7,-4 -12,-4 -4,0 -8,1 -11,5 -3,3 -4,8 -4,14 0,5 1,10 4,13 3,4 6,5 11,5 5,0 9,-2 12,-5 2,-4 4,-8 4,-14zm31 28l0 -92 13 0 0 92 -13 0zm140 -43c-1,0 -1,-2 -1,-5 -1,-3 -1,-5 -1,-6 0,2 -1,4 -2,6 0,2 -1,4 -2,6l-23 46 -22 -47c-1,-2 -2,-4 -3,-6 -1,-2 -1,-4 -2,-5 0,1 0,3 0,5 0,2 -1,4 -1,7l-10 42 -13 0 21 -90 25 55c1,1 1,2 2,4 1,2 2,4 3,7 1,-2 2,-5 4,-9 1,-1 1,-2 1,-2l25 -55 21 90 -13 0 -9 -43zm87 17l-45 0c0,5 2,9 4,12 3,3 7,5 12,5 4,0 7,-1 10,-3 3,-1 5,-4 7,-8l11 6c-3,6 -7,10 -12,12 -4,3 -10,5 -16,5 -9,0 -16,-3 -22,-9 -5,-5 -8,-12 -8,-22 0,-8 3,-16 9,-21 5,-6 12,-9 21,-9 9,0 16,3 21,8 5,5 8,12 8,22l0 2zm-14 -9c0,-4 -2,-7 -4,-9 -3,-2 -7,-3 -11,-3 -4,0 -8,1 -10,3 -3,2 -5,5 -6,9l31 0zm67 7c0,-6 -1,-10 -4,-14 -2,-3 -6,-4 -11,-4 -5,0 -9,1 -12,5 -2,3 -4,8 -4,14 0,5 2,10 4,13 3,4 7,5 12,5 4,0 8,-2 11,-5 3,-4 4,-8 4,-14zm0 -64l13 0 0 92 -13 0 0 -7c-2,3 -5,6 -8,7 -3,2 -7,3 -11,3 -8,0 -14,-3 -18,-9 -5,-5 -7,-12 -7,-22 0,-9 2,-16 7,-22 4,-5 11,-8 18,-8 5,0 9,1 12,3 3,2 6,5 7,8l0 -45zm30 12c0,-2 0,-4 2,-6 2,-1 3,-2 6,-2 2,0 4,1 5,2 2,2 3,4 3,6 0,2 -1,4 -3,6 -1,1 -3,2 -5,2 -3,0 -4,-1 -6,-2 -2,-2 -2,-4 -2,-6zm1 80l0 -56 13 0 0 56 -13 0zm84 0l-12 0 0 -7c-3,3 -5,6 -9,7 -3,2 -6,3 -10,3 -8,0 -14,-3 -19,-9 -4,-5 -7,-12 -7,-22 0,-9 3,-16 7,-22 5,-5 11,-8 19,-8 4,0 8,1 11,3 4,2 6,5 8,8l0 -9 12 0 0 56zm-12 -28c0,-6 -1,-10 -4,-14 -3,-3 -7,-4 -12,-4 -4,0 -8,1 -11,5 -3,3 -4,8 -4,14 0,5 1,10 4,13 3,4 6,5 11,5 5,0 9,-2 12,-5 2,-4 4,-8 4,-14z"/>
   <path class="fil0" d="M200 72l-120 0 0 387 120 0c66,0 118,-17 155,-51 38,-35 56,-82 56,-142 0,-60 -18,-108 -56,-142 -37,-35 -89,-52 -155,-52zm0 -73c40,0 73,4 102,11 28,8 54,19 77,35 37,25 64,56 84,94 20,38 30,80 30,126 0,46 -10,88 -30,127 -20,38 -48,70 -84,94 -23,16 -48,27 -77,35 -29,7 -63,11 -102,11l-196 0 0 -533 196 0zm531 537l-235 -537 80 0 166 380 169 -380 79 0 -240 537 -19 0zm300 -4l0 -533 66 0 192 224 192 -224 66 0 0 533 -74 0 0 -416 -184 215 -184 -215 0 416 -74 0z"/>
  </g>
 </g>
</svg>
