<?xml version="1.0" encoding="UTF-8"?>
<!DOCTYPE svg PUBLIC "-//W3C//DTD SVG 1.1//EN" "http://www.w3.org/Graphics/SVG/1.1/DTD/svg11.dtd">
<!-- Creator: CorelDRAW X7 -->
<svg xmlns="http://www.w3.org/2000/svg" xml:space="preserve" width="100%" height="100%" version="1.1" style="shape-rendering:geometricPrecision; text-rendering:geometricPrecision; image-rendering:optimizeQuality; fill-rule:evenodd; clip-rule:evenodd"
viewBox="0 0 1813 333"
 xmlns:xlink="http://www.w3.org/1999/xlink">
 <defs>
  <style type="text/css">
   <![CDATA[
    .fil0 {fill:#FEFEFE}
   ]]>
  </style>
 </defs>
 <g id="Layer_x0020_1">
  <metadata id="CorelCorpID_0Corel-Layer"/>
  <g id="_1779897347408">
   <polygon class="fil0" points="1813,334 1642,334 1642,301 1745,197 1745,197 1642,197 1642,163 1813,163 1813,194 1710,300 1813,300 "/>
   <polygon class="fil0" points="1608,334 1437,334 1437,163 1505,163 1505,300 1608,300 "/>
   <polygon class="fil0" points="1334,232 1334,197 1300,197 1300,232 "/>
   <polygon class="fil0" points="1403,334 1334,334 1334,266 1300,266 1300,334 1232,334 1232,180 1249,180 1249,163 1385,163 1385,180 1403,180 "/>
   <polygon class="fil0" points="1197,334 1129,334 1129,197 1095,197 1095,334 1026,334 1026,197 992,197 992,334 924,334 924,163 1180,163 1180,180 1197,180 "/>
   <polygon class="fil0" points="821,232 821,197 787,197 787,232 "/>
   <polygon class="fil0" points="889,334 821,334 821,266 787,266 787,334 718,334 718,163 872,163 872,180 889,180 889,232 872,232 872,266 889,266 "/>
   <polygon class="fil0" points="616,300 616,197 582,197 582,300 "/>
   <polygon class="fil0" points="684,317 667,317 667,334 530,334 530,317 513,317 513,180 530,180 530,163 667,163 667,180 684,180 "/>
   <polygon class="fil0" points="479,197 376,197 376,232 428,232 428,266 376,266 376,334 308,334 308,180 325,180 325,163 479,163 "/>
   <polygon class="fil0" points="274,334 205,334 205,197 171,197 171,334 103,334 103,163 257,163 257,180 274,180 "/>
   <polygon class="fil0" points="69,334 0,334 0,163 69,163 "/>
   <path class="fil0" d="M295 65c3,0 6,-2 8,-4 2,-2 3,-5 3,-8l0 -24c0,-3 -1,-6 -3,-8 -2,-2 -5,-3 -8,-3l-76 0 0 47 76 0zm30 -12c0,4 -1,8 -3,12 -1,3 -3,6 -6,9 -3,3 -6,5 -10,6 -3,2 -7,3 -11,3l-94 0 0 -84 94 0c4,0 8,1 11,3 4,1 7,3 10,6 3,3 5,6 6,10 2,3 3,7 3,11l0 24zm107 12l0 18 -70 0c-4,0 -8,-1 -12,-3 -4,-1 -7,-3 -10,-6 -2,-3 -4,-6 -6,-9 -2,-4 -2,-8 -2,-12 0,-4 0,-8 2,-12 2,-4 4,-7 6,-9 3,-3 6,-5 10,-7 4,-1 8,-2 12,-2l59 0c3,0 5,0 7,2 2,1 3,3 4,5 1,2 2,4 1,6 0,3 -1,5 -2,7l-18 22 19 0zm-70 -24c-2,0 -3,0 -5,1 -1,0 -3,1 -4,2 -1,1 -2,3 -2,4 -1,2 -1,3 -1,5 0,3 1,6 3,8 3,2 5,4 9,4l29 0 19 -24 -48 0zm107 24l48 0c3,0 6,-2 8,-4 2,-2 3,-5 3,-8 0,-3 -1,-6 -3,-8 -2,-3 -5,-4 -8,-4l-47 0c-4,0 -6,1 -9,4 -2,2 -3,5 -3,8l0 48 -18 0 0 -48c0,-4 0,-8 2,-12 1,-4 4,-7 6,-9 3,-3 6,-5 10,-7 3,-1 7,-2 12,-2l47 0c4,0 8,1 11,2 4,2 7,4 10,7 3,2 5,5 6,9 2,4 3,8 3,12 0,4 -1,8 -3,12 -1,3 -3,6 -6,9 -3,3 -6,5 -10,6 -3,2 -7,3 -11,3l-48 0 0 -18zm159 18l-47 0c-5,0 -8,-1 -12,-3 -4,-1 -7,-3 -10,-6 -2,-3 -4,-6 -6,-9 -2,-4 -2,-8 -2,-12 0,-4 0,-8 2,-12 2,-4 4,-7 6,-9 3,-3 6,-5 10,-7 4,-1 7,-2 12,-2l47 0c4,0 8,1 11,2 4,2 7,4 10,7 3,2 5,5 6,9 2,4 3,8 3,12l0 30 -19 0 0 -30c0,-3 -1,-6 -3,-8 -2,-3 -5,-4 -8,-4l-47 0c-4,0 -6,1 -9,4 -2,2 -3,5 -3,8 0,3 1,6 3,8 3,2 5,4 9,4l47 0 0 18zm35 0l0 -30c0,-4 1,-8 3,-12 1,-4 3,-7 6,-9 3,-3 6,-5 9,-7 4,-1 8,-2 12,-2l33 0 0 18 -33 0c-3,0 -6,1 -8,4 -2,2 -4,5 -4,8l0 30 -18 0zm85 -60l49 0 0 18 -49 0 0 12c0,3 1,6 4,8 2,2 5,4 8,4l46 0 0 18 -46 0c-4,0 -8,-1 -12,-3 -4,-1 -7,-3 -9,-6 -3,-3 -5,-6 -7,-9 -1,-4 -2,-8 -2,-12l0 -49 18 0 0 19zm116 0c4,0 8,0 12,2 4,1 7,3 10,6 3,-2 6,-5 10,-6 3,-1 7,-2 11,-2l25 0c4,0 8,1 11,2 4,2 7,4 10,7 2,2 5,5 6,9 2,4 3,8 3,12l0 30 -19 0 0 -30c0,-4 -1,-7 -3,-9 -3,-2 -6,-3 -9,-3l-24 0c-3,0 -6,1 -8,4 -3,2 -4,5 -4,8l0 30 -18 0 0 -30c0,-4 -1,-7 -4,-9 -2,-2 -5,-3 -9,-3l-23 0c-4,0 -6,1 -9,4 -2,2 -3,5 -3,8l0 30 -18 0 0 -30c0,-4 0,-8 2,-12 2,-4 4,-7 6,-9 3,-3 6,-5 10,-7 4,-1 8,-2 12,-2l23 0zm204 42l0 18 -70 0c-4,0 -8,-1 -12,-3 -4,-1 -7,-3 -9,-6 -3,-3 -5,-6 -7,-9 -1,-4 -2,-8 -2,-12 0,-4 1,-8 2,-12 2,-4 4,-7 7,-9 2,-3 5,-5 9,-7 4,-1 8,-2 12,-2l59 0c3,0 5,0 7,2 2,1 3,3 4,5 1,2 2,4 1,6 0,3 -1,5 -2,7l-18 22 19 0zm-70 -24c-2,0 -3,0 -5,1 -1,0 -2,1 -4,2 -1,1 -1,3 -2,4 -1,2 -1,3 -1,5 0,3 1,6 3,8 3,2 6,4 9,4l29 0 19 -24 -48 0zm108 -18l40 0c4,0 8,1 12,2 4,2 7,4 10,7 2,2 4,5 6,9 2,4 2,8 2,12l0 30 -18 0 0 -30c0,-3 -1,-6 -3,-8 -3,-3 -5,-4 -9,-4l-40 0c-4,0 -6,1 -9,4 -2,2 -3,5 -3,8l0 30 -18 0 0 -30c0,-4 0,-8 2,-12 2,-4 4,-7 6,-9 3,-3 6,-5 10,-7 4,-1 7,-2 12,-2zm97 0l49 0 0 18 -49 0 0 12c0,3 1,6 4,8 2,2 5,4 8,4l46 0 0 18 -46 0c-4,0 -8,-1 -12,-3 -3,-1 -7,-3 -9,-6 -3,-3 -5,-6 -7,-9 -1,-4 -2,-8 -2,-12l0 -49 18 0 0 19zm169 60c-4,0 -8,-1 -12,-3 -3,-1 -6,-3 -9,-6 -3,-3 -5,-6 -7,-9 -1,-4 -2,-8 -2,-12 0,-4 1,-8 2,-12 2,-4 4,-7 7,-9 3,-3 6,-5 9,-7 4,-1 8,-2 12,-2l51 0c4,0 8,1 11,2 4,2 7,4 10,7 3,2 5,5 6,9 2,4 3,8 3,12 0,4 -1,8 -3,12 -1,3 -3,6 -6,9 -3,3 -6,5 -10,6 -3,2 -7,3 -11,3l-51 0zm0 -42c-3,0 -6,1 -8,4 -2,2 -4,5 -4,8 0,3 2,6 4,8 2,2 5,4 8,4l51 0c3,0 6,-2 8,-4 2,-2 3,-5 3,-8 0,-3 -1,-6 -3,-8 -2,-3 -5,-4 -8,-4l-51 0zm106 60l-19 0 0 -48c0,-4 1,-8 3,-12 1,-4 3,-7 6,-9 3,-3 6,-5 10,-7 3,-1 7,-2 11,-2l61 0 0 18 -61 0c-3,0 -6,1 -8,4 -2,2 -3,5 -3,8l0 10 72 0 0 18 -72 0 0 20z"/>
  </g>
 </g>
</svg>
