<?xml version="1.0" encoding="UTF-8"?>
<!DOCTYPE svg PUBLIC "-//W3C//DTD SVG 1.1//EN" "http://www.w3.org/Graphics/SVG/1.1/DTD/svg11.dtd">
<!-- Creator: CorelDRAW X7 -->
<svg xmlns="http://www.w3.org/2000/svg" xml:space="preserve" width="100%" height="100%" version="1.1" style="shape-rendering:geometricPrecision; text-rendering:geometricPrecision; image-rendering:optimizeQuality; fill-rule:evenodd; clip-rule:evenodd"
viewBox="0 0 6400 8853"
 xmlns:xlink="http://www.w3.org/1999/xlink">
 <defs>
  <style type="text/css">
   <![CDATA[
    .fil1 {fill:#F7B378}
    .fil3 {fill:#4D2D1B}
    .fil0 {fill:#916F41}
    .fil2 {fill:#4D2D1B;fill-rule:nonzero}
   ]]>
  </style>
   <clipPath id="id0">
    <rect x="-6" y="-14" width="6400" height="8855"/>
   </clipPath>
   <clipPath id="id1">
    <path d="M6394 8841l0 -8855 -6400 0 0 8855 6400 0z"/>
   </clipPath>
   <clipPath id="id2">
    <rect x="-6" y="-14" width="6400" height="8855"/>
   </clipPath>
 </defs>
 <g id="back">
  <metadata id="CorelCorpID_0Corel-Layer"/>
  <rect class="fil0" width="6400" height="8846"/>
  <path class="fil1" d="M2445 671l-366 0 0 -42 366 0 0 42zm241 178l-167 0 0 -522 47 0 0 481 120 0 0 41zm242 0l-44 0 0 -9c-18,2 -35,5 -53,7 -21,3 -39,4 -52,4 -24,0 -36,-13 -36,-39l0 -114c0,-26 12,-39 35,-39l107 0 0 -98 -96 0 0 55 -43 0 0 -54c0,-25 12,-37 35,-38l108 0c26,1 39,13 39,38l0 287zm-43 -40l0 -115 -99 0 0 117 99 -2zm295 1c0,26 -13,39 -38,39l-103 0c-26,0 -39,-13 -39,-39l0 -247c0,-25 13,-38 39,-39l103 0c25,1 38,13 38,39l0 64 -43 0 0 -64 -92 0 0 247 92 0 0 -72 43 0 0 72zm258 39l-44 0 0 -9c-17,2 -34,5 -51,7 -21,3 -38,4 -52,4 -26,0 -39,-13 -39,-39l0 -288 44 0 0 285 98 -3 0 -282 44 0 0 325zm259 0l-44 0 0 -285 -98 3 0 282 -45 0 0 -325 45 0 0 10c17,-3 35,-5 53,-8 21,-2 38,-4 52,-4 25,0 37,13 37,39l0 288zm255 0l-43 0 0 -9c-18,2 -35,5 -53,7 -22,3 -39,4 -53,4 -24,0 -36,-13 -36,-39l0 -114c1,-26 12,-39 36,-39l106 0 0 -98 -95 0 0 55 -43 0 0 -54c0,-25 12,-37 35,-38l108 0c25,1 38,13 38,38l0 287zm-43 -40l0 -115 -99 0 0 117 99 -2zm478 -138l-366 0 0 -42 366 0 0 42z"/>
 </g>
 <g id="_42">
  <metadata id="CorelCorpID_1Corel-Layer"/>
  <path class="fil2" d="M1099 1687c276,122 562,216 859,291 297,74 605,128 923,168l-3 27c-320,-41 -629,-95 -927,-169 -298,-75 -585,-170 -862,-292l10 -25z"/>
 </g>
 <g id="_44">
  <metadata id="CorelCorpID_2Corel-Layer"/>
  <path class="fil2" d="M5106 2384c-30,153 -130,319 -257,478 -175,218 -403,423 -573,559l-16 -20c168,-136 394,-339 568,-556 125,-156 223,-318 252,-466l26 5z"/>
 </g>
 <g id="_45">
  <metadata id="CorelCorpID_3Corel-Layer"/>
  <path class="fil2" d="M3919 3607c-32,22 -60,42 -86,61 -274,192 -368,259 -852,280l-1 -27c476,-20 569,-86 837,-275 28,-20 57,-40 87,-61l15 22z"/>
 </g>
 <g id="_46">
  <metadata id="CorelCorpID_4Corel-Layer"/>
  <path class="fil2" d="M2620 3869c-210,-111 -422,-214 -635,-295 -213,-81 -427,-140 -639,-163l3 -27c214,24 430,84 645,165 215,82 428,185 638,297l-12 23z"/>
 </g>
 <g id="_47">
  <metadata id="CorelCorpID_5Corel-Layer"/>
  <path class="fil2" d="M1204 3598c24,318 93,606 193,873 100,267 233,512 385,744l-22 14c-154,-233 -287,-480 -388,-749 -101,-269 -170,-560 -195,-880l27 -2z"/>
 </g>
 <g id="_48">
  <metadata id="CorelCorpID_6Corel-Layer"/>
  <path class="fil2" d="M2041 5398c706,36 916,-101 1373,-400 43,-28 88,-57 138,-89l15 22c-47,30 -94,61 -138,90 -462,301 -675,441 -1389,404l1 -27z"/>
 </g>
 <g id="_49">
  <metadata id="CorelCorpID_7Corel-Layer"/>
  <path class="fil2" d="M5115 4742c-246,-53 -425,-77 -599,-68 -174,8 -344,49 -573,125l-8 -26c231,-76 403,-117 580,-126 176,-8 357,15 606,69l-6 26z"/>
 </g>
 <g id="_50">
  <metadata id="CorelCorpID_8Corel-Layer"/>
  <path class="fil2" d="M5413 4876c28,225 56,460 70,690 15,230 15,454 -11,656l-27 -4c26,-199 26,-422 12,-650 -14,-230 -42,-465 -70,-689l26 -3z"/>
 </g>
 <g id="_51">
  <metadata id="CorelCorpID_9Corel-Layer"/>
  <path class="fil2" d="M5253 6404c-637,42 -765,-3 -1265,-178l-56 -20 9 -25 56 20c496,173 622,218 1255,176l1 27z"/>
 </g>
 <g id="_52">
  <metadata id="CorelCorpID_10Corel-Layer"/>
  <path class="fil2" d="M3579 6110c-346,-99 -741,-71 -1111,34 -428,120 -823,341 -1077,582l-19 -19c258,-245 657,-468 1089,-589 375,-106 774,-134 1126,-33l-8 25z"/>
 </g>
 <g id="_53">
  <metadata id="CorelCorpID_11Corel-Layer"/>
  <path class="fil2" d="M1343 6924c34,16 66,31 97,45 236,111 374,175 784,231l-3 26c-415,-56 -554,-121 -792,-233 -31,-14 -62,-29 -97,-44l11 -25z"/>
 </g>
 <g id="_54">
  <metadata id="CorelCorpID_12Corel-Layer"/>
  <path class="fil2" d="M3338 7804c-115,-120 -201,-203 -309,-284 -109,-81 -240,-161 -444,-275l13 -24c205,115 337,196 447,278 110,82 197,166 312,287l-19 18z"/>
 </g>
 <g id="_43">
  <metadata id="CorelCorpID_13Corel-Layer"/>
  <path class="fil2" d="M3284 2165c377,64 686,83 961,75 275,-7 516,-40 756,-78l4 26c-241,38 -483,71 -759,79 -277,7 -588,-11 -966,-75l4 -27z"/>
 </g>
 <g id="_0">
  <metadata id="CorelCorpID_14Corel-Layer"/>
  <g id="_1963970593056">
   <path class="fil3" d="M908 1421c55,0 106,22 142,59 37,36 59,87 59,142 0,56 -22,106 -59,143 -36,36 -87,59 -142,59 -56,0 -106,-23 -143,-59 -36,-37 -59,-87 -59,-143 0,-55 23,-106 59,-142 37,-37 87,-59 143,-59zm0 33c93,0 168,75 168,168 0,93 -75,168 -168,168 -93,0 -168,-75 -168,-168 0,-93 75,-168 168,-168z"/>
   <circle class="fil1" cx="908" cy="1622" r="134"/>
  </g>
 </g>
 <g id="_1">
  <metadata id="CorelCorpID_15Corel-Layer"/>
  <circle class="fil1" cx="1539" cy="1870" r="67"/>
 </g>
 <g id="_2">
  <metadata id="CorelCorpID_16Corel-Layer"/>
  <circle class="fil1" cx="2356" cy="2078" r="67"/>
 </g>
 <g id="_3">
  <metadata id="CorelCorpID_17Corel-Layer"/>
  <path class="fil3" d="M3081 1958c56,0 106,23 143,59 36,37 59,87 59,143 0,55 -23,106 -59,142 -37,37 -87,59 -143,59 -55,0 -106,-22 -142,-59 -37,-36 -59,-87 -59,-142 0,-56 22,-106 59,-143 36,-36 87,-59 142,-59zm0 33c93,0 168,76 168,169 0,92 -75,168 -168,168 -93,0 -168,-76 -168,-168 0,-93 75,-169 168,-169z"/>
  <circle class="fil1" cx="3081" cy="2160" r="134"/>
 </g>
 <g id="_4">
  <metadata id="CorelCorpID_18Corel-Layer"/>
  <circle class="fil1" cx="3750" cy="2239" r="67"/>
 </g>
 <g id="_5">
  <metadata id="CorelCorpID_19Corel-Layer"/>
  <circle class="fil1" cx="4477" cy="2241" r="67"/>
 </g>
 <g id="_6">
  <metadata id="CorelCorpID_20Corel-Layer"/>
  <path class="fil3" d="M5170 1993c56,0 106,23 143,59 36,37 59,87 59,143 0,56 -23,106 -59,143 -37,36 -87,59 -143,59 -55,0 -106,-23 -142,-59 -37,-37 -59,-87 -59,-143 0,-56 22,-106 59,-143 36,-36 87,-59 142,-59zm0 34c93,0 169,75 169,168 0,93 -76,168 -169,168 -92,0 -168,-75 -168,-168 0,-93 76,-168 168,-168z"/>
  <circle class="fil1" cx="5170" cy="2195" r="134"/>
  <path class="fil3" d="M5170 1993c56,0 106,23 143,59 36,37 59,87 59,143 0,56 -23,106 -59,143 -37,36 -87,59 -143,59 -55,0 -106,-23 -142,-59 -37,-37 -59,-87 -59,-143 0,-56 22,-106 59,-143 36,-36 87,-59 142,-59zm0 34c93,0 169,75 169,168 0,93 -76,168 -169,168 -92,0 -168,-75 -168,-168 0,-93 76,-168 168,-168z"/>
  <circle class="fil1" cx="5170" cy="2195" r="134"/>
 </g>
 <g id="_7">
  <metadata id="CorelCorpID_21Corel-Layer"/>
  <circle class="fil1" cx="5043" cy="2565" r="67"/>
 </g>
 <g id="_8">
  <metadata id="CorelCorpID_22Corel-Layer"/>
  <circle class="fil1" cx="4785" cy="2917" r="67"/>
 </g>
 <g id="_9">
  <metadata id="CorelCorpID_23Corel-Layer"/>
  <circle class="fil1" cx="4475" cy="3218" r="67"/>
 </g>
 <g id="_10">
  <metadata id="CorelCorpID_24Corel-Layer"/>
  <path class="fil3" d="M4082 3287c55,0 106,22 142,59 37,36 59,86 59,142 0,56 -22,106 -59,143 -36,36 -87,59 -142,59 -56,0 -107,-23 -143,-59 -36,-37 -59,-87 -59,-143 0,-56 23,-106 59,-142 36,-37 87,-59 143,-59zm0 33c92,0 168,75 168,168 0,93 -76,168 -168,168 -93,0 -169,-75 -169,-168 0,-93 76,-168 169,-168z"/>
  <circle class="fil1" cx="4082" cy="3488" r="134"/>
 </g>
 <g id="_11">
  <metadata id="CorelCorpID_25Corel-Layer"/>
  <circle class="fil1" cx="3700" cy="3736" r="67"/>
 </g>
 <g id="_12">
  <metadata id="CorelCorpID_26Corel-Layer"/>
  <circle class="fil1" cx="3238" cy="3915" r="67"/>
 </g>
 <g id="_13">
  <metadata id="CorelCorpID_27Corel-Layer"/>
  <path class="fil3" d="M2812 3733c56,0 106,23 143,59 36,37 59,87 59,143 0,55 -23,106 -59,142 -37,37 -87,59 -143,59 -56,0 -106,-22 -142,-59 -37,-36 -59,-87 -59,-142 0,-56 22,-106 59,-143 36,-36 86,-59 142,-59zm0 33c93,0 168,76 168,169 0,92 -75,168 -168,168 -93,0 -168,-76 -168,-168 0,-93 75,-169 168,-169z"/>
  <circle class="fil1" cx="2812" cy="3935" r="134"/>
 </g>
 <g id="_14">
  <metadata id="CorelCorpID_28Corel-Layer"/>
  <circle class="fil1" cx="2419" cy="3751" r="67"/>
 </g>
 <g id="_15">
  <metadata id="CorelCorpID_29Corel-Layer"/>
  <circle class="fil1" cx="2007" cy="3569" r="67"/>
 </g>
 <g id="_16">
  <metadata id="CorelCorpID_30Corel-Layer"/>
  <circle class="fil1" cx="1588" cy="3439" r="67"/>
 </g>
 <g id="_17">
  <metadata id="CorelCorpID_31Corel-Layer"/>
  <path class="fil3" d="M1179 3196c56,0 107,22 143,59 37,36 59,87 59,142 0,56 -22,106 -59,143 -36,36 -87,59 -143,59 -55,0 -106,-23 -142,-59 -37,-37 -59,-87 -59,-143 0,-55 22,-106 59,-142 36,-37 87,-59 142,-59zm0 33c93,0 169,75 169,168 0,93 -76,168 -169,168 -92,0 -168,-75 -168,-168 0,-93 76,-168 168,-168z"/>
  <circle class="fil1" cx="1179" cy="3397" r="134"/>
 </g>
 <g id="_18">
  <metadata id="CorelCorpID_32Corel-Layer"/>
  <circle class="fil1" cx="1254" cy="4035" r="67"/>
 </g>
 <g id="_19">
  <metadata id="CorelCorpID_33Corel-Layer"/>
  <circle class="fil1" cx="1393" cy="4498" r="67"/>
 </g>
 <g id="_20">
  <metadata id="CorelCorpID_34Corel-Layer"/>
  <circle class="fil1" cx="1607" cy="4952" r="67"/>
 </g>
 <g id="_21">
  <metadata id="CorelCorpID_35Corel-Layer"/>
  <path class="fil3" d="M1839 5210c56,0 106,23 142,59 37,37 59,87 59,143 0,55 -22,106 -59,142 -36,37 -86,59 -142,59 -56,0 -106,-22 -143,-59 -36,-36 -59,-87 -59,-142 0,-56 23,-106 59,-143 37,-36 87,-59 143,-59zm0 34c93,0 168,75 168,168 0,93 -75,168 -168,168 -93,0 -168,-75 -168,-168 0,-93 75,-168 168,-168z"/>
  <circle class="fil1" cx="1839" cy="5412" r="134"/>
 </g>
 <g id="_22">
  <metadata id="CorelCorpID_36Corel-Layer"/>
  <circle class="fil1" cx="2479" cy="5395" r="67"/>
 </g>
 <g id="_23">
  <metadata id="CorelCorpID_37Corel-Layer"/>
  <circle class="fil1" cx="3148" cy="5183" r="67"/>
 </g>
 <g id="_24">
  <metadata id="CorelCorpID_38Corel-Layer"/>
  <path class="fil3" d="M3753 4662c56,0 106,22 142,59 37,36 60,87 60,142 0,56 -23,106 -60,143 -36,36 -86,59 -142,59 -56,0 -106,-23 -143,-59 -36,-37 -59,-87 -59,-143 0,-55 23,-106 59,-142 37,-37 87,-59 143,-59zm0 33c93,0 168,75 168,168 0,93 -75,168 -168,168 -93,0 -168,-75 -168,-168 0,-93 75,-168 168,-168z"/>
  <circle class="fil1" cx="3753" cy="4863" r="134"/>
 </g>
 <g id="_25">
  <metadata id="CorelCorpID_39Corel-Layer"/>
  <circle class="fil1" cx="4248" cy="4698" r="67"/>
 </g>
 <g id="_26">
  <metadata id="CorelCorpID_40Corel-Layer"/>
  <circle class="fil1" cx="4769" cy="4669" r="67"/>
 </g>
 <g id="_27">
  <metadata id="CorelCorpID_41Corel-Layer"/>
  <path class="fil3" d="M5320 4528c56,0 106,22 142,59 37,36 59,87 59,142 0,56 -22,106 -59,143 -36,36 -86,59 -142,59 -56,0 -106,-23 -143,-59 -36,-37 -59,-87 -59,-143 0,-55 23,-106 59,-142 37,-37 87,-59 143,-59zm0 33c93,0 168,75 168,168 0,93 -75,168 -168,168 -93,0 -168,-75 -168,-168 0,-93 75,-168 168,-168z"/>
  <circle class="fil1" cx="5320" cy="4729" r="134"/>
 </g>
 <g id="_28">
  <metadata id="CorelCorpID_42Corel-Layer"/>
  <circle class="fil1" cx="5444" cy="5256" r="67"/>
 </g>
 <g id="_29">
  <metadata id="CorelCorpID_43Corel-Layer"/>
  <circle class="fil1" cx="5480" cy="5815" r="67"/>
 </g>
 <g id="_30">
  <metadata id="CorelCorpID_44Corel-Layer"/>
  <path class="fil3" d="M5454 6189c56,0 106,23 143,59 36,37 59,87 59,143 0,55 -23,106 -59,142 -37,37 -87,59 -143,59 -56,0 -106,-22 -143,-59 -36,-36 -59,-87 -59,-142 0,-56 23,-106 59,-143 37,-36 87,-59 143,-59zm0 33c93,0 168,76 168,169 0,93 -75,168 -168,168 -93,0 -168,-75 -168,-168 0,-93 75,-169 168,-169z"/>
  <circle class="fil1" cx="5454" cy="6391" r="134"/>
 </g>
 <g id="_31">
  <metadata id="CorelCorpID_45Corel-Layer"/>
  <circle class="fil1" cx="4646" cy="6393" r="67"/>
 </g>
 <g id="_32">
  <metadata id="CorelCorpID_46Corel-Layer"/>
  <path class="fil3" d="M3769 5973c56,0 106,22 143,59 36,36 59,87 59,143 0,55 -23,106 -59,142 -37,37 -87,59 -143,59 -55,0 -106,-22 -142,-59 -37,-36 -59,-87 -59,-142 0,-56 22,-107 59,-143 36,-37 87,-59 142,-59zm0 33c93,0 168,76 168,169 0,92 -75,168 -168,168 -93,0 -168,-76 -168,-168 0,-93 75,-169 168,-169z"/>
  <circle class="fil1" cx="3769" cy="6175" r="134"/>
 </g>
 <g id="_33">
  <metadata id="CorelCorpID_47Corel-Layer"/>
  <circle class="fil1" cx="3194" cy="6044" r="67"/>
 </g>
 <g id="_34">
  <metadata id="CorelCorpID_48Corel-Layer"/>
  <circle class="fil1" cx="2561" cy="6105" r="67"/>
 </g>
 <g id="_35">
  <metadata id="CorelCorpID_49Corel-Layer"/>
  <circle class="fil1" cx="2072" cy="6272" r="67"/>
 </g>
 <g id="_36">
  <metadata id="CorelCorpID_50Corel-Layer"/>
  <circle class="fil1" cx="1591" cy="6556" r="67"/>
 </g>
 <g id="_37">
  <metadata id="CorelCorpID_51Corel-Layer"/>
  <path class="fil3" d="M1195 6592c56,0 106,23 143,59 36,37 59,87 59,143 0,56 -23,106 -59,142 -37,37 -87,59 -143,59 -56,0 -106,-22 -142,-59 -37,-36 -59,-86 -59,-142 0,-56 22,-106 59,-143 36,-36 86,-59 142,-59zm0 34c93,0 168,75 168,168 0,93 -75,168 -168,168 -93,0 -168,-75 -168,-168 0,-93 75,-168 168,-168z"/>
  <circle class="fil1" cx="1195" cy="6794" r="134"/>
 </g>
 <g id="_38">
  <metadata id="CorelCorpID_52Corel-Layer"/>
  <circle class="fil1" cx="1766" cy="7119" r="67"/>
 </g>
 <g id="_39">
  <metadata id="CorelCorpID_53Corel-Layer"/>
  <path class="fil3" d="M2424 7011c56,0 106,23 143,60 36,36 59,86 59,142 0,56 -23,106 -59,143 -37,36 -87,59 -143,59 -55,0 -106,-23 -142,-59 -37,-37 -59,-87 -59,-143 0,-56 22,-106 59,-142 36,-37 87,-60 142,-60zm0 34c93,0 168,75 168,168 0,93 -75,168 -168,168 -93,0 -168,-75 -168,-168 0,-93 75,-168 168,-168z"/>
  <circle class="fil1" cx="2424" cy="7213" r="134"/>
 </g>
 <g id="_40">
  <metadata id="CorelCorpID_54Corel-Layer"/>
  <circle class="fil1" cx="3030" cy="7479" r="67"/>
 </g>
 <g id="_41">
  <metadata id="CorelCorpID_55Corel-Layer"/>
  <path class="fil3" d="M3350 7761c55,0 106,22 142,59 37,36 59,87 59,142 0,56 -22,106 -59,143 -36,36 -87,59 -142,59 -56,0 -106,-23 -143,-59 -36,-37 -59,-87 -59,-143 0,-55 23,-106 59,-142 37,-37 87,-59 143,-59zm0 33c93,0 168,75 168,168 0,93 -75,168 -168,168 -93,0 -169,-75 -169,-168 0,-93 76,-168 169,-168z"/>
  <circle class="fil1" cx="3350" cy="7962" r="134"/>
 </g>
 <g id="b1">
  <metadata id="CorelCorpID_56Corel-Layer"/>
  <polygon class="fil3" points="5187,1740 5220,1789 5277,1772 5241,1819 5274,1867 5219,1847 5183,1894 5185,1835 5129,1815 5186,1799 "/>
 </g>
 <g id="b2">
  <metadata id="CorelCorpID_57Corel-Layer"/>
  <polygon class="fil3" points="5457,1879 5490,1927 5546,1911 5510,1957 5543,2006 5488,1986 5452,2032 5454,1973 5399,1954 5455,1937 "/>
 </g>
 <g id="b3">
  <metadata id="CorelCorpID_58Corel-Layer"/>
  <polygon class="fil3" points="2899,4198 2943,4237 2993,4207 2970,4260 3014,4299 2955,4293 2932,4347 2919,4290 2861,4285 2912,4255 "/>
 </g>
 <g id="b4">
  <metadata id="CorelCorpID_59Corel-Layer"/>
  <polygon class="fil3" points="2577,4160 2621,4199 2671,4169 2648,4223 2692,4262 2633,4256 2610,4310 2597,4253 2539,4247 2590,4217 "/>
 </g>
 <g id="b5">
  <metadata id="CorelCorpID_60Corel-Layer"/>
  <polygon class="fil3" points="1536,5553 1580,5592 1631,5562 1607,5616 1651,5655 1593,5649 1570,5703 1557,5646 1498,5640 1549,5611 "/>
 </g>
 <g id="b6">
  <metadata id="CorelCorpID_61Corel-Layer"/>
  <polygon class="fil3" points="1832,5651 1876,5690 1927,5660 1903,5714 1947,5752 1889,5747 1866,5801 1853,5743 1794,5738 1845,5708 "/>
 </g>
 <g id="b7">
  <metadata id="CorelCorpID_62Corel-Layer"/>
  <polygon class="fil3" points="5384,4309 5410,4362 5468,4354 5426,4394 5451,4447 5400,4419 5358,4460 5368,4403 5316,4375 5374,4367 "/>
 </g>
 <g id="b8">
  <metadata id="CorelCorpID_63Corel-Layer"/>
  <polygon class="fil3" points="5667,4467 5693,4520 5751,4511 5709,4552 5735,4605 5683,4577 5641,4618 5651,4560 5599,4533 5657,4525 "/>
 </g>
 <g id="b9">
  <metadata id="CorelCorpID_64Corel-Layer"/>
  <polygon class="fil3" points="3864,6448 3908,6487 3959,6457 3935,6511 3979,6549 3921,6544 3898,6597 3885,6540 3827,6535 3877,6505 "/>
 </g>
 <g id="b10">
  <metadata id="CorelCorpID_65Corel-Layer"/>
  <polygon class="fil3" points="3542,6410 3586,6449 3637,6419 3613,6473 3657,6512 3599,6506 3576,6560 3563,6503 3505,6497 3555,6468 "/>
 </g>
 <g id="b11">
  <metadata id="CorelCorpID_66Corel-Layer"/>
  <polygon class="fil3" points="2157,7402 2193,7448 2248,7428 2215,7476 2252,7522 2195,7506 2163,7555 2161,7496 2104,7480 2159,7460 "/>
 </g>
 <g id="b12">
  <metadata id="CorelCorpID_67Corel-Layer"/>
  <polygon class="fil3" points="2467,7496 2503,7543 2558,7522 2525,7571 2562,7617 2505,7601 2473,7650 2471,7591 2414,7575 2469,7555 "/>
 </g>
 <g id="texture">
  <metadata id="CorelCorpID_68Corel-Layer"/>
  <g style="clip-path:url(#id0)">
  </g>
  <g style="clip-path:url(#id1)">
   <image x="-6" y="-14" width="6400" height="11014" xlink:href="map_Images\map_ImgID1.jpg"/>
  </g>
  <g style="clip-path:url(#id2)">
  </g>
 </g>
</svg>
