<svg xmlns="http://www.w3.org/2000/svg" viewBox="0 0 2920 2340" shape-rendering="geometricPrecision" text-rendering="geometricPrecision" image-rendering="optimizeQuality" fill-rule="evenodd" clip-rule="evenodd"><defs><style>.fil0,.fil1{fill:#fefefe}.fil1{fill-rule:nonzero}</style></defs><g id="Layer_x0020_1"><g id="_60962903568"><g id="_60162556224"><path class="fil0" d="M822 1165h202c21 0 27 8 27 28v181c0 30 1 39-33 39H830c-10 0-20 2-27-9-7-10-4-45-4-60v-151c0-17 6-28 23-28zm-20-10c-25 3-21 27-21 51v144c0 23-1 49 0 72 2 28 32 23 49 23h180c20 0 49 5 55-17 2-9 1-158 1-179 0-22 1-49 0-71-2-29-31-24-49-24l-215 1zM800 1094c-1-7-1-172-1-187 0-16-4-41 21-43 19-1 41 0 61 0h126c16 0 41-4 44 19 1 11 0 162 0 187 0 15 4 41-20 42-20 1-42 0-62 0-17 0-149 1-156-1-6-2-12-8-13-17zm-2-239c-9 3-15 8-17 19 0 4-1 243 0 251 5 24 34 19 53 19h72c18 0 136 1 143-1 21-7 17-31 17-54 0-19 1-207-1-216-1-9-8-17-17-19-7-2-96-1-108-1h-72c-13 0-62-1-70 2zM755 1398c-5 19-26 15-47 15-24 0-179 2-188 0-20-4-16-26-16-46 0-30-2-179 1-187 6-19 27-15 47-15 23 0 178-1 187 1 20 4 17 25 17 45v63c0 16 1 118-1 124zm-249-243c-25 5-20 28-20 52v144c0 22-2 51 0 72 2 27 32 22 50 22 17 0 208 1 215-1 25-5 19-32 19-52v-180c0-22 6-49-15-56-7-3-26-2-34-2-17 0-209 0-215 1zM1111 1166c9-2 165-1 188-1 20 0 41-3 47 15 2 8 0 165 0 187 0 19 4 41-15 45-10 3-50 1-63 1-17 0-149 1-157 0-7-1-13-7-16-15-2-7 0-165 0-187 0-21-4-40 16-45zm-14-11c-26 4-21 30-21 51v144c0 23-1 49 0 72 1 10 7 18 15 21 9 4 93 2 106 2 11 0 137 1 144 0 25-4 20-34 20-52v-144c0-22 1-50 0-72-1-11-7-18-15-21s-94-2-106-2c-10 0-138 0-143 1z"/><path class="fil0" d="M916 1305h-24c0 2 29 50 33 53 2-2 30-50 30-53h-25v-85h-14v85zM906 946c-4 7-12 19-14 27h24c2 7 0 33 0 43v42h14l1-85h24c-2-7-12-20-16-28l-17-26-16 27zM559 1291c8 4 49 29 53 30v-25h85l1-14h-86v-25c-3 1-33 21-40 25l-12 7c-1 2 0 1-1 2zM1235 1321c3-1 22-13 26-16l27-17c-4-4-52-30-53-30l-1 24h-85v14h85l1 25z"/><g><path class="fil0" d="M1215 2052h204c21 0 27 8 27 28 0 49-1 98 0 147v36c0 31 1 40-33 40h-190c-11 0-21 1-28-10-6-9-3-45-3-61v-152c0-18 5-28 23-28zm-21-11c-25 4-21 28-21 52v146c0 23-1 50 0 73 2 28 32 23 49 23h183c21 0 50 6 56-17 2-9 1-160 1-181 0-23 1-50 0-73-2-28-32-23-50-23h-218zM1147 2288c-6 19-27 15-48 15-24 0-181 1-190 0-20-4-17-26-17-47 0-30-1-181 1-190 7-19 27-14 48-14 24 0 181-2 190 0 20 5 16 26 16 46v64c0 16 1 119 0 126zm-253-247c-25 5-20 29-20 53v146c0 22-2 51 0 73 2 27 32 22 51 22 17 0 210 1 218 0 25-6 19-33 19-53v-183c0-22 6-49-16-57-6-2-26-1-34-1-17 0-211-1-218 0z"/><path class="fil0" d="M996 2106h47v24h-18v95h18v24h-47zM1343 2106h-47v24h19v95h-19v24h47z"/></g><g><path class="fil0" d="M1901 2190c-4-3-7-5-10-8l-31-27c-16-14-41-11-54 5-14 19-3 43 8 57l30 36c14 15 28 30 44 43 6 6 12 12 20 18 9 6 21 0 21-11 0-10-18-20-27-29-4-4-6-7-10-10-11-10-20-21-28-30l-19-20c-6-8-23-27-18-37 2-4 8-6 13-4 6 2 26 22 32 26 3 3 6 6 10 9l20 18c3 3 5 7 12 8 16 0 14-18 14-24v-39-153c0-12-1-25 10-27 6-2 11 1 14 3 3 4 4 10 4 17-1 26-1 52 0 78 0 13-3 66 2 73 7 9 21 6 23-4 3-10-2-66 3-74 4-9 18-10 24 0 4 8 1 61 2 75 1 11 13 18 21 10 7-6 5-23 5-33 0-9-2-30 3-36 5-8 20-7 24 3 6 17-8 61 9 68 5 2 10 1 14-2 11-10-4-41 11-48 26-14 22 40 22 51 0 43-1 100-13 140-4 10-9 22 3 26 13 6 18-6 21-16 13-42 15-91 16-137 0-29 4-75-26-89-11-5-20-4-32-1-10-23-27-32-57-23-3-7-10-14-17-17-12-6-19-5-32-2 0-36 6-64-17-82-21-15-54-6-62 23-4 12-2 170-2 196zM1830 1977c-12 7-50 70-61 91-4 10-11 29-16 36l-3-4c-1 0-4-2-5-2-10-3-22 4-15 20 2 6 5 13 8 20s5 15 13 16c1 0 63-12 46-34-4-6-13-7-20-3 1-10 26-57 32-66 8-13 34-52 42-58 2 21 25 17 26 3 1-10-2-40-7-46-5-5-12-4-21-3-7 1-17 1-24 3-15 3-15 21-1 25l6 2z"/></g><g><path class="fil0" d="M1783 1182c3-25 2-16-21-39-6-5-6-7-10-12-43-68-3-145 59-161 50-13 97 10 117 42 12 19 20 39 19 67-3 31-14 43-26 63l17 11 17-32c5-13 8-25 10-39 2-31-7-59-20-79-23-33-75-69-138-52-45 13-83 51-91 104-3 30 3 57 17 80 11 18 30 40 50 47zM1986 996h448c5 0 9 5 9 12s-4 13-9 13h-448c-5 0-9-6-9-13s4-12 9-12zM2003 1037h430c5 0 9 5 9 12s-4 13-9 13h-430c-5 0-9-6-9-13s4-12 9-12zM2020 1077h413c5 0 9 5 9 12s-4 13-9 13h-413c-5 0-9-6-9-13s4-12 9-12zM2013 1117h420c5 0 9 6 9 12 0 7-4 13-9 13h-420c-5 0-9-6-9-13 0-6 4-12 9-12z"/><path class="fil0" d="M1799 1148c2-18 2-11-14-28-4-3-5-5-8-9-30-47-1-102 43-114 35-9 68 8 83 30 8 13 14 28 13 48-2 22-10 30-18 44l11 8 13-23c4-9 6-17 7-27 1-22-5-42-14-56-17-24-53-49-98-37-32 9-60 36-65 74-2 21 2 41 12 57 8 13 21 28 35 33z"/><path class="fil0" d="M1804 1275c-5-3-7-4-10-8l-30-26c-15-13-39-10-51 6-14 18-3 41 7 54l29 34c13 15 27 29 42 42 6 6 12 12 19 17 9 6 21 0 20-11 0-9-17-18-26-27-4-4-5-7-9-10-11-10-19-20-27-28l-18-20c-6-8-23-26-17-35 2-4 7-6 12-4 6 2 25 21 30 25 4 3 6 6 10 9l19 17c3 3 5 7 12 7 15 0 13-16 13-23v-37-146c0-12-1-24 10-26 6-2 11 0 13 3 4 4 4 10 4 16-1 24 0 50 0 74 0 13-3 64 2 71 7 8 20 5 22-4 3-10-2-63 3-71 4-8 18-10 23 0 4 7 1 59 2 72 0 10 12 17 20 9 7-5 5-22 5-32 0-8-2-28 2-34 6-7 20-6 23 3 7 17-7 58 9 65 5 2 10 1 13-2 11-10-3-39 11-46 25-14 21 38 21 49 1 41-1 96-13 134-3 10-8 21 4 25 12 5 17-6 20-15 12-41 14-87 15-131 0-28 4-72-25-86-11-5-19-3-30 0-10-22-26-32-55-22-3-8-10-14-16-17-12-6-19-5-31-2 0-34 6-62-17-78-19-15-51-6-59 22-3 11-1 162-1 187z"/></g><path class="fil1" d="M7 384c-3 0-6-3-6-6 0-4 3-7 6-7h2905c4 0 7 3 7 7 0 3-3 6-7 6H7z"/><path class="fil0" d="M318 207V4h26l134 157V4h29v203h-26L347 49v158h-29zm293-27v-40c-18 6-30 11-37 16s-10 10-10 16 1 10 5 13c3 3 8 5 15 5 5 0 9-1 14-3 4-2 9-4 13-7zm1 16c-7 5-13 8-19 10s-13 3-20 3c-12 0-21-3-28-8-7-6-10-14-10-24s4-18 11-25 18-13 33-18l32-11v-2-4c0-8-1-13-5-17s-11-5-20-5c-7 0-15 1-23 4-8 4-16 8-24 14V87c7-6 15-10 23-13 9-3 18-4 27-4 18 0 30 4 38 11 8 8 12 20 12 37v57c0 5 0 8 1 10s2 3 4 3 4 0 5-1c2-1 5-3 9-6v16c-5 4-10 7-14 9-5 2-10 3-16 3-5 0-9-1-11-3-3-2-4-5-5-10zm105 14L653 73h30l41 89 39-89h29l-62 137h-13zm88-177c0-4 2-8 5-11 2-3 6-4 10-4 5 0 8 1 11 4s5 7 5 11-2 8-5 11-6 4-11 4c-4 0-8-1-10-4-3-3-5-7-5-11zm2 174V73h27v134h-27zm70 25c0 6 3 11 10 15 6 3 16 5 29 5 12 0 22-2 29-5s11-8 11-14-4-11-12-14-20-5-36-5c-9 0-17 2-22 5-6 4-9 8-9 13zm16-68c-10-3-18-8-23-15-6-7-8-16-8-27 0-16 5-28 17-37 11-8 27-12 50-12h53v21h-23c4 4 7 9 8 13 2 4 3 9 3 15 0 11-3 21-10 29-7 7-16 12-28 15-2 0-6 1-10 1-14 2-22 6-22 11s11 10 31 14c5 1 9 2 12 2 13 3 23 8 30 14 6 6 10 15 10 24 0 14-6 25-17 32-12 7-28 10-50 10-21 0-37-3-49-10-11-7-16-17-16-30 0-10 3-17 10-23 6-6 16-11 28-13-5-2-9-5-11-7-2-3-4-6-4-9 0-4 2-7 5-10s7-5 14-8zm23-69c-8 0-15 3-20 7-5 5-8 11-8 19s3 14 8 18c5 5 11 7 20 7s16-2 21-7c5-4 8-10 8-18s-3-14-8-19c-6-4-13-7-21-7zm152 85v-40c-18 6-31 11-37 16-7 5-11 10-11 16s2 10 6 13c3 3 8 5 14 5 5 0 10-1 14-3 5-2 9-4 14-7zm1 16c-7 5-13 8-19 10s-13 3-20 3c-12 0-21-3-28-8-7-6-10-14-10-24s3-18 11-25c7-7 18-13 33-18l32-11v-2-4c0-8-2-13-6-17s-10-5-19-5c-8 0-15 1-23 4-8 4-16 8-24 14V87c7-6 14-10 23-13 8-3 18-4 27-4 17 0 30 4 38 11 8 8 12 20 12 37v57c0 5 0 8 1 10s2 3 4 3 3 0 5-1 5-3 9-6v16c-5 4-10 7-15 9s-10 3-15 3-9-1-12-3c-2-2-4-5-4-10zm136 7c-4 2-9 4-14 5-4 1-10 2-15 2-15 0-26-4-32-11s-9-20-9-39V96h-23v-3l47-52h3v32h42v23h-42v62c0 11 1 18 4 21s8 5 15 5c5 0 9-1 12-2 4-1 8-2 12-5v26zm21-170c0-4 1-8 4-11s6-4 11-4c4 0 8 1 11 4 2 3 4 7 4 11s-2 8-4 11c-3 3-7 4-11 4-5 0-8-1-11-4s-4-7-4-11zm1 174V73h27v134h-27zm82-67c0 12 4 23 12 32 9 8 19 13 31 13 11 0 22-5 30-13 9-9 13-20 13-32 0-13-4-23-13-32-8-9-18-13-30-13s-22 4-31 13c-8 9-12 19-12 32zm-28 0c0-20 7-36 20-50 14-13 31-20 51-20 9 0 18 2 27 5 9 4 16 9 22 15 7 7 12 15 16 23 3 9 5 17 5 27 0 9-2 18-5 27-4 8-9 16-16 22-7 7-14 12-22 15-8 4-17 6-27 6-20 0-37-7-51-21-13-13-20-30-20-49zm166 67V73h27v16c7-6 14-11 20-14 7-3 14-4 22-4 14 0 26 4 34 12 8 9 13 20 13 35v89h-27v-82c0-11-3-19-7-24-5-5-12-8-22-8-6 0-12 1-18 4-5 3-10 7-15 13v97h-27zm402-48v32c-12 7-24 11-37 15-12 3-24 4-36 4s-23-1-34-4c-10-3-20-8-30-14-15-10-26-22-35-38-8-15-12-32-12-50 0-13 2-26 8-39 5-13 13-24 23-34 11-10 23-18 37-23 13-5 28-8 45-8 11 0 22 2 34 4 11 3 23 7 35 13v31c-13-7-25-12-36-15-12-4-23-5-33-5-24 0-44 7-59 22-16 15-23 33-23 55s7 41 22 56c16 14 35 22 58 22 12 0 24-2 36-6s24-10 37-18zm48-19c0 12 4 23 12 32 9 8 19 13 31 13s22-5 30-13c9-9 13-20 13-32 0-13-4-23-13-32-8-9-18-13-30-13s-22 4-31 13c-8 9-12 19-12 32zm-28 0c0-20 7-36 20-50 14-13 31-20 51-20 10 0 18 2 27 5 9 4 16 9 23 15 7 7 12 15 16 23 3 9 5 17 5 27 0 9-2 18-5 27-4 8-9 16-16 22-7 7-14 12-23 15-8 4-17 6-27 6-20 0-37-7-51-21-13-13-20-30-20-49zm167 67V73h27v16c7-6 14-11 20-14 7-3 14-4 22-4 14 0 26 4 34 12 8 9 13 20 13 35v89h-27v-82c0-11-2-19-7-24s-12-8-21-8c-7 0-13 1-19 4-5 3-10 7-15 13v97h-27zm223-4c-4 2-9 4-13 5-5 1-10 2-16 2-15 0-26-4-32-11s-9-20-9-39V96h-23v-3l47-52h3v32h42v23h-42v62c0 11 2 18 4 21 3 3 8 5 16 5 4 0 8-1 12-2s7-2 11-5v26zm22 4V73h27v29c7-12 14-20 20-25 6-4 12-7 19-7 5 0 10 1 15 4 5 2 10 5 16 9l-15 24c-4-4-8-6-12-8s-8-3-13-3c-7 0-13 4-19 10-5 6-9 14-11 25v76h-27zm131-67c0 12 4 23 12 32 9 8 19 13 31 13s22-5 30-13c9-9 13-20 13-32 0-13-4-23-13-32-8-9-18-13-30-13s-22 4-31 13c-8 9-12 19-12 32zm-28 0c0-20 7-36 20-50 14-13 31-20 51-20 10 0 19 2 27 5 9 4 16 9 23 15 7 7 12 15 16 23 3 9 5 17 5 27 0 9-2 18-5 27-4 8-9 16-16 22-7 7-14 12-23 15-8 4-17 6-27 6-20 0-37-7-51-21-13-13-20-30-20-49zm168 67V4h27v203h-27zm54-9v-29c8 5 15 9 23 12 7 3 14 4 20 4 7 0 13-1 16-3 4-3 6-6 6-11 0-6-7-12-22-19-4-2-7-4-9-5-13-7-22-13-26-19-5-6-7-13-7-22 0-11 4-20 12-26 8-7 19-10 33-10 8 0 15 1 22 2 7 2 14 5 20 9v26c-8-5-15-8-22-10s-14-3-20-3c-5 0-10 1-13 2-3 2-4 5-4 9 0 7 9 15 28 24l2 1c15 7 24 14 29 19 4 6 7 13 7 22 0 11-5 21-14 28s-20 11-35 11c-8 0-16-1-24-3s-15-5-22-9zM360 542h22c12 0 21 0 25 1 7 2 12 5 16 10s6 11 6 18-2 13-6 18-9 8-16 10c-5 1-14 1-28 1h-8v51h-11V542zm11 10v38h19c7 0 13-1 16-2 4-2 6-4 8-7s3-6 3-10-1-7-3-10-4-5-8-7c-3-1-8-2-15-2h-20zm158 18v81h-10v-14c-4 6-9 10-15 12-5 3-11 4-17 4-12 0-22-4-30-12-8-9-12-19-12-30 0-12 4-22 12-30 8-9 18-13 30-13 6 0 12 2 18 4 5 3 10 7 14 13v-15h10zm-41 8c-6 0-12 2-16 5-5 2-9 6-12 12-3 5-4 10-4 16s1 11 4 16 7 9 12 12 10 5 16 5c5 0 11-2 16-5s9-6 12-11c2-5 4-11 4-17 0-9-3-17-10-23-6-7-13-10-22-10zm65-8h10v15c4-6 9-10 14-13 5-2 11-4 17-4s11 2 16 5 8 7 10 12c3 5 4 14 4 25v41h-11v-38c0-10 0-16-1-19-1-5-4-9-7-12s-8-4-13-4c-7 0-12 2-17 6s-9 9-10 16c-1 4-2 11-2 22v29h-10v-81zm216 0v81h-11v-14c-4 6-9 10-14 12-6 3-12 4-18 4-12 0-21-4-29-12-9-9-13-19-13-30 0-12 5-22 13-30 8-9 18-13 29-13 7 0 13 2 18 4 6 3 10 7 14 13v-15h11zm-42 8c-6 0-11 2-16 5-5 2-9 6-12 12-3 5-4 10-4 16s1 11 4 16 7 9 12 12 10 5 16 5 11-2 16-5 9-6 12-11 4-11 4-17c0-9-3-17-9-23-6-7-14-10-23-10zm61-8h11v12c3-5 6-8 10-10 4-3 7-4 11-4 3 0 6 1 9 3l-5 9c-2-1-4-2-6-2-3 0-6 2-10 5-3 2-5 7-7 13-1 5-2 14-2 28v27h-11v-81zm89-2c12 0 22 5 31 14 7 8 11 18 11 29s-4 21-12 30c-8 8-18 12-30 12-13 0-23-4-31-12-8-9-12-19-12-30s4-21 11-29c9-9 19-14 32-14zm-1 10c-8 0-16 4-22 10s-9 14-9 23c0 6 1 11 4 17 3 5 7 8 12 11 4 3 10 4 15 4 6 0 12-1 16-4 5-3 9-6 12-11 3-6 4-11 4-17 0-9-3-17-9-23s-14-10-23-10zm61-8h10v38c0 9 0 16 1 19 2 5 5 9 9 12s9 4 15 4 11-1 15-4 7-7 8-11c1-3 2-10 2-20v-38h11v40c0 11-2 20-4 25-3 6-7 10-12 13-5 4-12 5-20 5s-14-1-20-5c-5-3-9-7-11-13-3-6-4-14-4-26v-39zm94 0h10v15c4-6 9-10 14-13 5-2 10-4 16-4 7 0 12 2 17 5 4 3 8 7 10 12s3 14 3 25v41h-10v-38c0-10 0-16-1-19-1-5-4-9-7-12-4-3-8-4-14-4s-12 2-17 6-8 9-9 16c-1 4-2 11-2 22v29h-10v-81zm173-31v112h-10v-14c-4 6-9 10-15 12-5 3-11 4-17 4-12 0-22-4-30-12-8-9-12-19-12-30 0-12 4-22 12-30 9-9 18-13 30-13 7 0 13 2 18 5 5 2 10 7 14 12v-46h10zm-41 39c-6 0-11 2-16 5-5 2-9 6-12 12-3 5-4 10-4 16s1 11 4 16 7 9 12 12 10 5 16 5c5 0 11-2 16-5s9-6 12-11c2-5 4-11 4-17 0-9-3-17-10-23-6-7-13-10-22-10zm188-8v81h-10v-14c-5 6-10 10-15 12-6 3-11 4-18 4-11 0-21-4-29-12-8-9-12-19-12-30 0-12 4-22 12-30 8-9 18-13 29-13 7 0 13 2 18 4 6 3 11 7 15 13v-15h10zm-42 8c-6 0-11 2-16 5-5 2-9 6-11 12-3 5-5 10-5 16s2 11 5 16c2 5 6 9 11 12s11 5 16 5c6 0 11-2 16-5s9-6 12-11 4-11 4-17c0-9-3-17-9-23-6-7-14-10-23-10zm65-8h11v15c4-6 9-10 14-13 5-2 10-4 16-4s12 2 16 5c5 3 9 7 11 12s3 14 3 25v41h-10v-38c0-10-1-16-1-19-2-5-4-9-7-12-4-3-8-4-14-4s-12 2-17 6-8 9-10 16c-1 4-1 11-1 22v29h-11v-81zm173-31v112h-10v-14c-4 6-9 10-15 12-5 3-11 4-18 4-11 0-21-4-29-12-8-9-12-19-12-30 0-12 4-22 12-30 8-9 18-13 30-13 6 0 12 2 18 5 5 2 10 7 14 12v-46h10zm-41 39c-6 0-12 2-16 5-5 2-9 6-12 12-3 5-5 10-5 16s2 11 5 16 7 9 12 12 10 5 15 5c6 0 12-2 17-5s9-6 11-11c3-5 5-11 5-17 0-9-4-17-10-23-6-7-13-10-22-10zm107-8h10v15c5-6 9-10 14-13 5-2 11-4 17-4s11 2 16 5 8 7 11 12c2 5 3 14 3 25v41h-10v-38c0-10-1-16-2-19-1-5-3-9-7-12-3-3-8-4-13-4-6 0-12 2-17 6s-8 9-10 16c-1 4-2 11-2 22v29h-10v-81zm174 0v81h-11v-14c-4 6-9 10-14 12-6 3-12 4-18 4-12 0-21-4-29-12-9-9-13-19-13-30 0-12 5-22 13-30 8-9 18-13 29-13 7 0 13 2 18 4 6 3 10 7 14 13v-15h11zm-42 8c-6 0-11 2-16 5-5 2-9 6-12 12-3 5-4 10-4 16s1 11 4 16 7 9 12 12 10 5 16 5 11-2 16-5 9-6 12-11 4-11 4-17c0-9-3-17-9-23-6-7-14-10-23-10zm58-8h11l27 59 27-59h11l-37 81h-2l-37-81zm95-33c3 0 5 1 6 3 2 1 3 3 3 6 0 2-1 4-3 6-1 1-3 2-6 2-2 0-4-1-6-2-1-2-2-4-2-6 0-3 1-5 2-6 2-2 4-3 6-3zm-5 33h11v81h-11v-81zm102 0h11v65c0 11-1 19-3 25-3 7-8 13-15 17-6 4-14 6-24 6-7 0-13-1-19-3-5-2-10-5-13-8s-7-8-10-15h12c3 6 7 10 12 12 4 3 11 4 18 4s13-1 18-4c5-2 8-6 10-10s3-10 3-19v-4c-4 5-8 9-14 11-6 3-12 4-18 4-8 0-15-2-21-5-7-4-12-9-15-15-4-6-6-13-6-21 0-7 2-14 6-21 4-6 9-11 15-15 7-4 14-6 21-6 6 0 12 2 17 4s10 7 15 12v-14zm-30 8c-6 0-12 2-17 5-5 2-9 6-12 11s-4 11-4 17c0 9 3 16 9 22s13 8 23 8c9 0 17-2 23-8s9-13 9-23c0-6-2-11-4-16-3-5-7-9-12-11-5-3-10-5-15-5zm144-8v81h-11v-14c-4 6-9 10-15 12-5 3-11 4-17 4-12 0-22-4-30-12-8-9-12-19-12-30 0-12 4-22 13-30 8-9 17-13 29-13 7 0 13 2 18 4 5 3 10 7 14 13v-15h11zm-42 8c-6 0-11 2-16 5-5 2-9 6-12 12-3 5-4 10-4 16s1 11 4 16 7 9 12 12 10 5 16 5c5 0 11-2 16-5s9-6 12-11c2-5 4-11 4-17 0-9-3-17-9-23-7-7-14-10-23-10zm74-38h10v30h17v9h-17v72h-10v-72h-14v-9h14v-30zm111 84l9 5c-3 6-6 10-10 14-4 3-8 6-13 8-5 1-10 2-16 2-13 0-24-4-31-13-8-8-11-18-11-29 0-10 3-19 9-27 8-11 19-16 32-16 14 0 25 6 34 16 6 7 9 17 9 28h-74c1 9 4 17 9 23 6 6 14 9 22 9 4 0 8-1 12-3 4-1 7-3 10-5 3-3 6-6 9-12zm0-21c-1-6-3-10-6-14-3-3-6-6-11-8-4-2-9-3-13-3-8 0-15 3-21 8-4 4-7 9-10 17h61zm62-33h11l24 59 26-59h2l26 59 25-59h11l-35 81h-2l-26-58-25 58h-3l-34-81zm141-33c3 0 5 1 6 3 2 1 3 3 3 6 0 2-1 4-3 6-1 1-3 2-6 2-2 0-4-1-6-2-1-2-2-4-2-6 0-3 1-5 2-6 2-2 4-3 6-3zm-5 33h11v81h-11v-81zm41-30h11v30h16v9h-16v72h-11v-72h-14v-9h14v-30zm43-1h10v46c5-6 9-10 14-13 5-2 11-4 17-4s11 2 16 5 8 7 10 12c3 5 4 14 4 25v41h-11v-38c0-10 0-16-1-19-1-5-3-9-7-12-3-3-8-4-13-4-7 0-12 2-17 6s-9 9-10 16c-1 4-2 11-2 22v29h-10V539zM518 1628l51 108h-12l-17-36h-47l-17 36h-12l51-108h3zm-1 22l-19 40h37l-18-40zm65-25h10v111h-10v-111zm72 40l-6 6c-6-5-11-8-16-8-4 0-7 1-9 4-2 2-4 4-4 7s1 6 3 8 6 5 13 8c7 4 13 8 15 12 3 4 4 8 4 12 0 7-2 13-7 17-4 5-10 7-17 7-5 0-9-1-13-3s-8-5-11-8l7-8c5 6 11 9 17 9 4 0 7-1 10-4 3-2 5-6 5-9s-1-6-3-8-7-5-13-9c-8-3-12-7-15-11-3-3-4-7-4-12 0-6 2-11 6-15s10-6 16-6c7 0 15 3 22 11zm57-11c12 0 22 4 30 13 8 8 11 18 11 29s-3 21-11 29c-8 9-18 13-30 13-13 0-23-4-31-13-7-8-11-18-11-29s3-21 11-29c8-9 18-13 31-13zm0 10c-9 0-16 3-23 9-6 7-9 14-9 23 0 6 2 12 4 17 3 5 7 8 12 11s10 4 16 4c5 0 11-1 15-4 5-3 9-6 12-11 2-5 4-11 4-17 0-9-3-16-9-23-7-6-14-9-22-9zm96-8h59l-46 71h44v9h-62l46-71h-41v-9zm108-2c13 0 23 4 31 13 8 8 11 18 11 29s-4 21-11 29c-8 9-18 13-31 13-12 0-22-4-30-13-8-8-11-18-11-29s3-21 11-29c8-9 18-13 30-13zm0 10c-8 0-16 3-22 9-6 7-9 14-9 23 0 6 2 12 4 17 3 5 7 8 12 11 4 3 10 4 15 4 6 0 11-1 16-4s9-6 12-11c2-5 4-11 4-17 0-9-3-16-10-23-6-6-13-9-22-9zm99-10c13 0 23 4 31 13 8 8 11 18 11 29s-4 21-11 29c-8 9-18 13-31 13-12 0-22-4-30-13-8-8-12-18-12-29s4-21 12-29c8-9 18-13 30-13zm0 10c-8 0-16 3-22 9-6 7-9 14-9 23 0 6 1 12 4 17s7 8 12 11c4 3 10 4 15 4 6 0 11-1 16-4s9-6 11-11c3-5 5-11 5-17 0-9-3-16-10-23-6-6-13-9-22-9zm61-8h11v14c3-5 7-9 11-12 5-3 10-4 16-4 4 0 8 1 11 2 4 2 6 4 9 6 2 3 4 6 5 11 4-6 8-11 13-14 5-4 11-5 17-5 5 0 10 1 15 4 4 3 7 7 9 12s3 12 3 22v44h-10v-44c0-8-1-14-2-17-1-4-4-6-7-8-2-2-6-3-10-3-5 0-10 1-14 4s-7 7-9 12-3 13-3 25v31h-10v-41c0-10-1-16-2-20-1-3-3-6-6-8s-7-3-11-3c-5 0-9 1-13 4s-7 7-9 12-3 12-3 22v34h-11v-80zm234-30h11v30h16v9h-16v71h-11v-71h-14v-9h14v-30zm81 28c12 0 22 4 31 13 7 8 11 18 11 29s-4 21-12 29c-8 9-18 13-30 13-13 0-23-4-30-13-8-8-12-18-12-29s4-21 11-29c8-9 18-13 31-13zm0 10c-9 0-16 3-22 9-7 7-10 14-10 23 0 6 2 12 5 17 2 5 6 8 11 11s10 4 16 4c5 0 11-1 15-4 5-3 9-6 12-11s4-11 4-17c0-9-3-16-9-23-6-6-14-9-22-9zm182-39v111h-11v-14c-4 5-9 9-14 12-6 3-12 4-18 4-11 0-21-4-29-12-8-9-12-19-12-30 0-12 4-22 12-30s18-12 29-12c7 0 13 1 18 4 6 3 10 7 14 13v-46h11zm-42 39c-6 0-11 1-16 4s-8 7-11 12-5 10-5 16 2 11 5 16 7 9 11 12c5 3 11 4 16 4 6 0 11-1 16-4s9-6 12-11 4-11 4-17c0-9-3-17-9-23s-14-9-23-9zm69-41c2 0 4 1 6 2 1 2 2 4 2 6 0 3-1 5-2 6-2 2-4 3-6 3-3 0-5-1-6-3-2-1-3-3-3-6 0-2 1-4 3-6 1-1 3-2 6-2zm-6 33h11v80h-11v-80zm73 9l-7 6c-5-5-11-8-16-8-4 0-6 1-9 4-2 2-3 4-3 7s1 6 3 8 6 5 12 8c8 4 13 8 16 12 2 4 4 8 4 12 0 7-3 13-7 17-5 5-11 7-18 7-4 0-9-1-13-3s-8-5-10-8l6-8c5 6 11 9 17 9 4 0 8-1 10-4 3-2 5-6 5-9s-1-6-3-8-6-5-13-9c-7-3-12-7-15-11-2-3-4-7-4-12 0-6 2-11 7-15 4-4 9-6 15-6 8 0 15 3 23 11zm96 7l-8 6c-8-10-17-14-30-14-9 0-17 3-24 9-6 6-10 14-10 23 0 6 2 11 5 16s7 9 12 12 11 4 18 4c11 0 21-4 29-14l8 6c-4 6-9 10-16 13-6 3-14 5-22 5-13 0-23-4-32-12-8-8-12-18-12-29 0-8 2-15 6-22s9-12 16-16c7-3 14-5 23-5 5 0 10 1 15 2 5 2 9 4 13 7 3 2 6 5 9 9zm58-18c12 0 22 4 30 13 8 8 11 18 11 29s-3 21-11 29c-8 9-18 13-30 13-13 0-23-4-31-13-7-8-11-18-11-29s3-21 11-29c8-9 18-13 31-13zm0 10c-9 0-16 3-23 9-6 7-9 14-9 23 0 6 2 12 4 17 3 5 7 8 12 11s10 4 16 4c5 0 11-1 15-4 5-3 9-6 12-11 2-5 4-11 4-17 0-9-3-16-9-23-7-6-14-9-22-9zm53-8h11l27 58 27-58h11l-37 80h-2l-37-80zm159 53l9 5c-3 6-7 10-10 14-4 3-8 6-13 7-5 2-10 3-16 3-13 0-23-4-31-13-7-8-11-18-11-29 0-10 3-19 10-27 8-10 18-15 32-15 13 0 24 5 32 15 6 8 9 17 9 28h-72c0 9 3 17 9 23s13 8 21 8c4 0 8 0 12-2 4-1 7-3 10-5 3-3 6-6 9-12zm0-21c-1-6-3-10-6-13-3-4-6-6-11-8-4-2-9-3-13-3-8 0-15 2-21 7-4 4-7 9-9 17h60zm26-32h11v12c3-5 6-9 10-11 3-2 7-3 11-3 3 0 6 1 9 3l-5 8c-3-1-4-1-6-1-3 0-7 1-10 4s-5 7-7 13c-1 5-2 14-2 28v27h-11v-80zm81 0h10l25 58 25-58h2l26 58 25-58h11l-35 80h-2l-26-57-25 57h-2l-34-80zm140-33c2 0 4 1 6 2 1 2 2 4 2 6 0 3-1 5-2 6-2 2-4 3-6 3-3 0-5-1-6-3-2-1-3-3-3-6 0-2 1-4 3-6 1-1 3-2 6-2zm-5 33h10v80h-10v-80zm40-30h10v30h17v9h-17v71h-10v-71h-14v-9h14v-30zm42-1h11v45c4-5 9-9 14-12s10-4 16-4 11 1 16 4 8 8 10 13 4 13 4 24v41h-11v-38c0-9 0-16-1-19-1-5-3-9-7-12-3-2-8-4-13-4-6 0-12 2-17 7-5 4-8 9-10 15-1 4-1 11-1 22v29h-11v-111z"/></g></g></g></svg>