<?xml version="1.0" encoding="utf-8"?>
<!-- Generator: Adobe Illustrator 18.0.0, SVG Export Plug-In . SVG Version: 6.00 Build 0)  -->
<!DOCTYPE svg PUBLIC "-//W3C//DTD SVG 1.1//EN" "http://www.w3.org/Graphics/SVG/1.1/DTD/svg11.dtd">
<svg version="1.1" id="Layer_1" xmlns="http://www.w3.org/2000/svg" xmlns:xlink="http://www.w3.org/1999/xlink" x="0px" y="0px"
	 viewBox="0 0 110.7 27.4" enable-background="new 0 0 110.7 27.4" xml:space="preserve">
<polygon fill="#FFFFFF" points="89,0 110.7,13.1 89,27.4 93.8,13.7 "/>
<polygon display="none" fill="#FFFFFF" points="89,31.3 110.7,44.4 89,58.6 93.8,44.9 "/>
<g>
	<path fill="#FFFFFF" d="M0.8,4.2c0.1,0,0.1,0.1,0.2,0.2l9.6,12.9c0-0.2,0-0.4,0-0.6V4.2h0.9v14.9H11c-0.2,0-0.3-0.1-0.4-0.2L0.9,6
		c0,0.2,0,0.4,0,0.6v12.5H0V4.2h0.5C0.6,4.2,0.7,4.2,0.8,4.2z"/>
	<path fill="#FFFFFF" d="M23.1,19.1c-0.2,0-0.3-0.1-0.4-0.3l-0.1-1.3c-0.3,0.3-0.6,0.5-0.9,0.8c-0.3,0.2-0.6,0.4-0.9,0.6
		c-0.3,0.2-0.6,0.3-1,0.4c-0.4,0.1-0.7,0.1-1.2,0.1c-0.4,0-0.7-0.1-1-0.2c-0.3-0.1-0.6-0.3-0.9-0.5c-0.3-0.2-0.5-0.5-0.6-0.8
		c-0.2-0.3-0.2-0.7-0.2-1.2c0-0.4,0.1-0.9,0.4-1.2c0.3-0.4,0.6-0.7,1.2-1c0.5-0.3,1.2-0.5,2.1-0.7s1.9-0.3,3-0.3v-1.1
		c0-1-0.2-1.7-0.6-2.2c-0.4-0.5-1-0.8-1.9-0.8c-0.5,0-0.9,0.1-1.3,0.2s-0.7,0.3-0.9,0.5s-0.4,0.3-0.6,0.5c-0.2,0.1-0.3,0.2-0.4,0.2
		c-0.1,0-0.2-0.1-0.3-0.2l-0.2-0.3c0.5-0.5,1.1-1,1.7-1.2c0.6-0.3,1.3-0.4,2-0.4c0.6,0,1,0.1,1.5,0.3c0.4,0.2,0.8,0.4,1,0.8
		s0.5,0.7,0.6,1.2c0.1,0.5,0.2,1,0.2,1.6v6.8H23.1z M18.9,18.5c0.4,0,0.8,0,1.1-0.1c0.3-0.1,0.7-0.2,0.9-0.4
		c0.3-0.2,0.6-0.3,0.8-0.6c0.3-0.2,0.5-0.5,0.7-0.7V14c-1,0-1.8,0.1-2.6,0.2c-0.7,0.1-1.3,0.3-1.8,0.5s-0.8,0.5-1,0.8
		c-0.2,0.3-0.3,0.6-0.3,1c0,0.4,0.1,0.7,0.2,0.9c0.1,0.3,0.3,0.5,0.5,0.6c0.2,0.2,0.4,0.3,0.7,0.4S18.6,18.5,18.9,18.5z"/>
	<path fill="#FFFFFF" d="M31.3,19.1h-0.9L26,8.6h0.8c0.1,0,0.2,0,0.2,0.1c0.1,0.1,0.1,0.1,0.1,0.2l3.4,8.2c0.1,0.2,0.1,0.3,0.2,0.5
		c0,0.1,0.1,0.3,0.1,0.4c0-0.1,0.1-0.3,0.1-0.4c0-0.2,0.1-0.3,0.2-0.5l3.5-8.2c0-0.1,0.1-0.1,0.1-0.2c0.1,0,0.1-0.1,0.2-0.1h0.8
		L31.3,19.1z"/>
	<path fill="#FFFFFF" d="M40.4,5c0,0.1,0,0.2-0.1,0.4c-0.1,0.1-0.1,0.2-0.2,0.3S40,5.8,39.9,5.8c-0.1,0-0.2,0.1-0.4,0.1
		s-0.2,0-0.4-0.1c-0.1,0-0.2-0.1-0.3-0.2s-0.2-0.2-0.2-0.3S38.6,5.1,38.6,5s0-0.2,0.1-0.4c0-0.1,0.1-0.2,0.2-0.3s0.2-0.2,0.3-0.2
		c0.1,0,0.2-0.1,0.4-0.1s0.2,0,0.4,0.1c0.1,0,0.2,0.1,0.3,0.2s0.2,0.2,0.2,0.3C40.4,4.8,40.4,4.9,40.4,5z M40,8.6v10.4h-1V8.6H40z"
		/>
	<path fill="#FFFFFF" d="M48.2,8.4c0.5,0,0.9,0.1,1.3,0.2c0.4,0.1,0.7,0.3,1,0.5h2.7v0.3c0,0.2-0.1,0.3-0.3,0.3l-1.6,0.1
		c0.2,0.3,0.3,0.6,0.5,0.9c0.1,0.3,0.2,0.7,0.2,1.1c0,0.5-0.1,1-0.3,1.4s-0.4,0.8-0.8,1c-0.3,0.3-0.7,0.5-1.2,0.7
		c-0.5,0.2-1,0.2-1.5,0.2c-0.6,0-1.1-0.1-1.6-0.3c-0.3,0.2-0.5,0.4-0.7,0.6s-0.3,0.5-0.3,0.7c0,0.3,0.1,0.5,0.3,0.7
		c0.2,0.2,0.5,0.3,0.8,0.4c0.3,0.1,0.7,0.1,1.2,0.1s0.9,0,1.4,0.1c0.5,0,0.9,0.1,1.4,0.1s0.8,0.2,1.2,0.3c0.3,0.2,0.6,0.4,0.8,0.7
		c0.2,0.3,0.3,0.7,0.3,1.1c0,0.4-0.1,0.9-0.3,1.2s-0.5,0.8-0.9,1.1c-0.4,0.3-0.9,0.6-1.5,0.7S49,23,48.3,23c-0.7,0-1.4-0.1-1.9-0.2
		c-0.6-0.2-1-0.4-1.4-0.6c-0.4-0.3-0.7-0.6-0.8-0.9c-0.2-0.3-0.3-0.7-0.3-1.1c0-0.6,0.2-1,0.5-1.4c0.4-0.4,0.9-0.7,1.5-0.9
		c-0.3-0.1-0.6-0.3-0.8-0.5c-0.2-0.2-0.3-0.5-0.3-0.9c0-0.1,0-0.3,0.1-0.5c0.1-0.2,0.1-0.3,0.3-0.5c0.1-0.2,0.2-0.3,0.4-0.4
		s0.3-0.3,0.6-0.4c-0.5-0.3-0.9-0.7-1.2-1.1c-0.3-0.5-0.4-1-0.4-1.7c0-0.5,0.1-1,0.3-1.4c0.2-0.4,0.4-0.8,0.8-1.1s0.7-0.5,1.2-0.7
		C47.1,8.5,47.6,8.4,48.2,8.4z M52.1,19.8c0-0.3-0.1-0.6-0.3-0.8c-0.2-0.2-0.4-0.4-0.7-0.5c-0.3-0.1-0.6-0.2-1-0.2
		c-0.4,0-0.8-0.1-1.2-0.1s-0.8,0-1.2-0.1c-0.4,0-0.8-0.1-1.2-0.1c-0.3,0.1-0.5,0.2-0.7,0.4s-0.4,0.3-0.6,0.5
		c-0.2,0.2-0.3,0.4-0.4,0.6s-0.1,0.4-0.1,0.7c0,0.3,0.1,0.6,0.2,0.9c0.2,0.3,0.4,0.5,0.7,0.7c0.3,0.2,0.7,0.3,1.1,0.5
		s0.9,0.2,1.5,0.2c0.5,0,1-0.1,1.5-0.2c0.5-0.1,0.9-0.3,1.2-0.5c0.3-0.2,0.6-0.5,0.8-0.8S52.1,20.1,52.1,19.8z M48.2,14.4
		c0.4,0,0.8-0.1,1.2-0.2c0.4-0.1,0.6-0.3,0.9-0.5c0.2-0.2,0.4-0.5,0.5-0.8c0.1-0.3,0.2-0.7,0.2-1.1s-0.1-0.8-0.2-1.1
		c-0.1-0.3-0.3-0.6-0.6-0.8c-0.2-0.2-0.5-0.4-0.9-0.5s-0.7-0.2-1.2-0.2c-0.4,0-0.8,0.1-1.2,0.2c-0.4,0.1-0.6,0.3-0.9,0.5
		s-0.4,0.5-0.6,0.8c-0.1,0.3-0.2,0.7-0.2,1.1s0.1,0.7,0.2,1.1c0.1,0.3,0.3,0.6,0.6,0.8s0.5,0.4,0.9,0.5
		C47.3,14.4,47.7,14.4,48.2,14.4z"/>
	<path fill="#FFFFFF" d="M63.1,19.1c-0.2,0-0.3-0.1-0.4-0.3l-0.1-1.3c-0.3,0.3-0.6,0.5-0.9,0.8c-0.3,0.2-0.6,0.4-0.9,0.6
		c-0.3,0.2-0.6,0.3-1,0.4c-0.4,0.1-0.7,0.1-1.2,0.1c-0.4,0-0.7-0.1-1-0.2c-0.3-0.1-0.6-0.3-0.9-0.5c-0.3-0.2-0.5-0.5-0.6-0.8
		c-0.2-0.3-0.2-0.7-0.2-1.2c0-0.4,0.1-0.9,0.4-1.2c0.3-0.4,0.6-0.7,1.2-1c0.5-0.3,1.2-0.5,2.1-0.7s1.9-0.3,3-0.3v-1.1
		c0-1-0.2-1.7-0.6-2.2c-0.4-0.5-1-0.8-1.9-0.8c-0.5,0-0.9,0.1-1.3,0.2s-0.7,0.3-0.9,0.5s-0.4,0.3-0.6,0.5c-0.2,0.1-0.3,0.2-0.4,0.2
		c-0.1,0-0.2-0.1-0.3-0.2l-0.2-0.3c0.5-0.5,1.1-1,1.7-1.2c0.6-0.3,1.3-0.4,2-0.4c0.6,0,1,0.1,1.5,0.3c0.4,0.2,0.8,0.4,1,0.8
		s0.5,0.7,0.6,1.2c0.1,0.5,0.2,1,0.2,1.6v6.8H63.1z M58.9,18.5c0.4,0,0.8,0,1.1-0.1c0.3-0.1,0.7-0.2,0.9-0.4
		c0.3-0.2,0.6-0.3,0.8-0.6c0.3-0.2,0.5-0.5,0.7-0.7V14c-1,0-1.8,0.1-2.6,0.2c-0.7,0.1-1.3,0.3-1.8,0.5s-0.8,0.5-1,0.8
		c-0.2,0.3-0.3,0.6-0.3,1c0,0.4,0.1,0.7,0.2,0.9c0.1,0.3,0.3,0.5,0.5,0.6c0.2,0.2,0.4,0.3,0.7,0.4S58.6,18.5,58.9,18.5z"/>
	<path fill="#FFFFFF" d="M70.5,19.2c-0.7,0-1.3-0.2-1.6-0.6c-0.4-0.4-0.6-1-0.6-1.8V9.7h-1.5c-0.1,0-0.1,0-0.2-0.1s-0.1-0.1-0.1-0.2
		V9.1l1.8-0.1l0.2-3.7c0-0.1,0-0.1,0.1-0.2c0,0,0.1-0.1,0.2-0.1h0.5v4h3.3v0.7h-3.3v7.1c0,0.3,0,0.5,0.1,0.7s0.2,0.4,0.3,0.5
		c0.1,0.1,0.3,0.2,0.5,0.3s0.4,0.1,0.6,0.1c0.3,0,0.5,0,0.7-0.1c0.2-0.1,0.3-0.2,0.5-0.2c0.1-0.1,0.2-0.2,0.3-0.2
		c0.1-0.1,0.2-0.1,0.2-0.1c0.1,0,0.1,0,0.2,0.1l0.3,0.4c-0.3,0.3-0.6,0.5-1,0.7C71.4,19.1,70.9,19.2,70.5,19.2z"/>
	<path fill="#FFFFFF" d="M80.1,8.4c0.6,0,1.1,0.1,1.6,0.3c0.5,0.2,0.9,0.5,1.3,0.9c0.4,0.4,0.7,0.9,0.9,1.4c0.2,0.6,0.3,1.2,0.3,2
		c0,0.2,0,0.3-0.1,0.3c0,0.1-0.1,0.1-0.2,0.1h-7.5v0.2c0,0.8,0.1,1.5,0.3,2.1c0.2,0.6,0.4,1.1,0.8,1.5c0.3,0.4,0.7,0.7,1.2,0.9
		s1,0.3,1.6,0.3c0.5,0,1-0.1,1.4-0.2c0.4-0.1,0.7-0.2,1-0.4c0.3-0.1,0.5-0.3,0.6-0.4c0.2-0.1,0.3-0.2,0.3-0.2c0.1,0,0.2,0,0.2,0.1
		l0.3,0.3c-0.2,0.2-0.4,0.4-0.7,0.6s-0.6,0.3-0.9,0.5s-0.7,0.2-1.1,0.3s-0.8,0.1-1.2,0.1c-0.7,0-1.4-0.1-2-0.4s-1.1-0.6-1.5-1.1
		c-0.4-0.5-0.7-1.1-1-1.7c-0.2-0.7-0.3-1.5-0.3-2.4c0-0.7,0.1-1.4,0.3-2.1c0.2-0.6,0.5-1.2,0.9-1.6s0.9-0.8,1.5-1.1
		C78.7,8.6,79.4,8.4,80.1,8.4z M80.1,9.2c-0.5,0-1,0.1-1.4,0.3c-0.4,0.2-0.8,0.4-1.1,0.7c-0.3,0.3-0.6,0.7-0.8,1.1
		c-0.2,0.4-0.3,0.9-0.4,1.5h6.9c0-0.6-0.1-1.1-0.2-1.5c-0.2-0.4-0.4-0.8-0.7-1.1c-0.3-0.3-0.6-0.5-1-0.7S80.6,9.2,80.1,9.2z"/>
</g>
<text transform="matrix(1 0 0 1 26.5727 50.3289)" display="none" fill="#FFFFFF" font-family="'Lato-Light'" font-size="21" letter-spacing="1">Zoom</text>
</svg>
