<?xml version="1.0" encoding="utf-8"?>
<!-- Generator: Adobe Illustrator 18.0.0, SVG Export Plug-In . SVG Version: 6.00 Build 0)  -->
<!DOCTYPE svg PUBLIC "-//W3C//DTD SVG 1.1//EN" "http://www.w3.org/Graphics/SVG/1.1/DTD/svg11.dtd">
<svg version="1.1" id="Layer_1" xmlns="http://www.w3.org/2000/svg" xmlns:xlink="http://www.w3.org/1999/xlink" x="0px" y="0px"
	 viewBox="0 0 55.4 65.9" enable-background="new 0 0 55.4 65.9" xml:space="preserve">
<polygon fill="#FFFFFF" points="15.2,21.7 28.3,0 42.5,21.7 28.9,16.9 "/>
<polygon display="none" fill="#FFFFFF" points="25.9,-30.6 47.6,-17.4 25.9,-3.2 30.7,-16.9 "/>
<text transform="matrix(1 0 0 1 -36.4976 -11.475)" display="none" fill="#FFFFFF" font-family="'Lato-Light'" font-size="21" letter-spacing="1">Zoom</text>
<g>
	<g>
		<path fill="#FFFFFF" d="M14.2,35.3c0,0.7-0.1,1.5-0.2,2.1s-0.4,1.3-0.6,1.8c-0.3,0.6-0.6,1.1-1,1.5s-0.9,0.8-1.4,1.1l3.9,4.1h-0.9
			c-0.1,0-0.3,0-0.4-0.1c-0.1,0-0.2-0.1-0.3-0.2L10,42.4c-0.4,0.2-0.9,0.3-1.4,0.4c-0.5,0.1-1,0.1-1.6,0.1c-1,0-2-0.2-2.9-0.5
			C3.3,42,2.6,41.5,2,40.9c-0.6-0.7-1.1-1.5-1.5-2.4c-0.3-0.9-0.5-2-0.5-3.1c0-1.1,0.2-2.2,0.5-3.1c0.3-0.9,0.8-1.7,1.5-2.4
			c0.6-0.7,1.4-1.2,2.2-1.5s1.8-0.5,2.9-0.5c1.1,0,2,0.2,2.9,0.5c0.9,0.4,1.6,0.9,2.2,1.5s1.1,1.5,1.4,2.4
			C14,33.2,14.2,34.2,14.2,35.3z M13.1,35.3c0-1-0.1-2-0.4-2.8c-0.3-0.8-0.7-1.5-1.2-2.1c-0.5-0.6-1.2-1-1.9-1.3
			c-0.7-0.3-1.6-0.5-2.4-0.5c-0.9,0-1.7,0.2-2.4,0.5s-1.4,0.7-1.9,1.3c-0.5,0.6-0.9,1.3-1.2,2.1c-0.3,0.8-0.4,1.8-0.4,2.8
			c0,1,0.1,2,0.4,2.8c0.3,0.8,0.7,1.5,1.2,2.1c0.5,0.6,1.2,1,1.9,1.3S6.2,42,7.1,42c0.9,0,1.7-0.2,2.4-0.5c0.7-0.3,1.4-0.7,1.9-1.3
			c0.5-0.6,0.9-1.3,1.2-2.1C12.9,37.3,13.1,36.4,13.1,35.3z"/>
		<path fill="#FFFFFF" d="M18.9,32.3V39c0,1,0.2,1.7,0.7,2.3s1.1,0.8,2.1,0.8c0.7,0,1.3-0.2,1.9-0.5c0.6-0.3,1.1-0.8,1.6-1.4v-7.9h1
			v10.4h-0.5c-0.2,0-0.3-0.1-0.3-0.3l-0.1-1.6c-0.5,0.6-1,1.1-1.7,1.4c-0.6,0.4-1.3,0.5-2.1,0.5c-0.6,0-1.1-0.1-1.5-0.3
			c-0.4-0.2-0.8-0.4-1.1-0.8c-0.3-0.3-0.5-0.8-0.7-1.2c-0.1-0.5-0.2-1-0.2-1.6v-6.7H18.9z"/>
		<path fill="#FFFFFF" d="M32.4,28.7c0,0.1,0,0.2-0.1,0.4c-0.1,0.1-0.1,0.2-0.2,0.3s-0.2,0.2-0.3,0.2c-0.1,0-0.2,0.1-0.4,0.1
			s-0.2,0-0.4-0.1c-0.1,0-0.2-0.1-0.3-0.2s-0.2-0.2-0.2-0.3s-0.1-0.2-0.1-0.4s0-0.2,0.1-0.4c0-0.1,0.1-0.2,0.2-0.3s0.2-0.2,0.3-0.2
			c0.1,0,0.2-0.1,0.4-0.1s0.2,0,0.4,0.1c0.1,0,0.2,0.1,0.3,0.2s0.2,0.2,0.2,0.3C32.3,28.5,32.4,28.6,32.4,28.7z M31.9,32.3v10.4h-1
			V32.3H31.9z"/>
		<path fill="#FFFFFF" d="M43.5,33.7C43.5,33.8,43.5,33.8,43.5,33.7c-0.1,0.1-0.2,0.1-0.2,0.1c-0.1,0-0.2,0-0.3-0.1
			c-0.1-0.1-0.3-0.2-0.5-0.3c-0.2-0.1-0.5-0.2-0.8-0.3c-0.3-0.1-0.7-0.1-1.1-0.1c-0.6,0-1.1,0.1-1.6,0.3c-0.5,0.2-0.9,0.5-1.2,0.9
			c-0.3,0.4-0.6,0.9-0.7,1.4c-0.2,0.6-0.3,1.2-0.3,1.9c0,0.7,0.1,1.4,0.3,2c0.2,0.6,0.4,1,0.7,1.4c0.3,0.4,0.7,0.7,1.1,0.9
			c0.4,0.2,0.9,0.3,1.5,0.3c0.5,0,0.9-0.1,1.3-0.2c0.3-0.1,0.6-0.2,0.8-0.4c0.2-0.1,0.4-0.3,0.5-0.4c0.1-0.1,0.2-0.2,0.3-0.2
			c0.1,0,0.2,0,0.2,0.1l0.3,0.3c-0.2,0.2-0.4,0.4-0.6,0.6s-0.5,0.3-0.8,0.5c-0.3,0.1-0.6,0.2-1,0.3s-0.7,0.1-1.1,0.1
			c-0.7,0-1.3-0.1-1.8-0.4c-0.5-0.2-1-0.6-1.4-1c-0.4-0.5-0.7-1-0.9-1.7s-0.3-1.4-0.3-2.3c0-0.8,0.1-1.5,0.3-2.2
			c0.2-0.7,0.5-1.2,0.9-1.7c0.4-0.5,0.9-0.8,1.5-1.1c0.6-0.3,1.3-0.4,2-0.4c0.7,0,1.3,0.1,1.8,0.3c0.5,0.2,1,0.5,1.4,0.9L43.5,33.7z
			"/>
		<path fill="#FFFFFF" d="M48.4,27.5v9.3h0.5c0.1,0,0.2,0,0.3,0c0.1,0,0.2-0.1,0.3-0.2l4.2-4c0.1-0.1,0.2-0.1,0.2-0.2
			c0.1,0,0.2-0.1,0.3-0.1H55l-4.6,4.4c-0.1,0.1-0.1,0.1-0.2,0.2C50.2,37,50.1,37,50,37.1c0.1,0.1,0.2,0.1,0.3,0.2
			c0.1,0.1,0.2,0.2,0.2,0.3l4.8,5.3h-0.9c-0.1,0-0.2,0-0.3-0.1s-0.2-0.1-0.2-0.2l-4.4-4.7c-0.1-0.1-0.2-0.2-0.3-0.3
			c-0.1,0-0.3-0.1-0.5-0.1h-0.5v5.3h-1V27.5H48.4z"/>
		<path fill="#FFFFFF" d="M10.4,50.5v15.3h-1V50.5H10.4z"/>
		<path fill="#FFFFFF" d="M16.9,51.7c0,0.1,0,0.2-0.1,0.4c-0.1,0.1-0.1,0.2-0.2,0.3s-0.2,0.2-0.3,0.2c-0.1,0-0.2,0.1-0.4,0.1
			s-0.2,0-0.4-0.1c-0.1,0-0.2-0.1-0.3-0.2s-0.2-0.2-0.2-0.3S15,51.9,15,51.7s0-0.2,0.1-0.4c0-0.1,0.1-0.2,0.2-0.3s0.2-0.2,0.3-0.2
			c0.1,0,0.2-0.1,0.4-0.1s0.2,0,0.4,0.1c0.1,0,0.2,0.1,0.3,0.2s0.2,0.2,0.2,0.3C16.8,51.5,16.9,51.6,16.9,51.7z M16.4,55.3v10.4h-1
			V55.3H16.4z"/>
		<path fill="#FFFFFF" d="M21.2,65.8V55.3h0.5c0.2,0,0.3,0.1,0.3,0.3l0.1,1.6c0.5-0.6,1-1.1,1.7-1.5c0.6-0.4,1.3-0.6,2.1-0.6
			c0.6,0,1.1,0.1,1.5,0.3c0.4,0.2,0.8,0.4,1.1,0.8c0.3,0.3,0.5,0.8,0.7,1.2c0.1,0.5,0.2,1,0.2,1.6v6.7h-1v-6.7c0-1-0.2-1.7-0.7-2.3
			c-0.4-0.6-1.1-0.8-2.1-0.8c-0.7,0-1.3,0.2-1.9,0.5s-1.1,0.8-1.6,1.5v7.8H21.2z"/>
		<path fill="#FFFFFF" d="M34.7,50.5v9.3h0.5c0.1,0,0.2,0,0.3,0c0.1,0,0.2-0.1,0.3-0.2l4.2-4c0.1-0.1,0.2-0.1,0.2-0.2
			c0.1,0,0.2-0.1,0.3-0.1h0.9l-4.6,4.4c-0.1,0.1-0.1,0.1-0.2,0.2c-0.1,0.1-0.1,0.1-0.2,0.2c0.1,0.1,0.2,0.1,0.3,0.2
			c0.1,0.1,0.2,0.2,0.2,0.3l4.8,5.3h-0.9c-0.1,0-0.2,0-0.3-0.1s-0.2-0.1-0.2-0.2L36,60.8c-0.1-0.1-0.2-0.2-0.3-0.3
			c-0.1,0-0.3-0.1-0.5-0.1h-0.5v5.3h-1V50.5H34.7z"/>
		<path fill="#FFFFFF" d="M50.7,56.6c0,0.1-0.1,0.1-0.2,0.1c-0.1,0-0.2,0-0.3-0.1c-0.1-0.1-0.3-0.2-0.5-0.3
			c-0.2-0.1-0.4-0.2-0.7-0.3c-0.3-0.1-0.6-0.1-1.1-0.1c-0.4,0-0.7,0.1-1,0.2s-0.6,0.3-0.8,0.4s-0.4,0.4-0.5,0.6
			c-0.1,0.2-0.2,0.5-0.2,0.8c0,0.3,0.1,0.6,0.3,0.8c0.2,0.2,0.4,0.4,0.7,0.6c0.3,0.2,0.6,0.3,0.9,0.4c0.3,0.1,0.7,0.2,1.1,0.3
			c0.4,0.1,0.7,0.2,1.1,0.4c0.3,0.1,0.7,0.3,0.9,0.5c0.3,0.2,0.5,0.5,0.7,0.7c0.2,0.3,0.3,0.7,0.3,1.1c0,0.5-0.1,0.9-0.2,1.3
			c-0.2,0.4-0.4,0.7-0.7,1s-0.7,0.5-1.1,0.7c-0.5,0.2-1,0.3-1.6,0.3c-0.7,0-1.4-0.1-1.9-0.4s-1-0.5-1.4-0.9l0.2-0.4
			c0-0.1,0.1-0.1,0.1-0.1c0,0,0.1,0,0.2,0c0.1,0,0.2,0.1,0.3,0.2c0.1,0.1,0.3,0.2,0.5,0.4c0.2,0.1,0.5,0.3,0.8,0.4
			c0.3,0.1,0.7,0.2,1.2,0.2c0.4,0,0.8-0.1,1.2-0.2c0.3-0.1,0.6-0.3,0.8-0.5c0.2-0.2,0.4-0.5,0.5-0.7c0.1-0.3,0.2-0.6,0.2-0.9
			c0-0.3-0.1-0.6-0.3-0.9c-0.2-0.2-0.4-0.4-0.7-0.6c-0.3-0.2-0.6-0.3-0.9-0.4c-0.3-0.1-0.7-0.2-1.1-0.3c-0.4-0.1-0.7-0.2-1.1-0.4
			c-0.3-0.1-0.7-0.3-0.9-0.5c-0.3-0.2-0.5-0.5-0.7-0.7c-0.2-0.3-0.3-0.7-0.3-1.1c0-0.4,0.1-0.7,0.2-1.1c0.2-0.3,0.4-0.6,0.7-0.9
			c0.3-0.3,0.7-0.5,1.1-0.6s0.9-0.2,1.4-0.2c0.6,0,1.2,0.1,1.7,0.3c0.5,0.2,0.9,0.5,1.4,0.8L50.7,56.6z"/>
	</g>
</g>
</svg>
