<?xml version="1.0" encoding="utf-8"?>
<!-- Generator: Adobe Illustrator 18.0.0, SVG Export Plug-In . SVG Version: 6.00 Build 0)  -->
<!DOCTYPE svg PUBLIC "-//W3C//DTD SVG 1.1//EN" "http://www.w3.org/Graphics/SVG/1.1/DTD/svg11.dtd">
<svg version="1.1" id="Layer_1" xmlns="http://www.w3.org/2000/svg" xmlns:xlink="http://www.w3.org/1999/xlink" x="0px" y="0px"
	 viewBox="0 0 79.8 27.4" enable-background="new 0 0 79.8 27.4" xml:space="preserve">
<polygon fill="#FFFFFF" points="58.1,0 79.8,13.1 58.1,27.4 62.9,13.7 "/>
<polygon display="none" fill="#FFFFFF" points="58.1,8.3 79.8,21.4 58.1,35.7 62.9,22 "/>
<text transform="matrix(1 0 0 1 -4.3013 27.375)" display="none" fill="#FFFFFF" font-family="'Lato-Light'" font-size="21" letter-spacing="1">Zoom</text>
<g>
	<g>
		<path fill="#FFFFFF" d="M11,5.5v0.4c0,0.1,0,0.3-0.1,0.4L1.4,19.5h9.5v0.9H0V20c0-0.1,0-0.3,0.1-0.4L9.6,6.4H0.3V5.5H11z"/>
		<path fill="#FFFFFF" d="M18.3,9.8c0.7,0,1.4,0.1,2,0.4c0.6,0.3,1.1,0.6,1.5,1.1c0.4,0.5,0.7,1,0.9,1.7c0.2,0.7,0.3,1.4,0.3,2.2
			s-0.1,1.6-0.3,2.2c-0.2,0.7-0.5,1.2-0.9,1.7c-0.4,0.5-0.9,0.8-1.5,1.1c-0.6,0.3-1.3,0.4-2,0.4s-1.4-0.1-2-0.4
			c-0.6-0.3-1.1-0.6-1.5-1.1c-0.4-0.5-0.7-1-0.9-1.7c-0.2-0.7-0.3-1.4-0.3-2.2s0.1-1.6,0.3-2.2c0.2-0.7,0.5-1.2,0.9-1.7
			c0.4-0.5,0.9-0.8,1.5-1.1C16.9,9.9,17.5,9.8,18.3,9.8z M18.3,19.7c0.6,0,1.2-0.1,1.6-0.3c0.5-0.2,0.9-0.5,1.2-0.9s0.5-0.9,0.7-1.4
			c0.2-0.6,0.2-1.2,0.2-1.9c0-0.7-0.1-1.3-0.2-1.9c-0.2-0.6-0.4-1.1-0.7-1.5c-0.3-0.4-0.7-0.7-1.2-0.9c-0.5-0.2-1-0.3-1.6-0.3
			s-1.2,0.1-1.6,0.3s-0.9,0.5-1.2,0.9c-0.3,0.4-0.5,0.9-0.7,1.5c-0.2,0.6-0.2,1.2-0.2,1.9c0,0.7,0.1,1.3,0.2,1.9
			c0.2,0.6,0.4,1,0.7,1.4s0.7,0.7,1.2,0.9S17.7,19.7,18.3,19.7z"/>
		<path fill="#FFFFFF" d="M30.7,9.8c0.7,0,1.4,0.1,2,0.4c0.6,0.3,1.1,0.6,1.5,1.1c0.4,0.5,0.7,1,0.9,1.7c0.2,0.7,0.3,1.4,0.3,2.2
			s-0.1,1.6-0.3,2.2c-0.2,0.7-0.5,1.2-0.9,1.7c-0.4,0.5-0.9,0.8-1.5,1.1c-0.6,0.3-1.3,0.4-2,0.4s-1.4-0.1-2-0.4
			c-0.6-0.3-1.1-0.6-1.5-1.1c-0.4-0.5-0.7-1-0.9-1.7c-0.2-0.7-0.3-1.4-0.3-2.2s0.1-1.6,0.3-2.2c0.2-0.7,0.5-1.2,0.9-1.7
			c0.4-0.5,0.9-0.8,1.5-1.1C29.3,9.9,30,9.8,30.7,9.8z M30.7,19.7c0.6,0,1.2-0.1,1.6-0.3c0.5-0.2,0.9-0.5,1.2-0.9s0.5-0.9,0.7-1.4
			c0.2-0.6,0.2-1.2,0.2-1.9c0-0.7-0.1-1.3-0.2-1.9c-0.2-0.6-0.4-1.1-0.7-1.5c-0.3-0.4-0.7-0.7-1.2-0.9c-0.5-0.2-1-0.3-1.6-0.3
			s-1.2,0.1-1.6,0.3s-0.9,0.5-1.2,0.9c-0.3,0.4-0.5,0.9-0.7,1.5C27,13.8,27,14.5,27,15.1c0,0.7,0.1,1.3,0.2,1.9
			c0.2,0.6,0.4,1,0.7,1.4s0.7,0.7,1.2,0.9S30.1,19.7,30.7,19.7z"/>
		<path fill="#FFFFFF" d="M39.1,20.4V9.9h0.5c0.2,0,0.3,0.1,0.3,0.3l0.1,1.5c0.2-0.3,0.4-0.5,0.7-0.8c0.2-0.2,0.5-0.4,0.7-0.6
			S42,10,42.3,9.9c0.3-0.1,0.6-0.1,0.9-0.1c0.8,0,1.4,0.2,1.8,0.7c0.5,0.4,0.8,1.1,0.9,1.9c0.1-0.4,0.3-0.8,0.5-1.1
			c0.2-0.3,0.5-0.6,0.8-0.8c0.3-0.2,0.6-0.4,1-0.5c0.3-0.1,0.7-0.2,1.1-0.2c0.5,0,1,0.1,1.4,0.3c0.4,0.2,0.8,0.4,1.1,0.8
			s0.5,0.7,0.7,1.2c0.2,0.5,0.2,1,0.2,1.7v6.7h-1v-6.7c0-1-0.2-1.8-0.7-2.3c-0.4-0.5-1.1-0.8-1.9-0.8c-0.4,0-0.7,0.1-1,0.2
			c-0.3,0.1-0.6,0.3-0.9,0.6c-0.3,0.3-0.5,0.6-0.6,1s-0.2,0.8-0.2,1.4v6.7h-1v-6.7c0-1-0.2-1.8-0.6-2.3c-0.4-0.5-1-0.8-1.8-0.8
			c-0.6,0-1.1,0.2-1.6,0.5c-0.5,0.3-0.9,0.8-1.3,1.4v7.9H39.1z"/>
	</g>
</g>
</svg>
