<?xml version="1.0" encoding="UTF-8"?>
<!DOCTYPE svg PUBLIC "-//W3C//DTD SVG 1.1//EN" "http://www.w3.org/Graphics/SVG/1.1/DTD/svg11.dtd">
<!-- Creator: CorelDRAW X7 -->
<svg xmlns="http://www.w3.org/2000/svg" xml:space="preserve" width="100%" height="100%" version="1.1" style="shape-rendering:geometricPrecision; text-rendering:geometricPrecision; image-rendering:optimizeQuality; fill-rule:evenodd; clip-rule:evenodd"
viewBox="0 0 267 267"
 xmlns:xlink="http://www.w3.org/1999/xlink">
 <defs>
  <style type="text/css">
   <![CDATA[
    .fil1 {fill:#FD2928}
    .fil2 {fill:#AB0000;fill-rule:nonzero}
    .fil0 {fill:url(#id0)}
    .fil3 {fill:url(#id1)}
   ]]>
  </style>
  <linearGradient id="id0" gradientUnits="userSpaceOnUse" x1="259.795" y1="254.39" x2="6.8622" y2="12.2677">
   <stop offset="0" style="stop-opacity:1; stop-color:#C30001"/>
   <stop offset="0.631373" style="stop-opacity:1; stop-color:#E02A28"/>
   <stop offset="1" style="stop-opacity:1; stop-color:#FE5550"/>
  </linearGradient>
  <radialGradient id="id1" gradientUnits="userSpaceOnUse" gradientTransform="matrix(1.56726 -0.909779 0.909875 1.5671 -207 46)" cx="138.555" cy="141.169" r="17.9016" fx="138.555" fy="141.169">
   <stop offset="0" style="stop-opacity:1; stop-color:#D1D1D1"/>
   <stop offset="0.301961" style="stop-opacity:1; stop-color:#E8E8E8"/>
   <stop offset="1" style="stop-opacity:1; stop-color:#FEFEFE"/>
  </radialGradient>
 </defs>
 <g id="Layer_x0020_1">
  <metadata id="CorelCorpID_0Corel-Layer"/>
  <g id="_2237581771952">
   <path class="fil0" d="M27 18c69,-23 141,-23 215,0 4,1 7,4 8,8 21,69 17,141 0,216 -1,4 -4,6 -8,7 -66,22 -137,22 -215,0 -4,-1 -7,-3 -8,-7 -20,-70 -24,-142 0,-216 1,-4 4,-7 8,-8z"/>
   <circle class="fil1" cx="133" cy="133" r="131"/>
   <path class="fil2" d="M133 -1c37,0 71,15 95,39 25,25 40,58 40,95 0,37 -15,71 -40,95 -24,25 -58,40 -95,40 -37,0 -70,-15 -95,-40 -24,-24 -39,-58 -39,-95 0,-37 15,-70 39,-95 25,-24 58,-39 95,-39zm91 44c-24,-23 -55,-37 -91,-37 -35,0 -67,14 -90,37 -23,23 -37,55 -37,90 0,36 14,67 37,91 23,23 55,37 90,37 36,0 67,-14 91,-37 23,-24 37,-55 37,-91 0,-35 -14,-67 -37,-90z"/>
   <circle class="fil3" cx="133" cy="133" r="19"/>
  </g>
 </g>
</svg>
